<svg width="200" height="36" viewBox="0 0 200 36" fill="none" xmlns="http://www.w3.org/2000/svg">
<g id="Group 5">
<path id="Vector" d="M57.899 30.4712C56.8945 31.2899 56.1446 31.9435 55.3603 32.5421C50.7919 35.9959 45.7764 36.7596 40.5888 34.3859C35.3118 31.9779 32.4427 27.6847 32.2845 21.7885C32.1263 15.8922 34.7889 11.5096 39.8939 8.7507C48.7967 3.94151 59.9492 10.1061 60.6235 20.2129C60.8849 24.1483 60.768 28.1113 60.6648 32.0605C60.6442 32.8792 59.908 33.6773 59.5021 34.4822C59.1031 33.7392 58.6696 33.0168 58.3256 32.2462C58.133 31.8128 58.0985 31.3105 57.9059 30.4643L57.899 30.4712ZM46.368 33.1888C52.8834 33.2094 58.2155 27.9806 58.2637 21.5202C58.3118 15.0047 53.0967 9.70704 46.5882 9.66576C39.9145 9.62448 34.7889 14.6538 34.727 21.3C34.6719 27.8636 39.8594 33.1681 46.3611 33.1888H46.368Z" fill="#1E1E1E"/>
<path id="Vector_2" d="M119.579 30.3816C116.875 33.8423 113.758 35.8376 109.486 35.5899C104.855 35.3216 100.363 31.9572 99.9225 27.3406C99.3652 21.5476 99.5647 15.672 99.5371 9.83769C99.5371 9.3492 100.246 8.8607 100.624 8.36534C101.051 8.98454 101.842 9.59688 101.856 10.223C101.973 15.039 101.87 19.8551 101.98 24.6643C102.083 29.212 105.062 32.6314 109.128 33.1199C113.999 33.7116 118.203 30.0789 118.361 24.9601C118.499 20.5775 118.395 16.188 118.409 11.8054C118.409 11.1174 118.292 10.3812 118.506 9.75509C118.684 9.21844 119.255 8.81253 119.654 8.35156C120.047 8.81941 120.748 9.27349 120.769 9.76197C120.9 12.2526 120.852 14.7432 120.858 17.2406C120.865 19.8207 120.817 22.4007 120.879 24.9807C120.989 29.5422 124.443 33.0718 128.812 33.1681C133.284 33.2644 137.02 29.7762 137.171 25.139C137.309 20.9284 137.219 16.7109 137.24 12.5003C137.24 11.7297 137.123 10.9178 137.322 10.1885C137.494 9.55557 138.031 9.01894 138.403 8.44101C138.781 9.00517 139.462 9.55556 139.49 10.1404C139.62 12.803 139.565 15.4725 139.572 18.1351C139.572 20.1991 139.586 22.2631 139.572 24.3272C139.538 29.5767 137.082 33.3607 132.665 35.0188C128.392 36.615 124.016 35.3422 120.618 31.5168C120.336 31.2003 120.047 30.8976 119.572 30.3816H119.579Z" fill="#1E1E1E"/>
<path id="Vector_3" d="M198.961 26.5766C197.234 31.3239 193.712 34.2204 188.861 35.3556C180.97 37.1995 173.319 31.9912 171.805 23.9897C170.368 16.3803 175.493 8.76407 182.951 7.42245C191.221 5.93635 198.569 11.1515 199.904 19.325C200.289 21.6574 199.539 22.4348 197.255 22.4073C190.822 22.3316 184.389 22.3798 177.956 22.3935C176.855 22.3935 175.755 22.483 173.959 22.5656C174.612 24.4232 174.901 26.1088 175.734 27.4435C180.474 35.0667 190.423 35.1699 195.734 27.7806C196.354 26.9206 197.337 26.3358 198.156 25.6203C198.425 25.9368 198.693 26.2601 198.961 26.5766ZM197.014 19.6002C197.014 14.0548 191.682 9.56901 185.504 9.67222C179.697 9.76166 174.461 14.447 174.613 19.6002H197.014Z" fill="#1E1E1E"/>
<path id="Vector_4" d="M69.4578 12.1631C70.0701 11.6264 70.6824 11.076 71.3016 10.5463C76.1658 6.39068 83.7065 6.03292 88.7839 9.72753C94.1091 13.601 96.2419 20.5774 93.8889 26.4668C91.2745 33.0098 85.041 36.5393 77.9614 35.4797C72.0308 34.5922 66.7677 29.1982 66.4306 22.9579C66.0728 16.2705 66.2242 9.54865 66.2586 2.84743C66.2586 2.22134 67.0429 1.60212 67.4626 0.98291C67.8823 1.60212 68.6322 2.20758 68.6597 2.84054C68.7905 5.83339 68.7147 8.82623 68.7147 11.8259C68.9555 11.9429 69.2032 12.053 69.444 12.17L69.4578 12.1631ZM80.3764 33.1886C86.9193 33.2506 92.2239 28.0768 92.2858 21.5751C92.3477 14.9702 87.2428 9.72067 80.6999 9.66563C74.1294 9.61059 68.8454 14.7294 68.756 21.2448C68.6665 27.7327 73.916 33.1268 80.3764 33.1818V33.1886Z" fill="#1E1E1E"/>
<path id="Vector_5" d="M27.9089 24.5745C27.1039 31.3376 20.279 36.2087 12.7316 35.5826C5.6451 34.9978 -0.161685 28.4067 0.00343668 21.1206C0.175438 13.4631 6.45007 7.29855 14.1145 7.24351C21.1734 7.19535 27.503 12.2453 27.8195 18.2241C26.1133 19.1529 25.6385 17.9421 25.0675 16.7036C22.7489 11.7293 17.9329 9.03233 12.7453 9.74098C7.64033 10.4428 3.67047 14.2819 2.70726 19.4626C1.64773 25.1662 5.11522 30.7734 10.8945 32.7136C16.1096 34.4612 22.3429 31.7642 24.8197 26.7211C25.4045 25.5308 25.5561 23.6525 27.9022 24.5676L27.9089 24.5745Z" fill="#1E1E1E"/>
<path id="Vector_6" d="M168.531 9.61084C168.139 9.67276 167.891 9.74844 167.643 9.74156C159.428 9.56268 155.775 13.0921 155.768 21.2451C155.768 24.9397 155.83 28.6343 155.699 32.322C155.672 33.0513 154.915 33.76 154.495 34.4755C154.11 33.8219 153.401 33.1752 153.395 32.5215C153.34 27.6298 153.195 22.7174 153.532 17.8463C153.979 11.3033 160.13 6.52167 166.652 7.24408C168.001 7.39544 169.074 7.68441 168.531 9.61084Z" fill="#1E1E1E"/>
<path id="Vector_7" d="M145.359 21.3411C145.359 17.7428 145.29 14.1377 145.413 10.5463C145.441 9.80321 146.177 9.08769 146.583 8.3584C147.024 9.06017 147.849 9.75506 147.856 10.4637C147.952 17.7428 147.952 25.0289 147.863 32.3149C147.856 33.0442 147.078 33.7597 146.659 34.4753C146.225 33.6909 145.441 32.9272 145.413 32.1291C145.276 28.5377 145.352 24.9325 145.359 21.3342V21.3411Z" fill="#1E1E1E"/>
</g>
</svg>
