<svg width="24" height="24" viewBox="0 0 24 24" fill="none" xmlns="http://www.w3.org/2000/svg">
<g clip-path="url(#clip0_168_499)">
<path d="M18.4384 15.7133L13.341 17.9235C13.3165 17.5368 13.145 17.1741 12.8616 16.9097C12.5782 16.6454 12.2045 16.4995 11.817 16.5019H8.5065C8.13958 16.5337 7.7704 16.4766 7.43025 16.3354C6.28238 15.7681 5.02911 15.4457 3.75 15.3885V14.625C3.75 14.5255 3.71049 14.4302 3.64016 14.3598C3.56984 14.2895 3.47446 14.25 3.375 14.25H1.125C1.02554 14.25 0.930161 14.2895 0.859835 14.3598C0.789509 14.4302 0.75 14.5255 0.75 14.625V22.875C0.75 22.9745 0.789509 23.0698 0.859835 23.1402C0.930161 23.2105 1.02554 23.25 1.125 23.25H3.375C3.47446 23.25 3.56984 23.2105 3.64016 23.1402C3.71049 23.0698 3.75 22.9745 3.75 22.875V22.2836C3.75 22.2836 10.1625 22.875 10.2938 22.875C10.6869 22.877 11.0722 22.7657 11.4037 22.5544L19.6717 17.931C19.9325 17.7629 20.1221 17.5045 20.2041 17.2052C20.2861 16.906 20.2547 16.5871 20.1161 16.3095C19.9663 16.014 19.7086 15.7873 19.3963 15.6764C19.084 15.5655 18.7411 15.5784 18.4384 15.7133ZM3 22.5H1.5V15H3V22.5ZM19.284 17.289L11.0164 21.9124C10.7238 22.1007 10.3693 22.1674 10.0282 22.0984L3.75 21.5306V16.1404C4.90306 16.1967 6.03266 16.4867 7.07025 16.9928C7.51986 17.1976 8.01365 17.2866 8.5065 17.2515H11.817C12.0165 17.2515 12.2078 17.3308 12.3489 17.4718C12.49 17.6129 12.5693 17.8042 12.5693 18.0037C12.5693 18.2033 12.49 18.3946 12.3489 18.5357C12.2078 18.6767 12.0165 18.756 11.817 18.756H7.812C7.71254 18.756 7.61716 18.7955 7.54683 18.8658C7.47651 18.9362 7.437 19.0315 7.437 19.131C7.437 19.2305 7.47651 19.3258 7.54683 19.3962C7.61716 19.4665 7.71254 19.506 7.812 19.506H11.817C12.0628 19.5065 12.3051 19.4478 12.5235 19.335C12.7419 19.2221 12.9299 19.0584 13.0718 18.8576L18.7388 16.4003C18.8659 16.3442 19.0095 16.3384 19.1408 16.3841C19.272 16.4297 19.3811 16.5234 19.446 16.6462C19.5008 16.755 19.5146 16.8798 19.4848 16.9978C19.4551 17.1159 19.3838 17.2192 19.284 17.289ZM22.875 0.75H21.375C21.2755 0.75 21.1802 0.789509 21.1098 0.859835C21.0395 0.930161 21 1.02554 21 1.125V1.5H15.156C14.8194 1.49906 14.4859 1.5649 14.1748 1.6937C13.8638 1.8225 13.5814 2.01171 13.344 2.25038L9.96975 5.625H4.125C4.02554 5.625 3.93016 5.66451 3.85984 5.73484C3.78951 5.80516 3.75 5.90054 3.75 6V13.125C3.75 13.2245 3.78951 13.3198 3.85984 13.3902C3.93016 13.4605 4.02554 13.5 4.125 13.5H18.375C18.4745 13.5 18.5698 13.4605 18.6402 13.3902C18.7105 13.3198 18.75 13.2245 18.75 13.125V10.3245C19.5571 10.027 20.3154 9.6111 21 9.09037V9.375C21 9.47446 21.0395 9.56984 21.1098 9.64017C21.1802 9.71049 21.2755 9.75 21.375 9.75H22.875C22.9745 9.75 23.0698 9.71049 23.1402 9.64017C23.2105 9.56984 23.25 9.47446 23.25 9.375V1.125C23.25 1.02554 23.2105 0.930161 23.1402 0.859835C23.0698 0.789509 22.9745 0.75 22.875 0.75ZM4.5 12.75V6.375H12.9382L12.4534 6.85987C12.3749 6.93988 12.3062 7.02887 12.2486 7.125H6.75C6.65054 7.125 6.55516 7.16451 6.48483 7.23483C6.41451 7.30516 6.375 7.40054 6.375 7.5C6.3748 7.69885 6.29572 7.8895 6.15511 8.03011C6.0145 8.17072 5.82385 8.2498 5.625 8.25C5.52554 8.25 5.43016 8.28951 5.35984 8.35983C5.28951 8.43016 5.25 8.52554 5.25 8.625V10.5C5.25 10.5995 5.28951 10.6948 5.35984 10.7652C5.43016 10.8355 5.52554 10.875 5.625 10.875C5.82385 10.8752 6.0145 10.9543 6.15511 11.0949C6.29572 11.2355 6.3748 11.4261 6.375 11.625C6.375 11.7245 6.41451 11.8198 6.48483 11.8902C6.55516 11.9605 6.65054 12 6.75 12H15.75C15.8495 12 15.9448 11.9605 16.0152 11.8902C16.0855 11.8198 16.125 11.7245 16.125 11.625C16.1252 11.4261 16.2043 11.2355 16.3449 11.0949C16.4855 10.9543 16.6761 10.8752 16.875 10.875C16.9745 10.875 17.0698 10.8355 17.1402 10.7652C17.2105 10.6948 17.25 10.5995 17.25 10.5V8.625C17.25 8.52554 17.2105 8.43016 17.1402 8.35983C17.0698 8.28951 16.9745 8.25 16.875 8.25C16.6761 8.2498 16.4855 8.17072 16.3449 8.03011C16.2043 7.8895 16.1252 7.69885 16.125 7.5C16.1233 7.4319 16.1025 7.36564 16.065 7.30875L17.2523 6.12188C17.4865 6.23531 17.7403 6.30278 18 6.32062V12.75H4.5ZM15.4425 7.93125C15.5165 8.1778 15.6526 8.40119 15.8378 8.58C16.023 8.75881 16.251 8.88703 16.5 8.95237V10.1726C16.2408 10.2401 16.0042 10.3755 15.8148 10.5649C15.6253 10.7543 15.4898 10.9908 15.4222 11.25H7.07775C7.01019 10.9908 6.8747 10.7543 6.68525 10.5649C6.49579 10.3755 6.25924 10.2401 6 10.1726V8.95237C6.25924 8.88491 6.49579 8.74949 6.68525 8.56011C6.8747 8.37072 7.01019 8.13422 7.07775 7.875H12.0338C12.031 8.06388 12.0668 8.25133 12.1391 8.42587C12.2113 8.60042 12.3184 8.7584 12.4537 8.89013C12.7233 9.15883 13.0883 9.30972 13.4689 9.30972C13.8494 9.30972 14.2145 9.15883 14.484 8.89013L15.4425 7.93125ZM18.75 9.51937V6.228C18.9466 6.1674 19.1356 6.08435 19.3132 5.9805C19.3558 5.95578 19.3932 5.92291 19.4231 5.88377C19.4529 5.84463 19.4748 5.79998 19.4875 5.75238C19.5001 5.70478 19.5033 5.65515 19.4967 5.60634C19.4902 5.55752 19.4741 5.51047 19.4494 5.46788C19.4247 5.42528 19.3918 5.38797 19.3526 5.35807C19.3135 5.32818 19.2689 5.30628 19.2213 5.29364C19.1737 5.281 19.124 5.27786 19.0752 5.2844C19.0264 5.29094 18.9793 5.30703 18.9368 5.33175C18.7109 5.49085 18.4418 5.57703 18.1655 5.5787C17.8893 5.58038 17.6191 5.49747 17.3914 5.34113C17.3193 5.29464 17.2335 5.27423 17.1482 5.28331C17.0629 5.29238 16.9833 5.33039 16.9226 5.391L13.9534 8.35987C13.8235 8.4823 13.6511 8.54931 13.4727 8.54668C13.2943 8.54405 13.1239 8.47198 12.9977 8.34578C12.8716 8.21957 12.7996 8.04916 12.797 7.87074C12.7944 7.69231 12.8615 7.5199 12.984 7.39013L15.609 4.76512C15.6793 4.69476 15.7188 4.59934 15.7188 4.49987C15.7187 4.40039 15.6792 4.305 15.6088 4.23469C15.5384 4.16437 15.443 4.12489 15.3436 4.12492C15.2441 4.12496 15.1487 4.16451 15.0784 4.23488L13.6882 5.625H11.0302L13.8746 2.78062C14.0425 2.61189 14.2422 2.47811 14.4622 2.38703C14.6821 2.29595 14.9179 2.24938 15.156 2.25H21V8.097C20.3443 8.70609 19.5814 9.18836 18.75 9.51937ZM22.5 9H21.75V1.5H22.5V9Z" fill="black"/>
</g>
<defs>
<clipPath id="clip0_168_499">
<rect width="24" height="24" fill="white"/>
</clipPath>
</defs>
</svg>
