<svg width="25" height="20" viewBox="0 0 25 20" fill="none" xmlns="http://www.w3.org/2000/svg">
<path d="M13.8706 13.5419H6.57716C6.52308 13.5418 6.46984 13.5552 6.42216 13.5807C6.37449 13.6062 6.33386 13.6431 6.30389 13.6881C6.27392 13.7332 6.25554 13.7849 6.25039 13.8387C6.24523 13.8925 6.25346 13.9468 6.27434 13.9967L7.20983 16.2331C7.23482 16.2927 7.27689 16.3437 7.33075 16.3796C7.38462 16.4154 7.44789 16.4346 7.5126 16.4346H12.9352C12.9999 16.4346 13.0632 16.4154 13.117 16.3796C13.1709 16.3437 13.213 16.2927 13.238 16.2331L14.1734 13.9966C14.1943 13.9468 14.2025 13.8925 14.1973 13.8387C14.1921 13.7849 14.1738 13.7332 14.1438 13.6882C14.1138 13.6432 14.0732 13.6063 14.0255 13.5807C13.9779 13.5552 13.9246 13.5419 13.8706 13.5419ZM12.7168 15.7781H7.73103L7.0701 14.1983H13.3777L12.7168 15.7781ZM5.108 12.947L2.65119 12.3823C2.60309 12.3712 2.55312 12.3712 2.505 12.3821C2.45687 12.393 2.41183 12.4147 2.37322 12.4454C2.33461 12.4761 2.30343 12.5152 2.282 12.5596C2.26057 12.6041 2.24943 12.6528 2.24942 12.7021V13.603C2.24943 13.6705 2.2702 13.7363 2.30891 13.7915C2.34763 13.8467 2.40241 13.8886 2.4658 13.9116L4.90803 14.7966C4.95729 14.8144 5.0101 14.8202 5.06205 14.8134C5.114 14.8067 5.16358 14.7876 5.20665 14.7578C5.24972 14.728 5.28502 14.6883 5.30962 14.642C5.33422 14.5958 5.3474 14.5443 5.34805 14.4919L5.36267 13.2708C5.36356 13.1959 5.33879 13.1229 5.29246 13.064C5.24613 13.0051 5.18104 12.9638 5.108 12.947ZM4.69724 14.0219L2.90586 13.3728V13.1143L4.70314 13.5274L4.69724 14.0219ZM22.3772 5.96405H22.0774C22.5062 5.56397 22.8146 4.9846 22.9243 4.31939C23.2034 4.0561 23.4073 3.6451 23.5454 3.06802C23.5471 3.06113 23.5485 3.0541 23.5498 3.04706C23.6782 2.29688 23.5235 1.62305 23.1024 1.09847C22.6104 0.48558 21.7668 0.106924 20.7882 0.0595335C19.2252 -0.0166384 18.1647 0.904549 17.8063 1.85246C17.4675 2.74838 17.7041 3.65325 18.4373 4.29778C18.5439 4.97194 18.8542 5.55966 19.2879 5.96405H18.876C17.9205 5.96405 17.1117 6.60178 16.8522 7.47357L16.4243 6.82725C16.0838 6.31331 15.5357 6.01856 14.9203 6.01856H12.7818C12.89 5.6174 12.9447 5.20369 12.9445 4.78819C12.9445 2.18063 10.8224 0.0591583 8.21417 0.0591583C5.60661 0.0591583 3.48519 2.18063 3.48519 4.78819C3.48519 5.54381 3.66364 6.25842 3.98014 6.89264L2.6937 8.83421H1.33264C0.88058 8.83421 0.512798 9.2026 0.512798 9.65541C0.512798 10.1075 0.880626 10.4753 1.33264 10.4753H1.59913L0.93322 11.4592L0.933548 11.4594C0.892382 11.52 0.872695 11.5926 0.877626 11.6657L1.28872 17.6059V18.5712C1.28872 19.2907 1.87405 19.876 2.59358 19.876H4.3183C5.03778 19.876 5.62311 19.2907 5.62311 18.5712V17.9228H14.8246V18.5712C14.8246 19.2907 15.41 19.876 16.1295 19.876H17.8542C18.0353 19.876 18.2107 19.8384 18.3718 19.7686C18.4025 19.8024 18.4399 19.8294 18.4816 19.8479C18.5234 19.8664 18.5685 19.876 18.6142 19.876H22.5738C22.6609 19.876 22.7443 19.8414 22.8059 19.7799C22.8675 19.7183 22.902 19.6348 22.902 19.5478V13.5037C23.8236 13.2677 24.4872 12.4352 24.4872 11.4597V8.07408C24.4873 6.9106 23.5407 5.96405 22.3772 5.96405ZM20.4724 6.52725C20.5418 6.53494 20.612 6.53944 20.6831 6.53944C20.7537 6.53944 20.8235 6.53499 20.8925 6.52735L21.1036 8.80332L20.683 9.38818L20.2624 8.80327L20.4724 6.52725ZM18.4203 2.08458C18.6834 1.38849 19.4568 0.711471 20.6084 0.711471C20.657 0.711471 20.7063 0.712643 20.7562 0.715127C21.5475 0.753424 22.2162 1.04292 22.5905 1.50933C22.8931 1.88621 22.9987 2.36274 22.9046 2.92585C22.8948 2.96599 22.8846 3.00599 22.8737 3.04585C22.7771 2.51878 22.586 2.11533 22.2979 1.82503C22.2661 1.79317 22.2281 1.76814 22.1863 1.7515C22.1445 1.73485 22.0997 1.72693 22.0548 1.72824C22.0098 1.72964 21.9656 1.74027 21.9249 1.75948C21.8841 1.77869 21.8478 1.80606 21.8181 1.83989C21.3474 2.37675 20.6964 2.41716 20.0668 2.45621C19.5104 2.49075 18.9849 2.52338 18.6566 2.91872C18.5705 3.02236 18.5057 3.14424 18.4619 3.28556C18.2793 2.91928 18.2613 2.50496 18.4203 2.08458ZM19.0527 3.77963C19.0527 3.73589 19.0527 3.69464 19.0548 3.65752V3.65433C19.0682 3.51375 19.1037 3.40777 19.1616 3.33811C19.3087 3.16097 19.6789 3.13796 20.1075 3.11138C20.7019 3.07449 21.421 3.02981 22.0245 2.54775C22.2198 2.9003 22.3068 3.42052 22.2899 4.12383C22.1848 4.94513 21.7101 5.60747 21.0943 5.81503C21.0897 5.81641 21.0851 5.8179 21.0805 5.81949C20.9522 5.86151 20.818 5.88297 20.683 5.8831C20.5437 5.8831 20.4083 5.86032 20.2791 5.81766C20.2772 5.81705 20.2753 5.81635 20.2734 5.81578C19.5721 5.58071 19.0527 4.75702 19.0527 3.77963ZM17.5406 13.1153V13.3728L15.75 14.022L15.7436 13.5275L17.5406 13.1153ZM15.3386 12.947C15.2654 12.9637 15.2003 13.0051 15.1539 13.0641C15.1075 13.123 15.0828 13.1961 15.0838 13.2712L15.0997 14.4923C15.1008 14.5786 15.1358 14.661 15.1973 14.7216C15.2587 14.7822 15.3416 14.8162 15.4279 14.8162C15.4655 14.8162 15.5034 14.8096 15.5398 14.7965L17.9807 13.9115C18.0441 13.8885 18.0988 13.8466 18.1375 13.7914C18.1762 13.7362 18.197 13.6704 18.197 13.603V13.4565C18.2264 13.4666 18.256 13.4761 18.286 13.4849V17.2664H1.92322L1.55675 11.9714H16.8286C16.8807 12.1751 16.9629 12.3699 17.0725 12.5493L15.3386 12.947ZM8.21413 0.715549C10.4605 0.715549 12.288 2.5425 12.288 4.78814C12.288 7.03378 10.4605 8.86074 8.21413 8.86074C5.96853 8.86074 4.14158 7.03378 4.14158 4.78814C4.14158 2.5425 5.96853 0.715549 8.21413 0.715549ZM8.21413 9.51717C10.1518 9.51717 11.8209 8.34614 12.5512 6.67496H14.9203C15.3174 6.67496 15.6572 6.85777 15.8771 7.18964L16.7646 8.53027V11.3149H1.82342L2.49111 10.3282L4.35388 7.51678C5.21131 8.72625 6.62206 9.51717 8.21413 9.51717ZM1.16919 9.65532C1.16919 9.56602 1.24405 9.49055 1.3326 9.49055H2.25875L2.0413 9.81872H1.33264C1.24405 9.81872 1.16919 9.74391 1.16919 9.65532ZM4.96667 18.5712C4.96667 18.9287 4.67581 19.2196 4.3183 19.2196H2.59358C2.23602 19.2196 1.94516 18.9287 1.94516 18.5712V17.9228H4.96667V18.5712ZM16.1295 19.2196C15.7719 19.2196 15.4811 18.9287 15.4811 18.5712V17.9228H18.286V19.0521C18.1678 19.159 18.0155 19.2196 17.8542 19.2196H16.1295ZM22.2456 19.2196H20.9755L20.9289 15.3397C20.9267 15.1585 20.7799 15.0145 20.5968 15.0155C20.5097 15.0165 20.4267 15.0521 20.3659 15.1144C20.3051 15.1767 20.2715 15.2605 20.2725 15.3476L20.319 19.2196H18.9425V12.8098H22.2456V19.2196H22.2456ZM23.8308 11.4597C23.8308 12.0725 23.4505 12.603 22.9021 12.8152V9.5198C22.9021 9.43275 22.8675 9.34927 22.8059 9.28771C22.7444 9.22616 22.6609 9.19158 22.5739 9.19158C22.4868 9.19158 22.4033 9.22616 22.3418 9.28771C22.2802 9.34927 22.2456 9.43275 22.2456 9.5198V12.1534H18.9425V9.5198C18.9425 9.43275 18.9079 9.34927 18.8463 9.28771C18.7848 9.22616 18.7013 9.19158 18.6142 9.19158C18.5272 9.19158 18.4437 9.22616 18.3821 9.28771C18.3206 9.34927 18.286 9.43275 18.286 9.5198V12.7871C17.7738 12.5577 17.421 12.0407 17.421 11.4598V8.07413C17.421 7.27257 18.0737 6.62049 18.876 6.62049H19.8047L19.5976 8.86514C19.5903 8.94392 19.6117 9.02267 19.6579 9.08691L20.4166 10.1419C20.447 10.1842 20.4871 10.2186 20.5334 10.2423C20.5797 10.2661 20.631 10.2785 20.6831 10.2785C20.7352 10.2785 20.7865 10.2661 20.8328 10.2423C20.8792 10.2186 20.9192 10.1842 20.9496 10.1419L21.7084 9.08691C21.7546 9.02264 21.776 8.94383 21.7687 8.865L21.5605 6.62049H22.3773C23.1789 6.62049 23.831 7.27257 23.831 8.07413V11.4597H23.8308ZM9.21847 6.06291C9.30519 5.964 9.35488 5.82141 9.35488 5.67169C9.35488 5.41552 9.2127 5.11631 8.81206 5.11631H7.61624C6.82963 5.11631 6.41802 4.50666 6.41802 3.90446C6.41802 3.59344 6.52414 3.30094 6.71675 3.08081C6.93584 2.8305 7.25525 2.69264 7.61619 2.69264H7.88591V2.02833C7.88591 1.94128 7.92049 1.8578 7.98204 1.79624C8.04359 1.73469 8.12708 1.70011 8.21413 1.70011C8.30118 1.70011 8.38466 1.73469 8.44621 1.79624C8.50777 1.8578 8.54235 1.94128 8.54235 2.02833V2.69269H9.68375C9.7708 2.69269 9.85428 2.72727 9.91584 2.78882C9.97739 2.85038 10.012 2.93386 10.012 3.02091C10.012 3.10796 9.97739 3.19144 9.91584 3.25299C9.85428 3.31455 9.7708 3.34913 9.68375 3.34913H7.61624C7.44242 3.34913 7.30602 3.40435 7.21072 3.51319C7.12414 3.61214 7.0745 3.75478 7.0745 3.90455C7.0745 4.16077 7.21635 4.45997 7.61628 4.45997H8.81211C9.59942 4.45997 10.0113 5.06963 10.0113 5.67178C10.0113 5.98289 9.9051 6.27544 9.7122 6.49557C9.49292 6.74578 9.17328 6.8836 8.81211 6.8836H8.54239V7.54796C8.54239 7.635 8.50781 7.71849 8.44626 7.78004C8.38471 7.84159 8.30122 7.87617 8.21417 7.87617C8.12712 7.87617 8.04364 7.84159 7.98209 7.78004C7.92054 7.71849 7.88595 7.635 7.88595 7.54796V6.88355H6.74595C6.65891 6.88355 6.57542 6.84897 6.51387 6.78742C6.45232 6.72586 6.41774 6.64238 6.41774 6.55533C6.41774 6.46828 6.45232 6.3848 6.51387 6.32325C6.57542 6.26169 6.65891 6.22711 6.74595 6.22711H8.81211C8.98625 6.22711 9.12299 6.17185 9.21847 6.06291Z" fill="white"/>
</svg>
