<svg width="124" height="125" viewBox="0 0 124 125" fill="none" xmlns="http://www.w3.org/2000/svg">
<g id="Group 2">
<g id="Group 1">
<g id="Vector" filter="url(#filter0_d_243_757)">
<path d="M100.354 4.98291H23.6457C12.7957 4.98291 4 13.7786 4 24.6285V101.337C4 112.187 12.7957 120.983 23.6457 120.983H100.354C111.204 120.983 120 112.187 120 101.337V24.6285C120 13.7786 111.204 4.98291 100.354 4.98291Z" fill="white"/>
</g>
<path id="Vector_2" d="M111.821 57.7778L84.5456 97.1063C82.181 100.519 77.2213 100.742 74.5518 97.5598L65.8295 87.1496L58.5126 97.1806C55.8431 100.832 50.3777 100.787 47.7826 97.0839L33.751 77.1111L21.1472 76.7617C15.1019 76.5906 11.6962 69.7496 15.1985 64.827C16.0462 63.6373 16.8938 62.4475 17.7341 61.2578C19.7344 58.4544 21.7272 55.6511 23.7275 52.8403C26.0623 49.5537 28.4046 46.267 30.7395 42.9878C32.5315 40.4744 34.3311 37.9611 36.1083 35.4404C37.417 33.5963 38.6959 31.2093 41.0159 30.5178C43.098 29.8932 45.3287 30.2575 47.4628 30.2501C51.0692 30.2352 54.6682 30.2203 58.2746 30.198C61.5018 30.1831 64.729 30.1683 67.9487 30.1534C68.8113 30.1534 69.659 30.027 70.4695 30.3542C70.8562 30.5103 71.228 30.6962 71.5849 30.9119C72.5813 31.5216 73.429 32.3768 73.9123 33.4475C74.6188 35.0091 74.7006 37.2696 73.7339 38.7419C73.0647 39.7606 72.3657 40.7719 71.689 41.7832C70.1275 44.1255 68.5659 46.4603 67.0118 48.8027L66.4839 49.5983H52.3557L58.3044 39.9316H47.1506L28.5608 66.7009H40.4582L46.407 57.7778H60.5352L47.8941 75.6239L53.0993 83.8034L71.689 57.7778H85.8172L73.1762 76.3675L79.1249 84.547L97.7147 57.7778H111.843H111.821Z" fill="#FE8428"/>
</g>
</g>
<defs>
<filter id="filter0_d_243_757" x="0" y="0.98291" width="124" height="124" filterUnits="userSpaceOnUse" color-interpolation-filters="sRGB">
<feFlood flood-opacity="0" result="BackgroundImageFix"/>
<feColorMatrix in="SourceAlpha" type="matrix" values="0 0 0 0 0 0 0 0 0 0 0 0 0 0 0 0 0 0 127 0" result="hardAlpha"/>
<feOffset/>
<feGaussianBlur stdDeviation="2"/>
<feComposite in2="hardAlpha" operator="out"/>
<feColorMatrix type="matrix" values="0 0 0 0 0.0117647 0 0 0 0 0.247059 0 0 0 0 0.811765 0 0 0 0.3 0"/>
<feBlend mode="normal" in2="BackgroundImageFix" result="effect1_dropShadow_243_757"/>
<feBlend mode="normal" in="SourceGraphic" in2="effect1_dropShadow_243_757" result="shape"/>
</filter>
</defs>
</svg>
