<svg width="24" height="24" viewBox="0 0 24 24" fill="none" xmlns="http://www.w3.org/2000/svg">
<g id="Frame" clip-path="url(#clip0_289_11658)">
<g id="Group">
<path id="Vector" d="M5.471 13.5397C4.70426 13.427 3.93225 13.3538 3.158 13.3202C2.8185 13.2992 2.371 13.4762 2.2935 14.3322C2.27904 14.5475 2.29981 14.7637 2.355 14.9722C2.40642 15.19 2.52236 15.3872 2.68766 15.5381C2.85296 15.6889 3.05992 15.7864 3.2815 15.8177L6.591 16.2837C6.60753 16.2865 6.62425 16.2878 6.641 16.2877C6.70564 16.2878 6.76921 16.2711 6.82552 16.2394C6.88183 16.2076 6.92897 16.1619 6.96238 16.1065C6.99579 16.0512 7.01432 15.9881 7.01618 15.9235C7.01804 15.8589 7.00317 15.7949 6.973 15.7377C5.8845 13.6672 5.6055 13.5812 5.471 13.5397ZM3.386 15.0752C3.3133 15.0641 3.24561 15.0314 3.19168 14.9814C3.13775 14.9314 3.10006 14.8664 3.0835 14.7947C3.04862 14.6663 3.03411 14.5332 3.0405 14.4002C3.04169 14.2864 3.06744 14.1742 3.116 14.0712H3.1265C3.9815 14.1247 4.943 14.2022 5.2035 14.2482C5.48501 14.6249 5.73677 15.023 5.9565 15.4387L3.386 15.0752ZM20.8415 13.3202C20.0673 13.3538 19.2952 13.427 18.5285 13.5397C18.394 13.5812 18.1145 13.6672 17.0245 15.7397C16.9943 15.7969 16.9795 15.8609 16.9813 15.9255C16.9832 15.9901 17.0017 16.0532 17.0351 16.1085C17.0685 16.1639 17.1157 16.2096 17.172 16.2414C17.2283 16.2731 17.2919 16.2898 17.3565 16.2897C17.3732 16.2898 17.39 16.2885 17.4065 16.2857L20.716 15.8197C20.9376 15.7884 21.1445 15.6909 21.3098 15.5401C21.4751 15.3892 21.5911 15.192 21.6425 14.9742C21.6975 14.7656 21.7183 14.5495 21.704 14.3342C21.628 13.4762 21.178 13.2997 20.8415 13.3202ZM20.916 14.7947C20.8994 14.8664 20.8617 14.9314 20.8078 14.9814C20.7539 15.0314 20.6862 15.0641 20.6135 15.0752L18.043 15.4372C18.2629 15.0216 18.5144 14.6236 18.7955 14.2467C19.0605 14.2002 20.023 14.1227 20.8775 14.0697C20.932 14.1713 20.9601 14.285 20.959 14.4002C20.9654 14.5332 20.9509 14.6663 20.916 14.7947ZM17.191 13.8887C17.1532 13.8348 17.1019 13.7917 17.0423 13.7638C16.9826 13.7359 16.9166 13.7241 16.851 13.7297C16.8165 13.7327 13.372 14.0297 12.001 14.0297C10.63 14.0297 7.185 13.7297 7.151 13.7297C7.08534 13.7239 7.01931 13.7356 6.9596 13.7635C6.89988 13.7914 6.84858 13.8346 6.81089 13.8886C6.7732 13.9427 6.75045 14.0058 6.74494 14.0715C6.73943 14.1371 6.75135 14.2031 6.7795 14.2627L7.767 16.3582C7.79588 16.4191 7.84057 16.4712 7.89642 16.5089C7.95227 16.5466 8.01722 16.5687 8.0845 16.5727L11.999 16.7967L15.9195 16.5727C15.9868 16.5688 16.0518 16.5468 16.1077 16.509C16.1635 16.4713 16.2082 16.4192 16.237 16.3582L17.2245 14.2627C17.2524 14.203 17.264 14.1369 17.2582 14.0712C17.2523 14.0055 17.2291 13.9426 17.191 13.8887ZM15.652 15.8387L12 16.0497L8.35 15.8387L7.7345 14.5327C8.814 14.6207 10.954 14.7827 12.0015 14.7827C13.049 14.7827 15.1895 14.6207 16.2695 14.5327L15.652 15.8387ZM14.1555 2.49672L14.7085 2.70372C14.8893 2.77132 15.0535 2.8769 15.1901 3.01335C15.3266 3.14981 15.4323 3.31395 15.5 3.49472L15.707 4.04972C15.734 4.12068 15.7819 4.18174 15.8444 4.22483C15.907 4.26792 15.9811 4.29099 16.057 4.29099C16.1329 4.29099 16.207 4.26792 16.2695 4.22483C16.3321 4.18174 16.38 4.12068 16.407 4.04972L16.614 3.49672C16.6818 3.31609 16.7875 3.15204 16.9239 3.01561C17.0603 2.87918 17.2244 2.77352 17.405 2.70572L17.958 2.49872C18.029 2.47171 18.09 2.42378 18.1331 2.36127C18.1762 2.29877 18.1993 2.22464 18.1993 2.14872C18.1993 2.0728 18.1762 1.99868 18.1331 1.93617C18.09 1.87367 18.029 1.82573 17.958 1.79872L17.405 1.59172C17.2242 1.52401 17.0601 1.41833 16.9236 1.28179C16.7872 1.14525 16.6816 0.981035 16.614 0.800223L16.409 0.243223C16.382 0.172271 16.3341 0.111203 16.2716 0.0681149C16.209 0.0250267 16.1349 0.00195313 16.059 0.00195313C15.9831 0.00195312 15.909 0.0250267 15.8464 0.0681149C15.7839 0.111203 15.736 0.172271 15.709 0.243223L15.5 0.796223C15.4324 0.977035 15.3268 1.14125 15.1904 1.27779C15.0539 1.41433 14.8898 1.52001 14.709 1.58772L14.156 1.79472C14.085 1.82173 14.024 1.86967 13.9809 1.93217C13.9378 1.99468 13.9147 2.0688 13.9147 2.14472C13.9147 2.22064 13.9378 2.29477 13.9809 2.35727C14.024 2.41978 14.085 2.46771 14.156 2.49472L14.1555 2.49672ZM16.058 1.36622C16.2435 1.69089 16.5125 1.96003 16.837 2.14572C16.5123 2.33128 16.2434 2.60045 16.058 2.92522C15.8722 2.60061 15.6031 2.3315 15.2785 2.14572C15.6031 1.95994 15.8722 1.69084 16.058 1.36622ZM18.3715 4.82422L18.7905 4.98122C18.9154 5.02809 19.0287 5.10116 19.123 5.19552C19.2173 5.28987 19.2902 5.40331 19.337 5.52822L19.494 5.94722C19.5208 6.01878 19.5687 6.08046 19.6315 6.12401C19.6943 6.16756 19.7689 6.19089 19.8452 6.19089C19.9216 6.19089 19.9962 6.16756 20.059 6.12401C20.1218 6.08046 20.1697 6.01878 20.1965 5.94722L20.353 5.52822C20.3998 5.40328 20.4729 5.28982 20.5672 5.19547C20.6616 5.10111 20.7751 5.02806 20.9 4.98122L21.319 4.82422C21.3897 4.79701 21.4506 4.749 21.4935 4.68652C21.5364 4.62404 21.5594 4.55002 21.5594 4.47422C21.5594 4.39843 21.5364 4.32441 21.4935 4.26193C21.4506 4.19945 21.3897 4.15144 21.319 4.12422L20.9 3.96522C20.7751 3.91872 20.6618 3.84588 20.5676 3.75167C20.4733 3.65746 20.4005 3.54408 20.354 3.41922L20.1965 2.99972C20.1697 2.92816 20.1218 2.86648 20.059 2.82294C19.9962 2.77939 19.9216 2.75606 19.8452 2.75606C19.7689 2.75606 19.6943 2.77939 19.6315 2.82294C19.5687 2.86648 19.5208 2.92816 19.494 2.99972L19.337 3.41922C19.2902 3.54407 19.2173 3.65745 19.123 3.75172C19.0287 3.84599 18.9153 3.91896 18.7905 3.96572L18.371 4.12272C18.3 4.14973 18.239 4.19767 18.1959 4.26017C18.1528 4.32268 18.1297 4.3968 18.1297 4.47272C18.1297 4.54864 18.1528 4.62277 18.1959 4.68527C18.239 4.74778 18.3 4.79572 18.371 4.82272L18.3715 4.82422ZM19.845 4.04972C19.9591 4.21434 20.1019 4.3571 20.2665 4.47122C20.1022 4.58556 19.9595 4.7281 19.845 4.89222C19.7308 4.72801 19.5882 4.58545 19.424 4.47122C19.5885 4.35709 19.7311 4.21432 19.845 4.04972ZM20.714 2.49672L21.133 2.65372C21.2578 2.70043 21.3711 2.77332 21.4654 2.8675C21.5597 2.96169 21.6327 3.07497 21.6795 3.19972L21.8365 3.61872C21.8633 3.69028 21.9112 3.75196 21.974 3.79551C22.0368 3.83906 22.1114 3.86239 22.1877 3.86239C22.2641 3.86239 22.3387 3.83906 22.4015 3.79551C22.4643 3.75196 22.5122 3.69028 22.539 3.61872L22.696 3.19972C22.7426 3.07489 22.8155 2.96151 22.9097 2.86724C23.0039 2.77296 23.1172 2.69999 23.242 2.65322L23.6615 2.49622C23.7325 2.46921 23.7935 2.42128 23.8366 2.35877C23.8797 2.29627 23.9028 2.22214 23.9028 2.14622C23.9028 2.0703 23.8797 1.99618 23.8366 1.93367C23.7935 1.87117 23.7325 1.82323 23.6615 1.79622L23.2425 1.63872C23.1177 1.59204 23.0044 1.51915 22.9103 1.42496C22.8161 1.33077 22.7432 1.21748 22.6965 1.09272L22.5395 0.673223C22.5127 0.601664 22.4648 0.539983 22.402 0.496437C22.3392 0.452891 22.2646 0.429556 22.1882 0.429556C22.1119 0.429556 22.0373 0.452891 21.9745 0.496437C21.9117 0.539983 21.8638 0.601664 21.837 0.673223L21.68 1.09272C21.6332 1.21751 21.5603 1.33082 21.466 1.42501C21.3717 1.5192 21.2583 1.59208 21.1335 1.63872L20.714 1.79622C20.643 1.82323 20.582 1.87117 20.5389 1.93367C20.4958 1.99618 20.4727 2.0703 20.4727 2.14622C20.4727 2.22214 20.4958 2.29627 20.5389 2.35877C20.582 2.42128 20.643 2.46971 20.714 2.49672ZM22.1875 1.72472C22.302 1.88873 22.4445 2.03125 22.6085 2.14572C22.4445 2.2602 22.302 2.40272 22.1875 2.56672C22.0733 2.40251 21.9307 2.25995 21.7665 2.14572C21.9306 2.03137 22.0731 1.88883 22.1875 1.72472ZM22.9055 21.1852C22.806 21.1852 22.7107 21.2247 22.6403 21.2951C22.57 21.3654 22.5305 21.4608 22.5305 21.5602V23.1172C22.5305 23.1524 22.5165 23.1861 22.4917 23.2109C22.4668 23.2358 22.4331 23.2497 22.398 23.2497H20.45C20.4149 23.2497 20.3812 23.2358 20.3563 23.2109C20.3315 23.1861 20.3175 23.1524 20.3175 23.1172V22.4752C20.3175 22.3758 20.278 22.2804 20.2077 22.2101C20.1373 22.1397 20.042 22.1002 19.9425 22.1002C19.843 22.1002 19.7477 22.1397 19.6773 22.2101C19.607 22.2804 19.5675 22.3758 19.5675 22.4752V23.1172C19.5678 23.3512 19.6608 23.5755 19.8263 23.741C19.9917 23.9064 20.216 23.9995 20.45 23.9997H22.4C22.634 23.9995 22.8583 23.9064 23.0237 23.741C23.1892 23.5755 23.2822 23.3512 23.2825 23.1172V21.5602C23.2825 21.5108 23.2727 21.4619 23.2538 21.4163C23.2348 21.3706 23.207 21.3292 23.172 21.2944C23.1369 21.2595 23.0953 21.2319 23.0496 21.2132C23.0039 21.1945 22.9549 21.185 22.9055 21.1852ZM4.031 22.0997C3.93154 22.0997 3.83616 22.1392 3.76583 22.2096C3.69551 22.2799 3.656 22.3753 3.656 22.4747V23.1167C3.656 23.1518 3.64211 23.1854 3.61737 23.2102C3.59263 23.2351 3.55905 23.2491 3.524 23.2492H1.574C1.53894 23.2491 1.50537 23.2351 1.48063 23.2102C1.45589 23.1854 1.442 23.1518 1.442 23.1167V21.5602C1.442 21.4608 1.40249 21.3654 1.33216 21.2951C1.26184 21.2247 1.16646 21.1852 1.067 21.1852C0.967543 21.1852 0.872161 21.2247 0.801834 21.2951C0.731508 21.3654 0.691999 21.4608 0.691999 21.5602V23.1172C0.692131 23.351 0.784945 23.5751 0.950093 23.7406C1.11524 23.906 1.33925 23.9992 1.573 23.9997H3.523C3.75693 23.9995 3.98119 23.9064 4.14655 23.7409C4.31192 23.5755 4.40487 23.3512 4.405 23.1172V22.4752C4.40513 22.3759 4.36582 22.2805 4.29569 22.2101C4.22557 22.1397 4.13037 22.1 4.031 22.0997Z" fill="#1E1E1E"/>
<path id="Vector_2" d="M23.2145 9.42787L21.9645 9.21187C21.7819 9.17818 21.5932 9.2077 21.4296 9.2956C21.266 9.38349 21.1372 9.52449 21.0645 9.69537L20.997 9.84538L20.111 7.75537C19.9107 7.27616 19.5911 6.8562 19.1825 6.53551C18.7739 6.21483 18.2901 6.00409 17.777 5.92337C15.8652 5.63314 13.9337 5.49171 12 5.50037C10.0663 5.49188 8.13481 5.63347 6.223 5.92387C5.70997 6.00454 5.22614 6.2152 4.81759 6.5358C4.40903 6.8564 4.08935 7.27625 3.889 7.75537L3 9.84737L2.937 9.70037C2.86484 9.52876 2.73639 9.38683 2.57281 9.29795C2.40922 9.20907 2.22025 9.17853 2.037 9.21138L0.786999 9.42787C0.584145 9.46151 0.399821 9.56607 0.266864 9.72293C0.133907 9.87979 0.060953 10.0788 0.0609989 10.2844V10.5299C0.0611862 10.7278 0.12871 10.9198 0.252472 11.0743C0.376233 11.2287 0.548868 11.3365 0.741999 11.3799L1.929 11.6479L1.403 12.4504C0.94723 13.1438 0.704731 13.9556 0.705499 14.7854V19.0504C0.705499 20.6599 1.8265 21.7004 3.5625 21.7004H20.4375C22.1735 21.7004 23.2945 20.6604 23.2945 19.0504V14.7834C23.2953 13.9536 23.0528 13.1418 22.597 12.4484L22.071 11.6484L23.254 11.3814C23.4477 11.3385 23.621 11.231 23.7454 11.0765C23.8699 10.922 23.938 10.7297 23.9385 10.5314V10.2859C23.9391 10.0803 23.8666 9.88112 23.734 9.72397C23.6014 9.56682 23.4173 9.46189 23.2145 9.42787ZM0.903499 10.6459C0.87718 10.64 0.853667 10.6252 0.836849 10.6041C0.82003 10.5831 0.810911 10.5569 0.810999 10.5299V10.2844C0.810592 10.256 0.820521 10.2285 0.838927 10.207C0.857333 10.1855 0.882955 10.1714 0.910999 10.1674L2.1665 9.95037C2.18411 9.9472 2.20227 9.95052 2.21763 9.95972C2.23298 9.96891 2.24448 9.98335 2.25 10.0004L2.5565 10.6934L2.3695 10.9784L0.903499 10.6459ZM22.5445 17.8854H2.406C2.30654 17.8854 2.21116 17.9249 2.14083 17.9952C2.07051 18.0655 2.031 18.1609 2.031 18.2604C2.031 18.3598 2.07051 18.4552 2.14083 18.5255C2.21116 18.5959 2.30654 18.6354 2.406 18.6354H22.5445V19.0504C22.5445 20.2394 21.757 20.9504 20.4375 20.9504H3.5625C2.243 20.9504 1.4555 20.2399 1.4555 19.0504V14.7834C1.45497 14.0997 1.6547 13.4308 2.03 12.8594L3.212 11.0564H19.5725C19.672 11.0564 19.7673 11.0169 19.8377 10.9465C19.908 10.8762 19.9475 10.7808 19.9475 10.6814C19.9475 10.5819 19.908 10.4865 19.8377 10.4162C19.7673 10.3459 19.672 10.3064 19.5725 10.3064H3.6215L4.5795 8.05037C4.73028 7.68841 4.97132 7.37114 5.27961 7.12885C5.5879 6.88656 5.95316 6.72733 6.3405 6.66637C8.21335 6.38109 10.1056 6.24201 12 6.25037C13.8944 6.24151 15.7866 6.3801 17.6595 6.66488C18.047 6.72597 18.4124 6.88542 18.7207 7.12799C19.029 7.37056 19.2699 7.68813 19.4205 8.05037L20.5165 10.6339C20.525 10.6545 20.5356 10.6743 20.548 10.6929L21.97 12.8614C22.3453 13.4328 22.545 14.1017 22.5445 14.7854V17.8854ZM23.1885 10.5299C23.1885 10.5574 23.179 10.5841 23.1616 10.6054C23.1442 10.6267 23.12 10.6413 23.093 10.6469L21.632 10.9769L21.445 10.6919L21.7535 9.99187C21.7604 9.97672 21.7722 9.96428 21.7869 9.9565C21.8017 9.94872 21.8186 9.94604 21.835 9.94887L23.088 10.1659C23.116 10.1699 23.1417 10.184 23.1601 10.2055C23.1785 10.227 23.1884 10.2545 23.188 10.2829L23.1885 10.5299Z" fill="#1E1E1E"/>
</g>
</g>
<defs>
<clipPath id="clip0_289_11658">
<rect width="24" height="24" fill="white"/>
</clipPath>
</defs>
</svg>
