<svg width="24" height="24" viewBox="0 0 24 24" fill="none" xmlns="http://www.w3.org/2000/svg">
<g id="Frame">
<g id="Group">
<path id="Vector" d="M11.9994 17.2961C15.2518 17.2961 17.8978 14.6506 17.8978 11.3989C17.896 9.83505 17.274 8.33578 16.1682 7.22999C15.0624 6.12419 13.5632 5.50218 11.9994 5.50041C8.74763 5.50041 6.1022 8.14645 6.1022 11.3989C6.10473 12.8867 6.66736 14.319 7.67813 15.4108L7.06815 17.6865C7.03213 17.8208 7.03677 17.9628 7.08148 18.0945C7.12618 18.2262 7.20896 18.3417 7.31932 18.4264C7.42968 18.5111 7.56267 18.5611 7.70147 18.5702C7.84027 18.5792 7.97864 18.5469 8.09907 18.4773L10.4848 17.0988C10.9789 17.2301 11.4881 17.2964 11.9994 17.2961ZM10.0425 15.7305L8.86632 16.4101L9.14138 15.384C9.17445 15.2607 9.1733 15.1307 9.13805 15.0079C9.1028 14.8852 9.03479 14.7744 8.94132 14.6873C8.4873 14.2687 8.12543 13.7602 7.87873 13.1941C7.63204 12.6279 7.50593 12.0166 7.50845 11.3991C7.50878 10.4511 7.80918 9.52761 8.36659 8.76084C8.92401 7.99408 9.70983 7.42343 10.6115 7.13068C11.5131 6.83793 12.4843 6.83809 13.3858 7.13115C14.2873 7.42421 15.0729 7.99512 15.6301 8.76207C16.1873 9.52903 16.4873 10.4527 16.4874 11.4006C16.4874 12.3486 16.1873 13.2722 15.6302 14.0392C15.073 14.8062 14.2874 15.3771 13.3859 15.6702C12.4844 15.9633 11.5132 15.9635 10.6116 15.6707C10.5178 15.6402 10.4187 15.6297 10.3207 15.64C10.2226 15.6503 10.1278 15.681 10.0425 15.7303V15.7305ZM23.6156 11.901C23.6233 11.6133 23.6312 11.3158 23.6175 11.0061C23.5804 10.1407 23.2089 9.32342 22.5813 8.72643C21.9536 8.12944 21.1189 7.79929 20.2527 7.80548C18.8625 4.62497 15.6865 2.39648 11.9994 2.39648C8.31221 2.39648 5.13751 4.62492 3.74729 7.80544C2.88132 7.79929 2.04672 8.12933 1.41917 8.72609C0.791615 9.32285 0.42004 10.1398 0.382649 11.005C0.368868 11.3159 0.37679 11.6134 0.384431 11.9012C0.39254 12.2052 0.400884 12.5196 0.385274 12.8729C0.348053 13.7586 0.663593 14.623 1.2627 15.2764C1.86181 15.9298 2.69559 16.319 3.58121 16.3585C3.63365 16.361 3.68598 16.3622 3.7382 16.3622C4.17961 16.3625 4.6166 16.2741 5.02327 16.1025C5.19319 16.0313 5.32831 15.8962 5.39946 15.7262C5.47062 15.5563 5.47211 15.3652 5.40362 15.1942C5.39511 15.161 5.38211 15.1291 5.36499 15.0995C4.73504 13.9678 4.40443 12.6941 4.40448 11.3989C4.40448 7.21036 7.81154 3.80273 11.9994 3.80273C16.1872 3.80273 19.5955 7.21055 19.5955 11.3989C19.6005 13.1718 18.9831 14.8902 17.851 16.2547C16.719 17.6191 15.144 18.5431 13.4007 18.8655C13.217 18.4498 12.8939 18.1114 12.4872 17.9087C12.0805 17.706 11.6158 17.6517 11.1733 17.7553C10.7309 17.8589 10.3385 18.1138 10.0641 18.476C9.78966 18.8382 9.65038 19.2849 9.67034 19.7388C9.6903 20.1928 9.86823 20.6255 10.1734 20.9623C10.4786 21.299 10.8918 21.5185 11.3416 21.5828C11.7914 21.6472 12.2496 21.5524 12.637 21.3148C13.0243 21.0771 13.3165 20.7117 13.4629 20.2815C14.7014 20.0766 15.8834 19.6155 16.9333 18.9275C17.9832 18.2396 18.8779 17.34 19.5602 16.2863C19.7904 16.3366 20.0254 16.3621 20.261 16.3622C20.3127 16.3622 20.3645 16.361 20.4164 16.3587C20.8554 16.3398 21.2863 16.2346 21.6846 16.0491C22.0829 15.8637 22.4408 15.6016 22.7378 15.2778C23.0348 14.954 23.2651 14.5749 23.4155 14.1621C23.566 13.7493 23.6337 13.3109 23.6147 12.872C23.5991 12.5198 23.6075 12.2051 23.6156 11.901ZM3.64374 14.9537C3.13036 14.931 2.64691 14.7057 2.29944 14.3271C1.95196 13.9485 1.76881 13.4475 1.79016 12.9341C1.80793 12.5319 1.79851 12.177 1.79016 11.8638C1.78285 11.5884 1.7761 11.3283 1.78759 11.0662C1.80574 10.6487 1.95823 10.2482 2.22237 9.92425C2.48652 9.60034 2.84818 9.37038 3.25356 9.26859C2.81036 11.0908 2.94636 13.0059 3.64262 14.7472L3.64177 14.7475C3.66915 14.8173 3.69741 14.8867 3.72657 14.9558C3.69916 14.9557 3.67156 14.955 3.64374 14.9537ZM11.618 20.1962C11.5106 20.1962 11.4056 20.1644 11.3162 20.1047C11.2269 20.045 11.1573 19.9602 11.1161 19.861C11.075 19.7617 11.0642 19.6525 11.0852 19.5471C11.1061 19.4417 11.1578 19.3449 11.2338 19.269C11.3097 19.193 11.4065 19.1412 11.5119 19.1202C11.6172 19.0992 11.7265 19.11 11.8257 19.1511C11.925 19.1921 12.0098 19.2617 12.0696 19.3511C12.1293 19.4404 12.1612 19.5454 12.1612 19.6528V19.6538C12.1609 19.7977 12.1035 19.9356 12.0017 20.0373C11.8999 20.1389 11.7619 20.1961 11.618 20.1962ZM22.2098 12.9331C22.2208 13.1877 22.1814 13.4419 22.0941 13.6812C22.0067 13.9206 21.873 14.1404 21.7007 14.3281C21.5283 14.5157 21.3207 14.6676 21.0896 14.775C20.8585 14.8823 20.6086 14.9431 20.354 14.9538C20.327 14.9551 20.3 14.9557 20.2732 14.9558C20.2743 14.9532 20.2745 14.9503 20.2737 14.9475C21.0413 13.1555 21.2072 11.1629 20.7465 9.26864C21.152 9.37045 21.5138 9.60054 21.778 9.92465C22.0422 10.2488 22.1946 10.6495 22.2125 11.0673C22.2241 11.3283 22.2172 11.5883 22.2099 11.8637C22.2015 12.1769 22.192 12.5319 22.2098 12.9331ZM10.3566 11.33C10.3588 11.3529 10.3599 11.3759 10.3599 11.3989C10.3599 11.422 10.3588 11.4452 10.3566 11.4683C10.3542 11.4908 10.3505 11.5137 10.3463 11.5362C10.342 11.5587 10.3359 11.5812 10.3294 11.6032C10.3228 11.6253 10.3149 11.6468 10.3059 11.6679C10.297 11.689 10.2872 11.7101 10.2764 11.7303C10.2656 11.7504 10.2539 11.7701 10.2413 11.7893C10.2287 11.8085 10.2151 11.827 10.2005 11.8447C10.1859 11.8629 10.17 11.8798 10.1541 11.8962C10.1377 11.9125 10.1205 11.928 10.1025 11.9426C10.0847 11.9572 10.0659 11.9707 10.0472 11.9839C10.028 11.9961 10.0083 12.0082 9.98767 12.019C9.96759 12.0299 9.94693 12.0396 9.92579 12.0481C9.90464 12.057 9.88305 12.0648 9.8611 12.0715C9.83907 12.0781 9.81657 12.0837 9.79407 12.0884C9.7716 12.093 9.74892 12.0964 9.7261 12.0987C9.67996 12.1031 9.6335 12.1031 9.58735 12.0987C9.56454 12.0964 9.54185 12.093 9.51938 12.0884C9.49688 12.0837 9.47438 12.0781 9.45235 12.0715C9.4304 12.0648 9.40881 12.057 9.38766 12.0481C9.36652 12.0396 9.34586 12.0299 9.32579 12.019C9.30516 12.0082 9.28548 11.9961 9.26626 11.9839C9.24751 11.9707 9.22876 11.9572 9.21095 11.9426C9.19299 11.928 9.17578 11.9125 9.15938 11.8962C9.14345 11.8798 9.12751 11.8629 9.11298 11.8447C9.09834 11.827 9.08472 11.8085 9.0722 11.7893C9.0597 11.7701 9.04798 11.7504 9.03704 11.7303C9.02626 11.7101 9.01641 11.689 9.00751 11.6679C8.9986 11.6468 8.9911 11.6253 8.98407 11.6032C8.97704 11.5812 8.97188 11.5587 8.9672 11.5362C8.95788 11.491 8.95332 11.445 8.9536 11.3989C8.9536 11.3759 8.95501 11.3529 8.95688 11.33C8.95876 11.307 8.96298 11.284 8.9672 11.2615C8.97141 11.239 8.97751 11.217 8.98407 11.195C8.99063 11.1729 8.9986 11.1514 9.00751 11.1303C9.01641 11.1092 9.02626 11.0881 9.03704 11.0679C9.05868 11.0274 9.08411 10.9889 9.11298 10.9531C9.12751 10.9353 9.14345 10.9179 9.15938 10.902C9.17578 10.8857 9.19299 10.8702 9.21095 10.8556C9.22876 10.8411 9.24751 10.827 9.26626 10.8143C9.2855 10.8016 9.30537 10.7899 9.32579 10.7792C9.34595 10.7684 9.36657 10.7586 9.38766 10.7497C9.40876 10.7412 9.43079 10.7332 9.45235 10.7267C9.47439 10.7199 9.49676 10.7143 9.51938 10.7098C9.61002 10.6914 9.70343 10.6914 9.79407 10.7098C9.81669 10.7143 9.83906 10.7199 9.8611 10.7267C9.88266 10.7332 9.9047 10.7412 9.92579 10.7497C9.94688 10.7581 9.96751 10.7684 9.98767 10.7792C10.0081 10.7899 10.028 10.8016 10.0472 10.8143C10.0659 10.827 10.0847 10.8411 10.1025 10.8556C10.1205 10.8702 10.1377 10.8857 10.1541 10.902C10.17 10.9179 10.1859 10.9353 10.2005 10.9531C10.2293 10.9889 10.2548 11.0274 10.2764 11.0679C10.2872 11.0881 10.297 11.1092 10.3059 11.1303C10.3149 11.1514 10.3224 11.1729 10.3294 11.195C10.3364 11.217 10.3416 11.2395 10.3463 11.2615C10.3509 11.2836 10.3542 11.3068 10.3566 11.3298V11.33ZM11.2969 11.3989C11.2968 11.3066 11.3149 11.2152 11.3502 11.1299C11.3855 11.0446 11.4372 10.9671 11.5024 10.9018C11.5677 10.8365 11.6451 10.7847 11.7304 10.7493C11.8157 10.714 11.9071 10.6958 11.9994 10.6957H12.0007C12.1397 10.6959 12.2756 10.7372 12.3911 10.8146C12.5067 10.8919 12.5967 11.0018 12.6498 11.1303C12.7029 11.2587 12.7167 11.4001 12.6895 11.5364C12.6623 11.6728 12.5953 11.798 12.497 11.8963C12.3986 11.9946 12.2733 12.0615 12.1369 12.0885C12.0006 12.1156 11.8592 12.1017 11.7308 12.0484C11.6023 11.9952 11.4926 11.9051 11.4153 11.7894C11.3381 11.6738 11.2969 11.5379 11.2969 11.3989ZM13.6434 11.4681C13.6412 11.445 13.6401 11.4219 13.6402 11.3987C13.6401 11.3757 13.6412 11.3527 13.6434 11.3298C13.6458 11.3068 13.6495 11.2838 13.6538 11.2613C13.658 11.2388 13.6641 11.2168 13.6706 11.1948C13.6773 11.1728 13.6851 11.1512 13.6941 11.1301C13.7025 11.109 13.7128 11.0879 13.7231 11.0677C13.7452 11.0273 13.7707 10.9889 13.7995 10.9529C13.8141 10.9351 13.83 10.9177 13.8459 10.9018C13.8623 10.8855 13.8796 10.87 13.8975 10.8554C13.9151 10.8406 13.9336 10.8268 13.9528 10.8142C13.972 10.8017 13.9917 10.7899 14.0119 10.779C14.032 10.7682 14.0531 10.7584 14.0742 10.7495C14.0953 10.7406 14.1174 10.7331 14.1389 10.7265C14.161 10.7197 14.1833 10.7141 14.2059 10.7096C14.2738 10.6958 14.3433 10.6924 14.4122 10.6993C14.4352 10.7016 14.458 10.705 14.4806 10.7096C14.5031 10.714 14.5253 10.7197 14.5472 10.7265C14.5692 10.7331 14.5913 10.741 14.6124 10.7495C14.6334 10.7579 14.6541 10.7682 14.6742 10.779C14.6947 10.7897 14.7145 10.8014 14.7338 10.8142C14.7525 10.8268 14.7713 10.8409 14.7891 10.8554C14.807 10.8699 14.824 10.8854 14.8402 10.9018C14.8566 10.9177 14.872 10.9351 14.887 10.9529C14.9011 10.9707 14.9152 10.9895 14.9278 11.0087C14.9405 11.0278 14.9523 11.0475 14.963 11.0677C14.9738 11.0879 14.9836 11.109 14.9925 11.1301C15.0013 11.1512 15.009 11.1728 15.0155 11.1948C15.0225 11.2166 15.0281 11.2388 15.0324 11.2613C15.0372 11.2839 15.0406 11.3068 15.0427 11.3298C15.0451 11.3527 15.0463 11.3757 15.0464 11.3987C15.0463 11.4219 15.0451 11.445 15.0427 11.4681C15.0406 11.4909 15.0372 11.5136 15.0324 11.536C15.0281 11.5587 15.0225 11.5811 15.0155 11.6031C15.0089 11.625 15.0013 11.6466 14.9925 11.6678C14.9836 11.6888 14.9738 11.7099 14.963 11.7301C14.9522 11.7502 14.9405 11.7699 14.9278 11.7892C14.9152 11.8084 14.9011 11.8271 14.887 11.8445C14.872 11.8628 14.8566 11.8796 14.8402 11.896C14.824 11.9125 14.807 11.928 14.7891 11.9424C14.7713 11.957 14.7525 11.9706 14.7338 11.9832C14.7145 11.9961 14.6947 12.008 14.6742 12.0188C14.6542 12.0297 14.6335 12.0394 14.6124 12.0479C14.5911 12.0569 14.5693 12.0647 14.5472 12.0713C14.5256 12.0779 14.5031 12.0835 14.4806 12.0882C14.4354 12.0974 14.3894 12.102 14.3433 12.1018C14.3201 12.1019 14.297 12.1008 14.2739 12.0985C14.2511 12.0962 14.2284 12.0928 14.2059 12.0882C14.1834 12.0835 14.1609 12.0779 14.1389 12.0713C14.117 12.0646 14.0954 12.0568 14.0742 12.0479C14.0529 12.0394 14.0321 12.0297 14.0119 12.0188C13.9917 12.0081 13.972 11.9959 13.9528 11.9832C13.9336 11.9707 13.9152 11.9571 13.8975 11.9424C13.8796 11.9278 13.8623 11.9124 13.8459 11.896C13.83 11.8796 13.8141 11.8628 13.7995 11.8445C13.7849 11.8268 13.7713 11.8084 13.7588 11.7892C13.7461 11.7699 13.7339 11.7502 13.7231 11.7301C13.7124 11.7099 13.7025 11.6888 13.6941 11.6678C13.6852 11.6466 13.6773 11.625 13.6706 11.6031C13.6641 11.581 13.6584 11.5585 13.6538 11.536C13.6491 11.5135 13.6458 11.4906 13.6434 11.4681Z" fill="#1E1E1E"/>
</g>
</g>
</svg>
