<svg width="24" height="25" viewBox="0 0 24 25" fill="none" xmlns="http://www.w3.org/2000/svg">
<g id="Frame">
<g id="Group">
<path id="Vector" d="M7.18986 9.83624C8.22874 9.83525 9.2248 9.42216 9.95947 8.68763C10.6941 7.9531 11.1074 6.95712 11.1086 5.91824C10.8926 0.719988 3.48598 0.721113 3.27148 5.91861C3.27268 6.95737 3.68585 7.95323 4.42036 8.68774C5.15486 9.42225 6.15073 9.83542 7.18948 9.83661L7.18986 9.83624ZM7.18986 2.74986C8.03002 2.75066 8.83554 3.08476 9.42963 3.67885C10.0237 4.27293 10.3578 5.07845 10.3586 5.91861C10.1989 10.1152 4.18048 10.1145 4.02186 5.91861C4.02265 5.07858 4.35665 4.27317 4.95058 3.67911C5.5445 3.08505 6.34983 2.75086 7.18986 2.74986Z" fill="#808080"/>
<path id="Vector_2" d="M7.18987 7.26329C6.71475 7.26329 6.38362 7.00754 6.38362 6.77804C6.38362 6.67858 6.34411 6.5832 6.27379 6.51287C6.20346 6.44255 6.10808 6.40304 6.00862 6.40304C5.90917 6.40304 5.81378 6.44255 5.74346 6.51287C5.67313 6.5832 5.63362 6.67858 5.63362 6.77804C5.65917 7.08427 5.79142 7.37181 6.0073 7.59051C6.22319 7.8092 6.509 7.94516 6.81487 7.97466V8.28029C6.81487 8.37975 6.85438 8.47513 6.92471 8.54545C6.99503 8.61578 7.09042 8.65529 7.18987 8.65529C7.28933 8.65529 7.38471 8.61578 7.45504 8.54545C7.52536 8.47513 7.56487 8.37975 7.56487 8.28029V7.97466C7.87066 7.9451 8.15638 7.80917 8.37224 7.59057C8.58811 7.37197 8.72042 7.08455 8.74612 6.77841C8.74612 6.08541 8.0625 5.54316 7.18987 5.54316C6.71475 5.54316 6.38362 5.28779 6.38362 5.05791C6.42337 4.42416 7.95675 4.42341 7.99612 5.05791C7.99612 5.15737 8.03563 5.25275 8.10596 5.32308C8.17628 5.3934 8.27167 5.43291 8.37112 5.43291C8.47058 5.43291 8.56596 5.3934 8.63629 5.32308C8.70661 5.25275 8.74612 5.15737 8.74612 5.05791C8.72042 4.75177 8.58811 4.46436 8.37224 4.24576C8.15638 4.02716 7.87066 3.89123 7.56487 3.86166V3.55566C7.56487 3.45621 7.52536 3.36083 7.45504 3.2905C7.38471 3.22017 7.28933 3.18066 7.18987 3.18066C7.09042 3.18066 6.99503 3.22017 6.92471 3.2905C6.85438 3.36083 6.81487 3.45621 6.81487 3.55566V3.86129C5.03062 4.22504 5.38462 6.29579 7.18987 6.29316C8.24812 6.32091 8.24737 7.23554 7.18987 7.26329ZM3.8895 14.494L3.48187 14.6939C3.39256 14.7377 3.32429 14.8151 3.29208 14.9092C3.25987 15.0033 3.26636 15.1064 3.31012 15.1957C3.35388 15.285 3.43133 15.3532 3.52543 15.3855C3.61952 15.4177 3.72256 15.4112 3.81187 15.3674C8.82456 12.9866 13.2935 9.5994 16.9406 5.41679V5.91816C16.9406 6.01762 16.9801 6.113 17.0505 6.18333C17.1208 6.25366 17.2162 6.29316 17.3156 6.29316C17.4151 6.29316 17.5105 6.25366 17.5808 6.18333C17.6511 6.113 17.6906 6.01762 17.6906 5.91816V4.39979C17.6865 4.30166 17.6456 4.20867 17.5762 4.13922C17.5067 4.06977 17.4137 4.02893 17.3156 4.02479H15.7972C15.6978 4.02479 15.6024 4.0643 15.5321 4.13462C15.4618 4.20495 15.4222 4.30033 15.4222 4.39979C15.4222 4.49925 15.4618 4.59463 15.5321 4.66495C15.6024 4.73528 15.6978 4.77479 15.7972 4.77479H16.5034C13.0006 8.83584 8.70917 12.1427 3.8895 14.4948V14.494ZM21.8722 22.2498H20.7285V8.95566C20.7285 8.85621 20.689 8.76083 20.6187 8.6905C20.5483 8.62017 20.453 8.58066 20.3535 8.58066H17.316C17.2165 8.58066 17.1212 8.62017 17.0508 8.6905C16.9805 8.76083 16.941 8.85621 16.941 8.95566V22.2498H16.1719V11.9935C16.1719 11.8941 16.1324 11.7987 16.062 11.7284C15.9917 11.658 15.8963 11.6185 15.7969 11.6185H12.7594C12.6599 11.6185 12.5645 11.658 12.4942 11.7284C12.4239 11.7987 12.3844 11.8941 12.3844 11.9935V22.2498H11.6156V15.0307C11.6156 14.9312 11.5761 14.8358 11.5058 14.7655C11.4355 14.6952 11.3401 14.6557 11.2406 14.6557H8.20312C8.10366 14.6557 8.00828 14.6952 7.93796 14.7655C7.86763 14.8358 7.82812 14.9312 7.82812 15.0307V22.2498H7.05937V18.0685C7.05937 17.9691 7.01986 17.8737 6.94954 17.8034C6.87921 17.733 6.78383 17.6935 6.68437 17.6935H3.64687C3.54742 17.6935 3.45203 17.733 3.38171 17.8034C3.31138 17.8737 3.27187 17.9691 3.27187 18.0685V22.2498H2.12775C2.02829 22.2498 1.93291 22.2893 1.86258 22.3596C1.79226 22.4299 1.75275 22.5253 1.75275 22.6248C1.75275 22.7242 1.79226 22.8196 1.86258 22.89C1.93291 22.9603 2.02829 22.9998 2.12775 22.9998H21.8722C21.9717 22.9998 22.0671 22.9603 22.1374 22.89C22.2077 22.8196 22.2472 22.7242 22.2472 22.6248C22.2472 22.5253 22.2077 22.4299 22.1374 22.3596C22.0671 22.2893 21.9717 22.2498 21.8722 22.2498ZM4.02187 22.2498V18.4435H6.30937V22.2498H4.02187ZM8.57812 22.2498V15.4057H10.8656V22.2498H8.57812ZM13.1344 22.2498V12.3685H15.4219V22.2498H13.1344ZM17.6914 22.2498V9.33066H19.9789V22.2498H17.6914Z" fill="#808080"/>
</g>
</g>
</svg>
