<svg width="25" height="25" viewBox="0 0 25 25" fill="none" xmlns="http://www.w3.org/2000/svg">
<g id="Frame" clip-path="url(#clip0_273_315)">
<g id="Group">
<path id="Vector" d="M21.6048 18.2935H20.2V16.442C20.2 16.1834 19.9903 15.9737 19.7318 15.9737C19.4732 15.9737 19.2635 16.1834 19.2635 16.442V18.7618C19.2635 19.0204 19.4732 19.2301 19.7318 19.2301H21.6048C21.8634 19.2301 22.0731 19.0204 22.0731 18.7618C22.0731 18.5032 21.8634 18.2935 21.6048 18.2935ZM3.83856 7.96288H10.3667C10.6252 7.96288 10.8349 7.75324 10.8349 7.49462C10.8349 7.23601 10.6252 7.02637 10.3667 7.02637H3.83856C3.57999 7.02637 3.3703 7.23601 3.3703 7.49462C3.3703 7.75324 3.57994 7.96288 3.83856 7.96288ZM11.9948 15.4511H3.83856C3.57999 15.4511 3.3703 15.6608 3.3703 15.9194C3.3703 16.178 3.57999 16.3877 3.83856 16.3877H11.9949C12.2534 16.3877 12.4631 16.178 12.4631 15.9194C12.4631 15.6608 12.2534 15.4511 11.9948 15.4511ZM11.9948 18.2594H3.83856C3.57999 18.2594 3.3703 18.469 3.3703 18.7277C3.3703 18.9863 3.57999 19.1959 3.83856 19.1959H11.9949C12.2534 19.1959 12.4631 18.9863 12.4631 18.7277C12.4631 18.469 12.2534 18.2594 11.9948 18.2594ZM14.6278 12.6429H3.83856C3.57999 12.6429 3.3703 12.8526 3.3703 13.1112C3.3703 13.3698 3.57999 13.5794 3.83856 13.5794H14.6278C14.8864 13.5794 15.096 13.3698 15.096 13.1112C15.096 12.8526 14.8864 12.6429 14.6278 12.6429Z" fill="#808080"/>
<path id="Vector_2" d="M23.076 15.3963C21.68 14.0004 19.6213 13.6616 17.9032 14.3793V6.10222C17.9032 5.75973 17.7699 5.43776 17.5277 5.19563L13.2081 0.875448C13.1075 0.77537 12.9911 0.692704 12.8634 0.630831C12.8591 0.628489 12.8546 0.626476 12.8503 0.624228L12.8486 0.623432C12.8347 0.616436 12.8205 0.610153 12.806 0.604608C12.6465 0.535975 12.4747 0.500389 12.301 0.5L1.89401 0.5C1.14682 0.5 0.538879 1.10789 0.538879 1.85513V23.1449C0.538879 23.8921 1.14677 24.5 1.89397 24.5H16.548C17.2635 24.5 17.8578 23.9406 17.9009 23.2265C17.9015 23.2171 17.9018 23.2077 17.9018 23.1982V23.1012C18.4815 23.3433 19.1035 23.4678 19.7318 23.4676C20.9429 23.4676 22.154 23.0066 23.076 22.0847C23.9692 21.1914 24.4611 20.0038 24.4611 18.7405C24.4611 17.4772 23.9692 16.2896 23.076 15.3963ZM16.3046 5.29682H13.2104C13.1829 5.29685 13.1565 5.28598 13.137 5.26658C13.1175 5.24718 13.1065 5.22084 13.1064 5.19333V2.0983L16.3046 5.29682ZM16.9653 23.1815C16.9464 23.3966 16.7653 23.5635 16.5481 23.5635H1.89401C1.66316 23.5635 1.47544 23.3757 1.47544 23.1449V1.85513C1.47544 1.62428 1.66321 1.43651 1.89401 1.43651H12.1699V5.19333C12.1699 5.7668 12.6367 6.23333 13.2104 6.23333H16.9668V14.9035C16.7608 15.052 16.5672 15.2168 16.3876 15.3963C15.4944 16.2896 15.0024 17.4773 15.0024 18.7405C15.0024 20.0038 15.4944 21.1914 16.3876 22.0847C16.5668 22.2638 16.76 22.4283 16.9654 22.5765V23.1815H16.9653ZM22.4137 21.4225C20.9349 22.9013 18.5286 22.9013 17.0498 21.4225C16.3334 20.7061 15.9388 19.7536 15.9388 18.7405C15.9388 17.7275 16.3334 16.7749 17.0498 16.0586C17.7892 15.3192 18.7605 14.9494 19.7317 14.9494C20.703 14.9494 21.6742 15.3192 22.4137 16.0586C23.13 16.775 23.5246 17.7275 23.5246 18.7405C23.5246 19.7536 23.1301 20.7061 22.4137 21.4225Z" fill="#808080"/>
<path id="Vector_3" d="M3.79174 10.8017H12.2397C12.4983 10.8017 12.7079 10.5921 12.7079 10.3335C12.7079 10.0749 12.4983 9.86523 12.2397 9.86523H3.79174C3.53317 9.86523 3.32349 10.0749 3.32349 10.3335C3.32349 10.5921 3.53312 10.8017 3.79174 10.8017Z" fill="#808080"/>
<path id="Vector_4" d="M14.5701 10.8017C14.8288 10.8017 15.0385 10.592 15.0385 10.3332C15.0385 10.0745 14.8288 9.86475 14.5701 9.86475C14.3113 9.86475 14.1016 10.0745 14.1016 10.3332C14.1016 10.592 14.3113 10.8017 14.5701 10.8017Z" fill="#808080"/>
</g>
</g>
<defs>
<clipPath id="clip0_273_315">
<rect width="24" height="24" fill="white" transform="translate(0.5 0.5)"/>
</clipPath>
</defs>
</svg>
