<svg width="24" height="24" viewBox="0 0 24 24" fill="none" xmlns="http://www.w3.org/2000/svg">
<g id="Frame">
<g id="Group">
<path id="Vector" d="M23.1187 9.16885L14.5453 1.9876C13.0734 0.754785 10.9265 0.754785 9.45466 1.9876L0.881226 9.16885C-0.159399 10.0407 -0.295336 11.5923 0.576539 12.6282C1.00779 13.1438 1.63123 13.4579 2.29685 13.5001V20.4845C2.29685 21.8345 3.39373 22.9313 4.74841 22.936H10.0172V16.8892C10.0172 15.797 10.9031 14.911 11.9953 14.911C13.0875 14.911 13.9734 15.797 13.9734 16.8892V22.9407H19.2469C20.5969 22.9407 21.6937 21.8438 21.6984 20.4892V13.5048C23.0531 13.4157 24.0797 12.2438 23.9906 10.8892C23.9437 10.2235 23.6297 9.6001 23.1187 9.16885ZM21.539 12.572H20.7609V20.4892C20.7609 21.3235 20.0859 22.0032 19.2469 22.0032H14.9109V16.8892C14.9109 15.2767 13.6031 13.9735 11.9953 13.9735C10.3828 13.9735 9.07966 15.2813 9.07966 16.8892V22.0032H4.74841C3.91404 22.0032 3.23435 21.3282 3.23435 20.4938V12.572H2.46091C1.0406 12.572 0.398414 10.8001 1.48591 9.88603L10.0594 2.70479C11.1844 1.7626 12.8203 1.7626 13.9453 2.70479L22.514 9.89072C23.6015 10.8001 22.9594 12.572 21.539 12.572Z" fill="url(#paint0_linear_273_302)"/>
</g>
</g>
<defs>
<linearGradient id="paint0_linear_273_302" x1="23.996" y1="12.0019" x2="0.00219727" y2="12.0019" gradientUnits="userSpaceOnUse">
<stop stop-color="#FD6D12"/>
<stop offset="1" stop-color="#EE5208"/>
</linearGradient>
</defs>
</svg>
