<svg width="24" height="25" viewBox="0 0 24 25" fill="none" xmlns="http://www.w3.org/2000/svg">
<g id="Frame" clip-path="url(#clip0_273_325)">
<g id="Group">
<path id="Vector" d="M9.86023 12.0609C11.4484 12.0609 12.8236 11.4912 13.9475 10.3673C15.071 9.24362 15.6408 7.86869 15.6408 6.28029C15.6408 4.69235 15.0712 3.31728 13.9473 2.19317C12.8234 1.06962 11.4483 0.5 9.86023 0.5C8.27178 0.5 6.8968 1.06962 5.77311 2.19336C4.64943 3.31709 4.07957 4.69221 4.07957 6.28029C4.07957 7.86869 4.64938 9.24381 5.77316 10.3675C6.89722 11.4911 8.27234 12.0609 9.86018 12.0609H9.86023ZM6.76775 3.18781C7.62997 2.32554 8.64148 1.90643 9.86023 1.90643C11.0788 1.90643 12.0904 2.32554 12.9528 3.18781C13.8151 4.05021 14.2344 5.06187 14.2344 6.28024C14.2344 7.49899 13.8151 8.5105 12.9528 9.3729C12.0904 10.2354 11.0788 10.6545 9.86023 10.6545C8.64181 10.6545 7.63039 10.2352 6.76775 9.3729C5.9053 8.51069 5.486 7.49903 5.486 6.28029C5.486 5.06187 5.9053 4.05021 6.76775 3.18781ZM19.9748 18.9548C19.9423 18.4872 19.8768 17.977 19.7803 17.4383C19.6829 16.8956 19.5575 16.3825 19.4073 15.9136C19.252 15.4289 19.0413 14.9503 18.7803 14.4916C18.5099 14.0155 18.1921 13.601 17.8353 13.2599C17.4624 12.903 17.0057 12.6161 16.4776 12.4067C15.9514 12.1986 15.3682 12.0931 14.7444 12.0931C14.4993 12.0931 14.2624 12.1936 13.8048 12.4916C13.4796 12.7034 13.1533 12.9137 12.8261 13.1225C12.5118 13.3229 12.0859 13.5106 11.5598 13.6805C11.0465 13.8466 10.5254 13.9308 10.0109 13.9308C9.49676 13.9308 8.97561 13.8466 8.462 13.6805C7.93653 13.5107 7.51044 13.3231 7.19656 13.1227C6.83235 12.89 6.50282 12.6776 6.21697 12.4914C5.75975 12.1935 5.5228 12.0929 5.27783 12.0929C4.65379 12.0929 4.0708 12.1986 3.54473 12.407C3.01701 12.6159 2.56017 12.9028 2.18681 13.2601C1.83014 13.6013 1.51228 14.0157 1.242 14.4916C0.981467 14.9503 0.77053 15.4287 0.615233 15.9138C0.465233 16.3827 0.339843 16.8956 0.242437 17.4383C0.145734 17.9763 0.0803905 18.4866 0.047953 18.9554C0.0160781 19.4137 0 19.8906 0 20.3726C0 21.6254 0.398249 22.6396 1.18359 23.3876C1.95923 24.1257 2.98537 24.5 4.23355 24.5H15.7897C17.0375 24.5 18.0637 24.1257 18.8395 23.3876C19.625 22.6401 20.0233 21.6256 20.0233 20.3724C20.0231 19.8888 20.0068 19.4118 19.9748 18.9548ZM17.8698 22.3686C17.3573 22.8564 16.6768 23.0935 15.7895 23.0935H4.2336C3.34612 23.0935 2.66568 22.8564 2.15334 22.3688C1.65075 21.8903 1.40648 21.2372 1.40648 20.3726C1.40648 19.9229 1.42129 19.4789 1.45101 19.0526C1.47989 18.6344 1.53904 18.1749 1.62679 17.6868C1.71337 17.2047 1.82357 16.7522 1.95468 16.3426C2.0805 15.9498 2.25206 15.561 2.46482 15.1863C2.66789 14.8292 2.90151 14.5229 3.15932 14.2761C3.40049 14.0452 3.70448 13.8563 4.0626 13.7146C4.39382 13.5834 4.7661 13.5116 5.17021 13.5008C5.21943 13.5271 5.30718 13.577 5.44925 13.6696C5.73838 13.8581 6.07161 14.0731 6.44005 14.3083C6.85536 14.5731 7.39035 14.8122 8.02958 15.0186C8.68306 15.2299 9.34958 15.3372 10.0111 15.3372C10.6727 15.3372 11.3394 15.2299 11.9925 15.0188C12.6323 14.812 13.1671 14.5731 13.583 14.3079C13.96 14.067 14.2839 13.8583 14.573 13.6696C14.7151 13.5772 14.8028 13.527 14.8521 13.5008C15.2564 13.5116 15.6286 13.5834 15.96 13.7145C16.318 13.8563 16.622 14.0454 16.8631 14.2761C17.1209 14.5227 17.3545 14.8291 17.5576 15.1865C17.7706 15.561 17.9424 15.9501 18.0679 16.3425C18.1992 16.7526 18.3096 17.2049 18.3961 17.6866C18.4836 18.1757 18.5429 18.6353 18.5718 19.0528V19.0531C18.6017 19.4777 18.6167 19.9216 18.6169 20.3726C18.6167 21.2374 18.3724 21.8904 17.8698 22.3686H17.8698Z" fill="#808080"/>
</g>
</g>
<defs>
<clipPath id="clip0_273_325">
<rect width="24" height="24" fill="white" transform="translate(0 0.5)"/>
</clipPath>
</defs>
</svg>
