<svg width="24" height="24" viewBox="0 0 24 24" fill="none" xmlns="http://www.w3.org/2000/svg">
<g id="Frame">
<g id="Group">
<path id="Vector" fill-rule="evenodd" clip-rule="evenodd" d="M2.17655 19.2241C5.73201 19.2257 9.28615 19.2257 12.8432 19.2241C12.9211 19.8797 13.2477 20.4805 13.7557 20.9022H4.03201C3.04855 20.9022 2.33895 20.1574 2.17655 19.2241ZM19.9739 3.10595C20.9573 3.10595 21.6683 3.85049 21.8307 4.78382H18.0181C18.0878 4.31568 18.3239 3.88834 18.6831 3.58016C19.0423 3.27198 19.5006 3.10362 19.9739 3.10595ZM6.77681 3.10595H18.3141C17.7557 3.57422 17.3907 4.27395 17.3907 5.05609L17.3891 18.9214C17.3904 19.1811 17.3404 19.4385 17.242 19.6787C17.1435 19.919 16.9985 20.1375 16.8154 20.3215C16.6322 20.5056 16.4145 20.6517 16.1747 20.7513C15.9349 20.851 15.6778 20.9023 15.4181 20.9022H15.4083C14.8863 20.9045 14.3847 20.6995 14.0136 20.3324C13.6426 19.9652 13.4323 19.4658 13.4291 18.9438C13.4405 18.7838 13.3405 18.6158 13.1248 18.6204H4.79735V5.08702C4.79576 4.82655 4.84586 4.56836 4.94475 4.32739C5.04365 4.08642 5.18937 3.86747 5.37347 3.68321C5.55758 3.49896 5.77642 3.35306 6.0173 3.25397C6.25819 3.15488 6.51635 3.10457 6.77681 3.10595ZM6.77681 2.50195C5.35015 2.50195 4.19201 3.66035 4.19201 5.08675V18.6201H1.74855C1.54028 18.6201 1.44855 18.7796 1.44855 18.9212C1.44855 20.3478 2.60561 21.506 4.03201 21.506H15.4085C16.9976 21.506 17.956 20.1449 17.9933 18.9212V5.38782H22.2573C22.424 5.38782 22.56 5.25315 22.56 5.08675C22.56 3.66009 21.4016 2.50195 19.9741 2.50195H6.77681Z" fill="#1E1E1E"/>
<path id="Vector_2" d="M20.064 9.00077H20.9323L20.9459 19.9165L20.5197 20.4885L20.0781 19.9037L20.064 9.00077ZM19.7323 8.39704C19.6577 8.40426 19.5885 8.43899 19.5382 8.49446C19.4879 8.54992 19.46 8.62214 19.46 8.69704L19.4741 20.0058C19.4741 20.0704 19.4949 20.1344 19.5352 20.1872L20.2768 21.1736C20.305 21.2113 20.3417 21.2419 20.3838 21.263C20.426 21.284 20.4725 21.2949 20.5196 21.2947C20.5667 21.2946 20.6132 21.2834 20.6552 21.2621C20.6972 21.2408 20.7337 21.2099 20.7616 21.172L21.4917 20.196C21.5307 20.1429 21.5517 20.0808 21.5501 20.0152L21.5365 8.69704C21.5365 8.53037 21.4 8.39544 21.2333 8.39704H19.7613C19.7517 8.39544 19.7419 8.39544 19.7323 8.39704ZM19.8181 7.30237C19.4155 7.30237 19.4459 7.90637 19.8499 7.90637H21.1613C21.5789 7.90637 21.5789 7.30237 21.1613 7.30237H19.8181ZM7.61521 6.87891C6.94294 6.87891 6.39041 7.42771 6.39041 8.09971V9.92637C6.39041 10.5973 6.94294 11.1442 7.61521 11.1442H9.39894C10.0709 11.1442 10.6251 10.597 10.6251 9.92637V9.43171C10.6251 9.02797 10.0197 9.02797 10.0197 9.43171V9.92637C10.0197 10.2709 9.74828 10.5405 9.39894 10.5405H7.61521C7.26534 10.5405 6.99601 10.2709 6.99601 9.92637V8.09971C6.99601 7.75411 7.26561 7.48451 7.61521 7.48451H9.28508C9.68934 7.48451 9.68934 6.87891 9.28508 6.87891H7.61521Z" fill="#1E1E1E"/>
<path id="Vector_3" d="M10.8069 7.12877C10.7281 7.13037 10.653 7.16271 10.5976 7.21891L8.66694 9.14264L8.06268 8.54237C8.03465 8.51429 8.00135 8.492 7.96471 8.47678C7.92806 8.46156 7.88878 8.45371 7.84909 8.45367C7.80941 8.45363 7.77011 8.46141 7.73344 8.47656C7.69676 8.49171 7.66343 8.51394 7.63534 8.54197C7.60726 8.57001 7.58497 8.6033 7.56975 8.63994C7.55453 8.67659 7.54668 8.71588 7.54664 8.75556C7.5466 8.79524 7.55438 8.83454 7.56953 8.87121C7.58468 8.90789 7.60691 8.94122 7.63494 8.96931L8.45414 9.78451C8.51071 9.84049 8.58709 9.8719 8.66668 9.8719C8.74627 9.8719 8.82264 9.84049 8.87921 9.78451L11.0251 7.64691C11.22 7.45384 11.0792 7.12317 10.8069 7.12877ZM11.8557 10.5402C11.8148 10.5381 11.7738 10.5444 11.7353 10.5586C11.6969 10.5728 11.6617 10.5947 11.6319 10.623C11.6022 10.6512 11.5785 10.6852 11.5623 10.7229C11.5461 10.7606 11.5378 10.8012 11.5378 10.8422C11.5378 10.8833 11.5461 10.9239 11.5623 10.9615C11.5785 10.9992 11.6022 11.0332 11.6319 11.0615C11.6617 11.0897 11.6969 11.1117 11.7353 11.1259C11.7738 11.1401 11.8148 11.1463 11.8557 11.1442H15.4875C15.5284 11.1463 15.5694 11.1401 15.6079 11.1259C15.6464 11.1117 15.6815 11.0897 15.7113 11.0615C15.741 11.0332 15.7647 10.9992 15.7809 10.9615C15.7971 10.9239 15.8054 10.8833 15.8054 10.8422C15.8054 10.8012 15.7971 10.7606 15.7809 10.7229C15.7647 10.6852 15.741 10.6512 15.7113 10.623C15.6815 10.5947 15.6464 10.5728 15.6079 10.5586C15.5694 10.5444 15.5284 10.5381 15.4875 10.5402H11.8557ZM12.9208 6.87891C12.8404 6.87884 12.7632 6.91065 12.7061 6.96738C12.6491 7.02411 12.6169 7.10113 12.6165 7.18157C12.6165 7.34984 12.7531 7.48451 12.9208 7.48451H15.4875C15.8917 7.48451 15.8917 6.87891 15.4875 6.87891H12.9208ZM11.8557 9.31917C11.815 9.31746 11.7743 9.32401 11.7362 9.33842C11.698 9.35283 11.6632 9.37481 11.6338 9.40303C11.6043 9.43126 11.5809 9.46515 11.5649 9.50266C11.5489 9.54017 11.5406 9.58053 11.5406 9.62131C11.5406 9.66209 11.5489 9.70245 11.5649 9.73996C11.5809 9.77747 11.6043 9.81135 11.6338 9.83958C11.6632 9.8678 11.698 9.88978 11.7362 9.90419C11.7743 9.91861 11.815 9.92515 11.8557 9.92344H15.4875C15.5282 9.92515 15.5689 9.91861 15.607 9.90419C15.6452 9.88978 15.68 9.8678 15.7095 9.83958C15.7389 9.81135 15.7623 9.77747 15.7783 9.73996C15.7943 9.70245 15.8026 9.66209 15.8026 9.62131C15.8026 9.58053 15.7943 9.54017 15.7783 9.50266C15.7623 9.46515 15.7389 9.43126 15.7095 9.40303C15.68 9.37481 15.6452 9.35283 15.607 9.33842C15.5689 9.32401 15.5282 9.31746 15.4875 9.31917H11.8557ZM11.8557 8.09971C11.815 8.09799 11.7743 8.10454 11.7362 8.11895C11.698 8.13336 11.6632 8.15534 11.6338 8.18357C11.6043 8.21179 11.5809 8.24568 11.5649 8.28319C11.5489 8.3207 11.5406 8.36106 11.5406 8.40184C11.5406 8.44262 11.5489 8.48298 11.5649 8.52049C11.5809 8.558 11.6043 8.59189 11.6338 8.62011C11.6632 8.64834 11.698 8.67031 11.7362 8.68473C11.7743 8.69914 11.815 8.70569 11.8557 8.70397H15.4875C15.5282 8.70569 15.5689 8.69914 15.607 8.68473C15.6452 8.67031 15.68 8.64834 15.7095 8.62011C15.7389 8.59189 15.7623 8.558 15.7783 8.52049C15.7943 8.48298 15.8026 8.44262 15.8026 8.40184C15.8026 8.36106 15.7943 8.3207 15.7783 8.28319C15.7623 8.24568 15.7389 8.21179 15.7095 8.18357C15.68 8.15534 15.6452 8.13336 15.607 8.11895C15.5689 8.10454 15.5282 8.09799 15.4875 8.09971H11.8557ZM11.8557 16.1568C11.4517 16.1568 11.4517 16.7624 11.8557 16.7624H15.4875C15.8917 16.7624 15.8917 16.1568 15.4875 16.1568H11.8557ZM12.9208 12.4944C12.5165 12.4944 12.5165 13.101 12.9208 13.101H15.4875C15.8917 13.101 15.8917 12.4944 15.4875 12.4944H12.9208ZM11.8557 14.936C11.6875 14.936 11.5525 15.0725 11.5525 15.2386C11.5525 15.4069 11.6875 15.5429 11.8557 15.5429H15.4875C15.8917 15.5429 15.8917 14.9362 15.4875 14.9362H11.8557V14.936ZM11.8557 13.7152C11.6875 13.7152 11.5525 13.8512 11.5525 14.0194C11.5525 14.1861 11.6875 14.3221 11.8557 14.3221H15.4875C15.8917 14.3221 15.8917 13.7154 15.4875 13.7154L11.8557 13.7152ZM7.61521 12.4968C6.94294 12.4968 6.39041 13.0453 6.39041 13.7176V15.5442C6.39041 16.2152 6.94294 16.7624 7.61521 16.7624H9.39894C10.0709 16.7624 10.6251 16.2149 10.6251 15.5442V15.0498C10.6251 14.645 10.0197 14.645 10.0197 15.0498V15.5442C10.0197 15.8885 9.74828 16.1578 9.39894 16.1578H7.61521C7.26534 16.1578 6.99601 15.8885 6.99601 15.5442V13.7176C6.99601 13.3717 7.26561 13.1024 7.61521 13.1024H9.28508C9.68934 13.1024 9.68934 12.4968 9.28508 12.4968H7.61521Z" fill="#1E1E1E"/>
<path id="Vector_4" d="M10.8069 12.7462C10.7282 12.7477 10.6531 12.7798 10.5976 12.8358L8.66694 14.7598L8.06268 14.1598C8.03514 14.1298 8.00182 14.1057 7.96474 14.0889C7.92766 14.0722 7.88757 14.063 7.84687 14.0622C7.80618 14.0613 7.76573 14.0686 7.72794 14.0837C7.69015 14.0988 7.65581 14.1214 7.62698 14.1502C7.59815 14.1789 7.57541 14.2132 7.56015 14.2509C7.54488 14.2886 7.53739 14.329 7.53814 14.3697C7.53888 14.4104 7.54784 14.4506 7.56447 14.4877C7.58111 14.5248 7.60508 14.5583 7.63494 14.5859L8.45414 15.4016C8.51065 15.4578 8.58705 15.4892 8.66668 15.4892C8.74631 15.4892 8.82271 15.4578 8.87921 15.4016L11.0251 13.264C11.22 13.071 11.0792 12.7403 10.8069 12.7462Z" fill="#1E1E1E"/>
</g>
</g>
</svg>
