<svg width="18" height="18" viewBox="0 0 18 18" fill="none" xmlns="http://www.w3.org/2000/svg">
<path d="M14.3833 2.22982C12.9454 0.791894 11.0335 0 9.00003 0C6.96653 0 5.05466 0.791894 3.61677 2.22982C2.17884 3.66778 1.38695 5.57958 1.38695 7.61305C1.38695 11.7268 5.27656 15.1483 7.36622 16.9865C7.65661 17.242 7.90738 17.4626 8.10717 17.6492C8.35748 17.883 8.67878 17.9999 9 17.9999C9.32129 17.9999 9.64251 17.883 9.89286 17.6492C10.0927 17.4625 10.3434 17.242 10.6338 16.9865C12.7235 15.1483 16.6131 11.7268 16.6131 7.61305C16.613 5.57958 15.8212 3.66778 14.3833 2.22982ZM9.93737 16.1949C9.64062 16.4559 9.38436 16.6814 9.17307 16.8787C9.07601 16.9693 8.92399 16.9693 8.82689 16.8787C8.61563 16.6813 8.35935 16.4559 8.06259 16.1948C6.09806 14.4667 2.44128 11.25 2.44128 7.61309C2.44128 3.99663 5.38347 1.05444 8.99996 1.05444C12.6164 1.05444 15.5586 3.99663 15.5586 7.61309C15.5586 11.25 11.9019 14.4667 9.93737 16.1949Z" fill="#FE8428"/>
<path d="M9.00005 3.97049C7.15009 3.97049 5.64505 5.47549 5.64505 7.32545C5.64505 9.17541 7.15009 10.6804 9.00005 10.6804C10.85 10.6804 12.355 9.17541 12.355 7.32545C12.355 5.47549 10.85 3.97049 9.00005 3.97049ZM9.00005 9.62597C7.7315 9.62597 6.69946 8.59392 6.69946 7.32542C6.69946 6.05691 7.7315 5.02486 9.00005 5.02486C10.2686 5.02486 11.3006 6.05691 11.3006 7.32542C11.3006 8.59392 10.2686 9.62597 9.00005 9.62597Z" fill="#FE8428"/>
</svg>
