<svg width="154" height="154" viewBox="0 0 154 154" fill="none" xmlns="http://www.w3.org/2000/svg">
<g filter="url(#filter0_d_7_148)">
<path d="M121.294 10H32.7055C20.1751 10 10.0172 20.1579 10.0172 32.6883V121.277C10.0172 133.808 20.1751 143.966 32.7055 143.966H121.294C133.825 143.966 143.983 133.808 143.983 121.277V32.6883C143.983 20.1579 133.825 10 121.294 10Z" fill="white"/>
</g>
<path d="M134.536 70.9715L103.037 116.391C100.307 120.333 94.5787 120.59 91.4958 116.915L81.4226 104.892L72.9725 116.477C69.8896 120.693 63.5777 120.642 60.5806 116.365L44.376 93.2991L29.8201 92.8955C22.8385 92.698 18.9054 84.7974 22.9501 79.1124C23.9291 77.7384 24.908 76.3644 25.8784 74.9904C28.1884 71.7529 30.4899 68.5154 32.8 65.2693C35.4965 61.4736 38.2015 57.6779 40.898 53.8908C42.9676 50.9883 45.0458 48.0857 47.0982 45.1745C48.6097 43.0448 50.0867 40.2882 52.766 39.4896C55.1705 38.7682 57.7467 39.189 60.2113 39.1804C64.3763 39.1632 68.5327 39.146 72.6976 39.1203C76.4246 39.1031 80.1516 39.0859 83.87 39.0687C84.8662 39.0687 85.8452 38.9228 86.7812 39.3006C87.2278 39.481 87.6572 39.6957 88.0694 39.9447C89.2201 40.6489 90.1991 41.6365 90.7573 42.8731C91.5731 44.6765 91.6675 47.2871 90.5512 48.9874C89.7783 50.1639 88.9711 51.3318 88.1896 52.4997C86.3862 55.2047 84.5828 57.9012 82.788 60.6063L82.1783 61.5252H65.862L72.732 50.3614H59.8507L38.3819 81.2765H52.1219L58.992 70.9715H75.3083L60.7095 91.5816L66.7207 101.028L88.1896 70.9715H104.506L89.9071 92.4403L96.7771 101.887L118.246 70.9715H134.562H134.536Z" fill="#012F9E"/>
<defs>
<filter id="filter0_d_7_148" x="0.0172119" y="0" width="153.966" height="153.966" filterUnits="userSpaceOnUse" color-interpolation-filters="sRGB">
<feFlood flood-opacity="0" result="BackgroundImageFix"/>
<feColorMatrix in="SourceAlpha" type="matrix" values="0 0 0 0 0 0 0 0 0 0 0 0 0 0 0 0 0 0 127 0" result="hardAlpha"/>
<feOffset/>
<feGaussianBlur stdDeviation="5"/>
<feComposite in2="hardAlpha" operator="out"/>
<feColorMatrix type="matrix" values="0 0 0 0 0.0117647 0 0 0 0 0.247059 0 0 0 0 0.811765 0 0 0 1 0"/>
<feBlend mode="normal" in2="BackgroundImageFix" result="effect1_dropShadow_7_148"/>
<feBlend mode="normal" in="SourceGraphic" in2="effect1_dropShadow_7_148" result="shape"/>
</filter>
</defs>
</svg>
