<svg width="293" height="218" viewBox="0 0 293 218" fill="none" xmlns="http://www.w3.org/2000/svg">
<g clip-path="url(#clip0_289_11174)">
<path d="M293 191.572H0V191.719H293V191.572Z" fill="#EBEBEB"/>
<path d="M263.64 200.984H244.232V201.131H263.64V200.984Z" fill="#EBEBEB"/>
<path d="M194.097 202.576H189.004V202.723H194.097V202.576Z" fill="#EBEBEB"/>
<path d="M243.649 195.555H232.403V195.701H243.649V195.555Z" fill="#EBEBEB"/>
<path d="M56.0515 196.539H30.7422V196.686H56.0515V196.539Z" fill="#EBEBEB"/>
<path d="M64.9801 196.539H61.2708V196.686H64.9801V196.539Z" fill="#EBEBEB"/>
<path d="M131.937 199.008H77.0408V199.154H131.937V199.008Z" fill="#EBEBEB"/>
<path d="M138.886 165.479H25.7296C23.8837 165.479 22.3835 163.981 22.3835 162.138V3.34058C22.3835 1.4977 23.8837 0 25.7296 0H138.886C140.732 0 142.232 1.4977 142.232 3.34058V162.138C142.232 163.981 140.732 165.479 138.886 165.479ZM25.7296 0.14626C23.9657 0.14626 22.53 1.57961 22.53 3.34058V162.138C22.53 163.899 23.9657 165.333 25.7296 165.333H138.886C140.65 165.333 142.086 163.899 142.086 162.138V3.34058C142.086 1.57961 140.65 0.14626 138.886 0.14626H25.7296Z" fill="#EBEBEB"/>
<path d="M265.639 165.479H152.482C150.636 165.479 149.136 163.981 149.136 162.138V3.34058C149.136 1.4977 150.636 0 152.482 0H265.639C267.485 0 268.985 1.4977 268.985 3.34058V162.138C268.985 163.981 267.485 165.479 265.639 165.479ZM152.482 0.14626C150.718 0.14626 149.282 1.57961 149.282 3.34058V162.138C149.282 163.899 150.718 165.333 152.482 165.333H265.639C267.402 165.333 268.838 163.899 268.838 162.138V3.34058C268.838 1.57961 267.402 0.14626 265.639 0.14626H152.482Z" fill="#EBEBEB"/>
<path d="M169.757 69.6855L250.496 69.6855V16.8973L169.757 16.8973V69.6855Z" fill="#E6E6E6"/>
<path d="M167.289 69.6855L249.341 69.6855V16.8973L167.289 16.8973V69.6855Z" fill="#F0F0F0"/>
<path d="M169.757 80.0391L250.496 80.0391V69.678L169.757 69.678V80.0391Z" fill="#E6E6E6"/>
<path d="M163.195 80.0391L245.247 80.0391V69.678L163.195 69.678V80.0391Z" fill="#F0F0F0"/>
<path d="M245.897 66.2441V20.3418L170.743 20.3418V66.2441H245.897Z" fill="#FAFAFA"/>
<path d="M228.951 66.2382L219.352 20.3418H204.374L213.973 66.2382H228.951Z" fill="white"/>
<path d="M244.302 62.809C244.436 62.809 244.548 62.6979 244.548 62.5633V22.5758C244.548 22.4412 244.436 22.3301 244.302 22.3301C244.167 22.3301 244.055 22.4412 244.055 22.5758V62.5633C244.055 62.6979 244.167 62.809 244.302 62.809Z" fill="#F0F0F0"/>
<path d="M210.756 66.2382L201.157 20.3418H195.314L204.919 66.2382H210.756Z" fill="white"/>
<path d="M171.183 66.2441V20.3418H170.743V66.2441H171.183Z" fill="#E6E6E6"/>
<path opacity="0.6" d="M166.474 25.5312H247.219L247.536 21.6758H166.797L166.474 25.5312Z" fill="#EBEBEB"/>
<path opacity="0.6" d="M166.474 31.8496H247.219L247.536 27.9941H166.797L166.474 31.8496Z" fill="#EBEBEB"/>
<path opacity="0.6" d="M166.474 38.1679H247.219L247.536 34.3184H166.797L166.474 38.1679Z" fill="#EBEBEB"/>
<path opacity="0.6" d="M166.474 44.4863H247.219L247.536 40.6367H166.797L166.474 44.4863Z" fill="#EBEBEB"/>
<path opacity="0.6" d="M166.474 50.8105H247.219L247.536 46.9551H166.797L166.474 50.8105Z" fill="#EBEBEB"/>
<path opacity="0.6" d="M166.474 57.1289H247.219L247.536 53.2734H166.797L166.474 57.1289Z" fill="#EBEBEB"/>
<path d="M238.909 153.182H221.979V156.516H238.909V153.182Z" fill="#E6E6E6"/>
<path d="M190.046 191.572H193.169V114.891H190.046V191.572Z" fill="#E6E6E6"/>
<path d="M179.218 156.51H221.972V153.175H179.218V156.51Z" fill="#F5F5F5"/>
<path d="M238.909 171.416H221.979V174.751H238.909V171.416Z" fill="#E6E6E6"/>
<path d="M179.218 174.746H221.972V171.411H179.218V174.746Z" fill="#F5F5F5"/>
<path d="M238.909 116.715H221.979V120.05H238.909V116.715Z" fill="#E6E6E6"/>
<path d="M179.218 120.045H221.972V116.71H179.218V120.045Z" fill="#F5F5F5"/>
<path d="M238.909 134.945H221.979V138.28H238.909V134.945Z" fill="#E6E6E6"/>
<path d="M179.218 138.281H221.972V134.947H179.218V138.281Z" fill="#F5F5F5"/>
<path d="M232.807 191.572H235.93V114.891H232.807V191.572Z" fill="#E6E6E6"/>
<path d="M218.849 191.572H221.972V114.891H218.849V191.572Z" fill="#F5F5F5"/>
<path d="M179.217 191.572H182.341V114.891H179.217V191.572Z" fill="#F5F5F5"/>
<path d="M38.313 191.574H70.2969L70.2969 129.624H38.313L38.313 191.574Z" fill="#E6E6E6"/>
<path d="M46.8505 191.573H38.3066V183.02H55.8046L46.8505 191.573Z" fill="#FAFAFA"/>
<path d="M125.508 191.574H157.491V129.624H125.508V191.574Z" fill="#E6E6E6"/>
<path d="M38.3124 188.631H132.969V129.624H38.3124L38.3124 188.631Z" fill="#FAFAFA"/>
<path d="M124.425 191.573H132.963V183.02H115.471L124.425 191.573Z" fill="#FAFAFA"/>
<path d="M44.9349 166.375H126.342V151.609H44.9349V166.375Z" fill="#F0F0F0"/>
<path d="M44.9349 184.301H126.342V169.534H44.9349V184.301Z" fill="#F0F0F0"/>
<path d="M110.871 153.189H60.4104C58.9278 153.189 57.7265 151.99 57.7265 150.51V150.329H113.549V150.51C113.549 151.99 112.348 153.189 110.865 153.189H110.871Z" fill="#FAFAFA"/>
<path d="M44.9349 148.455H126.342V133.689H44.9349V148.455Z" fill="#F0F0F0"/>
<path d="M110.871 135.262H60.4104C58.9278 135.262 57.7265 134.062 57.7265 132.582V132.401H113.549V132.582C113.549 134.062 112.348 135.262 110.865 135.262H110.871Z" fill="#FAFAFA"/>
<path d="M110.871 171.109H60.4104C58.9278 171.109 57.7265 169.91 57.7265 168.43V168.249H113.549V168.43C113.549 169.91 112.348 171.109 110.865 171.109H110.871Z" fill="#FAFAFA"/>
<path d="M43.404 69.6855L124.143 69.6855V16.8973L43.404 16.8973V69.6855Z" fill="#E6E6E6"/>
<path d="M40.9436 69.6855L122.995 69.6855V16.8973L40.9436 16.8973V69.6855Z" fill="#F0F0F0"/>
<path d="M43.404 80.0391L124.143 80.0391V69.678L43.404 69.678V80.0391Z" fill="#E6E6E6"/>
<path d="M36.836 80.0391L118.888 80.0391V69.678L36.836 69.678V80.0391Z" fill="#F0F0F0"/>
<path d="M119.545 66.2441V20.3418L44.3904 20.3418V66.2441H119.545Z" fill="#FAFAFA"/>
<path d="M102.598 66.2382L92.9996 20.3418H78.0215L87.6202 66.2382H102.598Z" fill="white"/>
<path d="M117.943 62.809C118.077 62.809 118.189 62.6979 118.189 62.5633V22.5758C118.189 22.4412 118.077 22.3301 117.943 22.3301C117.808 22.3301 117.697 22.4412 117.697 22.5758V62.5633C117.697 62.6979 117.808 62.809 117.943 62.809Z" fill="#F0F0F0"/>
<path d="M84.3998 66.2382L74.8012 20.3418H68.9587L78.5574 66.2382H84.3998Z" fill="white"/>
<path d="M44.8301 66.2441V20.3418H44.3906V66.2441H44.8301Z" fill="#E6E6E6"/>
<path opacity="0.6" d="M40.1252 25.5312H120.864L121.181 21.6758H40.4417L40.1252 25.5312Z" fill="#EBEBEB"/>
<path opacity="0.6" d="M40.1252 27.7031H120.864L121.181 23.8535H40.4417L40.1252 27.7031Z" fill="#EBEBEB"/>
<path opacity="0.6" d="M40.1252 29.8789H120.864L121.181 26.0234H40.4417L40.1252 29.8789Z" fill="#EBEBEB"/>
<path opacity="0.6" d="M40.1252 32.0488H120.864L121.181 28.1992H40.4417L40.1252 32.0488Z" fill="#EBEBEB"/>
<path opacity="0.6" d="M40.1252 34.2246H120.864L121.181 30.3691H40.4417L40.1252 34.2246Z" fill="#EBEBEB"/>
<path opacity="0.6" d="M40.1252 36.4003H120.864L121.181 32.5449H40.4417L40.1252 36.4003Z" fill="#EBEBEB"/>
<path d="M56.269 127.721H59.0583L59.0583 96.6609H56.269L56.269 127.721Z" fill="#F5F5F5"/>
<path d="M56.6188 127.703H57.4099L57.4099 96.6433H56.6188L56.6188 127.703Z" fill="#FAFAFA"/>
<path d="M57.74 127.703H58.0505L58.0505 96.6433H57.74L57.74 127.703Z" fill="#FAFAFA"/>
<path d="M67.9944 129.621H47.332C47.332 128.188 48.4982 127.024 49.9339 127.024H65.3925C66.8282 127.024 67.9944 128.188 67.9944 129.621Z" fill="#F0F0F0"/>
<path d="M52.6471 115.949C53.0866 115.949 53.4499 115.586 53.4499 115.147V94.782C53.4499 94.3432 53.0866 93.9805 52.6471 93.9805C52.2076 93.9805 51.8442 94.3432 51.8442 94.782V115.147C51.8442 115.586 52.2076 115.949 52.6471 115.949Z" fill="#F0F0F0"/>
<path d="M45.1638 104.049H70.1567L67.2795 86.6152H48.0411L45.1638 104.049Z" fill="#E0E0E0"/>
<path d="M146.501 217.991C209.251 217.991 260.12 215.026 260.12 211.369C260.12 207.711 209.251 204.746 146.501 204.746C83.7503 204.746 32.8811 207.711 32.8811 211.369C32.8811 215.026 83.7503 217.991 146.501 217.991Z" fill="#F5F5F5"/>
<path d="M61.0144 86.2412L60.4299 86.2832L61.2084 97.0727L61.7929 97.0306L61.0144 86.2412Z" fill="url(#paint0_linear_289_11174)"/>
<path d="M62.189 102.602L61.6045 102.645L61.8975 106.706L62.482 106.664L62.189 102.602Z" fill="url(#paint1_linear_289_11174)"/>
<path d="M197.898 152.234H72.4002C69.564 152.234 67.0735 149.917 66.8684 147.08L60.7037 61.5878C60.4986 58.7562 62.6551 56.4336 65.4913 56.4336H190.989C193.825 56.4336 196.316 58.7504 196.521 61.5878L202.686 147.08C202.891 149.911 200.734 152.234 197.898 152.234Z" fill="url(#paint2_linear_289_11174)"/>
<path d="M198.378 152.234H72.8807C70.0445 152.234 67.554 149.917 67.3489 147.08L61.1842 61.5878C60.9791 58.7562 63.1355 56.4336 65.9718 56.4336H191.47C194.306 56.4336 196.796 58.7504 197.001 61.5878L203.166 147.08C203.371 149.911 201.215 152.234 198.378 152.234Z" fill="url(#paint3_linear_289_11174)"/>
<path opacity="0.5" d="M198.378 152.234H72.8807C70.0445 152.234 67.554 149.917 67.3489 147.08L61.1842 61.5878C60.9791 58.7562 63.1355 56.4336 65.9718 56.4336H191.47C194.306 56.4336 196.796 58.7504 197.001 61.5878L203.166 147.08C203.371 149.911 201.215 152.234 198.378 152.234Z" fill="white"/>
<path d="M191.656 59.0137H66.1586C66.018 59.0137 65.8773 59.0137 65.7367 59.0312C62.5313 59.2945 63.1817 64.1679 66.4223 64.1679H192.131C195.372 64.1679 195.319 59.2945 192.072 59.0312C191.932 59.0195 191.791 59.0137 191.651 59.0137H191.656Z" fill="url(#paint4_linear_289_11174)"/>
<path d="M69.4281 61.588C69.475 62.2433 68.9828 62.7698 68.3323 62.7698C67.6819 62.7698 67.1134 62.2433 67.0666 61.588C67.0197 60.9386 67.5119 60.4062 68.1624 60.4062C68.8128 60.4062 69.3813 60.9328 69.4281 61.588Z" fill="#FAFAFA"/>
<path d="M73.4557 61.588C73.5026 62.2433 73.0104 62.7698 72.3599 62.7698C71.7095 62.7698 71.141 62.2433 71.0942 61.588C71.0473 60.9386 71.5395 60.4062 72.19 60.4062C72.8404 60.4062 73.4089 60.9328 73.4557 61.588Z" fill="#FAFAFA"/>
<path d="M77.4765 61.588C77.5234 62.2433 77.0311 62.7698 76.3807 62.7698C75.7302 62.7698 75.1618 62.2433 75.1149 61.588C75.068 60.9386 75.5603 60.4062 76.2107 60.4062C76.8612 60.4062 77.4296 60.9328 77.4765 61.588Z" fill="#FAFAFA"/>
<path d="M195.051 143.697H74.9793C73.9479 143.697 73.0455 142.86 72.9752 141.831L67.9063 71.5264C67.8301 70.4968 68.6095 69.6602 69.6408 69.6602H189.712C190.744 69.6602 191.646 70.4968 191.716 71.5264L196.785 141.831C196.861 142.86 196.082 143.697 195.051 143.697Z" fill="white"/>
<path d="M144.468 116.92L142.511 89.8207L136.593 86.2578H120.296L122.511 116.92H144.468Z" fill="white"/>
<path d="M144.467 117.2H122.51C122.363 117.2 122.234 117.083 122.228 116.937L120.019 86.2808C120.019 86.2047 120.042 86.1228 120.095 86.0643C120.148 86.0058 120.224 85.9766 120.3 85.9766H136.591C136.644 85.9766 136.691 85.9883 136.738 86.0175L142.662 89.5746C142.744 89.6214 142.791 89.7033 142.797 89.7969L144.754 116.896C144.754 116.972 144.731 117.054 144.678 117.112C144.625 117.171 144.549 117.2 144.473 117.2H144.467ZM122.773 116.633H144.162L142.24 89.9841L136.509 86.544H120.599L122.767 116.633H122.773Z" fill="url(#paint5_linear_289_11174)"/>
<path d="M142.508 89.8207L136.59 86.2578L138.764 90.9732L142.508 89.8207Z" fill="#EBEBEB"/>
<path d="M138.764 91.2598C138.659 91.2598 138.553 91.1955 138.506 91.096L136.332 86.3806C136.279 86.2694 136.309 86.1349 136.403 86.053C136.496 85.9711 136.631 85.9594 136.737 86.0237L142.661 89.5808C142.755 89.6393 142.807 89.7446 142.796 89.8557C142.784 89.9669 142.702 90.0605 142.597 90.0898L138.846 91.2481C138.846 91.2481 138.788 91.2598 138.764 91.2598ZM137.235 86.9773L138.922 90.628L141.829 89.7329L137.24 86.9773H137.235Z" fill="url(#paint6_linear_289_11174)"/>
<path d="M129.488 100.07C129.535 100.755 129.019 101.311 128.34 101.311C127.66 101.311 127.056 100.755 127.009 100.07C126.962 99.3859 127.478 98.8301 128.158 98.8301C128.838 98.8301 129.441 99.3859 129.488 100.07Z" fill="url(#paint7_linear_289_11174)"/>
<path d="M137.533 100.07C137.58 100.755 137.064 101.311 136.385 101.311C135.705 101.311 135.101 100.755 135.054 100.07C135.008 99.3859 135.523 98.8301 136.203 98.8301C136.883 98.8301 137.486 99.3859 137.533 100.07Z" fill="url(#paint8_linear_289_11174)"/>
<path d="M139.808 108.103C139.661 108.103 139.538 107.991 139.526 107.839C139.38 105.85 136.256 104.23 132.553 104.23C130.103 104.23 127.9 104.955 126.804 106.131C126.318 106.652 126.095 107.213 126.136 107.804C126.148 107.962 126.031 108.097 125.873 108.108C125.714 108.12 125.58 108.003 125.568 107.845C125.515 107.102 125.796 106.377 126.388 105.745C127.584 104.464 129.945 103.662 132.553 103.662C136.614 103.662 139.925 105.482 140.095 107.798C140.106 107.956 139.989 108.091 139.831 108.103C139.825 108.103 139.819 108.103 139.808 108.103Z" fill="url(#paint9_linear_289_11174)"/>
<path d="M124.92 97.5603C124.849 97.5603 124.779 97.5369 124.726 97.4842C124.609 97.3789 124.603 97.1976 124.709 97.0864L125.951 95.7467C126.057 95.6297 126.238 95.6238 126.35 95.7291C126.467 95.8344 126.473 96.0158 126.367 96.1269L125.125 97.4667C125.066 97.5252 124.99 97.5603 124.914 97.5603H124.92Z" fill="url(#paint10_linear_289_11174)"/>
<path d="M139.222 97.5614C139.151 97.5614 139.081 97.538 139.028 97.4854L137.592 96.1456C137.475 96.0403 137.469 95.8589 137.581 95.7478C137.686 95.6308 137.868 95.6249 137.979 95.7361L139.415 97.0758C139.532 97.1811 139.538 97.3625 139.427 97.4737C139.368 97.5322 139.298 97.5614 139.222 97.5614Z" fill="url(#paint11_linear_289_11174)"/>
<path d="M118.524 122.975H119.849L121.759 125.508L121.577 122.975H122.913L123.241 127.555H121.905L120.007 125.04L120.188 127.555H118.852L118.524 122.975Z" fill="url(#paint12_linear_289_11174)"/>
<path d="M123.839 125.268C123.787 124.519 123.951 123.94 124.338 123.519C124.724 123.097 125.293 122.893 126.037 122.893C126.781 122.893 127.402 123.097 127.848 123.507C128.293 123.916 128.539 124.49 128.592 125.227C128.633 125.765 128.574 126.204 128.416 126.543C128.258 126.888 128.018 127.152 127.689 127.345C127.361 127.538 126.945 127.631 126.435 127.631C125.926 127.631 125.486 127.55 125.135 127.386C124.783 127.222 124.49 126.959 124.256 126.602C124.021 126.245 123.88 125.8 123.845 125.262L123.839 125.268ZM125.258 125.274C125.293 125.736 125.398 126.069 125.586 126.268C125.773 126.473 126.014 126.572 126.312 126.572C126.611 126.572 126.846 126.473 126.998 126.274C127.15 126.075 127.209 125.718 127.174 125.209C127.144 124.776 127.033 124.46 126.846 124.262C126.658 124.063 126.412 123.963 126.113 123.963C125.814 123.963 125.603 124.063 125.445 124.267C125.287 124.472 125.222 124.806 125.258 125.274Z" fill="url(#paint13_linear_289_11174)"/>
<path d="M131.354 122.975H133.463C133.879 122.975 134.219 123.033 134.483 123.144C134.746 123.255 134.969 123.419 135.151 123.63C135.332 123.84 135.473 124.086 135.567 124.367C135.661 124.648 135.719 124.94 135.743 125.256C135.778 125.748 135.749 126.128 135.655 126.397C135.561 126.666 135.426 126.894 135.239 127.076C135.051 127.257 134.852 127.38 134.623 127.438C134.319 127.52 134.037 127.561 133.785 127.561H131.676L131.348 122.98L131.354 122.975ZM132.848 124.01L133.029 126.514H133.375C133.674 126.514 133.879 126.479 134.002 126.415C134.125 126.35 134.213 126.233 134.272 126.069C134.33 125.906 134.348 125.642 134.319 125.274C134.284 124.788 134.178 124.455 134.008 124.279C133.838 124.098 133.569 124.01 133.199 124.01H132.848Z" fill="url(#paint14_linear_289_11174)"/>
<path d="M139.145 126.801H137.533L137.363 127.555H135.916L137.31 122.975H138.857L140.914 127.555H139.432L139.15 126.801H139.145ZM138.781 125.812L138.154 124.162L137.773 125.812H138.781Z" fill="url(#paint15_linear_289_11174)"/>
<path d="M140.27 122.975H144.583L144.665 124.104H143.218L143.464 127.555H142.046L141.8 124.104H140.352L140.27 122.975Z" fill="url(#paint16_linear_289_11174)"/>
<path d="M147.887 126.801H146.276L146.106 127.555H144.658L146.053 122.975H147.6L149.657 127.555H148.174L147.893 126.801H147.887ZM147.524 125.812L146.897 124.162L146.516 125.812H147.524Z" fill="url(#paint17_linear_289_11174)"/>
<path d="M207.263 69.11C207.784 68.8467 208.411 68.5074 208.986 68.1915C209.572 67.8697 210.158 67.5304 210.732 67.1852C211.88 66.4773 213.035 65.7811 214.136 65.0089C216.352 63.4819 218.432 61.7911 220.295 59.9483C220.541 59.7259 220.747 59.4744 220.975 59.2404L221.309 58.8835L221.479 58.7021L221.561 58.6144C221.561 58.6144 221.579 58.5968 221.567 58.6144L221.549 58.6436C221.467 58.8016 221.538 58.7548 221.567 58.6027C221.608 58.4564 221.637 58.2224 221.649 57.965C221.684 56.9002 221.479 55.5605 221.221 54.2675C220.7 51.6407 219.909 48.9436 219.129 46.2993L221.409 45.3047C222.833 47.8496 224.022 50.4413 224.989 53.2612C225.452 54.6887 225.874 56.1221 225.997 57.8772C226.021 58.3277 226.032 58.7957 225.95 59.3457C225.862 59.8839 225.728 60.5333 225.235 61.2646L225.136 61.3992L225.06 61.4986L224.972 61.6098L224.79 61.8262L224.427 62.265C224.181 62.5517 223.952 62.8618 223.688 63.1309C221.667 65.3716 219.422 67.349 217.02 69.069C215.824 69.9407 214.605 70.7657 213.34 71.5204C212.707 71.9006 212.068 72.2692 211.417 72.6261C210.761 72.9888 210.134 73.3106 209.384 73.6616L207.257 69.1217L207.263 69.11Z" fill="#FFB573"/>
<path d="M202.047 206.653C202.499 206.653 202.997 206.56 203.342 206.478C203.389 206.466 203.424 206.431 203.43 206.384C203.436 206.337 203.419 206.29 203.377 206.267C203.208 206.156 201.719 205.196 201.145 205.454C201.057 205.495 200.94 205.583 200.916 205.781C200.881 206.039 200.946 206.25 201.11 206.396C201.321 206.589 201.666 206.653 202.047 206.653ZM203.014 206.314C202.159 206.484 201.52 206.454 201.268 206.226C201.162 206.132 201.121 205.992 201.151 205.811C201.162 205.711 201.209 205.682 201.25 205.664C201.549 205.53 202.411 205.945 203.02 206.308L203.014 206.314Z" fill="url(#paint18_linear_289_11174)"/>
<path d="M203.321 206.478C203.321 206.478 203.362 206.478 203.38 206.461C203.415 206.437 203.438 206.402 203.438 206.361C203.438 206.303 203.432 204.893 202.899 204.419C202.758 204.296 202.594 204.244 202.407 204.261C202.114 204.296 202.038 204.478 202.014 204.583C201.903 205.133 202.794 206.192 203.262 206.455C203.28 206.467 203.298 206.473 203.321 206.473V206.478ZM202.483 204.489C202.577 204.489 202.665 204.524 202.741 204.589C203.057 204.87 203.169 205.665 203.198 206.133C202.729 205.759 202.172 204.969 202.243 204.63C202.254 204.577 202.284 204.507 202.436 204.489C202.454 204.489 202.471 204.489 202.489 204.489H202.483Z" fill="url(#paint19_linear_289_11174)"/>
<path d="M202.886 54.4726C202.317 57.3803 201.11 63.2717 203.149 65.2081C203.149 65.2081 202.352 68.1568 196.944 68.1568C190.99 68.1568 194.102 65.2081 194.102 65.2081C197.348 64.4359 197.266 62.0255 196.698 59.7673L202.886 54.4668V54.4726Z" fill="#FFB573"/>
<path d="M192.962 66.3834C192.03 66.5121 192.821 64.0959 193.202 63.8443C194.081 63.2651 205.42 62.4461 205.35 63.8209C205.303 64.4118 205.027 65.5643 204.529 65.9563C204.031 66.3483 201.119 65.1665 192.968 66.3834H192.962Z" fill="#263238"/>
<path d="M194.812 65.5708C194.068 65.8224 194.138 63.3886 194.396 63.0961C194.982 62.4175 204.159 60.0656 204.434 61.3936C204.54 61.967 204.592 63.1195 204.276 63.5641C203.959 64.0088 201.264 63.2716 194.818 65.5708H194.812Z" fill="#263238"/>
<path d="M191.395 49.2357C191.324 49.2357 191.248 49.2123 191.201 49.1538C190.545 48.3523 189.69 48.4342 189.684 48.4342C189.555 48.4459 189.443 48.3581 189.426 48.2294C189.414 48.1007 189.502 47.9895 189.631 47.972C189.678 47.972 190.744 47.8667 191.559 48.8554C191.641 48.9549 191.623 49.1011 191.524 49.183C191.483 49.2181 191.436 49.2298 191.389 49.2357H191.395Z" fill="#263238"/>
<path d="M190.259 52.0977C190.259 52.0977 189.755 53.8586 189.104 54.7479C189.673 55.1808 190.534 54.8707 190.534 54.8707L190.259 52.0977Z" fill="url(#paint20_linear_289_11174)"/>
<path d="M190.545 51.3837C190.586 51.7757 190.405 52.115 190.147 52.1443C189.889 52.1677 189.649 51.8693 189.608 51.4773C189.567 51.0854 189.748 50.746 190.006 50.7168C190.264 50.6875 190.504 50.9918 190.545 51.3837Z" fill="#263238"/>
<path d="M190.124 50.7282L189.151 50.5469C189.151 50.5469 189.708 51.2372 190.124 50.7282Z" fill="#263238"/>
<path d="M209.028 206.362H204.117L204.504 195.018H209.414L209.028 206.362Z" fill="#FFB573"/>
<path d="M203.728 205.795H209.242C209.441 205.795 209.605 205.935 209.635 206.128L210.262 210.487C210.326 210.937 209.939 211.364 209.476 211.359C207.554 211.324 206.629 211.212 204.202 211.212C202.708 211.212 200.528 211.364 198.471 211.364C196.415 211.364 196.303 209.329 197.159 209.147C201.003 208.322 201.612 207.181 202.907 206.093C203.142 205.9 203.435 205.789 203.728 205.789V205.795Z" fill="#263238"/>
<g opacity="0.2">
<path d="M209.414 195.018H204.503L204.304 200.868H209.214L209.414 195.018Z" fill="black"/>
</g>
<path d="M189.496 72.0112C186.461 70.8235 183.56 69.5306 180.677 68.0621C177.794 66.5878 174.963 65.0258 172.239 62.9313C171.559 62.3989 170.891 61.8139 170.234 61.1352C170.07 60.9597 169.906 60.7959 169.748 60.597C169.578 60.3864 169.449 60.2635 169.232 59.9359C168.834 59.3684 168.529 58.602 168.447 57.8239C168.371 57.0458 168.512 56.297 168.734 55.7061C168.957 55.1035 169.25 54.6062 169.561 54.1791C170.176 53.325 170.861 52.6873 171.547 52.1198C172.918 50.9848 174.372 50.1599 175.825 49.3876C176.552 49.0015 177.29 48.6563 178.04 48.3346C178.796 48.0069 179.528 47.7086 180.331 47.4336L181.374 49.686C178.819 51.2949 176.171 53.0617 174.225 55.045C173.75 55.5364 173.34 56.0512 173.077 56.5017C172.795 56.9639 172.801 57.3091 172.848 57.2798C172.871 57.2798 172.86 57.2681 172.93 57.3383L173.164 57.5899C173.252 57.6952 173.375 57.8005 173.487 57.9117C173.95 58.3387 174.489 58.7717 175.069 59.1812C176.229 60.0061 177.513 60.7784 178.837 61.5038C180.155 62.2351 181.515 62.9372 182.904 63.6041C185.664 64.9263 188.529 66.1958 191.336 67.3542L189.502 72.017L189.496 72.0112Z" fill="#FFB573"/>
<path d="M182.815 48.0891L183.63 46.334L179.938 45.0527C179.938 45.0527 178.79 48.5045 180.161 50.1016C181.327 49.9144 182.323 49.1597 182.815 48.0891Z" fill="#FFB573"/>
<path d="M183.624 42.5319L180.677 41.6836L179.938 45.0534L183.624 46.3347V42.5319Z" fill="#FFB573"/>
<path d="M221.714 46.5054L222.142 42.3984L218.339 43.2877C218.339 43.2877 218.28 47.1373 220.296 47.7516L221.714 46.5054Z" fill="#FFB573"/>
<path d="M220.313 39.5195L217.835 40.6779L218.345 43.2872L222.142 42.3979L220.313 39.5195Z" fill="#FFB573"/>
<path d="M203.66 48.7338C203.842 53.5955 204.017 55.649 201.82 58.3695C198.509 62.4589 192.491 61.6164 190.862 56.9069C189.397 52.6712 189.35 45.4342 193.897 43.0472C198.38 40.6954 203.484 43.878 203.66 48.7397V48.7338Z" fill="#FFB573"/>
<path d="M201.54 58.3573C206.322 56.2979 209.463 51.9511 208.133 45.1529C206.861 38.6472 202.466 38.0095 200.65 39.3551C198.833 40.7066 194.303 38.694 191.59 40.9757C186.884 44.9306 191.332 49.1955 193.653 51.7229C195.036 54.5662 196.852 60.3815 201.54 58.3573Z" fill="#263238"/>
<path d="M199.552 43.9836C201.164 46.312 204.258 46.9731 206.461 45.452C208.665 43.9309 209.145 40.8126 207.528 38.4783C205.916 36.1499 202.822 35.4888 200.619 37.0099C198.415 38.531 197.935 41.6493 199.552 43.9836Z" fill="url(#paint21_linear_289_11174)"/>
<path d="M200.793 39.8116C200.101 35.8919 203.817 32.873 208.786 34.3298C213.749 35.7924 211.124 40.186 210.104 43.6963C209.085 47.2065 211.757 50.5471 212.876 47.8793C213.996 45.2057 212.114 44.3808 212.114 44.3808C212.114 44.3808 217.388 45.7439 212.489 51.6821C207.591 57.6144 203.155 51.062 204.356 47.1948C205.323 44.0707 201.443 43.5149 200.793 39.8116Z" fill="#263238"/>
<path d="M195.833 41.2914C193.565 40.1096 189.727 39.156 187.541 42.8242C186.51 44.5617 186.908 46.9136 186.908 46.9136L193.583 47.3582L195.833 41.2914Z" fill="#263238"/>
<path d="M186.122 45.7607C186.122 45.7607 186.116 45.7607 186.11 45.7607C186.028 45.7607 185.969 45.6847 185.975 45.6086C185.981 45.5092 186.145 43.1573 187.563 41.6771C191.003 38.1084 195.035 41.0687 196.189 42.0633C196.248 42.1159 196.259 42.2095 196.207 42.268C196.154 42.3265 196.06 42.3382 196.001 42.2856C194.9 41.3378 191.038 38.5004 187.78 41.8819C186.432 43.2801 186.274 45.6028 186.268 45.6262C186.268 45.7022 186.198 45.7607 186.122 45.7607Z" fill="#263238"/>
<path d="M194.465 51.5302C194.459 52.478 194.031 53.4023 193.492 54.0342C192.683 54.9819 191.751 54.5139 191.54 53.4667C191.347 52.5248 191.54 50.8925 192.56 50.325C193.568 49.7634 194.465 50.4537 194.459 51.536L194.465 51.5302Z" fill="#FFB573"/>
<path d="M193.412 96.0449C193.412 96.0449 193.722 130.059 196.681 149.015C199.067 164.325 203.485 199.732 203.485 199.732H210.177C210.177 199.732 210.833 165.554 209.62 150.407C206.556 112.087 214.467 104.926 208.079 96.0391H193.406L193.412 96.0449Z" fill="#263238"/>
<path opacity="0.1" d="M193.412 96.0449C193.412 96.0449 193.722 130.059 196.681 149.015C199.067 164.325 203.485 199.732 203.485 199.732H210.177C210.177 199.732 210.833 165.554 209.62 150.407C206.556 112.087 214.467 104.926 208.079 96.0391H193.406L193.412 96.0449Z" fill="white"/>
<path opacity="0.3" d="M196.933 111.479C199.283 121.747 197.408 137.917 196.125 145.037C194.765 134.226 194.079 120.214 193.74 109.947C194.953 107.981 196.101 107.852 196.933 111.479Z" fill="black"/>
<path d="M202.569 199.866H211.095L211.541 196.882L202.522 196.572L202.569 199.866Z" fill="url(#paint22_linear_289_11174)"/>
<path d="M205.001 67.332C205.804 65.7406 210.111 64.7402 212.473 64.7402L214.237 72.5564C214.237 72.5564 209.543 79.5125 207.592 78.7754C205.283 77.9036 203.29 70.7369 205.007 67.3261L205.001 67.332Z" fill="url(#paint23_linear_289_11174)"/>
<path opacity="0.4" d="M205.001 67.332C205.804 65.7406 210.111 64.7402 212.473 64.7402L214.237 72.5564C214.237 72.5564 209.543 79.5125 207.592 78.7754C205.283 77.9036 203.29 70.7369 205.007 67.3261L205.001 67.332Z" fill="black"/>
<path d="M200.032 197.955C200.055 197.92 200.055 197.879 200.032 197.838C200.008 197.797 199.961 197.768 199.915 197.78C199.668 197.815 197.5 198.16 197.207 198.78C197.149 198.897 197.16 199.026 197.231 199.143C197.348 199.342 197.518 199.453 197.735 199.477C198.444 199.553 199.469 198.564 200.02 197.973C200.02 197.973 200.032 197.961 200.032 197.955ZM197.43 198.856C197.629 198.529 198.754 198.225 199.61 198.067C198.836 198.851 198.157 199.289 197.758 199.248C197.617 199.237 197.512 199.161 197.43 199.026C197.401 198.973 197.395 198.927 197.418 198.88C197.418 198.874 197.424 198.862 197.43 198.856Z" fill="url(#paint24_linear_289_11174)"/>
<path d="M200.032 197.954C200.032 197.954 200.038 197.936 200.044 197.93C200.056 197.889 200.044 197.848 200.02 197.819C199.985 197.778 199.112 196.778 198.315 196.725C198.069 196.708 197.852 196.784 197.676 196.942C197.436 197.158 197.454 197.345 197.518 197.462C197.77 197.965 199.329 198.141 199.962 198.006C199.991 198.001 200.02 197.983 200.038 197.954H200.032ZM197.741 197.217C197.758 197.187 197.788 197.152 197.835 197.111C197.969 196.994 198.122 196.942 198.303 196.953C198.831 196.988 199.429 197.532 199.698 197.807C199.001 197.866 197.876 197.655 197.723 197.351C197.712 197.334 197.694 197.287 197.741 197.211V197.217Z" fill="url(#paint25_linear_289_11174)"/>
<path d="M205.149 195.877L200.661 197.872L198.662 193.712L196.049 188.271L195.738 187.634L200.227 185.645L200.573 186.352L203.104 191.624L205.149 195.877Z" fill="#FFB573"/>
<path opacity="0.2" d="M203.104 191.623L198.662 193.711L196.049 188.27L200.573 186.352L203.104 191.623Z" fill="black"/>
<path d="M188.147 96.0449C188.147 96.0449 173.808 131.633 177.693 148.394C181.209 163.541 196.738 192.226 196.738 192.226L202.744 189.213C202.744 189.213 193.14 154.584 192.097 147.06C190.069 132.423 203.102 111.765 203.102 96.0391H188.147V96.0449Z" fill="#263238"/>
<path opacity="0.1" d="M188.147 96.0449C188.147 96.0449 173.808 131.633 177.693 148.394C181.209 163.541 196.738 192.226 196.738 192.226L202.744 189.213C202.744 189.213 193.14 154.584 192.097 147.06C190.069 132.423 203.102 111.765 203.102 96.0391H188.147V96.0449Z" fill="white"/>
<path d="M199.864 197.246L204.323 194.005C204.487 193.888 204.698 193.906 204.839 194.046L207.915 197.199C208.232 197.527 208.173 198.1 207.792 198.364C206.216 199.469 205.401 199.92 203.444 201.341C202.237 202.219 199.834 204.155 198.17 205.367C196.541 206.548 195.217 204.998 195.803 204.343C198.428 201.418 198.979 199.604 199.383 197.966C199.459 197.667 199.629 197.41 199.869 197.24L199.864 197.246Z" fill="#263238"/>
<path d="M196.352 193.496L204.104 189.956L203.114 186.803L194.811 190.582L196.352 193.496Z" fill="url(#paint26_linear_289_11174)"/>
<path d="M191.95 66.9351C191.306 65.2736 185.704 63.4483 182.897 62.8164L181.66 72.0425C181.66 72.0425 186.249 78.6301 188.264 78.0801C190.644 77.4366 193.327 70.498 191.95 66.9351Z" fill="url(#paint27_linear_289_11174)"/>
<path opacity="0.4" d="M191.95 66.9351C191.306 65.2736 185.704 63.4483 182.897 62.8164L181.66 72.0425C181.66 72.0425 186.249 78.6301 188.264 78.0801C190.644 77.4366 193.327 70.498 191.95 66.9351Z" fill="black"/>
<path d="M185.804 66.4655C185.804 66.4655 183.466 67.2904 188.148 96.0452H208.084C207.75 87.9423 207.738 82.9519 211.618 66.3251C211.618 66.3251 207.439 65.4183 203.15 65.2135C199.798 65.0497 197.05 64.9444 194.096 65.2135C190.211 65.5704 185.798 66.4714 185.798 66.4714L185.804 66.4655Z" fill="url(#paint28_linear_289_11174)"/>
<path opacity="0.4" d="M185.804 66.4655C185.804 66.4655 183.466 67.2904 188.148 96.0452H208.084C207.75 87.9423 207.738 82.9519 211.618 66.3251C211.618 66.3251 207.439 65.4183 203.15 65.2135C199.798 65.0497 197.05 64.9444 194.096 65.2135C190.211 65.5704 185.798 66.4714 185.798 66.4714L185.804 66.4655Z" fill="black"/>
<path d="M208.383 94.8748L209.279 96.6592C209.35 96.7996 209.186 96.94 208.957 96.94H188.049C187.867 96.94 187.72 96.8522 187.709 96.7411L187.527 94.9567C187.515 94.8338 187.668 94.7285 187.867 94.7285H208.055C208.201 94.7285 208.336 94.787 208.377 94.8806L208.383 94.8748Z" fill="url(#paint29_linear_289_11174)"/>
<path opacity="0.3" d="M208.383 94.8748L209.279 96.6592C209.35 96.7996 209.186 96.94 208.957 96.94H188.049C187.867 96.94 187.72 96.8522 187.709 96.7411L187.527 94.9567C187.515 94.8338 187.668 94.7285 187.867 94.7285H208.055C208.201 94.7285 208.336 94.787 208.377 94.8806L208.383 94.8748Z" fill="white"/>
<path d="M205.671 97.1289H206.21C206.316 97.1289 206.398 97.0762 206.392 97.006L206.14 94.6893C206.134 94.6191 206.04 94.5664 205.929 94.5664H205.39C205.284 94.5664 205.202 94.6191 205.208 94.6893L205.46 97.006C205.466 97.0762 205.56 97.1289 205.671 97.1289Z" fill="#263238"/>
<path d="M192.568 97.1289H193.107C193.212 97.1289 193.294 97.0762 193.289 97.006L193.037 94.6893C193.031 94.6191 192.937 94.5664 192.826 94.5664H192.286C192.181 94.5664 192.099 94.6191 192.105 94.6893L192.357 97.006C192.363 97.0762 192.456 97.1289 192.568 97.1289Z" fill="#263238"/>
</g>
<defs>
<linearGradient id="paint0_linear_289_11174" x1="61.4036" y1="91.6359" x2="60.8192" y2="91.6781" gradientUnits="userSpaceOnUse">
<stop stop-color="#FD6D12"/>
<stop offset="1" stop-color="#EE5208"/>
</linearGradient>
<linearGradient id="paint1_linear_289_11174" x1="62.3355" y1="104.633" x2="61.751" y2="104.675" gradientUnits="userSpaceOnUse">
<stop stop-color="#FD6D12"/>
<stop offset="1" stop-color="#EE5208"/>
</linearGradient>
<linearGradient id="paint2_linear_289_11174" x1="202.699" y1="104.334" x2="60.6902" y2="104.334" gradientUnits="userSpaceOnUse">
<stop stop-color="#FD6D12"/>
<stop offset="1" stop-color="#EE5208"/>
</linearGradient>
<linearGradient id="paint3_linear_289_11174" x1="203.18" y1="104.334" x2="61.1707" y2="104.334" gradientUnits="userSpaceOnUse">
<stop stop-color="#FD6D12"/>
<stop offset="1" stop-color="#EE5208"/>
</linearGradient>
<linearGradient id="paint4_linear_289_11174" x1="194.535" y1="61.5908" x2="63.6365" y2="61.5908" gradientUnits="userSpaceOnUse">
<stop stop-color="#FD6D12"/>
<stop offset="1" stop-color="#EE5208"/>
</linearGradient>
<linearGradient id="paint5_linear_289_11174" x1="144.754" y1="101.588" x2="120.019" y2="101.588" gradientUnits="userSpaceOnUse">
<stop stop-color="#FD6D12"/>
<stop offset="1" stop-color="#EE5208"/>
</linearGradient>
<linearGradient id="paint6_linear_289_11174" x1="142.797" y1="88.6211" x2="136.306" y2="88.6211" gradientUnits="userSpaceOnUse">
<stop stop-color="#FD6D12"/>
<stop offset="1" stop-color="#EE5208"/>
</linearGradient>
<linearGradient id="paint7_linear_289_11174" x1="129.491" y1="100.07" x2="127.006" y2="100.07" gradientUnits="userSpaceOnUse">
<stop stop-color="#FD6D12"/>
<stop offset="1" stop-color="#EE5208"/>
</linearGradient>
<linearGradient id="paint8_linear_289_11174" x1="137.536" y1="100.07" x2="135.052" y2="100.07" gradientUnits="userSpaceOnUse">
<stop stop-color="#FD6D12"/>
<stop offset="1" stop-color="#EE5208"/>
</linearGradient>
<linearGradient id="paint9_linear_289_11174" x1="140.096" y1="105.886" x2="125.562" y2="105.886" gradientUnits="userSpaceOnUse">
<stop stop-color="#FD6D12"/>
<stop offset="1" stop-color="#EE5208"/>
</linearGradient>
<linearGradient id="paint10_linear_289_11174" x1="126.442" y1="96.6073" x2="124.634" y2="96.6073" gradientUnits="userSpaceOnUse">
<stop stop-color="#FD6D12"/>
<stop offset="1" stop-color="#EE5208"/>
</linearGradient>
<linearGradient id="paint11_linear_289_11174" x1="139.507" y1="96.6088" x2="137.501" y2="96.6088" gradientUnits="userSpaceOnUse">
<stop stop-color="#FD6D12"/>
<stop offset="1" stop-color="#EE5208"/>
</linearGradient>
<linearGradient id="paint12_linear_289_11174" x1="123.241" y1="125.265" x2="118.524" y2="125.265" gradientUnits="userSpaceOnUse">
<stop stop-color="#FD6D12"/>
<stop offset="1" stop-color="#EE5208"/>
</linearGradient>
<linearGradient id="paint13_linear_289_11174" x1="128.605" y1="125.262" x2="123.83" y2="125.262" gradientUnits="userSpaceOnUse">
<stop stop-color="#FD6D12"/>
<stop offset="1" stop-color="#EE5208"/>
</linearGradient>
<linearGradient id="paint14_linear_289_11174" x1="135.757" y1="125.268" x2="131.348" y2="125.268" gradientUnits="userSpaceOnUse">
<stop stop-color="#FD6D12"/>
<stop offset="1" stop-color="#EE5208"/>
</linearGradient>
<linearGradient id="paint15_linear_289_11174" x1="140.914" y1="125.265" x2="135.916" y2="125.265" gradientUnits="userSpaceOnUse">
<stop stop-color="#FD6D12"/>
<stop offset="1" stop-color="#EE5208"/>
</linearGradient>
<linearGradient id="paint16_linear_289_11174" x1="144.665" y1="125.265" x2="140.27" y2="125.265" gradientUnits="userSpaceOnUse">
<stop stop-color="#FD6D12"/>
<stop offset="1" stop-color="#EE5208"/>
</linearGradient>
<linearGradient id="paint17_linear_289_11174" x1="149.657" y1="125.265" x2="144.658" y2="125.265" gradientUnits="userSpaceOnUse">
<stop stop-color="#FD6D12"/>
<stop offset="1" stop-color="#EE5208"/>
</linearGradient>
<linearGradient id="paint18_linear_289_11174" x1="203.431" y1="206.032" x2="200.907" y2="206.032" gradientUnits="userSpaceOnUse">
<stop stop-color="#FD6D12"/>
<stop offset="1" stop-color="#EE5208"/>
</linearGradient>
<linearGradient id="paint19_linear_289_11174" x1="203.438" y1="205.368" x2="202.005" y2="205.368" gradientUnits="userSpaceOnUse">
<stop stop-color="#FD6D12"/>
<stop offset="1" stop-color="#EE5208"/>
</linearGradient>
<linearGradient id="paint20_linear_289_11174" x1="190.534" y1="53.538" x2="189.104" y2="53.538" gradientUnits="userSpaceOnUse">
<stop stop-color="#FD6D12"/>
<stop offset="1" stop-color="#EE5208"/>
</linearGradient>
<linearGradient id="paint21_linear_289_11174" x1="208.486" y1="41.231" x2="198.594" y2="41.231" gradientUnits="userSpaceOnUse">
<stop stop-color="#FD6D12"/>
<stop offset="1" stop-color="#EE5208"/>
</linearGradient>
<linearGradient id="paint22_linear_289_11174" x1="211.541" y1="198.219" x2="202.522" y2="198.219" gradientUnits="userSpaceOnUse">
<stop stop-color="#FD6D12"/>
<stop offset="1" stop-color="#EE5208"/>
</linearGradient>
<linearGradient id="paint23_linear_289_11174" x1="214.237" y1="71.7851" x2="204.361" y2="71.7851" gradientUnits="userSpaceOnUse">
<stop stop-color="#FD6D12"/>
<stop offset="1" stop-color="#EE5208"/>
</linearGradient>
<linearGradient id="paint24_linear_289_11174" x1="200.049" y1="198.629" x2="197.17" y2="198.629" gradientUnits="userSpaceOnUse">
<stop stop-color="#FD6D12"/>
<stop offset="1" stop-color="#EE5208"/>
</linearGradient>
<linearGradient id="paint25_linear_289_11174" x1="200.048" y1="197.386" x2="197.477" y2="197.386" gradientUnits="userSpaceOnUse">
<stop stop-color="#FD6D12"/>
<stop offset="1" stop-color="#EE5208"/>
</linearGradient>
<linearGradient id="paint26_linear_289_11174" x1="204.104" y1="190.149" x2="194.811" y2="190.149" gradientUnits="userSpaceOnUse">
<stop stop-color="#FD6D12"/>
<stop offset="1" stop-color="#EE5208"/>
</linearGradient>
<linearGradient id="paint27_linear_289_11174" x1="192.325" y1="70.4646" x2="181.66" y2="70.4646" gradientUnits="userSpaceOnUse">
<stop stop-color="#FD6D12"/>
<stop offset="1" stop-color="#EE5208"/>
</linearGradient>
<linearGradient id="paint28_linear_289_11174" x1="211.618" y1="80.547" x2="185.22" y2="80.547" gradientUnits="userSpaceOnUse">
<stop stop-color="#FD6D12"/>
<stop offset="1" stop-color="#EE5208"/>
</linearGradient>
<linearGradient id="paint29_linear_289_11174" x1="209.296" y1="95.8342" x2="187.526" y2="95.8342" gradientUnits="userSpaceOnUse">
<stop stop-color="#FD6D12"/>
<stop offset="1" stop-color="#EE5208"/>
</linearGradient>
<clipPath id="clip0_289_11174">
<rect width="293" height="217.992" fill="white"/>
</clipPath>
</defs>
</svg>
