<svg width="18" height="19" viewBox="0 0 18 19" fill="none" xmlns="http://www.w3.org/2000/svg">
<g id="Frame" clip-path="url(#clip0_279_9220)">
<g id="Group">
<path id="Vector" d="M7.49994 18.5C5.94976 18.5 4.68744 17.2385 4.68744 15.6875C4.68744 15.377 4.93944 15.125 5.24994 15.125C5.56044 15.125 5.81244 15.377 5.81244 15.6875C5.81244 16.6183 6.56995 17.375 7.49994 17.375C8.42993 17.375 9.18744 16.6183 9.18744 15.6875C9.18744 15.377 9.43944 15.125 9.74994 15.125C10.0604 15.125 10.3124 15.377 10.3124 15.6875C10.3124 17.2385 9.05026 18.5 7.49994 18.5Z" fill="#A92C2C"/>
<path id="Vector_2" d="M13.6875 16.25H1.31245C0.588727 16.25 2.49255e-07 15.6613 2.49255e-07 14.9375C-0.0001166 14.748 0.0408516 14.5606 0.120084 14.3884C0.199316 14.2162 0.31493 14.0632 0.458965 13.94C0.477774 13.9235 0.497989 13.9085 0.518977 13.895C1.61993 12.9342 2.25 11.552 2.25 10.0925V7.99995C2.25 5.10505 4.60575 2.75 7.49995 2.75C7.61998 2.75 7.74974 2.75218 7.8698 2.7725C8.17643 2.82348 8.38354 3.1138 8.33245 3.41973C8.28148 3.72573 7.98595 3.93283 7.68523 3.88171C7.62522 3.87198 7.5593 3.875 7.49995 3.875C5.22605 3.875 3.375 5.72524 3.375 7.99995V10.0925C3.375 11.9045 2.58068 13.619 1.19777 14.7957C1.18652 14.8048 1.17679 14.813 1.16469 14.8212C1.13863 14.8544 1.12464 14.8954 1.125 14.9375C1.125 15.0394 1.21057 15.125 1.31245 15.125H13.6875C13.7895 15.125 13.875 15.0394 13.875 14.9375C13.875 14.885 13.8555 14.8468 13.8345 14.8212C13.8233 14.813 13.8135 14.8048 13.8023 14.7957C12.4185 13.6182 11.625 11.9045 11.625 10.0925V9.27507C11.625 8.96457 11.877 8.71257 12.1875 8.71257C12.498 8.71257 12.75 8.96457 12.75 9.27507V10.0925C12.75 11.5528 13.3808 12.9357 14.4832 13.8973C14.5035 13.9107 14.523 13.925 14.5409 13.9408C14.6851 14.0638 14.8008 14.2166 14.88 14.3887C14.9593 14.5608 15.0002 14.7481 15 14.9375C15 15.6613 14.4113 16.25 13.6875 16.25Z" fill="#A92C2C"/>
<path id="Vector_3" d="M12.75 7.99995C10.6823 7.99995 9 6.3178 9 4.25005C9 2.1823 10.6823 0.5 12.75 0.5C14.8178 0.5 16.5 2.1823 16.5 4.25005C16.5 6.3178 14.8178 7.99995 12.75 7.99995ZM12.75 1.625C11.3025 1.625 10.125 2.80245 10.125 4.25005C10.125 5.6975 11.3025 6.87495 12.75 6.87495C14.1975 6.87495 15.375 5.6975 15.375 4.25005C15.375 2.80245 14.1975 1.625 12.75 1.625Z" fill="#A92C2C"/>
</g>
</g>
<defs>
<clipPath id="clip0_279_9220">
<rect width="18" height="18" fill="white" transform="translate(0 0.5)"/>
</clipPath>
</defs>
</svg>
