<svg width="16" height="16" viewBox="0 0 16 16" fill="none" xmlns="http://www.w3.org/2000/svg">
<g id="vuesax/bulk/notification-bing">
<g id="notification-bing">
<path id="Vector" opacity="0.4" d="M13.6 10.8872C13.4133 11.3872 13.02 11.7672 12.5066 11.9405C11.7866 12.1805 11.0466 12.3605 10.3 12.4872C10.2266 12.5005 10.1533 12.5139 10.08 12.5205C9.95997 12.5405 9.83997 12.5539 9.71997 12.5672C9.57331 12.5872 9.41997 12.6005 9.26664 12.6139C8.84664 12.6472 8.43331 12.6672 8.01331 12.6672C7.58664 12.6672 7.15997 12.6472 6.73997 12.6072C6.55997 12.5939 6.38664 12.5739 6.21331 12.5472C6.11331 12.5339 6.01331 12.5205 5.91997 12.5072C5.84664 12.4939 5.77331 12.4872 5.69997 12.4739C4.95997 12.3539 4.22664 12.1739 3.51331 11.9339C2.97997 11.7539 2.57331 11.3739 2.39331 10.8872C2.21331 10.4072 2.27997 9.84719 2.56664 9.36719L3.31997 8.11385C3.47997 7.84052 3.62664 7.31385 3.62664 6.99385V5.75385C3.62664 3.33385 5.59331 1.36719 8.01331 1.36719C10.4266 1.36719 12.3933 3.33385 12.3933 5.75385V6.99385C12.3933 7.31385 12.54 7.84052 12.7066 8.11385L13.46 9.36719C13.7333 9.83385 13.7866 10.3805 13.6 10.8872Z" fill="url(#paint0_linear_690_347)"/>
<path id="Vector_2" d="M8.00001 7.17375C7.72001 7.17375 7.49335 6.94708 7.49335 6.66708V4.60042C7.49335 4.32042 7.72001 4.09375 8.00001 4.09375C8.28001 4.09375 8.50668 4.32042 8.50668 4.60042V6.66708C8.50001 6.94708 8.27335 7.17375 8.00001 7.17375Z" fill="url(#paint1_linear_690_347)"/>
<path id="Vector_3" d="M9.88666 13.3407C9.60666 14.114 8.86666 14.6673 7.99999 14.6673C7.47333 14.6673 6.95333 14.454 6.58666 14.074C6.37333 13.874 6.21333 13.6073 6.12 13.334C6.20666 13.3473 6.29333 13.354 6.38666 13.3673C6.53999 13.3873 6.69999 13.4073 6.85999 13.4207C7.23999 13.454 7.62666 13.474 8.01333 13.474C8.39333 13.474 8.77333 13.454 9.14666 13.4207C9.28666 13.4073 9.42666 13.4007 9.55999 13.3807C9.66666 13.3673 9.77333 13.354 9.88666 13.3407Z" fill="url(#paint2_linear_690_347)"/>
</g>
</g>
<defs>
<linearGradient id="paint0_linear_690_347" x1="13.7101" y1="7.01719" x2="2.29346" y2="7.01719" gradientUnits="userSpaceOnUse">
<stop stop-color="#FD6D12"/>
<stop offset="1" stop-color="#EE5208"/>
</linearGradient>
<linearGradient id="paint1_linear_690_347" x1="8.50668" y1="5.63375" x2="7.49335" y2="5.63375" gradientUnits="userSpaceOnUse">
<stop stop-color="#FD6D12"/>
<stop offset="1" stop-color="#EE5208"/>
</linearGradient>
<linearGradient id="paint2_linear_690_347" x1="9.88666" y1="14.0007" x2="6.12" y2="14.0007" gradientUnits="userSpaceOnUse">
<stop stop-color="#FD6D12"/>
<stop offset="1" stop-color="#EE5208"/>
</linearGradient>
</defs>
</svg>
