<svg width="24" height="24" viewBox="0 0 24 24" fill="none" xmlns="http://www.w3.org/2000/svg">
<path d="M9.22779 10.6318H6.42795C6.24147 10.6318 6.06263 10.7059 5.93076 10.8378C5.7989 10.9696 5.72482 11.1485 5.72482 11.335C5.72482 11.5214 5.7989 11.7003 5.93076 11.8321C6.06263 11.964 6.24147 12.0381 6.42795 12.0381H9.22779C9.41427 12.0381 9.59312 11.964 9.72498 11.8321C9.85684 11.7003 9.93092 11.5214 9.93092 11.335C9.93092 11.1485 9.85684 10.9696 9.72498 10.8378C9.59312 10.7059 9.41427 10.6318 9.22779 10.6318ZM3.21045 12.0381H3.66982C3.76216 12.0381 3.85359 12.0199 3.9389 11.9846C4.02421 11.9492 4.10172 11.8974 4.16701 11.8321C4.2323 11.7669 4.28409 11.6893 4.31943 11.604C4.35476 11.5187 4.37295 11.4273 4.37295 11.335C4.37295 11.2426 4.35476 11.1512 4.31943 11.0659C4.28409 10.9806 4.2323 10.9031 4.16701 10.8378C4.10172 10.7725 4.02421 10.7207 3.9389 10.6854C3.85359 10.65 3.76216 10.6318 3.66982 10.6318H3.21045C3.11811 10.6318 3.02668 10.65 2.94138 10.6854C2.85607 10.7207 2.77856 10.7725 2.71326 10.8378C2.64797 10.9031 2.59618 10.9806 2.56085 11.0659C2.52551 11.1512 2.50732 11.2426 2.50732 11.335C2.50732 11.4273 2.52551 11.5187 2.56085 11.604C2.59618 11.6893 2.64797 11.7669 2.71326 11.8321C2.77856 11.8974 2.85607 11.9492 2.94138 11.9846C3.02668 12.0199 3.11811 12.0381 3.21045 12.0381ZM9.22779 13.6407H3.21045C3.02397 13.6407 2.84513 13.7148 2.71326 13.8467C2.5814 13.9785 2.50732 14.1574 2.50732 14.3439C2.50732 14.5303 2.5814 14.7092 2.71326 14.8411C2.84513 14.9729 3.02397 15.047 3.21045 15.047H9.22779C9.41427 15.047 9.59312 14.9729 9.72498 14.8411C9.85684 14.7092 9.93092 14.5303 9.93092 14.3439C9.93092 14.1574 9.85684 13.9785 9.72498 13.8467C9.59312 13.7148 9.41427 13.6407 9.22779 13.6407Z" fill="black"/>
<path d="M23.2969 11.1717C23.1866 11.1717 23.0772 11.1677 22.9688 11.1595V4.5C22.9688 4.06488 22.7959 3.64758 22.4882 3.3399C22.1805 3.03223 21.7632 2.85938 21.3281 2.85938H1.64062C1.2055 2.85938 0.788205 3.03223 0.480528 3.3399C0.172851 3.64758 0 4.06488 0 4.5L0 17.167C0 17.6022 0.172851 18.0195 0.480528 18.3271C0.788205 18.6348 1.2055 18.8077 1.64062 18.8077H16.3069C17.0541 19.8527 18.0972 20.6499 19.3017 21.0966C19.4599 21.1554 19.6339 21.1554 19.792 21.0966C21.0274 20.6368 22.0927 19.8102 22.8448 18.7277C23.597 17.6452 24.0001 16.3585 24 15.0403V11.8748C24 11.6884 23.9259 11.5095 23.7941 11.3777C23.6622 11.2458 23.4834 11.1717 23.2969 11.1717ZM1.64062 4.26563H21.3281C21.3903 4.26563 21.4499 4.29032 21.4939 4.33427C21.5378 4.37823 21.5625 4.43784 21.5625 4.5V6.87094H1.40625V4.5C1.40625 4.43784 1.43094 4.37823 1.4749 4.33427C1.51885 4.29032 1.57846 4.26563 1.64062 4.26563ZM1.40625 17.167V8.27719H21.5625V10.8281C21.2505 10.6983 20.954 10.534 20.6784 10.3383L19.9538 9.82266C19.8348 9.73829 19.6927 9.69298 19.5469 9.69298C19.4011 9.69298 19.2589 9.73829 19.14 9.82266L18.4153 10.3383C17.6507 10.8823 16.7352 11.1737 15.7969 11.1717C15.6104 11.1717 15.4316 11.2458 15.2997 11.3777C15.1678 11.5095 15.0938 11.6884 15.0938 11.8748V15.0403C15.0929 15.8484 15.2443 16.6494 15.54 17.4014H1.64062C1.57846 17.4014 1.51885 17.3767 1.4749 17.3328C1.43094 17.2888 1.40625 17.2292 1.40625 17.167ZM22.5938 15.0403C22.5909 16.026 22.3013 16.9896 21.7603 17.8137C21.2193 18.6377 20.4502 19.2864 19.5469 19.6809C18.6435 19.2864 17.8745 18.6377 17.3334 17.8137C16.7924 16.9896 16.5028 16.026 16.5 15.0403V12.5367C17.4839 12.421 18.4226 12.0591 19.2295 11.4844L19.5469 11.2589L19.8642 11.4844C20.6711 12.0591 21.6099 12.421 22.5938 12.5367V15.0403Z" fill="black"/>
<path d="M18.6685 14.6601C18.6074 14.5908 18.5333 14.5342 18.4504 14.4935C18.3675 14.4528 18.2774 14.4289 18.1852 14.423C17.9991 14.4112 17.8159 14.4738 17.6759 14.5971C17.5359 14.7203 17.4506 14.8942 17.4388 15.0803C17.427 15.2664 17.4896 15.4497 17.6128 15.5896L18.7224 16.8487C18.7884 16.9236 18.8695 16.9836 18.9605 17.0247C19.0515 17.0658 19.1501 17.087 19.2499 17.087C19.3498 17.087 19.4484 17.0658 19.5394 17.0247C19.6304 16.9836 19.7115 16.9236 19.7775 16.8487L21.481 14.9151C21.6042 14.7751 21.6668 14.5919 21.655 14.4058C21.6432 14.2196 21.5579 14.0458 21.4179 13.9225C21.2779 13.7993 21.0947 13.7367 20.9086 13.7485C20.7224 13.7603 20.5486 13.8456 20.4253 13.9856L19.2497 15.3201L18.6685 14.6601Z" fill="black"/>
</svg>
