<svg width="61" height="60" viewBox="0 0 61 60" fill="none" xmlns="http://www.w3.org/2000/svg">
<path fill-rule="evenodd" clip-rule="evenodd" d="M33.5666 27.1367H58.2474C58.7654 27.1367 59.1896 27.5609 59.1896 28.0789V49.7316C59.1896 50.2496 58.7654 50.6738 58.2474 50.6738H33.5666C33.0486 50.6738 32.6244 50.2496 32.6244 49.7316V28.0789C32.6244 27.5609 33.0486 27.1367 33.5666 27.1367Z" fill="#FCD770"/>
<path fill-rule="evenodd" clip-rule="evenodd" d="M50.0853 27.0645V36.1746L45.9064 33.4207L41.7287 36.1746V27.0645H50.0853ZM32.363 47.9918L19.4759 50.8406C19.0423 50.9367 18.6275 50.7727 18.3767 50.4059L15.5408 46.2551L12.5841 39.2695C12.5597 39.2122 12.5135 39.1669 12.4557 39.1436C12.3979 39.1203 12.3333 39.1209 12.2759 39.1453C12.2191 39.17 12.1742 39.216 12.151 39.2734C12.1277 39.3308 12.128 39.3951 12.1517 39.4523L15.0345 46.2586L4.53686 51.6211L2.09233 38.2312C1.95873 37.4977 2.03608 36.7477 2.34194 36.0656C2.6478 35.3836 3.15756 34.827 3.79389 34.4391L10.6564 30.2578L14.2505 35.2582C14.2723 35.2884 14.301 35.313 14.3343 35.33C14.3675 35.3469 14.4043 35.3556 14.4415 35.3555C14.4779 35.3555 14.513 35.3473 14.5458 35.3309L19.4783 32.8629L22.6318 38.3531C22.674 38.4258 22.7501 38.4703 22.8345 38.4703C22.8451 38.4703 22.8556 38.4691 22.8662 38.468C22.9611 38.4551 23.0384 38.3871 23.0619 38.2945L24.4998 32.6625L27.9158 35.3074C27.9568 35.3391 28.0072 35.3566 28.0587 35.3566C28.0869 35.3566 28.115 35.3508 28.1419 35.3414C28.2169 35.3133 28.2732 35.2477 28.2896 35.168L29.4451 29.4352L32.363 31.4578V47.9918Z" fill="#FC6E51"/>
<path fill-rule="evenodd" clip-rule="evenodd" d="M25.64 28.2125L28.9787 29.3809L27.9053 34.707L24.6287 32.1699L25.64 28.2125ZM14.5154 34.8242L11.0596 30.0137L14.7451 27.7695L19.0975 32.5309L14.5154 34.8242Z" fill="#FCD770"/>
<path fill-rule="evenodd" clip-rule="evenodd" d="M24.1213 32.257L22.7525 37.6184L20.0033 32.8336C19.9951 32.8184 19.9845 32.8043 19.9728 32.7914L15.058 27.4137L16.3564 23.9473L16.8076 24.1406C17.7146 24.5297 18.6814 24.7125 19.6658 24.7125C19.7373 24.7125 19.8076 24.7113 19.8791 24.7102C20.3385 24.6984 20.7885 24.6668 21.2408 24.5848C21.8525 24.4723 22.4478 24.2812 23.0103 24.0152L23.5623 23.7539L23.6724 24.3539C23.6748 24.3691 23.6795 24.3855 23.6865 24.3996L25.2287 27.9234L24.1224 32.2535L24.1213 32.257Z" fill="#F0D0B4"/>
<path fill-rule="evenodd" clip-rule="evenodd" d="M21.1552 24.125C20.7275 24.2035 20.2998 24.2316 19.865 24.2434C17.5834 24.3043 15.5607 23.3059 14.2224 21.4578C12.7916 19.4832 11.7896 16.9531 11.0279 14.6504L10.824 14.034H19.5041C21.0228 14.034 22.3646 13.4504 23.4005 12.3395L26.3267 9.20117L26.5142 10.0801C27.0978 12.8117 27.133 15.5164 26.6666 18.2703L26.6642 18.282L26.6619 18.2938C26.5435 18.8211 26.3947 19.3449 26.2048 19.8523C25.3728 22.0789 23.4978 23.6961 21.1552 24.125ZM22.4408 19.5324C21.4576 20.8414 19.6834 20.941 18.2982 20.2355C18.1822 20.177 18.0416 20.2215 17.983 20.3375C17.9546 20.3927 17.9493 20.4569 17.9682 20.5159C17.9871 20.575 18.0286 20.6242 18.0837 20.6527C18.6943 20.9645 19.3693 21.1449 20.0572 21.1449C21.1447 21.1449 22.156 20.6914 22.8146 19.8148C22.8919 19.7117 22.872 19.5652 22.7677 19.4867C22.6646 19.4082 22.5181 19.4293 22.4408 19.5324ZM10.7912 15.4109C11.1076 16.3262 11.4544 17.2332 11.8435 18.1203L12.0709 18.6383L11.5201 18.7648C10.5521 18.9875 9.51851 18.5094 9.17046 17.5566C8.98999 17.0609 9.02749 16.5242 9.26069 16.052C9.44937 15.6699 9.75054 15.3594 10.122 15.152L10.6107 14.8813L10.7912 15.4109Z" fill="#F0D0B4"/>
<path fill-rule="evenodd" clip-rule="evenodd" d="M10.5603 13.1584C9.99311 11.0478 9.80327 8.68296 10.654 6.62046C11.4521 4.68804 13.0025 3.42241 14.963 2.74859C16.8638 2.09468 19.0658 2.05015 21.0017 2.56812C22.6119 2.99937 24.406 3.94507 25.081 5.56343C25.3259 6.14937 25.5509 6.74234 25.7548 7.34351L25.9646 7.96343H22.8333C21.1025 7.96343 19.5896 8.72515 18.5572 10.115L15.9943 13.5662H10.5603V13.1584Z" fill="#FC6E51"/>
<path fill-rule="evenodd" clip-rule="evenodd" d="M18.9345 10.3953C19.8837 9.1168 21.2419 8.43359 22.8345 8.43359H26.4017L23.0583 12.0207C22.1068 13.0426 20.9009 13.5664 19.504 13.5664H16.5802L18.9345 10.3953ZM26.595 8.43359H28.2907C29.8083 8.43359 31.1255 9.06406 32.0771 10.2465L32.9021 11.273C33.0333 11.4395 33.0685 11.6387 33.0052 11.8367C32.9443 12.0383 32.799 12.1824 32.5927 12.2422L27.4529 13.7504L27.4165 13.1645C27.3286 11.7629 27.1001 10.3789 26.7474 9.01953L26.595 8.43359Z" fill="#FCD770"/>
<path fill-rule="evenodd" clip-rule="evenodd" d="M19.5778 51.2984L38.8938 47.0281C39.2829 46.9426 39.6509 47.0246 39.9661 47.2695C40.2825 47.5156 40.4571 47.8508 40.4665 48.2527L40.4688 48.3324C40.4888 48.8891 40.1677 49.4621 39.597 49.598L33.345 51.0828C33.2882 51.0958 33.2384 51.1296 33.2054 51.1775C33.1724 51.2255 33.1587 51.2842 33.1669 51.3418C33.1749 51.3993 33.2039 51.4517 33.2482 51.4892C33.2925 51.5266 33.3491 51.5463 33.4071 51.5445L44.5985 51.1543L45.1411 51.152L45.1763 51.1578C45.4458 51.1977 45.6767 51.3184 45.8724 51.5082C46.1372 51.766 46.2685 52.0789 46.2649 52.4469V52.4727C46.2579 53.1418 45.7552 53.6996 45.0837 53.7477L35.3454 54.4461C32.8106 54.6277 30.3087 55.0484 27.8337 55.6215C25.4946 56.1629 23.1931 56.8367 20.8985 57.5398C20.2317 57.7438 19.6259 57.7613 18.9368 57.7754L18.6532 57.7824C17.1122 57.8246 15.9169 57.0219 14.7603 56.0938L7.77588 50.4945L15.2618 46.6719L17.9935 50.6715C18.3509 51.1988 18.9532 51.4367 19.5778 51.2984Z" fill="#F0D0B4"/>
<path fill-rule="evenodd" clip-rule="evenodd" d="M55.1865 46.0147H46.4853C46.0974 46.0147 45.7822 46.3287 45.7822 46.7166C45.7822 47.1057 46.0974 47.4198 46.4853 47.4198H55.1865C55.5744 47.4198 55.8896 47.1057 55.8896 46.7166C55.8896 46.3299 55.5744 46.0147 55.1865 46.0147ZM55.1865 42.5073H48.9533C48.5654 42.5073 48.2501 42.8225 48.2501 43.2104C48.2501 43.5983 48.5654 43.9135 48.9533 43.9135H55.1865C55.5744 43.9135 55.8896 43.5983 55.8896 43.2104C55.8896 42.8225 55.5744 42.5073 55.1865 42.5073ZM58.4595 49.9112C58.4595 50.0401 58.3482 50.1502 58.2169 50.1502L45.1576 50.2147C45.0673 50.2076 44.9771 50.203 44.8845 50.2065L40.2099 50.3694C40.9587 50.0143 41.4345 49.2162 41.4052 48.2998L41.4017 48.2178C41.3794 47.5428 41.0736 46.9428 40.5404 46.5291C40.0072 46.1155 39.3509 45.9666 38.6911 46.1131L33.3005 47.3049V32.9119H40.9986V36.4252C40.9985 36.5522 41.0329 36.6768 41.0979 36.7858C41.1629 36.8949 41.2562 36.9843 41.368 37.0446C41.4797 37.1049 41.6056 37.1338 41.7325 37.1284C41.8593 37.1229 41.9823 37.0832 42.0884 37.0135L45.8806 34.5139L49.6716 37.0135C49.7888 37.0909 49.9236 37.1295 50.0583 37.1295C50.1732 37.1295 50.288 37.1026 50.3923 37.0463C50.504 36.9858 50.5973 36.8963 50.6622 36.7872C50.7272 36.6781 50.7615 36.5534 50.7615 36.4264V32.9131H58.4595V49.9112ZM45.1048 51.6209C45.2724 51.6455 45.4142 51.7182 45.5431 51.8436C45.7165 52.0123 45.7962 52.2022 45.7939 52.4436V52.467C45.7892 52.9006 45.4681 53.2498 45.0474 53.2803L35.3091 53.9787C30.0228 54.3573 25.2228 55.7248 20.7591 57.0924C20.1392 57.2823 19.6037 57.294 18.9251 57.3069L18.638 57.3139C17.3396 57.3502 16.3025 56.7315 15.0509 55.7284L8.63256 50.5826L15.1048 47.2768L17.6033 50.9354C18.072 51.6209 18.8665 51.9362 19.6786 51.7569L38.9947 47.4866C39.249 47.4303 39.4728 47.4807 39.6779 47.6401C39.8841 47.7994 39.9884 48.0034 39.9966 48.2635L39.999 48.3455C40.0107 48.6784 39.8372 49.058 39.4869 49.1412L33.2349 50.626C33.0649 50.6659 32.9159 50.7677 32.8171 50.9116C32.7182 51.0555 32.6767 51.2312 32.7005 51.4041C32.7486 51.7616 33.0626 52.0276 33.4212 52.0123L44.6056 51.6233L45.1048 51.6209ZM14.4333 46.0405L11.7204 39.635C11.6844 39.55 11.6655 39.4588 11.6647 39.3666C11.664 39.2743 11.6814 39.1828 11.716 39.0973C11.7506 39.0117 11.8017 38.9338 11.8664 38.8681C11.9311 38.8023 12.0081 38.7499 12.0931 38.7139C12.4517 38.5627 12.8642 38.7291 13.0154 39.0866L15.9556 46.0299L18.7646 50.142C18.9064 50.3506 19.129 50.4385 19.3751 50.3834L31.8943 47.6155V31.7037L29.7638 30.2272L28.749 35.2616C28.7254 35.3786 28.6723 35.4877 28.5948 35.5786C28.5173 35.6694 28.4179 35.739 28.306 35.7807C28.1939 35.8227 28.0728 35.8353 27.9545 35.8173C27.8361 35.7992 27.7243 35.7511 27.6298 35.6776L24.7787 33.4698L23.5177 38.4092C23.4829 38.5448 23.4084 38.667 23.3039 38.7601C23.1993 38.8532 23.0693 38.913 22.9306 38.9319C22.899 38.9366 22.8673 38.9389 22.8357 38.9389C22.5861 38.9389 22.3529 38.8065 22.2263 38.5862L19.2931 33.4803L14.7568 35.7502C14.6073 35.8253 14.436 35.8447 14.2736 35.8047C14.1112 35.7647 13.9684 35.6681 13.8708 35.5323L10.531 30.8846L4.03881 34.8397C2.87982 35.5451 2.31146 36.8131 2.55404 38.1479L4.8849 50.9178L14.4333 46.0405ZM11.7357 30.1498L14.6595 28.3698L18.3333 32.3893L14.663 34.2256L11.7357 30.1498ZM16.6224 24.5729C17.5576 24.9737 18.5806 25.1834 19.6658 25.1834C19.7396 25.1834 19.8146 25.1823 19.8908 25.1811C20.2974 25.1705 20.7861 25.1471 21.3251 25.0475C21.9774 24.9283 22.6113 24.7242 23.2107 24.4405C23.2201 24.4909 23.2353 24.5412 23.2564 24.5893L24.7341 27.9655L23.6841 32.0752C23.6829 32.0776 23.6829 32.0799 23.6818 32.0823L22.5837 36.3842L20.4099 32.6002C20.3841 32.5557 20.3536 32.5135 20.3185 32.476L15.597 27.3104L16.6224 24.5729ZM19.8533 23.7748C20.206 23.7655 20.6279 23.7455 21.0708 23.6647C23.2283 23.2686 24.9837 21.7827 25.7665 19.6897C25.94 19.2256 26.0865 18.7217 26.2048 18.1932C26.6677 15.458 26.6244 12.8377 26.056 10.1787L23.7427 12.6596C22.6189 13.8655 21.1529 14.503 19.504 14.503H11.4732C12.4388 17.4209 13.4677 19.6159 14.6021 21.1826C15.8548 22.91 17.7204 23.8311 19.8533 23.7748ZM11.4134 18.3092C11.0478 17.4737 10.6927 16.5619 10.3482 15.5647C10.0576 15.7264 9.82435 15.9666 9.67904 16.2619C9.49857 16.6264 9.47396 17.0295 9.60873 17.3975C9.86771 18.1065 10.6494 18.485 11.4134 18.3092ZM22.8345 8.9014H25.3236L22.715 11.6998C21.8513 12.6268 20.7708 13.0967 19.504 13.0967H17.5119L19.3107 10.6733C20.172 9.51429 21.3908 8.9014 22.8345 8.9014ZM11.0279 13.0932C9.68138 8.15726 11.1708 4.54906 15.1154 3.1932C18.8513 1.90765 23.574 3.1721 24.6486 5.74554C24.8935 6.33382 25.115 6.91624 25.3119 7.49515H22.8345C20.9548 7.49515 19.3025 8.32601 18.1822 9.83538L15.7599 13.0967H11.029C11.029 13.0955 11.0279 13.0944 11.0279 13.0932ZM27.2009 8.9014C27.5689 10.3205 27.7951 11.7244 27.8841 13.1354L32.4603 11.7924C32.5154 11.776 32.5411 11.7514 32.5576 11.6963C32.5751 11.6412 32.5681 11.6061 32.5329 11.5616L31.7115 10.5397C30.849 9.46742 29.6665 8.9014 28.2908 8.9014H27.2009ZM25.1583 31.9862L25.9669 28.8233L28.4384 29.6881L27.5947 33.8729L25.1583 31.9862ZM33.3005 28.2584V31.5057H40.9986V28.0182H33.5396C33.4107 28.0182 33.3005 28.1284 33.3005 28.2584ZM42.4048 35.1198L45.4927 33.0842C45.6077 33.0085 45.7424 32.9682 45.88 32.9682C46.0177 32.9682 46.1523 33.0085 46.2673 33.0842L49.3552 35.1198V28.0194H42.4048V35.1198ZM58.2204 28.0182H50.7615V31.5057H58.4595V28.2584C58.4595 28.1284 58.3505 28.0182 58.2204 28.0182ZM59.8658 28.2584V49.9112C59.8658 50.8135 59.1298 51.5518 58.224 51.5565L47.0454 51.6116C47.1497 51.8741 47.2037 52.1576 47.2001 52.4576V52.4811C47.1884 53.653 46.306 54.5998 45.147 54.683L35.4087 55.3815C30.2701 55.7494 25.5579 57.0924 21.1716 58.4366C20.3642 58.6838 19.6786 58.6979 18.9544 58.7131C18.863 58.7155 18.7693 58.7166 18.6744 58.719C18.6298 58.7201 18.5841 58.7213 18.5396 58.7213C16.6927 58.7213 15.3181 57.7451 14.1708 56.8252L7.25912 51.2846L5.49545 52.1846C5.10287 52.3862 4.65053 52.3885 4.25443 52.1928C3.85951 51.9983 3.58646 51.6362 3.50795 51.2026L1.17123 38.3998C0.820839 36.4791 1.63881 34.6545 3.30639 33.6385L14.2154 26.994L15.3181 24.0467C15.338 23.994 15.365 23.9448 15.3954 23.9002C14.6665 23.4045 14.0162 22.7705 13.463 22.0077C12.9615 21.3151 12.481 20.5123 12.0193 19.5971C11.6947 19.7061 11.3654 19.76 11.0419 19.76C9.8349 19.76 8.71342 19.0428 8.28803 17.8815C8.02084 17.1491 8.06654 16.3534 8.41693 15.6409C8.72982 15.0069 9.25248 14.5088 9.90287 14.2182C9.88295 14.1561 9.8642 14.0928 9.84428 14.0295C9.83944 14.0156 9.83514 14.0016 9.83138 13.9873C9.77982 13.8233 9.72943 13.6592 9.67904 13.4916C9.6767 13.4858 9.67553 13.4799 9.67318 13.4741C8.83881 10.4225 8.95717 7.81624 10.0247 5.72562C10.9447 3.92562 12.5466 2.58968 14.6572 1.86429C16.7244 1.15413 19.1501 1.08734 21.3146 1.68148C23.5833 2.30492 25.272 3.58929 25.9458 5.20413C26.2681 5.9764 26.5494 6.73929 26.7931 7.49515H28.2908C30.1072 7.49515 31.6681 8.24281 32.8072 9.65843L33.6287 10.6803C33.9591 11.0905 34.0576 11.6143 33.8994 12.117C33.7423 12.6198 33.3626 12.9924 32.8564 13.1412L27.9275 14.5885C27.9228 15.8588 27.8103 17.1397 27.5876 18.4463C27.5865 18.458 27.5841 18.4686 27.5818 18.4803C27.4494 19.0791 27.2818 19.651 27.0837 20.1819C26.5294 21.6655 25.5732 22.8994 24.3521 23.7702C24.4329 23.8381 24.4997 23.9237 24.5454 24.0268L25.9962 27.3444L30.0954 28.7764C30.1552 28.7975 30.2126 28.8268 30.2642 28.8619L31.8943 29.9928V28.2584C31.8943 27.3514 32.6326 26.6131 33.5396 26.6131H58.2204C59.1275 26.6131 59.8658 27.3502 59.8658 28.2584ZM20.0572 21.6139C19.3376 21.6139 18.5888 21.4369 17.8704 21.0713C17.7882 21.0293 17.7151 20.9716 17.6553 20.9013C17.5954 20.831 17.5499 20.7497 17.5215 20.6619C17.4931 20.574 17.4823 20.4815 17.4897 20.3895C17.4971 20.2974 17.5225 20.2078 17.5646 20.1256C17.6064 20.0433 17.6641 19.97 17.7343 19.91C17.8046 19.85 17.8859 19.8045 17.9738 19.7759C18.0616 19.7474 18.1542 19.7365 18.2463 19.7438C18.3383 19.7511 18.4281 19.7765 18.5103 19.8186C19.8427 20.4983 21.304 20.2651 22.0658 19.2526C22.299 18.942 22.7396 18.8799 23.0501 19.1131C23.3607 19.3463 23.4228 19.7869 23.1896 20.0975C22.4443 21.0889 21.2958 21.6139 20.0572 21.6139Z" fill="#222124"/>
</svg>
