<svg width="25" height="10" viewBox="0 0 25 10" fill="none" xmlns="http://www.w3.org/2000/svg">
<path d="M0.713998 7.93769H1.7737V8.02501H2.2907V7.76653C2.2907 6.62623 3.21842 5.6986 4.35868 5.6986C5.49893 5.6986 6.4266 6.62623 6.4266 7.76653V8.02506H6.94361V7.93774H18.044V8.02506H18.561V7.76653C18.561 6.62623 19.4887 5.6986 20.629 5.6986C21.7692 5.6986 22.6969 6.62623 22.6969 7.76653V8.02506H23.2139V7.93774H24.286C24.3427 7.93757 24.397 7.91497 24.4371 7.87487C24.4772 7.83478 24.4998 7.78045 24.5 7.72374V7.34503C24.4998 7.28832 24.4772 7.23399 24.4371 7.1939C24.397 7.1538 24.3427 7.1312 24.286 7.13103H24.1462L24.2002 6.13204C24.2116 5.92132 24.1569 5.71231 24.0438 5.53412L23.444 4.58852C23.3185 4.39063 23.1283 4.24232 22.9058 4.1688L20.0409 3.22234L14.4589 1.02047C13.1682 0.511371 11.795 0.293853 10.4238 0.381354L4.24708 0.775747C4.08407 0.786152 3.92877 0.848891 3.80428 0.954635L1.64281 2.79046C1.55135 2.86814 1.47961 2.96642 1.4335 3.07721C1.38739 3.188 1.36822 3.30815 1.37757 3.42779L1.44633 4.30764C1.45518 4.42084 1.43851 4.53458 1.39755 4.64048C1.35659 4.74638 1.29238 4.84173 1.20965 4.91951L1.04384 5.0754C0.963391 5.15102 0.900419 5.24329 0.85932 5.34577C0.81822 5.44824 0.799985 5.55845 0.805887 5.66871L0.884153 7.13098H0.713998C0.657286 7.13115 0.602946 7.15376 0.562849 7.19387C0.522752 7.23397 0.500157 7.28832 0.5 7.34503V7.7237C0.500157 7.78041 0.522752 7.83475 0.562849 7.87486C0.602946 7.91496 0.657286 7.93757 0.713998 7.93774V7.93769ZM11.4608 3.75996L11.4833 3.47639L12.6838 3.57161L12.6614 3.85519L11.4608 3.75996ZM5.64152 2.91197L5.68111 2.63027L6.87371 2.79791L6.83407 3.07962L5.64152 2.91197ZM10.3836 2.8904L10.0343 2.8658L8.19271 2.58199C8.47373 2.3984 8.65961 2.08122 8.65961 1.72047C8.65961 1.41262 8.5242 1.13654 8.30988 0.948052L10.3101 0.820366L10.3836 2.8904ZM6.83581 2.37289L5.62684 2.1866L5.49495 1.12776L6.85935 1.04063C6.69349 1.22821 6.60208 1.47004 6.60238 1.72043C6.60203 1.95843 6.68457 2.18912 6.83581 2.37289ZM11.0158 0.793348C11.5558 0.793348 12.0915 0.842676 12.6197 0.93964C12.2497 1.0954 11.9898 1.46135 11.9898 1.88807C11.9898 2.45618 12.4504 2.91668 13.0184 2.91668C13.5865 2.91668 14.047 2.45618 14.047 1.88807C14.0473 1.65585 13.9686 1.43044 13.8239 1.24882C13.9839 1.30185 14.143 1.35899 14.3008 1.42126L17.5223 2.69199L18.083 3.43177L11.1462 2.94398L10.8168 0.796503C10.8832 0.794994 10.9498 0.793348 11.0158 0.793348ZM4.08319 1.28297C4.13704 1.2374 4.20408 1.21031 4.27447 1.20566L5.14015 1.15039L5.16804 2.11587L3.67814 1.88629L3.52262 1.75901L4.08319 1.28297Z" fill="white"/>
<path d="M6.16081 7.76659C6.16081 7.71023 6.15793 7.65459 6.15294 7.59968C6.06864 6.68262 5.29782 5.96442 4.35886 5.96442C3.41971 5.96442 2.6488 6.68262 2.56459 7.59968C2.55933 7.65515 2.55664 7.71083 2.55654 7.76655C2.55654 8.76179 3.36334 9.56868 4.35886 9.56868C5.3541 9.56868 6.16081 8.76179 6.16081 7.76655V7.76659ZM4.3589 8.93656C3.71366 8.93656 3.18875 8.41174 3.18875 7.76659C3.18875 7.7324 3.19044 7.69683 3.1941 7.6577C3.24964 7.05264 3.75037 6.59658 4.3589 6.59658C4.9672 6.59658 5.46789 7.05269 5.52348 7.65756C5.52695 7.69573 5.52869 7.73153 5.52869 7.76659C5.52869 8.4117 5.00396 8.93656 4.3589 8.93656Z" fill="white"/>
<path d="M4.89653 7.76659C4.89653 7.75096 4.89561 7.73395 4.89397 7.71539C4.86846 7.43799 4.63841 7.22874 4.35886 7.22874C4.07921 7.22874 3.84908 7.43799 3.82352 7.71631C3.82169 7.73546 3.82087 7.75187 3.82087 7.76659C3.82087 8.06316 4.06225 8.3044 4.35886 8.3044C4.65528 8.3044 4.89653 8.06316 4.89653 7.76659ZM22.4311 7.76659C22.4311 7.71023 22.4282 7.65459 22.4232 7.59968C22.3389 6.68262 21.568 5.96442 20.6291 5.96442C19.6899 5.96442 18.919 6.68262 18.8348 7.59968C18.8295 7.65515 18.8269 7.71083 18.8268 7.76655C18.8268 8.76179 19.6336 9.56868 20.6291 9.56868C21.6243 9.56868 22.4311 8.76179 22.4311 7.76655V7.76659ZM20.6291 8.93656C19.9838 8.93656 19.4589 8.41174 19.4589 7.76659C19.4589 7.7324 19.4607 7.69683 19.4643 7.6577C19.5199 7.05264 20.0206 6.59658 20.6291 6.59658C21.2374 6.59658 21.7381 7.05269 21.7937 7.65756C21.7972 7.69573 21.7989 7.73153 21.7989 7.76659C21.7989 8.4117 21.2741 8.93656 20.6291 8.93656Z" fill="white"/>
<path d="M21.1667 7.76655C21.1667 7.75091 21.1658 7.73391 21.1642 7.71535C21.1387 7.43794 20.9086 7.2287 20.6291 7.2287C20.3494 7.2287 20.1193 7.43794 20.0937 7.71626C20.0919 7.73542 20.0911 7.75183 20.0911 7.76655C20.0911 8.06311 20.3325 8.30435 20.6291 8.30435C20.9255 8.30435 21.1667 8.06311 21.1667 7.76655H21.1667Z" fill="white"/>
</svg>
