<svg width="18" height="18" viewBox="0 0 18 18" fill="none" xmlns="http://www.w3.org/2000/svg">
<g id="Frame">
<g id="Group">
<path id="Vector" d="M13.5 9.75H4.5C4.05 9.75 3.75 9.45 3.75 9C3.75 8.55 4.05 8.25 4.5 8.25H13.5C13.95 8.25 14.25 8.55 14.25 9C14.25 9.45 13.95 9.75 13.5 9.75ZM11.25 14.25H6.75C6.3 14.25 6 13.95 6 13.5C6 13.05 6.3 12.75 6.75 12.75H11.25C11.7 12.75 12 13.05 12 13.5C12 13.95 11.7 14.25 11.25 14.25ZM15.75 5.25H2.25C1.8 5.25 1.5 4.95 1.5 4.5C1.5 4.05 1.8 3.75 2.25 3.75H15.75C16.2 3.75 16.5 4.05 16.5 4.5C16.5 4.95 16.2 5.25 15.75 5.25Z" fill="black"/>
</g>
</g>
</svg>
