<svg width="358" height="358" viewBox="0 0 358 358" fill="none" xmlns="http://www.w3.org/2000/svg">
<path d="M330.657 215.462C330.657 269.172 273.29 268.453 202.523 268.453C131.757 268.453 31.678 279.975 31.678 226.264C31.678 172.553 131.757 73.9485 202.523 73.9485C273.29 73.9485 330.657 161.751 330.657 215.462Z" fill="#DACDFF"/>
<path d="M328.214 270.136C328.214 246.633 264.374 254.307 185.624 254.307C106.873 254.307 30.9341 253.605 30.9341 270.632C30.9341 290.297 75.7621 295.558 154.513 295.558C233.264 295.558 328.214 295.558 328.214 270.136Z" fill="#E8E0FF"/>
<path d="M329.434 184.223C325.41 188.37 323.164 193.198 323.15 193.221C323.121 193.233 328.278 192.015 332.545 187.627C336.819 183.248 338.165 177.781 338.152 177.811C338.129 177.826 333.472 180.095 329.434 184.223Z" fill="#9377C7"/>
<path d="M289.603 211.935C291.206 211.382 292.792 210.788 294.364 210.159C297.507 208.9 300.585 207.484 303.592 205.928C309.605 202.816 315.334 199.124 320.686 194.877C322.149 193.715 323.585 192.514 324.994 191.276C326.479 189.971 327.899 188.546 329.415 187.275C329.553 187.159 329.717 187.343 329.597 187.482C327.341 190.106 324.618 192.319 321.979 194.479C319.322 196.655 316.569 198.696 313.733 200.599C308.062 204.405 302.05 207.656 295.765 210.277C294.047 210.994 292.308 211.662 290.551 212.284C288.705 212.938 286.827 213.658 284.901 214.031C284.585 214.092 284.471 213.662 284.77 213.545C286.348 212.923 288.007 212.487 289.603 211.935Z" fill="#9377C7"/>
<path d="M329.038 186.365C329.122 186.295 329.227 186.406 329.143 186.483C327.465 188.026 325.863 189.716 324.405 191.487C324.032 191.941 323.673 192.405 323.318 192.875C323.502 192.508 323.837 191.872 324.307 191.07C325.76 189.394 327.294 187.815 329.038 186.365Z" fill="#9377C7"/>
<path d="M325.343 191.987C327.102 190.929 328.768 189.678 330.223 188.151C330.326 188.043 330.452 188.193 330.358 188.304C329.042 189.853 327.498 191.127 325.821 192.18C325.679 192.269 325.536 192.358 325.392 192.448C324.036 193.011 323.149 193.22 323.149 193.222C323.149 193.222 323.169 193.18 323.205 193.104C323.93 192.755 324.656 192.4 325.343 191.987Z" fill="#9377C7"/>
<path d="M319.157 186.788C318.622 192.452 318.123 197.3 317.98 197.249C318.116 197.35 323.084 193.798 323.582 187.954C324.095 182.167 323.524 177.531 323.684 177.564C323.522 177.579 319.708 181.177 319.157 186.788Z" fill="#9377C7"/>
<path d="M320.055 188.775C320.083 188.673 320.23 188.71 320.207 188.818C319.738 190.969 319.308 193.215 318.613 195.318C318.437 195.857 318.25 196.388 318.039 196.909C318.102 196.546 318.218 195.905 318.334 195.043C319.043 193.008 319.478 190.887 320.055 188.775Z" fill="#9377C7"/>
<path d="M319.763 195.231C321.011 193.515 321.729 191.611 322.027 189.607C322.048 189.464 322.236 189.519 322.224 189.658C322.052 191.605 321.457 193.457 320.317 195.136C320.221 195.277 320.121 195.419 320.018 195.562C318.921 196.685 317.971 197.247 317.98 197.249C317.98 197.249 317.986 197.209 317.999 197.136C318.672 196.532 319.276 195.901 319.763 195.231Z" fill="#9377C7"/>
<path d="M317.98 197.249C317.98 197.249 318.02 197.017 318.094 196.596C318.625 195.82 319.071 195.017 319.415 194.209C320.259 192.222 320.627 190.112 321.126 188.08C321.149 187.982 321.274 188.016 321.266 188.118C321.109 190.244 320.619 192.328 319.783 194.32C319.412 195.205 318.977 196.102 318.409 196.955C318.141 197.148 317.98 197.249 317.98 197.249Z" fill="#9377C7"/>
<path d="M328.257 198.709C322.477 198.439 318.045 197.156 318.038 197.335C318.09 197.166 322.587 193.522 328.209 193.702C333.876 193.914 338.694 194.055 338.68 193.89C338.742 194.061 334.088 199.012 328.257 198.709Z" fill="#9377C7"/>
<path d="M326.571 197.392C326.677 197.38 326.683 197.214 326.572 197.221C324.357 197.342 322.121 197.248 319.986 197.317C319.438 197.333 318.898 197.353 318.361 197.39C318.707 197.448 319.321 197.542 320.145 197.684C322.234 197.573 324.361 197.635 326.571 197.392Z" fill="#9377C7"/>
<path d="M320.424 196.175C322.355 195.403 324.295 195.09 326.283 195.121C326.424 195.123 326.416 194.912 326.28 194.901C324.379 194.748 322.525 194.953 320.673 195.638C320.517 195.696 320.358 195.757 320.199 195.82C318.86 196.601 318.037 197.341 318.037 197.335C318.037 197.335 318.075 197.342 318.145 197.354C318.911 196.886 319.669 196.476 320.424 196.175Z" fill="#9377C7"/>
<path d="M318.038 197.335C318.038 197.335 318.257 197.375 318.66 197.438C319.536 197.16 320.405 196.949 321.253 196.819C323.333 196.501 325.428 196.569 327.533 196.347C327.634 196.336 327.632 196.195 327.532 196.188C325.427 196.026 323.339 196.101 321.263 196.41C320.34 196.548 319.395 196.717 318.444 197.005C318.182 197.21 318.038 197.335 318.038 197.335Z" fill="#9377C7"/>
<path d="M310.58 193.351C309.492 198.914 308.514 203.676 308.378 203.609C308.504 203.723 313.8 200.748 314.867 195.005C315.944 189.318 315.826 184.657 315.982 184.707C315.818 184.703 311.68 187.84 310.58 193.351Z" fill="#9377C7"/>
<path d="M311.279 195.424C311.316 195.326 311.459 195.379 311.425 195.484C310.747 197.568 310.098 199.751 309.199 201.762C308.97 202.277 308.732 202.784 308.47 203.278C308.569 202.925 308.748 202.3 308.948 201.457C309.855 199.514 310.497 197.456 311.279 195.424Z" fill="#9377C7"/>
<path d="M310.352 201.802C311.763 200.237 312.665 198.427 313.158 196.47C313.193 196.331 313.375 196.406 313.35 196.543C312.987 198.456 312.213 200.229 310.913 201.769C310.803 201.898 310.69 202.029 310.574 202.159C309.371 203.152 308.37 203.605 308.378 203.608C308.378 203.608 308.388 203.569 308.408 203.497C309.137 202.973 309.801 202.414 310.352 201.802Z" fill="#9377C7"/>
<path d="M308.378 203.609C308.376 203.608 308.44 203.383 308.555 202.973C309.161 202.261 309.684 201.513 310.106 200.749C311.142 198.87 311.716 196.815 312.412 194.853C312.444 194.759 312.565 194.806 312.548 194.906C312.182 197 311.49 199.014 310.462 200.9C310.005 201.737 309.485 202.579 308.834 203.364C308.547 203.527 308.378 203.609 308.378 203.609Z" fill="#9377C7"/>
<path d="M318.46 206.205C312.738 205.29 308.451 203.524 308.426 203.701C308.496 203.538 313.333 200.418 318.903 201.228C324.517 202.075 329.288 202.761 329.291 202.596C329.336 202.773 324.231 207.157 318.46 206.205Z" fill="#9377C7"/>
<path d="M316.912 204.709C317.019 204.709 317.041 204.545 316.93 204.539C314.715 204.412 312.5 204.069 310.367 203.9C309.82 203.855 309.281 203.814 308.742 203.792C309.081 203.887 309.683 204.049 310.489 204.282C312.581 204.404 314.691 204.702 316.912 204.709Z" fill="#9377C7"/>
<path d="M310.916 202.813C312.915 202.262 314.875 202.168 316.849 202.421C316.989 202.439 317.002 202.228 316.867 202.203C314.992 201.838 313.128 201.834 311.217 202.309C311.055 202.349 310.892 202.391 310.727 202.436C309.318 203.063 308.425 203.707 308.426 203.701C308.426 203.701 308.463 203.712 308.531 203.732C309.341 203.353 310.135 203.029 310.916 202.813Z" fill="#9377C7"/>
<path d="M308.426 203.701C308.426 203.701 308.641 203.764 309.035 203.873C309.934 203.694 310.821 203.58 311.678 203.547C313.779 203.463 315.855 203.764 317.971 203.779C318.072 203.779 318.085 203.64 317.986 203.621C315.908 203.226 313.824 203.066 311.727 203.142C310.795 203.176 309.837 203.239 308.862 203.419C308.582 203.592 308.426 203.701 308.426 203.701Z" fill="#9377C7"/>
<path d="M300.915 199.168C299.25 204.567 297.772 209.184 297.643 209.101C297.759 209.23 303.353 206.887 305.011 201.31C306.676 195.789 307.038 191.151 307.189 191.218C307.027 191.194 302.588 193.823 300.915 199.168Z" fill="#9377C7"/>
<path d="M301.394 201.308C301.442 201.215 301.578 201.285 301.533 201.384C300.64 203.376 299.765 205.468 298.656 207.361C298.374 207.847 298.083 208.322 297.769 208.783C297.905 208.444 298.149 207.844 298.438 207.031C299.547 205.206 300.403 203.236 301.394 201.308Z" fill="#9377C7"/>
<path d="M299.802 207.536C301.374 206.145 302.462 204.452 303.157 202.566C303.207 202.433 303.38 202.528 303.34 202.661C302.778 204.519 301.823 206.189 300.365 207.568C300.242 207.684 300.116 207.801 299.985 207.916C298.681 208.763 297.635 209.097 297.643 209.101C297.643 209.101 297.658 209.063 297.685 208.995C298.468 208.558 299.188 208.079 299.802 207.536Z" fill="#9377C7"/>
<path d="M297.643 209.101C297.643 209.101 297.729 208.884 297.887 208.491C298.566 207.853 299.166 207.172 299.667 206.461C300.897 204.715 301.684 202.741 302.582 200.874C302.625 200.784 302.74 200.845 302.712 200.943C302.13 202.979 301.229 204.899 300.006 206.653C299.463 207.432 298.855 208.208 298.124 208.912C297.821 209.039 297.643 209.101 297.643 209.101Z" fill="#9377C7"/>
<path d="M307.421 212.85C301.817 211.276 297.725 209.025 297.682 209.198C297.769 209.044 302.922 206.505 308.381 207.959C313.882 209.454 318.554 210.694 318.573 210.531C318.601 210.711 313.071 214.466 307.421 212.85Z" fill="#9377C7"/>
<path d="M306.036 211.184C306.142 211.196 306.18 211.036 306.071 211.017C303.878 210.634 301.706 210.035 299.597 209.62C299.057 209.512 298.523 209.409 297.988 209.325C298.316 209.459 298.899 209.689 299.679 210.014C301.751 210.379 303.823 210.919 306.036 211.184Z" fill="#9377C7"/>
<path d="M300.258 208.605C302.309 208.289 304.271 208.423 306.212 208.904C306.349 208.939 306.384 208.731 306.253 208.69C304.424 208.109 302.566 207.889 300.612 208.138C300.447 208.159 300.28 208.182 300.111 208.208C298.639 208.667 297.68 209.204 297.682 209.197C297.682 209.197 297.718 209.213 297.784 209.241C298.631 208.958 299.457 208.728 300.258 208.605Z" fill="#9377C7"/>
<path d="M297.682 209.198C297.682 209.198 297.89 209.286 298.271 209.439C299.187 209.366 300.083 209.356 300.941 209.421C303.045 209.582 305.082 210.122 307.188 210.383C307.288 210.395 307.316 210.258 307.218 210.228C305.191 209.594 303.131 209.193 301.033 209.025C300.1 208.95 299.138 208.903 298.147 208.968C297.849 209.109 297.682 209.198 297.682 209.198Z" fill="#9377C7"/>
<path d="M291.168 203.63C288.961 208.813 287.012 213.238 286.891 213.142C286.994 213.283 292.829 211.571 295.043 206.209C297.26 200.905 298.083 196.336 298.227 196.42C298.067 196.379 293.379 198.501 291.168 203.63Z" fill="#9377C7"/>
<path d="M291.431 205.81C291.487 205.723 291.617 205.807 291.562 205.9C290.469 207.78 289.381 209.764 288.081 211.524C287.749 211.975 287.41 212.416 287.049 212.84C287.22 212.517 287.525 211.948 287.896 211.171C289.191 209.48 290.246 207.616 291.431 205.81Z" fill="#9377C7"/>
<path d="M289.209 211.824C290.922 210.615 292.18 209.051 293.065 207.254C293.128 207.127 293.291 207.24 293.238 207.369C292.49 209.154 291.366 210.709 289.769 211.919C289.634 212.021 289.496 212.123 289.354 212.223C287.964 212.921 286.883 213.137 286.89 213.143C286.89 213.143 286.908 213.107 286.943 213.042C287.771 212.694 288.541 212.297 289.209 211.824Z" fill="#9377C7"/>
<path d="M286.89 213.142C286.889 213.142 286.999 212.936 287.196 212.562C287.941 212.003 288.61 211.392 289.183 210.74C290.59 209.141 291.576 207.265 292.661 205.508C292.712 205.424 292.821 205.496 292.784 205.59C291.997 207.55 290.904 209.36 289.503 210.968C288.881 211.683 288.194 212.387 287.391 213.006C287.075 213.1 286.89 213.142 286.89 213.142Z" fill="#9377C7"/>
<path d="M296.288 217.946C290.848 215.764 286.98 213.077 286.92 213.243C287.024 213.1 292.437 211.144 297.739 213.191C303.081 215.283 307.614 217.033 307.649 216.874C307.659 217.054 301.77 220.174 296.288 217.946Z" fill="#9377C7"/>
<path d="M295.071 216.137C295.177 216.161 295.231 216.006 295.124 215.975C292.971 215.353 290.86 214.519 288.793 213.873C288.263 213.707 287.74 213.546 287.213 213.402C287.528 213.571 288.088 213.866 288.835 214.274C290.871 214.864 292.888 215.631 295.071 216.137Z" fill="#9377C7"/>
<path d="M289.558 212.938C291.64 212.85 293.589 213.199 295.477 213.891C295.611 213.941 295.667 213.738 295.541 213.682C293.773 212.904 291.939 212.48 289.958 212.513C289.792 212.516 289.621 212.52 289.45 212.527C287.932 212.822 286.918 213.248 286.92 213.243C286.92 213.243 286.953 213.262 287.017 213.297C287.894 213.109 288.743 212.972 289.558 212.938Z" fill="#9377C7"/>
<path d="M286.92 213.243C286.92 213.243 287.118 213.353 287.485 213.548C288.408 213.576 289.305 213.664 290.158 213.825C292.245 214.216 294.227 214.978 296.303 215.469C296.402 215.492 296.443 215.359 296.35 215.318C294.388 214.464 292.371 213.839 290.289 213.441C289.364 213.263 288.407 213.11 287.409 213.067C287.096 213.173 286.92 213.243 286.92 213.243Z" fill="#9377C7"/>
<path d="M246.163 139.992C244.152 145.433 244.039 150.767 244.036 150.795C244.014 150.817 248.237 147.588 250.374 141.827C252.52 136.07 251.553 130.522 251.554 130.555C251.539 130.577 248.195 134.561 246.163 139.992Z" fill="#E8E0FF"/>
<path d="M220.899 181.664C222.14 180.501 223.353 179.307 224.535 178.087C226.903 175.646 229.145 173.089 231.268 170.433C235.513 165.121 239.264 159.396 242.448 153.318C243.319 151.656 244.148 149.968 244.939 148.259C245.772 146.457 246.497 144.571 247.371 142.788C247.45 142.625 247.674 142.726 247.62 142.902C246.613 146.227 245.014 149.366 243.47 152.422C241.916 155.502 240.22 158.497 238.394 161.399C234.74 167.205 230.553 172.643 225.862 177.618C224.58 178.979 223.26 180.303 221.903 181.593C220.479 182.947 219.053 184.376 217.442 185.508C217.178 185.693 216.901 185.347 217.128 185.117C218.322 183.902 219.662 182.823 220.899 181.664Z" fill="#E8E0FF"/>
<path d="M246.663 142.111C246.711 142.013 246.852 142.072 246.806 142.176C245.892 144.275 245.108 146.476 244.488 148.694C244.329 149.262 244.187 149.834 244.052 150.408C244.072 149.998 244.123 149.28 244.23 148.354C244.884 146.225 245.652 144.152 246.663 142.111Z" fill="#E8E0FF"/>
<path d="M245.544 148.765C246.726 147.077 247.746 145.249 248.463 143.257C248.514 143.116 248.689 143.202 248.648 143.342C248.067 145.297 247.168 147.094 246.058 148.746C245.965 148.886 245.87 149.026 245.774 149.167C244.761 150.239 244.035 150.793 244.036 150.795C244.036 150.795 244.036 150.749 244.039 150.664C244.563 150.047 245.083 149.425 245.544 148.765Z" fill="#E8E0FF"/>
<path d="M237.803 146.554C239.59 151.949 241.081 156.584 240.93 156.596C241.095 156.633 244.208 151.348 242.315 145.803C240.459 140.304 238.074 136.303 238.234 136.266C238.091 136.346 236.052 141.2 237.803 146.554Z" fill="#E8E0FF"/>
<path d="M239.422 148.001C239.406 147.896 239.555 147.87 239.577 147.978C240.013 150.137 240.523 152.366 240.733 154.572C240.788 155.137 240.831 155.699 240.847 156.261C240.759 155.904 240.608 155.27 240.368 154.435C240.197 152.285 239.743 150.168 239.422 148.001Z" fill="#E8E0FF"/>
<path d="M241.749 154.02C242.199 151.94 242.092 149.905 241.558 147.951C241.52 147.812 241.714 147.785 241.759 147.917C242.383 149.767 242.584 151.703 242.216 153.705C242.186 153.873 242.152 154.045 242.115 154.217C241.563 155.694 240.921 156.597 240.93 156.596C240.93 156.596 240.92 156.556 240.902 156.484C241.275 155.657 241.573 154.833 241.749 154.02Z" fill="#E8E0FF"/>
<path d="M240.93 156.596C240.93 156.596 240.874 156.368 240.771 155.953C240.945 155.025 241.03 154.108 241.019 153.228C240.993 151.067 240.481 148.987 240.12 146.925C240.103 146.827 240.229 146.806 240.264 146.902C240.974 148.909 241.364 151.015 241.401 153.179C241.417 154.14 241.381 155.137 241.204 156.15C241.036 156.438 240.93 156.596 240.93 156.596Z" fill="#E8E0FF"/>
<path d="M250.909 153.712C245.518 155.838 240.953 156.484 241.018 156.651C240.997 156.474 243.643 151.299 248.852 149.156C254.117 147.023 258.576 145.175 258.497 145.03C258.622 145.162 256.359 151.597 250.909 153.712Z" fill="#E8E0FF"/>
<path d="M248.838 153.2C248.93 153.146 248.869 152.993 248.77 153.044C246.795 154.064 244.714 154.895 242.79 155.835C242.297 156.074 241.81 156.314 241.334 156.569C241.674 156.479 242.273 156.314 243.083 156.105C244.948 155.146 246.916 154.33 248.838 153.2Z" fill="#E8E0FF"/>
<path d="M242.731 154.612C244.187 153.114 245.833 152.031 247.662 151.244C247.792 151.188 247.7 150.998 247.571 151.044C245.773 151.684 244.161 152.633 242.743 154.019C242.624 154.136 242.503 154.256 242.383 154.379C241.474 155.643 241.019 156.657 241.016 156.651C241.016 156.651 241.054 156.642 241.123 156.624C241.636 155.883 242.163 155.197 242.731 154.612Z" fill="#E8E0FF"/>
<path d="M241.017 156.651C241.017 156.651 241.233 156.597 241.627 156.49C242.315 155.877 243.025 155.326 243.749 154.86C245.522 153.716 247.463 152.918 249.297 151.851C249.385 151.8 249.327 151.672 249.232 151.706C247.244 152.423 245.366 153.348 243.593 154.483C242.805 154.987 242.009 155.53 241.256 156.183C241.099 156.478 241.017 156.651 241.017 156.651Z" fill="#E8E0FF"/>
<path d="M232.602 156.071C233.843 161.602 234.863 166.354 234.711 166.349C234.872 166.402 238.516 161.509 237.183 155.822C235.883 150.184 233.902 145.973 234.065 145.954C233.914 146.019 231.393 150.584 232.602 156.071Z" fill="#E8E0FF"/>
<path d="M234.073 157.679C234.068 157.574 234.219 157.564 234.23 157.673C234.448 159.856 234.732 162.117 234.718 164.324C234.716 164.889 234.702 165.45 234.662 166.009C234.61 165.645 234.523 165.001 234.368 164.149C234.416 162.001 234.175 159.857 234.073 157.679Z" fill="#E8E0FF"/>
<path d="M235.789 163.889C236.45 161.879 236.546 159.854 236.211 157.864C236.188 157.723 236.384 157.716 236.415 157.852C236.853 159.75 236.858 161.687 236.289 163.628C236.241 163.791 236.19 163.958 236.135 164.124C235.435 165.526 234.702 166.35 234.711 166.35C234.711 166.35 234.705 166.31 234.694 166.236C235.149 165.457 235.531 164.674 235.789 163.889Z" fill="#E8E0FF"/>
<path d="M234.711 166.35C234.709 166.35 234.677 166.118 234.617 165.696C234.884 164.797 235.062 163.898 235.14 163.026C235.332 160.885 235.031 158.771 234.878 156.692C234.871 156.593 235 156.586 235.024 156.685C235.531 158.748 235.708 160.874 235.525 163.019C235.445 163.972 235.307 164.955 235.028 165.939C234.832 166.204 234.711 166.35 234.711 166.35Z" fill="#E8E0FF"/>
<path d="M244.968 164.583C239.371 166.096 234.744 166.242 234.792 166.413C234.79 166.236 237.957 161.399 243.373 159.853C248.843 158.323 253.479 156.992 253.415 156.841C253.527 156.983 250.624 163.085 244.968 164.583Z" fill="#E8E0FF"/>
<path d="M242.952 163.851C243.05 163.807 243.003 163.649 242.899 163.688C240.824 164.482 238.662 165.077 236.645 165.798C236.127 165.982 235.618 166.166 235.116 166.366C235.464 166.314 236.079 166.215 236.91 166.096C238.87 165.352 240.919 164.757 242.952 163.851Z" fill="#E8E0FF"/>
<path d="M236.711 164.58C238.316 163.257 240.069 162.366 241.975 161.787C242.11 161.746 242.037 161.548 241.905 161.58C240.045 162.016 238.339 162.778 236.783 163.996C236.652 164.098 236.52 164.204 236.387 164.313C235.351 165.465 234.794 166.419 234.792 166.413C234.792 166.413 234.83 166.408 234.901 166.398C235.487 165.72 236.083 165.098 236.711 164.58Z" fill="#E8E0FF"/>
<path d="M234.792 166.413C234.792 166.413 235.014 166.383 235.418 166.321C236.168 165.788 236.932 165.321 237.702 164.938C239.589 163.999 241.608 163.423 243.547 162.567C243.639 162.526 243.595 162.393 243.497 162.417C241.439 162.908 239.47 163.617 237.585 164.548C236.746 164.961 235.896 165.412 235.079 165.976C234.891 166.25 234.792 166.413 234.792 166.413Z" fill="#E8E0FF"/>
<path d="M226.107 165.354C226.754 170.971 227.259 175.797 227.108 175.774C227.265 175.844 231.436 171.407 230.71 165.629C230.013 159.901 228.481 155.513 228.646 155.513C228.489 155.558 225.488 159.783 226.107 165.354Z" fill="#E8E0FF"/>
<path d="M227.404 167.114C227.41 167.009 227.563 167.017 227.562 167.126C227.546 169.312 227.586 171.584 227.334 173.769C227.271 174.329 227.196 174.883 227.095 175.432C227.083 175.066 227.065 174.418 227.002 173.556C227.283 171.433 227.273 169.282 227.404 167.114Z" fill="#E8E0FF"/>
<path d="M228.451 173.458C229.328 171.542 229.643 169.548 229.521 167.539C229.512 167.397 229.709 167.413 229.726 167.55C229.959 169.479 229.757 171.398 228.979 173.256C228.914 173.413 228.844 173.571 228.772 173.73C227.921 175.039 227.099 175.773 227.107 175.774C227.107 175.774 227.105 175.734 227.102 175.659C227.644 174.94 228.11 174.206 228.451 173.458Z" fill="#E8E0FF"/>
<path d="M227.108 175.774C227.108 175.774 227.1 175.541 227.085 175.116C227.45 174.255 227.725 173.386 227.896 172.53C228.319 170.43 228.245 168.303 228.315 166.228C228.318 166.128 228.448 166.137 228.461 166.237C228.748 168.337 228.696 170.462 228.283 172.566C228.1 173.501 227.856 174.46 227.47 175.403C227.246 175.645 227.108 175.774 227.108 175.774Z" fill="#E8E0FF"/>
<path d="M237.55 175.187C231.796 176.049 227.153 175.671 227.183 175.847C227.201 175.671 230.889 171.235 236.462 170.323C242.089 169.431 246.858 168.647 246.81 168.491C246.907 168.644 243.362 174.344 237.55 175.187Z" fill="#E8E0FF"/>
<path d="M235.614 174.233C235.717 174.201 235.687 174.039 235.58 174.066C233.422 174.616 231.196 174.961 229.103 175.447C228.566 175.571 228.036 175.696 227.513 175.838C227.867 175.826 228.493 175.797 229.336 175.774C231.375 175.255 233.486 174.899 235.614 174.233Z" fill="#E8E0FF"/>
<path d="M229.298 174.248C231.045 173.118 232.893 172.434 234.859 172.078C234.998 172.053 234.947 171.849 234.811 171.865C232.906 172.086 231.12 172.646 229.434 173.677C229.291 173.763 229.148 173.853 229.003 173.946C227.843 174.97 227.182 175.853 227.182 175.847C227.182 175.847 227.22 175.846 227.293 175.845C227.953 175.238 228.616 174.689 229.298 174.248Z" fill="#E8E0FF"/>
<path d="M227.182 175.847C227.182 175.847 227.407 175.842 227.818 175.825C228.625 175.382 229.44 175.005 230.251 174.713C232.238 173.997 234.317 173.654 236.346 173.028C236.443 172.998 236.412 172.862 236.312 172.874C234.204 173.127 232.161 173.605 230.176 174.314C229.294 174.628 228.395 174.98 227.516 175.446C227.299 175.696 227.182 175.847 227.182 175.847Z" fill="#E8E0FF"/>
<path d="M218.992 173.432C219.057 179.074 219.055 183.919 218.906 183.88C219.057 183.966 223.7 180.007 223.57 174.199C223.464 168.442 222.38 163.928 222.545 163.945C222.383 163.974 218.952 167.838 218.992 173.432Z" fill="#E8E0FF"/>
<path d="M220.108 175.316C220.126 175.213 220.277 175.237 220.265 175.345C220.022 177.512 219.825 179.771 219.344 181.913C219.221 182.463 219.089 183.004 218.93 183.539C218.956 183.174 219.007 182.528 219.034 181.666C219.536 179.59 219.751 177.453 220.108 175.316Z" fill="#E8E0FF"/>
<path d="M220.494 181.724C221.573 179.916 222.095 177.971 222.182 175.965C222.188 175.822 222.383 175.86 222.386 175.999C222.42 177.937 222.017 179.819 221.044 181.58C220.962 181.729 220.877 181.879 220.787 182.029C219.798 183.237 218.896 183.879 218.906 183.88C218.906 183.88 218.908 183.84 218.913 183.766C219.53 183.109 220.073 182.431 220.494 181.724Z" fill="#E8E0FF"/>
<path d="M218.906 183.88C218.904 183.88 218.921 183.648 218.952 183.224C219.408 182.408 219.774 181.575 220.036 180.744C220.679 178.705 220.826 176.586 221.112 174.536C221.125 174.438 221.254 174.46 221.257 174.561C221.326 176.674 221.054 178.777 220.419 180.822C220.138 181.73 219.793 182.656 219.308 183.552C219.057 183.766 218.906 183.88 218.906 183.88Z" fill="#E8E0FF"/>
<path d="M229.423 184.413C223.575 184.652 218.961 183.783 218.972 183.96C219.009 183.787 223.17 179.778 228.838 179.472C234.56 179.192 239.405 178.93 239.374 178.769C239.456 178.931 235.328 184.199 229.423 184.413Z" fill="#E8E0FF"/>
<path d="M227.585 183.26C227.691 183.239 227.678 183.075 227.568 183.09C225.35 183.404 223.086 183.509 220.938 183.768C220.388 183.833 219.844 183.9 219.305 183.986C219.661 184.011 220.291 184.05 221.137 184.117C223.235 183.821 225.385 183.693 227.585 183.26Z" fill="#E8E0FF"/>
<path d="M221.261 182.599C223.129 181.664 225.049 181.184 227.053 181.041C227.195 181.031 227.165 180.824 227.027 180.824C225.098 180.839 223.252 181.205 221.456 182.047C221.304 182.118 221.151 182.191 220.997 182.268C219.728 183.16 218.973 183.967 218.973 183.96C218.973 183.96 219.012 183.964 219.084 183.97C219.808 183.439 220.53 182.965 221.261 182.599Z" fill="#E8E0FF"/>
<path d="M218.972 183.96C218.972 183.96 219.198 183.98 219.612 184.007C220.467 183.653 221.323 183.366 222.165 183.163C224.23 182.664 226.347 182.546 228.441 182.143C228.542 182.123 228.526 181.984 228.423 181.986C226.288 182.01 224.193 182.267 222.131 182.758C221.215 182.975 220.278 183.228 219.348 183.597C219.105 183.824 218.972 183.96 218.972 183.96Z" fill="#E8E0FF"/>
<path d="M44.9498 179.627C48.9887 184.651 50.9856 190.245 50.9992 190.273C51.03 190.288 45.4316 188.396 41.1471 183.078C36.8532 177.768 35.9217 171.559 35.9325 171.594C35.9561 171.614 40.8922 174.62 44.9498 179.627Z" fill="#E8E0FF"/>
<path d="M86.308 214.563C84.5867 213.78 82.8862 212.956 81.2065 212.092C77.847 210.365 74.5778 208.471 71.4002 206.428C65.0457 202.342 59.0678 197.644 53.5646 192.368C52.0596 190.926 50.5896 189.441 49.1526 187.92C47.6383 186.316 46.2091 184.585 44.6576 183.015C44.5158 182.872 44.316 183.059 44.4342 183.226C46.6681 186.376 49.4634 189.117 52.1691 191.791C54.8949 194.486 57.7403 197.039 60.6924 199.449C66.5958 204.269 72.9331 208.508 79.6392 212.076C81.4728 213.052 83.3337 213.977 85.2204 214.851C87.2023 215.77 89.2121 216.767 91.3114 217.383C91.6558 217.484 91.8262 217.018 91.5062 216.856C89.8178 216.001 88.0228 215.343 86.308 214.563Z" fill="#E8E0FF"/>
<path d="M45.1681 182.044C45.0822 181.958 44.9548 182.071 45.04 182.165C46.7433 184.053 48.3479 186.097 49.7835 188.216C50.1515 188.759 50.5023 189.311 50.8475 189.87C50.6806 189.444 50.3749 188.703 49.9353 187.764C48.4961 185.751 46.9553 183.837 45.1681 182.044Z" fill="#E8E0FF"/>
<path d="M48.6916 188.672C46.8486 187.313 45.1281 185.749 43.6703 183.902C43.5672 183.771 43.4118 183.925 43.5049 184.058C44.8066 185.914 46.3889 187.49 48.1417 188.836C48.2892 188.949 48.4396 189.063 48.5899 189.178C50.037 189.946 50.9993 190.271 50.9993 190.272C50.9993 190.272 50.9821 190.224 50.9491 190.136C50.1809 189.673 49.4119 189.203 48.6916 188.672Z" fill="#E8E0FF"/>
<path d="M56.0915 183.552C56.1029 189.894 56.1588 195.327 56.3227 195.285C56.1609 195.382 51.0129 190.919 51.0601 184.381C51.0845 177.905 52.1957 172.819 52.0146 172.838C52.1943 172.873 56.0564 177.267 56.0915 183.552Z" fill="#E8E0FF"/>
<path d="M54.8907 185.662C54.8706 185.546 54.7038 185.572 54.7189 185.694C55.0181 188.131 55.2644 190.669 55.8193 193.076C55.9604 193.692 56.1122 194.301 56.2933 194.902C56.2604 194.492 56.1981 193.768 56.1573 192.8C55.5788 190.467 55.3139 188.067 54.8907 185.662Z" fill="#E8E0FF"/>
<path d="M54.552 192.858C53.3434 190.823 52.7413 188.634 52.6167 186.378C52.6081 186.218 52.3933 186.259 52.3926 186.415C52.384 188.594 52.8544 190.712 53.9463 192.694C54.0387 192.861 54.1339 193.03 54.2341 193.198C55.3368 194.56 56.3327 195.283 56.3227 195.285C56.3227 195.285 56.3198 195.24 56.3134 195.157C55.6282 194.416 55.0232 193.653 54.552 192.858Z" fill="#E8E0FF"/>
<path d="M56.3227 195.285C56.3241 195.285 56.3027 195.023 56.264 194.549C55.7542 193.631 55.3411 192.694 55.0432 191.76C54.3107 189.467 54.1189 187.086 53.7745 184.778C53.758 184.668 53.6169 184.691 53.6148 184.805C53.5711 187.182 53.9005 189.547 54.6236 191.845C54.9444 192.866 55.3339 193.906 55.8774 194.914C56.1552 195.157 56.3227 195.285 56.3227 195.285Z" fill="#E8E0FF"/>
<path d="M44.7672 195.827C51.2097 196.134 56.2604 195.174 56.2504 195.374C56.2095 195.18 51.5928 190.664 45.3364 190.273C39.0248 189.914 33.6634 189.565 33.6956 189.383C33.609 189.568 38.2644 195.551 44.7672 195.827Z" fill="#E8E0FF"/>
<path d="M46.7741 194.541C46.6574 194.517 46.6689 194.333 46.7906 194.351C49.2364 194.719 51.7274 194.849 54.0902 195.149C54.6959 195.225 55.2938 195.303 55.8859 195.401C55.4957 195.429 54.8048 195.469 53.8754 195.54C51.5684 195.198 49.2014 195.043 46.7741 194.541Z" fill="#E8E0FF"/>
<path d="M53.7215 193.836C51.6565 192.777 49.5365 192.226 47.3269 192.051C47.1701 192.039 47.2002 191.806 47.352 191.808C49.477 191.837 51.5133 192.26 53.4995 193.215C53.6671 193.295 53.8368 193.379 54.0065 193.465C55.412 194.473 56.249 195.381 56.2497 195.374C56.2497 195.374 56.2074 195.379 56.128 195.384C55.3268 194.785 54.5284 194.25 53.7215 193.836Z" fill="#E8E0FF"/>
<path d="M56.2503 195.374C56.2503 195.374 56.0026 195.396 55.5494 195.424C54.6064 195.023 53.6627 194.698 52.7348 194.465C50.4586 193.894 48.128 193.75 45.8146 193.281C45.7037 193.259 45.7194 193.103 45.8318 193.105C48.1846 193.147 50.4937 193.449 52.767 194.01C53.7773 194.259 54.809 194.547 55.8344 194.966C56.1029 195.22 56.2503 195.374 56.2503 195.374Z" fill="#E8E0FF"/>
<path d="M64.9361 191.735C65.5719 198.024 66.1676 203.411 66.3266 203.352C66.1741 203.466 60.6021 199.607 60.0093 193.121C59.3985 186.696 60.0086 181.536 59.8296 181.575C60.0114 181.588 64.2817 185.504 64.9361 191.735Z" fill="#E8E0FF"/>
<path d="M63.948 193.963C63.9165 193.851 63.7533 193.894 63.7798 194.013C64.3182 196.397 64.8137 198.888 65.6048 201.215C65.8067 201.811 66.0187 202.398 66.2578 202.974C66.1841 202.571 66.0502 201.86 65.9141 200.903C65.1079 198.652 64.6067 196.301 63.948 193.963Z" fill="#E8E0FF"/>
<path d="M64.3211 201.14C62.9156 199.255 62.1 197.151 61.7542 194.927C61.7299 194.77 61.5201 194.834 61.5344 194.988C61.7406 197.15 62.4172 199.198 63.7017 201.044C63.8098 201.2 63.9223 201.356 64.0382 201.512C65.2719 202.741 66.3359 203.348 66.3266 203.352C66.3266 203.352 66.3187 203.308 66.3044 203.225C65.549 202.566 64.8695 201.876 64.3211 201.14Z" fill="#E8E0FF"/>
<path d="M66.3266 203.352C66.328 203.351 66.2801 203.095 66.1949 202.628C65.5963 201.774 65.0915 200.89 64.702 199.996C63.7454 197.802 63.3194 195.462 62.7495 193.211C62.7223 193.104 62.5841 193.143 62.5927 193.256C62.7824 195.617 63.3438 197.926 64.2917 200.126C64.712 201.104 65.2039 202.093 65.8455 203.033C66.1469 203.242 66.3266 203.352 66.3266 203.352Z" fill="#E8E0FF"/>
<path d="M54.8693 205.174C61.3147 204.76 66.2536 203.25 66.263 203.449C66.2028 203.26 61.1543 199.29 54.89 199.604C48.572 199.955 43.2063 200.216 43.2206 200.033C43.1519 200.224 48.3673 205.625 54.8693 205.174Z" fill="#E8E0FF"/>
<path d="M56.7409 203.676C56.622 203.665 56.6156 203.481 56.7388 203.486C59.2104 203.578 61.7042 203.429 64.0878 203.465C64.6992 203.473 65.3021 203.484 65.9028 203.517C65.5169 203.587 64.8317 203.703 63.9131 203.877C61.5811 203.794 59.2075 203.902 56.7409 203.676Z" fill="#E8E0FF"/>
<path d="M63.5908 202.203C61.4292 201.381 59.2633 201.071 57.0466 201.144C56.8891 201.15 56.8962 200.915 57.048 200.9C59.1666 200.693 61.2359 200.884 63.3087 201.611C63.4834 201.673 63.6603 201.737 63.8385 201.804C65.3386 202.648 66.2636 203.456 66.2629 203.449C66.2629 203.449 66.2207 203.458 66.1426 203.473C65.2841 202.966 64.4357 202.523 63.5908 202.203Z" fill="#E8E0FF"/>
<path d="M66.2629 203.449C66.2629 203.449 66.018 203.497 65.5691 203.576C64.5896 203.282 63.6173 203.064 62.6693 202.937C60.3452 202.623 58.0103 202.74 55.6611 202.534C55.5487 202.523 55.5487 202.367 55.6611 202.357C58.0074 202.136 60.3373 202.178 62.6564 202.482C63.6875 202.617 64.7443 202.788 65.8068 203.09C66.1011 203.312 66.2629 203.449 66.2629 203.449Z" fill="#E8E0FF"/>
<path d="M75.0647 199.206C76.3578 205.372 77.5235 210.652 77.676 210.574C77.5349 210.705 71.5664 207.518 70.2998 201.153C69.0196 194.851 69.094 189.665 68.9193 189.724C69.1012 189.715 73.758 193.099 75.0647 199.206Z" fill="#E8E0FF"/>
<path d="M74.3138 201.532C74.2708 201.424 74.1119 201.487 74.1512 201.601C74.9381 203.905 75.6949 206.319 76.7303 208.537C76.9945 209.106 77.268 209.664 77.568 210.208C77.452 209.817 77.2429 209.126 77.0059 208.193C75.9627 206.05 75.2152 203.775 74.3138 201.532Z" fill="#E8E0FF"/>
<path d="M75.4407 208.61C73.8397 206.901 72.8058 204.908 72.2273 202.742C72.1865 202.588 71.9839 202.676 72.0146 202.828C72.4464 204.949 73.3357 206.903 74.8121 208.587C74.9366 208.728 75.0648 208.871 75.1973 209.013C76.5577 210.089 77.6846 210.57 77.6753 210.574C77.6753 210.574 77.6632 210.531 77.6403 210.451C76.8161 209.885 76.0658 209.277 75.4407 208.61Z" fill="#E8E0FF"/>
<path d="M77.676 210.574C77.6774 210.573 77.6029 210.324 77.4683 209.87C76.7802 209.091 76.1838 208.272 75.7005 207.43C74.5148 205.364 73.8447 203.09 73.0399 200.923C73.0012 200.819 72.8673 200.875 72.8888 200.985C73.3256 203.307 74.1275 205.533 75.3053 207.607C75.828 208.529 76.423 209.454 77.1626 210.312C77.4848 210.487 77.676 210.574 77.676 210.574Z" fill="#E8E0FF"/>
<path d="M66.4383 213.708C72.82 212.55 77.5922 210.481 77.623 210.678C77.5421 210.498 72.084 207.14 65.8756 208.18C59.617 209.262 54.3043 210.149 54.2993 209.965C54.2499 210.161 60.0022 214.908 66.4383 213.708Z" fill="#E8E0FF"/>
<path d="M68.1474 212.004C68.0279 212.007 68.0021 211.825 68.1252 211.816C70.599 211.621 73.0707 211.185 75.4535 210.945C76.0642 210.883 76.6678 210.824 77.27 210.786C76.8919 210.9 76.221 211.095 75.3225 211.373C72.9854 211.561 70.6298 211.943 68.1474 212.004Z" fill="#E8E0FF"/>
<path d="M74.8241 209.749C72.5809 209.184 70.3885 209.126 68.1861 209.457C68.0293 209.48 68.0121 209.246 68.1617 209.214C70.2517 208.761 72.3353 208.712 74.4797 209.194C74.6609 209.235 74.8442 209.278 75.0289 209.324C76.6141 209.989 77.6237 210.684 77.623 210.677C77.623 210.677 77.5814 210.691 77.5055 210.715C76.5941 210.311 75.7005 209.97 74.8241 209.749Z" fill="#E8E0FF"/>
<path d="M77.6229 210.677C77.6229 210.677 77.3838 210.753 76.9441 210.883C75.9353 210.705 74.9422 210.601 73.9828 210.583C71.6314 210.541 69.3144 210.927 66.9517 210.994C66.8385 210.998 66.8221 210.843 66.933 210.819C69.2486 210.328 71.5756 210.099 73.9219 210.133C74.9651 210.148 76.037 210.196 77.1303 210.373C77.4461 210.561 77.6229 210.677 77.6229 210.677Z" fill="#E8E0FF"/>
<path d="M85.4245 205.181C87.3419 211.165 89.0503 216.282 89.1942 216.188C89.0654 216.333 82.766 213.821 80.8593 207.638C78.9447 201.519 78.5008 196.361 78.3325 196.439C78.5122 196.41 83.4977 199.257 85.4245 205.181Z" fill="#E8E0FF"/>
<path d="M84.9089 207.573C84.8545 207.471 84.7027 207.551 84.7535 207.66C85.7738 209.862 86.7762 212.178 88.0393 214.267C88.3615 214.803 88.693 215.328 89.0488 215.835C88.8927 215.459 88.6128 214.796 88.2806 213.894C87.0175 211.882 86.038 209.703 84.9089 207.573Z" fill="#E8E0FF"/>
<path d="M86.7562 214.482C84.9798 212.96 83.7433 211.093 82.9464 209.005C82.8898 208.856 82.6972 208.966 82.7431 209.114C83.3896 211.173 84.4772 213.017 86.1254 214.527C86.2644 214.655 86.4076 214.782 86.5543 214.908C88.025 215.829 89.2028 216.183 89.1942 216.188C89.1942 216.188 89.1778 216.146 89.1462 216.069C88.2627 215.597 87.45 215.076 86.7562 214.482Z" fill="#E8E0FF"/>
<path d="M89.1942 216.188C89.1956 216.188 89.0954 215.948 88.9142 215.512C88.1453 214.814 87.4651 214.065 86.8958 213.281C85.4989 211.358 84.5975 209.173 83.5743 207.109C83.5256 207.01 83.3975 207.079 83.4297 207.188C84.1013 209.445 85.1288 211.569 86.5185 213.5C87.135 214.359 87.8252 215.212 88.6529 215.984C88.9937 216.122 89.1942 216.188 89.1942 216.188Z" fill="#E8E0FF"/>
<path d="M78.2709 220.532C84.5331 218.681 89.1011 216.105 89.1513 216.296C89.051 216.127 83.2443 213.387 77.149 215.102C71.0064 216.864 65.7953 218.33 65.7717 218.149C65.7416 218.349 71.9572 222.43 78.2709 220.532Z" fill="#E8E0FF"/>
<path d="M79.8067 218.653C79.6879 218.669 79.6428 218.491 79.7652 218.468C82.2182 218.003 84.6469 217.3 87.0075 216.801C87.6126 216.672 88.2104 216.547 88.8097 216.444C88.4431 216.599 87.7908 216.866 86.9202 217.24C84.5996 217.682 82.2827 218.32 79.8067 218.653Z" fill="#E8E0FF"/>
<path d="M86.2558 215.681C83.9531 215.366 81.755 215.548 79.5877 216.118C79.4337 216.159 79.3929 215.928 79.539 215.88C81.5817 215.201 83.6603 214.924 85.8548 215.168C86.0403 215.189 86.2279 215.211 86.4176 215.237C88.0723 215.723 89.1534 216.304 89.152 216.297C89.152 216.297 89.1119 216.315 89.0382 216.347C88.0845 216.046 87.1551 215.805 86.2558 215.681Z" fill="#E8E0FF"/>
<path d="M89.1513 216.296C89.1513 216.296 88.9193 216.398 88.4926 216.576C87.4644 216.509 86.4591 216.514 85.4983 216.602C83.1412 216.818 80.8636 217.455 78.5087 217.781C78.3963 217.797 78.3641 217.645 78.4729 217.61C80.7376 216.868 83.041 216.385 85.3916 216.163C86.4362 216.063 87.5145 215.994 88.6272 216.049C88.963 216.2 89.1513 216.296 89.1513 216.296Z" fill="#E8E0FF"/>
<path d="M172.659 130.929C174.364 136.471 174.181 141.799 174.183 141.827C174.203 141.85 170.169 138.39 168.357 132.521C166.534 126.656 167.806 121.176 167.803 121.209C167.816 121.232 170.932 125.397 172.659 130.929Z" fill="#9377C7"/>
<path d="M195.558 173.933C194.383 172.702 193.241 171.443 192.127 170.158C189.901 167.589 187.805 164.911 185.834 162.141C181.893 156.601 178.467 150.678 175.627 144.434C174.85 142.727 174.116 140.996 173.422 139.246C172.691 137.401 172.073 135.479 171.299 133.65C171.228 133.483 171 133.571 171.044 133.75C171.864 137.123 173.286 140.346 174.657 143.482C176.037 146.643 177.564 149.726 179.226 152.726C182.549 158.725 186.426 164.387 190.83 169.615C192.034 171.045 193.278 172.441 194.559 173.805C195.906 175.237 197.249 176.743 198.794 177.963C199.047 178.163 199.342 177.833 199.129 177.591C198.005 176.311 196.728 175.159 195.558 173.933Z" fill="#9377C7"/>
<path d="M172.043 133.015C172 132.914 171.857 132.965 171.897 133.071C172.691 135.217 173.354 137.458 173.849 139.704C173.976 140.28 174.086 140.859 174.189 141.439C174.191 141.029 174.181 140.31 174.125 139.379C173.591 137.22 172.939 135.109 172.043 133.015Z" fill="#9377C7"/>
<path d="M172.791 139.717C171.705 137.965 170.789 136.084 170.185 134.057C170.142 133.913 169.962 133.989 169.996 134.13C170.467 136.114 171.264 137.958 172.279 139.669C172.365 139.813 172.451 139.959 172.539 140.105C173.491 141.231 174.185 141.825 174.183 141.827C174.183 141.827 174.185 141.781 174.187 141.696C173.699 141.051 173.215 140.401 172.791 139.717Z" fill="#9377C7"/>
<path d="M180.637 137.948C178.555 143.23 176.81 147.77 176.961 147.79C176.794 147.817 173.982 142.369 176.176 136.944C178.332 131.563 180.933 127.705 180.776 127.66C180.914 127.749 182.679 132.706 180.637 137.948Z" fill="#9377C7"/>
<path d="M178.941 139.301C178.963 139.198 178.815 139.162 178.788 139.269C178.234 141.399 177.602 143.593 177.27 145.783C177.184 146.343 177.11 146.901 177.062 147.462C177.17 147.11 177.357 146.486 177.642 145.667C177.93 143.53 178.501 141.444 178.941 139.301Z" fill="#9377C7"/>
<path d="M176.286 145.175C175.952 143.074 176.172 141.05 176.812 139.13C176.858 138.994 176.666 138.956 176.614 139.085C175.888 140.895 175.581 142.816 175.837 144.834C175.858 145.004 175.882 145.176 175.91 145.35C176.378 146.855 176.969 147.792 176.96 147.79C176.96 147.79 176.972 147.752 176.994 147.68C176.669 146.834 176.417 145.995 176.286 145.175Z" fill="#9377C7"/>
<path d="M176.96 147.79C176.96 147.79 177.03 147.566 177.154 147.158C177.032 146.223 176.998 145.304 177.057 144.426C177.204 142.271 177.829 140.225 178.303 138.188C178.326 138.091 178.2 138.063 178.162 138.156C177.342 140.119 176.836 142.198 176.68 144.355C176.611 145.313 176.591 146.31 176.712 147.331C176.863 147.627 176.96 147.79 176.96 147.79Z" fill="#9377C7"/>
<path d="M167.165 144.349C172.426 146.774 176.945 147.678 176.871 147.84C176.901 147.666 174.548 142.352 169.469 139.92C164.335 137.495 159.989 135.398 160.075 135.259C159.943 135.383 161.845 141.93 167.165 144.349Z" fill="#9377C7"/>
<path d="M169.259 143.956C169.169 143.897 169.24 143.747 169.335 143.804C171.249 144.933 173.28 145.88 175.146 146.926C175.625 147.194 176.097 147.459 176.558 147.741C176.224 147.632 175.635 147.433 174.839 147.179C173.032 146.117 171.114 145.191 169.259 143.956Z" fill="#9377C7"/>
<path d="M175.273 145.709C173.904 144.132 172.322 142.959 170.54 142.07C170.414 142.007 170.516 141.823 170.642 141.876C172.401 142.616 173.956 143.654 175.294 145.117C175.407 145.241 175.52 145.367 175.633 145.497C176.47 146.809 176.868 147.847 176.871 147.841C176.871 147.841 176.835 147.83 176.767 147.808C176.296 147.039 175.809 146.325 175.273 145.709Z" fill="#9377C7"/>
<path d="M176.871 147.84C176.871 147.84 176.657 147.775 176.271 147.646C175.618 146.995 174.94 146.406 174.244 145.899C172.539 144.658 170.646 143.752 168.876 142.584C168.791 142.528 168.855 142.403 168.948 142.443C170.892 143.271 172.714 144.3 174.421 145.532C175.179 146.08 175.943 146.667 176.658 147.361C176.799 147.663 176.871 147.84 176.871 147.84Z" fill="#9377C7"/>
<path d="M185.299 147.737C183.754 153.185 182.474 157.869 182.626 157.872C182.461 157.916 179.097 152.828 180.741 147.23C182.351 141.678 184.56 137.589 184.399 137.561C184.546 137.635 186.809 142.331 185.299 147.737Z" fill="#9377C7"/>
<path d="M183.742 149.259C183.753 149.154 183.602 149.136 183.585 149.244C183.247 151.409 182.838 153.649 182.73 155.852C182.701 156.416 182.684 156.976 182.693 157.536C182.765 157.176 182.888 156.538 183.09 155.697C183.161 153.552 183.519 151.426 183.742 149.259Z" fill="#9377C7"/>
<path d="M181.686 155.357C181.139 153.315 181.154 151.289 181.598 149.322C181.63 149.182 181.434 149.165 181.396 149.299C180.854 151.167 180.742 153.1 181.202 155.068C181.241 155.234 181.283 155.403 181.328 155.572C181.949 157.009 182.635 157.874 182.626 157.873C182.626 157.873 182.635 157.834 182.649 157.761C182.238 156.957 181.9 156.155 181.686 155.357Z" fill="#9377C7"/>
<path d="M182.626 157.873C182.627 157.873 182.672 157.643 182.755 157.226C182.538 156.313 182.41 155.407 182.381 154.533C182.308 152.386 182.725 150.293 182.993 148.229C183.006 148.13 182.878 148.117 182.848 148.213C182.228 150.243 181.933 152.353 181.997 154.503C182.025 155.459 182.107 156.447 182.331 157.445C182.512 157.721 182.626 157.873 182.626 157.873Z" fill="#9377C7"/>
<path d="M172.49 155.531C177.99 157.357 182.599 157.763 182.541 157.932C182.553 157.756 179.661 152.751 174.343 150.903C168.97 149.067 164.419 147.477 164.491 147.328C164.372 147.465 166.93 153.717 172.49 155.531Z" fill="#9377C7"/>
<path d="M174.542 154.914C174.447 154.866 174.502 154.71 174.603 154.756C176.629 155.665 178.754 156.381 180.725 157.214C181.232 157.426 181.73 157.639 182.219 157.867C181.875 157.796 181.266 157.663 180.445 157.497C178.531 156.642 176.52 155.933 174.542 154.914Z" fill="#9377C7"/>
<path d="M180.728 155.995C179.2 154.583 177.501 153.595 175.631 152.91C175.499 152.861 175.582 152.668 175.713 152.707C177.544 153.248 179.204 154.104 180.688 155.407C180.813 155.517 180.939 155.63 181.065 155.746C182.035 156.954 182.538 157.937 182.54 157.932C182.54 157.932 182.503 157.925 182.432 157.911C181.885 157.201 181.325 156.547 180.728 155.995Z" fill="#9377C7"/>
<path d="M182.541 157.932C182.541 157.932 182.321 157.89 181.922 157.804C181.203 157.23 180.466 156.721 179.719 156.296C177.889 155.252 175.907 154.562 174.02 153.6C173.93 153.554 173.981 153.424 174.078 153.453C176.104 154.06 178.028 154.879 179.858 155.913C180.672 156.373 181.494 156.871 182.28 157.481C182.452 157.764 182.541 157.932 182.541 157.932Z" fill="#9377C7"/>
<path d="M191.264 157.366C190.308 162.933 189.537 167.719 189.689 167.706C189.529 167.767 185.613 163.105 186.657 157.381C187.669 151.705 189.441 147.414 189.277 147.405C189.431 147.459 192.191 151.844 191.264 157.366Z" fill="#9377C7"/>
<path d="M189.872 159.048C189.872 158.943 189.72 158.942 189.714 159.051C189.61 161.232 189.443 163.497 189.574 165.691C189.606 166.253 189.65 166.81 189.72 167.364C189.753 166.999 189.806 166.353 189.917 165.497C189.755 163.364 189.884 161.219 189.872 159.048Z" fill="#9377C7"/>
<path d="M188.477 165.319C187.708 163.358 187.505 161.35 187.737 159.353C187.754 159.211 187.557 159.216 187.533 159.353C187.193 161.263 187.288 163.189 187.962 165.087C188.019 165.247 188.079 165.409 188.143 165.571C188.92 166.926 189.699 167.705 189.69 167.705C189.69 167.705 189.694 167.665 189.701 167.591C189.201 166.842 188.777 166.084 188.477 165.319Z" fill="#9377C7"/>
<path d="M189.689 167.706C189.689 167.706 189.711 167.473 189.748 167.05C189.432 166.17 189.206 165.287 189.081 164.424C188.776 162.305 188.968 160.186 189.013 158.113C189.015 158.013 188.885 158.015 188.866 158.114C188.464 160.192 188.398 162.315 188.693 164.438C188.824 165.381 189.014 166.351 189.347 167.314C189.559 167.568 189.689 167.706 189.689 167.706Z" fill="#9377C7"/>
<path d="M179.304 166.529C184.997 167.714 189.65 167.6 189.611 167.774C189.603 167.597 186.168 162.964 180.659 161.738C175.094 160.53 170.38 159.479 170.437 159.324C170.331 159.472 173.553 165.359 179.304 166.529Z" fill="#9377C7"/>
<path d="M181.288 165.687C181.188 165.649 181.226 165.488 181.332 165.522C183.455 166.193 185.656 166.663 187.718 167.266C188.247 167.42 188.768 167.575 189.282 167.746C188.93 167.714 188.307 167.65 187.468 167.578C185.461 166.947 183.375 166.472 181.288 165.687Z" fill="#9377C7"/>
<path d="M187.588 166.059C185.908 164.833 184.103 164.046 182.161 163.58C182.023 163.547 182.086 163.347 182.22 163.37C184.109 163.698 185.859 164.359 187.485 165.482C187.621 165.576 187.76 165.675 187.898 165.775C188.999 166.862 189.609 167.78 189.611 167.775C189.611 167.775 189.572 167.772 189.501 167.766C188.876 167.123 188.245 166.538 187.588 166.059Z" fill="#9377C7"/>
<path d="M189.611 167.774C189.611 167.774 189.387 167.757 188.978 167.717C188.198 167.229 187.405 166.807 186.612 166.47C184.67 165.642 182.614 165.183 180.625 164.444C180.53 164.409 180.568 164.274 180.667 164.292C182.757 164.663 184.768 165.256 186.71 166.075C187.573 166.439 188.45 166.84 189.3 167.356C189.503 167.618 189.611 167.774 189.611 167.774Z" fill="#9377C7"/>
<path d="M197.915 165.828C197.538 171.453 197.272 176.287 197.423 176.257C197.268 176.334 192.855 172.122 193.306 166.334C193.73 160.597 195.061 156.155 194.895 156.163C195.056 156.2 198.265 160.249 197.915 165.828Z" fill="#9377C7"/>
<path d="M196.698 167.645C196.687 167.541 196.534 167.556 196.54 167.665C196.664 169.841 196.735 172.106 197.096 174.27C197.188 174.824 197.29 175.373 197.419 175.915C197.413 175.55 197.399 174.904 197.419 174.042C197.032 171.94 196.936 169.797 196.698 167.645Z" fill="#9377C7"/>
<path d="M195.958 174.016C194.982 172.151 194.568 170.181 194.593 168.175C194.595 168.032 194.398 168.059 194.388 168.197C194.246 170.128 194.544 172.029 195.417 173.842C195.491 173.994 195.567 174.149 195.648 174.304C196.568 175.565 197.433 176.256 197.423 176.258C197.423 176.258 197.423 176.218 197.423 176.143C196.843 175.452 196.339 174.745 195.958 174.016Z" fill="#9377C7"/>
<path d="M197.424 176.257C197.426 176.257 197.421 176.024 197.414 175.6C197.005 174.76 196.685 173.907 196.47 173.064C195.941 170.993 195.912 168.871 195.741 166.809C195.733 166.71 195.603 166.725 195.594 166.825C195.409 168.93 195.563 171.044 196.083 173.119C196.314 174.041 196.606 174.983 197.04 175.905C197.279 176.135 197.424 176.257 197.424 176.257Z" fill="#9377C7"/>
<path d="M186.901 176.193C192.722 176.763 197.374 176.157 197.352 176.333C197.325 176.157 193.396 171.922 187.758 171.297C182.065 170.694 177.246 170.159 177.286 170C177.195 170.157 181.021 175.646 186.901 176.193Z" fill="#9377C7"/>
<path d="M188.799 175.146C188.695 175.12 188.716 174.957 188.826 174.978C191.02 175.418 193.273 175.65 195.402 176.029C195.948 176.126 196.487 176.223 197.02 176.339C196.664 176.344 196.032 176.347 195.184 176.366C193.108 175.953 190.969 175.704 188.799 175.146Z" fill="#9377C7"/>
<path d="M195.146 174.845C193.334 173.807 191.445 173.218 189.453 172.963C189.311 172.945 189.353 172.739 189.491 172.748C191.415 172.871 193.235 173.34 194.982 174.282C195.129 174.362 195.278 174.444 195.427 174.529C196.644 175.491 197.352 176.338 197.353 176.331C197.353 176.331 197.314 176.333 197.241 176.335C196.547 175.765 195.854 175.251 195.146 174.845Z" fill="#9377C7"/>
<path d="M197.353 176.333C197.353 176.333 197.126 176.339 196.712 176.344C195.878 175.942 195.041 175.608 194.211 175.357C192.179 174.742 190.073 174.506 188.006 173.984C187.907 173.959 187.931 173.822 188.032 173.829C190.162 173.974 192.237 174.349 194.267 174.955C195.169 175.224 196.09 175.529 196.997 175.95C197.228 176.189 197.353 176.333 197.353 176.333Z" fill="#9377C7"/>
<path d="M253.331 214.071C260.973 218.768 270.846 218.557 279.221 215.381C287.595 212.206 294.719 206.393 301.279 200.248C303.495 198.172 305.717 195.975 306.953 193.189C308.19 190.403 308.237 186.87 306.301 184.526C301.838 179.122 292.461 184.207 286.396 180.747C285.731 176.798 288.721 173.039 292.245 171.203C295.768 169.368 299.806 168.896 303.616 167.79C307.426 166.685 311.333 164.641 312.949 160.983C314.565 157.325 312.472 152.013 308.514 151.804C305.993 151.672 303.071 153.417 301.187 151.718C299.723 150.399 300.247 147.825 301.657 146.446C303.066 145.067 305.042 144.507 306.859 143.762C313.619 140.991 318.967 134.921 320.908 127.813C322.085 123.506 321.493 117.912 317.507 115.979C312.833 113.713 307.803 118.091 304.424 122.064C299.719 127.594 295.013 133.125 290.309 138.656C288.185 141.152 284.095 143.645 282.205 140.964C280.686 138.809 282.757 135.59 281.585 133.225C280.408 130.849 276.83 131.067 274.671 132.584C270.283 135.668 269.185 141.697 268.961 147.094C268.738 152.492 268.913 158.285 265.957 162.787C263.002 167.288 255.364 168.913 252.589 164.296C251.506 162.494 251.453 160.274 250.943 158.23C250.432 156.187 249.089 154.019 247.01 153.851C244.621 153.659 242.938 156.127 241.956 158.338C233.356 177.702 238.147 199.411 253.331 214.071Z" fill="#7453B0"/>
<path d="M251.622 208.763C271.866 179.102 285.459 159.186 305.703 129.526" stroke="#322700" stroke-width="0.5" stroke-miterlimit="10"/>
<path d="M279.424 168.029C279.424 168.029 275.355 156.114 275.013 144.35" stroke="#322700" stroke-width="0.5" stroke-miterlimit="10"/>
<path d="M265.456 189.434C265.456 189.434 271.878 197.924 292.933 193.873" stroke="#322700" stroke-width="0.5" stroke-miterlimit="10"/>
<path d="M286.886 157.375C286.886 157.375 291.199 162.755 302.135 159.246" stroke="#322700" stroke-width="0.5" stroke-miterlimit="10"/>
<path d="M258.143 199.21C258.143 199.21 244.009 182.968 247.476 170.6" stroke="#322700" stroke-width="0.5" stroke-miterlimit="10"/>
<path fill-rule="evenodd" clip-rule="evenodd" d="M298.3 206.204C298.3 206.204 304.813 213.607 306.325 222.422C306.325 222.422 292.487 216.429 298.3 206.204Z" fill="url(#paint0_linear_19_3113)"/>
<path fill-rule="evenodd" clip-rule="evenodd" d="M298.068 207.38L303.067 214.312L301.089 212.671L301.79 214.667L302.837 215.373L303.537 216.546V217.839H303.067L304.227 218.54V219.251L303.998 219.601H302.489L301.439 218.427L299.697 217.134L297.95 215.25V213.372L297.373 211.259L298.068 207.38Z" fill="#BCA8CC"/>
<path fill-rule="evenodd" clip-rule="evenodd" d="M309.9 254.557C309.92 254.555 309.94 254.554 309.961 254.553C312.981 254.384 315.034 251.381 314.146 248.459L307.477 226.546L276.873 213.612L248.619 214.668L107.413 215.197L72.6216 220.748L66.7461 254.556H309.9V254.557Z" fill="#21031A"/>
<path fill-rule="evenodd" clip-rule="evenodd" d="M221.823 165.405L215.864 166.84L212.988 168.69C212.988 168.69 229.529 172.083 246.527 196.672L270.596 193.761C270.596 193.761 255.566 176.245 221.823 165.405Z" fill="#D4F4F3"/>
<path fill-rule="evenodd" clip-rule="evenodd" d="M73.5438 185.538L72.1254 184.738C69.5328 184.601 60.6043 205.647 64.3926 208.777C64.3926 208.777 76.682 196.379 73.5438 185.538Z" fill="#161341"/>
<path fill-rule="evenodd" clip-rule="evenodd" d="M322.432 245.386L322.101 250.039C321.984 251.693 320.865 253.1 319.292 253.573L319.291 253.574C315.197 254.801 310.974 252.13 310.243 247.877C308.746 239.144 303.482 225.801 285.292 226.009C259.659 225.216 260.87 252.695 260.87 252.695H117.776C117.776 252.695 119.315 224.8 89.772 226.009C64.9999 226.94 68.436 255.868 68.436 255.868L64.7707 254.813C64.7707 254.813 63.3481 245.882 62.0872 237.422C61.1363 231.039 61.3998 224.553 62.6478 218.222C62.8282 217.307 62.9421 216.357 62.9421 215.419C62.9421 215.419 68.9543 183.157 80.4683 170.997C81.9999 168.07 73.5647 167.593 75.157 165.397C76.8411 165.174 173.752 152.674 221.826 165.405L215.868 166.838C215.868 166.838 237.112 174.963 247.315 195.057L270.853 192.416C283.685 195.342 297.241 197.884 307.268 204.961C312.45 208.612 316.679 213.472 319.392 220.226C319.416 220.287 319.44 220.348 319.465 220.41C320.236 222.372 320.585 224.479 320.557 226.59L320.336 243.269L322.432 245.386Z" fill="#632DC6"/>
<path fill-rule="evenodd" clip-rule="evenodd" d="M322.92 241.542L322.156 250.036C322.007 251.697 320.872 253.099 319.29 253.576L319.289 253.577C315.192 254.802 310.971 252.129 310.241 247.875C308.743 239.143 303.479 225.803 285.293 226.012C259.659 225.219 260.869 252.691 260.869 252.691L117.775 252.694C117.775 252.694 119.315 224.803 89.7706 226.012C65.0005 226.944 68.4352 255.87 68.4352 255.87L62.3155 254.328C62.3155 254.328 60.9859 245.764 59.7336 237.58C61.2394 237.126 65.1172 236.796 65.4624 236.732C69.6596 223.287 80.6716 216.368 92.22 215.653C112.829 214.376 121.918 235.791 124.067 247.56C161.627 247.371 216.242 247.186 251.907 247.007C259.105 205.616 300.17 208.335 315.624 236.802C315.624 236.802 317.348 236.936 319.262 237.109C321.484 237.311 323.122 239.297 322.92 241.542Z" fill="#2C1341"/>
<path fill-rule="evenodd" clip-rule="evenodd" d="M99.1416 170.456C91.3372 171.137 89.2243 188.694 88.0221 196.289H160.849L164.028 166.069C153.765 166.201 108.417 166.881 99.1416 170.456ZM240.237 196.289C236.578 189.575 215.548 167.388 184.555 166.267C179.139 166.072 173.747 166.01 168.488 166.045L166.388 196.289H240.237Z" fill="#D4F4F3"/>
<path fill-rule="evenodd" clip-rule="evenodd" d="M234.531 188.47C234.531 188.47 231.394 194.285 235.581 199.044C235.581 199.044 250.23 193.23 234.531 188.47Z" fill="#2C1341"/>
<path fill-rule="evenodd" clip-rule="evenodd" d="M319.392 220.225C314.691 223.083 306.346 216.413 304.236 212.832C301.919 208.927 301.957 204.722 307.268 204.961C312.45 208.611 316.679 213.471 319.392 220.225Z" fill="white"/>
<path fill-rule="evenodd" clip-rule="evenodd" d="M167.183 204.595L167.18 203.66C167.175 202.798 167.699 202.096 168.349 202.092L182.242 202.014C182.892 202.01 183.422 202.707 183.426 203.569L183.43 204.503L167.183 204.595Z" fill="#2C1341"/>
<path fill-rule="evenodd" clip-rule="evenodd" d="M112.859 204.981L112.855 204.047C112.852 203.184 113.376 202.482 114.024 202.479L127.917 202.402C128.567 202.398 129.097 203.093 129.1 203.957L129.105 204.891L112.859 204.981Z" fill="#161341"/>
<path fill-rule="evenodd" clip-rule="evenodd" d="M271.027 263.364C278.714 271.057 291.115 270.995 298.727 263.224C306.338 255.454 306.276 242.922 298.59 235.228C290.902 227.535 278.501 227.598 270.89 235.367C263.279 243.138 263.341 255.671 271.027 263.364ZM294.947 259.443C289.403 265.101 280.37 265.147 274.771 259.544C269.172 253.94 269.127 244.81 274.67 239.152C280.214 233.493 289.247 233.447 294.846 239.05C300.446 244.653 300.49 253.783 294.947 259.443Z" fill="#1F1E24"/>
<path fill-rule="evenodd" clip-rule="evenodd" d="M284.728 232.934C293.667 232.889 300.952 240.179 300.996 249.215C301.041 258.251 293.829 265.613 284.888 265.657C275.948 265.703 268.664 258.412 268.619 249.377C268.576 240.342 275.788 232.979 284.728 232.934Z" fill="white"/>
<path fill-rule="evenodd" clip-rule="evenodd" d="M284.737 234.881C276.861 234.921 270.506 241.407 270.546 249.368C270.585 257.33 277.002 263.751 284.878 263.711C292.756 263.672 299.11 257.186 299.07 249.225C299.032 241.263 292.614 234.842 284.737 234.881Z" fill="#1F1E24"/>
<path fill-rule="evenodd" clip-rule="evenodd" d="M287.667 253.169C289.595 251.201 289.58 248.025 287.632 246.076C285.685 244.127 282.543 244.143 280.615 246.112C278.687 248.08 278.702 251.256 280.649 253.205C282.597 255.153 285.738 255.137 287.667 253.169Z" fill="#632DC6"/>
<path fill-rule="evenodd" clip-rule="evenodd" d="M283.199 265.111L282.297 254.204L274.098 261.356L272.651 259.906L279.645 251.549L268.844 250.747L268.834 248.687L279.625 247.776L272.55 239.491L273.983 238.027L282.252 245.095L283.046 234.179L285.083 234.169L285.985 245.077L294.184 237.925L295.631 239.375L288.637 247.732L299.438 248.534L299.448 250.594L288.656 251.505L295.732 259.791L294.298 261.254L286.03 254.185L285.236 265.101L283.199 265.111ZM283.189 251.999L285.117 251.988L286.474 250.604L286.464 248.652L285.094 247.281L283.165 247.291L281.808 248.677L281.818 250.626L283.189 251.999Z" fill="white"/>
<path fill-rule="evenodd" clip-rule="evenodd" d="M78.5129 263.364C86.1999 271.057 98.601 270.995 106.212 263.224C113.823 255.454 113.762 242.922 106.075 235.228C98.3876 227.535 85.9865 227.598 78.3754 235.367C70.7644 243.138 70.8259 255.671 78.5129 263.364ZM102.432 259.443C96.8883 265.101 87.8553 265.147 82.2562 259.544C76.657 253.94 76.6126 244.81 82.1559 239.152C87.6999 233.493 96.733 233.447 102.332 239.05C107.931 244.653 107.976 253.783 102.432 259.443Z" fill="#1F1E24"/>
<path fill-rule="evenodd" clip-rule="evenodd" d="M92.2135 232.934C101.153 232.889 108.437 240.179 108.482 249.215C108.526 258.251 101.315 265.613 92.3732 265.657C83.4339 265.703 76.1493 258.412 76.1057 249.377C76.0613 240.342 83.2735 232.979 92.2135 232.934Z" fill="white"/>
<path fill-rule="evenodd" clip-rule="evenodd" d="M92.2229 234.881C84.3455 234.921 77.9917 241.407 78.0311 249.368C78.0704 257.33 84.4872 263.751 92.364 263.711C100.241 263.672 106.595 257.186 106.556 249.225C106.517 241.263 100.1 234.842 92.2229 234.881Z" fill="#1F1E24"/>
<path fill-rule="evenodd" clip-rule="evenodd" d="M95.1527 253.169C97.0802 251.201 97.0651 248.025 95.1176 246.076C93.1694 244.127 90.0283 244.143 88.1001 246.112C86.1719 248.08 86.1869 251.256 88.1345 253.205C90.082 255.153 93.2238 255.137 95.1527 253.169Z" fill="#596F56"/>
<path fill-rule="evenodd" clip-rule="evenodd" d="M90.6835 265.111L89.782 254.204L81.5831 261.356L80.1354 259.906L87.1292 251.549L76.3291 250.747L76.3184 248.687L87.1099 247.776L80.0351 239.491L81.4678 238.027L89.7369 245.095L90.5302 234.179L92.568 234.169L93.4694 245.077L101.668 237.925L103.116 239.375L96.1222 247.732L106.922 248.534L106.933 250.594L96.1415 251.505L103.217 259.791L101.784 261.254L93.5153 254.185L92.7212 265.101L90.6835 265.111ZM90.6742 251.999L92.6031 251.988L93.9599 250.604L93.9506 248.652L92.5802 247.281L90.6505 247.291L89.293 248.677L89.3023 250.626L90.6742 251.999Z" fill="white"/>
<path d="M94.2026 264.088C98.0769 257.953 98.2387 249.799 96.0642 242.773C93.8898 235.748 89.6396 229.659 85.1145 224.023C83.5865 222.119 81.9641 220.206 79.8554 219.085C77.7468 217.963 75.0232 217.796 73.1508 219.309C68.8355 222.795 72.4506 230.717 69.5816 235.595C66.5135 236.001 63.7111 233.397 62.4115 230.422C61.112 227.449 60.88 224.099 60.1518 220.916C59.4244 217.733 57.9759 214.434 55.2071 212.968C52.4384 211.501 48.2705 213.036 47.9798 216.294C47.7944 218.37 49.0452 220.844 47.6734 222.337C46.6073 223.497 44.6383 222.97 43.6215 221.757C42.6041 220.544 42.2375 218.893 41.722 217.367C39.8067 211.688 35.2988 207.055 29.8794 205.195C26.5958 204.068 22.2597 204.353 20.6379 207.571C18.7363 211.345 21.9482 215.655 24.9017 218.588C29.0137 222.671 33.1257 226.754 37.2377 230.837C39.0936 232.68 40.8828 236.145 38.752 237.607C37.0394 238.783 34.625 236.957 32.7613 237.838C30.8896 238.723 30.9405 241.683 32.0402 243.519C34.2756 247.251 38.8902 248.378 43.0473 248.758C47.2037 249.138 51.6794 249.204 55.0546 251.806C58.4299 254.408 59.4323 260.77 55.7792 262.892C54.3537 263.719 52.6396 263.683 51.0457 264.029C49.4526 264.376 47.7364 265.406 47.5381 267.115C47.3111 269.08 49.1605 270.558 50.8331 271.449C65.4889 279.249 82.3944 276.084 94.2026 264.088Z" fill="#623CA3"/>
<path d="M90.0513 265.304C67.8346 247.523 52.9167 235.584 30.7 217.803" stroke="#322700" stroke-width="0.5" stroke-miterlimit="10"/>
<path d="M59.5403 240.885C59.5403 240.885 50.2144 243.809 41.1277 243.665" stroke="#322700" stroke-width="0.5" stroke-miterlimit="10"/>
<path d="M75.5945 253.188C75.5945 253.188 82.355 248.199 79.922 230.678" stroke="#322700" stroke-width="0.5" stroke-miterlimit="10"/>
<path d="M51.5663 234.341C51.5663 234.341 55.858 230.978 53.5102 221.828" stroke="#322700" stroke-width="0.5" stroke-miterlimit="10"/>
<path d="M82.8955 259.578C82.8955 259.578 69.9008 270.65 60.4733 267.34" stroke="#322700" stroke-width="0.5" stroke-miterlimit="10"/>
<path d="M165.54 264.261L94.1841 278.901C89.7528 279.81 85.3916 276.889 84.4916 272.411L52.1069 111.168C51.2077 106.69 54.0967 102.281 58.528 101.372L129.883 86.7319C134.314 85.8226 138.676 88.7432 139.576 93.2218L171.961 254.464C172.861 258.944 169.971 263.352 165.54 264.261Z" fill="white"/>
<path d="M127.336 85.4517L60.2092 99.2247C53.8002 100.54 49.5909 106.61 50.8253 112.757L82.5627 270.777C83.7971 276.923 90.0155 280.854 96.4244 279.539L163.552 265.766C169.96 264.451 174.17 258.381 172.935 252.235L141.197 94.2149C139.964 88.068 133.745 84.1364 127.336 85.4517ZM170.031 252.83C170.959 257.448 167.807 261.992 162.992 262.98L95.8652 276.753C91.0501 277.741 86.3947 274.798 85.4675 270.18L53.7294 112.161C52.8021 107.542 55.9533 102.997 60.7691 102.01L76.2275 98.8381C77.6259 98.551 78.9784 99.4058 79.2476 100.747L79.2791 100.904C79.7058 103.029 81.8467 104.382 84.062 103.927L108.8 98.8517C111.014 98.397 112.464 96.307 112.038 94.1826C112.027 94.1296 112.011 94.0788 111.997 94.0273L112.006 94.0251C111.737 92.6841 112.652 91.3637 114.05 91.0766L127.896 88.2355C132.711 87.2475 137.367 90.1902 138.294 94.8084L170.031 252.83Z" fill="#2C1341"/>
<mask id="mask0_19_3113" style="mask-type:luminance" maskUnits="userSpaceOnUse" x="60" y="126" width="104" height="113">
<path d="M163.913 221.941L79.4287 238.8L60.1469 143.6L144.51 126.145L163.913 221.941Z" fill="white"/>
</mask>
<g mask="url(#mask0_19_3113)">
<path d="M170.429 254.112L86.0661 271.567L60.1469 143.6L144.51 126.145L170.429 254.112Z" fill="#E8E0FF"/>
</g>
<mask id="mask1_19_3113" style="mask-type:luminance" maskUnits="userSpaceOnUse" x="60" y="126" width="104" height="113">
<path d="M163.913 221.941L79.4287 238.8L60.1469 143.6L144.51 126.145L163.913 221.941Z" fill="white"/>
</mask>
<g mask="url(#mask1_19_3113)">
<path d="M95.1407 189.13L69.6103 194.413L64.6455 169.898L90.1759 164.616L95.1407 189.13Z" fill="#C0B0FF"/>
</g>
<mask id="mask2_19_3113" style="mask-type:luminance" maskUnits="userSpaceOnUse" x="60" y="126" width="104" height="113">
<path d="M163.913 221.941L79.4287 238.8L60.1469 143.6L144.51 126.145L163.913 221.941Z" fill="white"/>
</mask>
<g mask="url(#mask2_19_3113)">
<path d="M121.118 236.285L89.9782 242.728L81.881 202.748L113.021 196.305L121.118 236.285Z" fill="#7159D1"/>
</g>
<mask id="mask3_19_3113" style="mask-type:luminance" maskUnits="userSpaceOnUse" x="60" y="126" width="104" height="113">
<path d="M163.913 221.941L79.4287 238.8L60.1469 143.6L144.51 126.145L163.913 221.941Z" fill="white"/>
</mask>
<g mask="url(#mask3_19_3113)">
<path d="M114.054 177.535C119.857 177.535 124.561 172.78 124.561 166.915C124.561 161.05 119.857 156.296 114.054 156.296C108.251 156.296 103.547 161.05 103.547 166.915C103.547 172.78 108.251 177.535 114.054 177.535Z" fill="#C0B0FF"/>
</g>
<mask id="mask4_19_3113" style="mask-type:luminance" maskUnits="userSpaceOnUse" x="60" y="126" width="104" height="113">
<path d="M163.913 221.941L79.4287 238.8L60.1469 143.6L144.51 126.145L163.913 221.941Z" fill="white"/>
</mask>
<g mask="url(#mask4_19_3113)">
<path d="M100.4 144.863C105.419 144.863 109.488 140.751 109.488 135.679C109.488 130.607 105.419 126.495 100.4 126.495C95.3815 126.495 91.3129 130.607 91.3129 135.679C91.3129 140.751 95.3815 144.863 100.4 144.863Z" fill="#7159D1"/>
</g>
<mask id="mask5_19_3113" style="mask-type:luminance" maskUnits="userSpaceOnUse" x="60" y="126" width="104" height="113">
<path d="M163.913 221.941L79.4287 238.8L60.1469 143.6L144.51 126.145L163.913 221.941Z" fill="white"/>
</mask>
<g mask="url(#mask5_19_3113)">
<path d="M159.035 197.857L128.573 204.16L124.779 185.433L155.242 179.13L159.035 197.857Z" fill="#C0B0FF"/>
</g>
<mask id="mask6_19_3113" style="mask-type:luminance" maskUnits="userSpaceOnUse" x="60" y="126" width="104" height="113">
<path d="M163.913 221.941L79.4287 238.8L60.1469 143.6L144.51 126.145L163.913 221.941Z" fill="white"/>
</mask>
<g mask="url(#mask6_19_3113)">
<path d="M147.754 140.161L126.653 144.527L123.798 130.43L144.9 126.065L147.754 140.161Z" fill="#C0B0FF"/>
</g>
<mask id="mask7_19_3113" style="mask-type:luminance" maskUnits="userSpaceOnUse" x="60" y="126" width="104" height="113">
<path d="M163.913 221.941L79.4287 238.8L60.1469 143.6L144.51 126.145L163.913 221.941Z" fill="white"/>
</mask>
<g mask="url(#mask7_19_3113)">
<path d="M81.2016 154.111L60.1003 158.477L55.5444 135.983L76.6457 131.617L81.2016 154.111Z" fill="#7159D1"/>
</g>
<mask id="mask8_19_3113" style="mask-type:luminance" maskUnits="userSpaceOnUse" x="60" y="126" width="104" height="113">
<path d="M163.913 221.941L79.4287 238.8L60.1469 143.6L144.51 126.145L163.913 221.941Z" fill="white"/>
</mask>
<g mask="url(#mask8_19_3113)">
<path d="M153.46 170.329L140.417 173.029L136.825 155.298L149.869 152.6L153.46 170.329Z" fill="#7159D1"/>
</g>
<mask id="mask9_19_3113" style="mask-type:luminance" maskUnits="userSpaceOnUse" x="60" y="126" width="104" height="113">
<path d="M163.913 221.941L79.4287 238.8L60.1469 143.6L144.51 126.145L163.913 221.941Z" fill="white"/>
</mask>
<g mask="url(#mask9_19_3113)">
<path d="M164.303 223.866L134.816 229.967L131.497 213.581L160.985 207.48L164.303 223.866Z" fill="#7159D1"/>
</g>
<path fill-rule="evenodd" clip-rule="evenodd" d="M144.882 259.538L113.997 265.928C110.86 266.577 107.798 264.533 107.157 261.364L107.072 260.948C106.43 257.778 108.452 254.683 111.587 254.034L142.473 247.644C145.609 246.995 148.671 249.038 149.313 252.207L149.397 252.624C150.039 255.794 148.018 258.889 144.882 259.538Z" fill="#632DC6"/>
<path d="M126.712 257.181L126.194 257.442C126.142 257.358 126.074 257.279 125.991 257.206C125.908 257.13 125.805 257.075 125.681 257.04C125.556 257.005 125.405 257.005 125.228 257.039C124.985 257.087 124.793 257.182 124.652 257.325C124.513 257.467 124.459 257.623 124.491 257.793C124.52 257.945 124.598 258.054 124.725 258.121C124.852 258.188 125.038 258.228 125.284 258.241L125.901 258.272C126.272 258.289 126.561 258.37 126.769 258.514C126.976 258.656 127.106 258.866 127.159 259.143C127.202 259.371 127.175 259.587 127.078 259.792C126.983 259.996 126.829 260.173 126.616 260.321C126.403 260.47 126.142 260.574 125.834 260.634C125.429 260.712 125.077 260.689 124.778 260.564C124.479 260.44 124.263 260.216 124.128 259.891L124.68 259.634C124.775 259.837 124.91 259.978 125.084 260.055C125.259 260.132 125.471 260.146 125.721 260.098C126.006 260.043 126.22 259.939 126.364 259.785C126.51 259.63 126.567 259.467 126.534 259.297C126.508 259.159 126.438 259.052 126.324 258.978C126.209 258.902 126.048 258.86 125.839 258.852L125.148 258.825C124.768 258.809 124.475 258.727 124.271 258.579C124.067 258.429 123.939 258.217 123.887 257.943C123.845 257.718 123.87 257.508 123.963 257.311C124.058 257.114 124.206 256.945 124.406 256.804C124.608 256.663 124.848 256.566 125.128 256.512C125.52 256.436 125.845 256.462 126.102 256.591C126.36 256.72 126.564 256.917 126.712 257.181ZM129.261 255.765L129.359 256.283L127.301 256.681L127.203 256.164L129.261 255.765ZM127.623 255.095L128.233 254.977L128.95 258.765C128.983 258.937 129.033 259.061 129.099 259.138C129.167 259.213 129.243 259.257 129.328 259.271C129.414 259.283 129.502 259.28 129.591 259.263C129.659 259.25 129.713 259.235 129.755 259.22C129.796 259.203 129.829 259.19 129.854 259.179L130.082 259.704C130.044 259.727 129.989 259.754 129.918 259.784C129.847 259.816 129.755 259.842 129.641 259.864C129.469 259.898 129.293 259.893 129.113 259.851C128.936 259.809 128.778 259.722 128.641 259.591C128.505 259.46 128.415 259.279 128.372 259.048L127.623 255.095ZM132.118 259.428C131.866 259.477 131.629 259.473 131.406 259.418C131.182 259.361 130.993 259.254 130.838 259.096C130.683 258.937 130.581 258.728 130.532 258.469C130.489 258.241 130.498 258.048 130.561 257.889C130.624 257.729 130.722 257.594 130.857 257.484C130.991 257.374 131.145 257.281 131.319 257.206C131.494 257.13 131.671 257.061 131.851 257.002C132.086 256.924 132.277 256.863 132.424 256.818C132.573 256.772 132.677 256.722 132.739 256.669C132.802 256.615 132.824 256.54 132.806 256.441L132.802 256.421C132.753 256.165 132.646 255.981 132.48 255.866C132.315 255.751 132.092 255.721 131.811 255.776C131.52 255.832 131.304 255.94 131.163 256.1C131.021 256.259 130.931 256.418 130.891 256.576L130.273 256.481C130.33 256.22 130.433 256.005 130.58 255.837C130.728 255.667 130.899 255.536 131.094 255.442C131.291 255.347 131.489 255.28 131.689 255.242C131.816 255.217 131.966 255.204 132.137 255.203C132.31 255.2 132.482 255.23 132.655 255.293C132.829 255.356 132.986 255.471 133.125 255.639C133.264 255.807 133.364 256.049 133.424 256.365L133.92 258.982L133.31 259.101L133.208 258.562L133.177 258.568C133.152 258.663 133.1 258.768 133.022 258.885C132.944 259.002 132.832 259.111 132.685 259.211C132.537 259.311 132.348 259.383 132.118 259.428ZM132.107 258.861C132.348 258.815 132.542 258.728 132.69 258.601C132.839 258.474 132.941 258.327 132.997 258.161C133.055 257.994 133.068 257.828 133.037 257.662L132.931 257.103C132.911 257.14 132.86 257.179 132.777 257.222C132.695 257.263 132.599 257.304 132.489 257.345C132.38 257.384 132.274 257.42 132.17 257.455C132.067 257.487 131.983 257.514 131.92 257.535C131.765 257.587 131.623 257.649 131.494 257.722C131.367 257.793 131.269 257.883 131.202 257.991C131.136 258.096 131.118 258.227 131.148 258.382C131.188 258.594 131.297 258.739 131.474 258.818C131.653 258.894 131.864 258.908 132.107 258.861ZM126.16 269.652L125.407 265.678L125.996 265.564L126.11 266.164L126.151 266.156C126.187 265.946 126.287 265.761 126.454 265.602C126.62 265.443 126.822 265.34 127.06 265.294C127.105 265.285 127.161 265.275 127.228 265.264C127.296 265.253 127.347 265.246 127.382 265.242L127.5 265.863C127.478 265.862 127.43 265.863 127.353 265.867C127.279 265.869 127.201 265.878 127.12 265.894C126.927 265.931 126.762 266.005 126.626 266.115C126.491 266.224 126.393 266.357 126.332 266.516C126.272 266.672 126.26 266.84 126.294 267.019L126.77 269.534L126.16 269.652ZM130.091 264.772L130.189 265.289L128.131 265.687L128.033 265.17L130.091 264.772ZM128.453 264.102L129.063 263.984L129.78 267.771C129.813 267.943 129.862 268.068 129.929 268.144C129.996 268.219 130.073 268.263 130.158 268.277C130.244 268.289 130.332 268.286 130.421 268.269C130.489 268.256 130.543 268.242 130.585 268.227C130.626 268.21 130.659 268.196 130.684 268.186L130.912 268.71C130.874 268.734 130.819 268.76 130.748 268.79C130.677 268.822 130.585 268.849 130.471 268.871C130.299 268.904 130.123 268.9 129.943 268.858C129.766 268.815 129.608 268.729 129.471 268.598C129.335 268.467 129.245 268.286 129.202 268.055L128.453 264.102Z" fill="white"/>
<path fill-rule="evenodd" clip-rule="evenodd" d="M80.2213 131.177L66.9395 133.934L64.2123 120.509L77.4941 117.753L80.2213 131.177Z" fill="#632DC6"/>
<path d="M82.1903 119.301L118.209 111.825" stroke="#7159D1" stroke-miterlimit="10" stroke-linecap="round"/>
<path d="M83.0624 123.592L112.09 117.567" stroke="#7159D1" stroke-miterlimit="10" stroke-linecap="round"/>
<path d="M83.9344 127.884L98.9819 124.761" stroke="#7159D1" stroke-miterlimit="10" stroke-linecap="round"/>
<path d="M93.3342 243.079L153.383 231.389" stroke="#7159D1" stroke-miterlimit="10" stroke-linecap="round"/>
<path d="M99.6793 246.225L145.904 237.226" stroke="#7159D1" stroke-miterlimit="10" stroke-linecap="round"/>
<path d="M113.419 248.798L138.62 243.891" stroke="#7159D1" stroke-miterlimit="10" stroke-linecap="round"/>
<path d="M155.891 151.62C157.043 151.62 157.045 149.83 155.891 149.83C154.739 149.83 154.737 151.62 155.891 151.62Z" fill="white"/>
<path d="M155.891 156.178C156.467 156.178 156.468 155.283 155.891 155.283C155.315 155.283 155.314 156.178 155.891 156.178Z" fill="white"/>
<path d="M283.291 121.7C284.443 121.7 284.445 119.91 283.291 119.91C282.14 119.91 282.138 121.7 283.291 121.7Z" fill="white"/>
<path d="M286.391 125.157C286.967 125.157 286.968 124.262 286.391 124.262C285.815 124.262 285.814 125.157 286.391 125.157Z" fill="white"/>
<path d="M49.5106 195.064C50.6626 195.064 50.6641 193.274 49.5106 193.274C48.3585 193.274 48.3564 195.064 49.5106 195.064Z" fill="white"/>
<path d="M53.8918 197.76C55.0438 197.76 55.0452 195.97 53.8918 195.97C52.7404 195.97 52.7383 197.76 53.8918 197.76Z" fill="white"/>
<path d="M49.5106 199.622C50.0862 199.622 50.0877 198.727 49.5106 198.727C48.9342 198.727 48.9335 199.622 49.5106 199.622Z" fill="white"/>
<path d="M154.367 95.6841C155.519 95.6841 155.52 93.8941 154.367 93.8941C153.215 93.8941 153.213 95.6841 154.367 95.6841Z" fill="white"/>
<path d="M151.584 100.039C152.736 100.039 152.737 98.2488 151.584 98.2488C150.432 98.2488 150.43 100.039 151.584 100.039Z" fill="white"/>
<path d="M149.416 95.1027C149.991 95.1027 149.993 94.2077 149.416 94.2077C148.84 94.2077 148.838 95.1027 149.416 95.1027Z" fill="white"/>
<path d="M230.192 112.312C231.344 112.312 231.346 110.522 230.192 110.522C229.04 110.522 229.039 112.312 230.192 112.312Z" fill="white"/>
<path d="M232.891 116.721C234.043 116.721 234.045 114.931 232.891 114.931C231.739 114.931 231.737 116.721 232.891 116.721Z" fill="white"/>
<path d="M227.949 116.328C228.525 116.328 228.526 115.433 227.949 115.433C227.374 115.433 227.372 116.328 227.949 116.328Z" fill="white"/>
<path d="M320.313 205.271C321.465 205.271 321.467 203.481 320.313 203.481C319.161 203.481 319.159 205.271 320.313 205.271Z" fill="white"/>
<path d="M315.295 204.197C316.447 204.197 316.448 202.407 315.295 202.407C314.144 202.407 314.141 204.197 315.295 204.197Z" fill="white"/>
<path d="M318.671 200.101C319.246 200.101 319.248 199.206 318.671 199.206C318.095 199.206 318.094 200.101 318.671 200.101Z" fill="white"/>
<path d="M257.683 264.848C258.835 264.848 258.837 263.058 257.683 263.058C256.531 263.058 256.53 264.848 257.683 264.848Z" fill="white"/>
<path d="M261.059 260.752C261.634 260.752 261.636 259.857 261.059 259.857C260.483 259.857 260.482 260.752 261.059 260.752Z" fill="white"/>
<path d="M102.792 283.922C103.944 283.922 103.945 282.132 102.792 282.132C101.64 282.132 101.638 283.922 102.792 283.922Z" fill="white"/>
<path d="M98.0425 284.896C98.6182 284.896 98.6196 284.001 98.0425 284.001C97.4669 284.001 97.4654 284.896 98.0425 284.896Z" fill="white"/>
<path d="M206.866 122.83L191.689 93.3363C187.267 81.0455 196.273 68.0501 209.213 68.0501C222.153 68.0501 231.158 81.0455 226.737 93.3363L211.559 122.83C210.571 124.749 207.853 124.749 206.866 122.83Z" fill="#632DC6"/>
<path d="M209.212 97.0001C214.935 97.0001 219.575 92.3109 219.575 86.5265C219.575 80.742 214.935 76.0528 209.212 76.0528C203.489 76.0528 198.85 80.742 198.85 86.5265C198.85 92.3109 203.489 97.0001 209.212 97.0001Z" fill="#DACDFF"/>
<path d="M209.212 130.238C214.935 130.238 219.575 129.668 219.575 128.965C219.575 128.262 214.935 127.692 209.212 127.692C203.489 127.692 198.85 128.262 198.85 128.965C198.85 129.668 203.489 130.238 209.212 130.238Z" fill="#C0B0FF"/>
<defs>
<linearGradient id="paint0_linear_19_3113" x1="297.657" y1="214.313" x2="312.376" y2="214.313" gradientUnits="userSpaceOnUse">
<stop stop-color="#699150"/>
<stop offset="0.53" stop-color="#3C6422"/>
<stop offset="1" stop-color="#1F3C00"/>
</linearGradient>
</defs>
</svg>
