<svg width="376" height="250" viewBox="0 0 376 250" fill="none" xmlns="http://www.w3.org/2000/svg">
<g clip-path="url(#clip0_19_1783)">
<path d="M337.367 166.805H246.994C245.378 166.805 244.063 165.49 244.063 163.874V32.2375C244.063 30.6215 245.378 29.3065 246.994 29.3065H337.367C338.983 29.3065 340.298 30.621 340.298 32.2375V163.874C340.298 165.49 338.983 166.805 337.367 166.805ZM246.994 29.4315C245.446 29.4315 244.188 30.6905 244.188 32.2375V163.874C244.188 165.421 245.447 166.68 246.994 166.68H337.367C338.914 166.68 340.173 165.421 340.173 163.874V32.2375C340.173 30.6905 338.914 29.4315 337.367 29.4315H246.994Z" fill="#E0E0E0"/>
<path d="M233.153 166.805H142.78C141.164 166.805 139.849 165.49 139.849 163.874V32.2375C139.849 30.6215 141.163 29.3065 142.78 29.3065H233.154C234.77 29.3065 236.085 30.621 236.085 32.2375V163.874C236.084 165.49 234.769 166.805 233.153 166.805ZM142.78 29.4315C141.233 29.4315 139.974 30.6905 139.974 32.2375V163.874C139.974 165.421 141.233 166.68 142.78 166.68H233.154C234.701 166.68 235.96 165.421 235.96 163.874V32.2375C235.96 30.6905 234.701 29.4315 233.154 29.4315H142.78Z" fill="#E0E0E0"/>
<path d="M129.006 166.805H38.633C37.017 166.805 35.702 165.49 35.702 163.874V32.2375C35.702 30.6215 37.0165 29.3065 38.633 29.3065H129.006C130.622 29.3065 131.937 30.621 131.937 32.2375V163.874C131.938 165.49 130.623 166.805 129.006 166.805ZM38.633 29.4315C37.086 29.4315 35.827 30.6905 35.827 32.2375V163.874C35.827 165.421 37.086 166.68 38.633 166.68H129.006C130.554 166.68 131.812 165.421 131.812 163.874V32.2375C131.812 30.6905 130.553 29.4315 129.006 29.4315H38.633Z" fill="#E0E0E0"/>
<path d="M375.5 197.34H0.5V197.4H375.5V197.34Z" fill="#E0E0E0"/>
<path d="M124.213 60.79C129.176 56.012 137.072 56.162 141.849 61.1245C146.498 65.9535 146.5 73.5935 141.852 78.4235L134.806 85.4705C133.828 86.4485 132.242 86.4485 131.264 85.4705L124.213 78.4195C119.348 73.55 119.348 65.6595 124.213 60.79ZM133.034 75.404C136.323 75.404 138.971 72.662 138.818 69.3395C138.683 66.3905 136.256 63.964 133.307 63.8285C129.985 63.6755 127.243 66.324 127.243 69.613C127.243 69.6135 127.243 69.614 127.243 69.6145C127.249 72.808 129.84 75.3935 133.034 75.3935V75.404Z" fill="#E6E6E6"/>
<path d="M331.791 121.324V97.5725H317.085V102.989H307.282V43.657H288.435V67.0095H282.78V55.3485H268.073V112.219H247.337V92.126H234.334V48.561H218.287V77.6045H203.205V140.172H191.52V109.705H179.454V90.1H166.636V75.048L152.335 82.592V122.862H137.253V114.555H117.106V172.922L351.61 173.035V121.324H331.791Z" fill="#EBEBEB"/>
<path d="M180.437 172.953V86.1135H164.413V173.035C169.484 172.91 180.437 172.953 180.437 172.953Z" fill="#E6E6E6"/>
<path d="M165.844 173.035V125.275H132.868V172.93L165.844 173.035Z" fill="#FAFAFA"/>
<path d="M205.911 172.965V102.852H187.23V172.956L205.911 172.965Z" fill="#E0E0E0"/>
<path d="M190.913 105.599H188.648V110.271H190.913V105.599Z" fill="#FAFAFA"/>
<path d="M195.441 105.599H193.177V110.271H195.441V105.599Z" fill="#FAFAFA"/>
<path d="M199.97 105.599H197.705V110.271H199.97V105.599Z" fill="#FAFAFA"/>
<path d="M204.499 105.599H202.234V110.271H204.499V105.599Z" fill="#FAFAFA"/>
<path d="M190.913 113.435H188.648V118.106H190.913V113.435Z" fill="#FAFAFA"/>
<path d="M195.441 113.435H193.177V118.106H195.441V113.435Z" fill="#FAFAFA"/>
<path d="M199.97 113.435H197.705V118.106H199.97V113.435Z" fill="#FAFAFA"/>
<path d="M204.499 113.435H202.234V118.106H204.499V113.435Z" fill="#FAFAFA"/>
<path d="M190.913 121.265H188.648V125.936H190.913V121.265Z" fill="#FAFAFA"/>
<path d="M195.441 121.265H193.177V125.936H195.441V121.265Z" fill="#FAFAFA"/>
<path d="M199.97 121.265H197.705V125.936H199.97V121.265Z" fill="#FAFAFA"/>
<path d="M204.499 121.265H202.234V125.936H204.499V121.265Z" fill="#FAFAFA"/>
<path d="M190.913 129.095H188.648V133.766H190.913V129.095Z" fill="#FAFAFA"/>
<path d="M195.441 129.095H193.177V133.766H195.441V129.095Z" fill="#FAFAFA"/>
<path d="M199.97 129.095H197.705V133.766H199.97V129.095Z" fill="#FAFAFA"/>
<path d="M204.499 129.095H202.234V133.766H204.499V129.095Z" fill="#FAFAFA"/>
<path d="M190.913 136.925H188.648V141.596H190.913V136.925Z" fill="#FAFAFA"/>
<path d="M195.441 136.925H193.177V141.596H195.441V136.925Z" fill="#FAFAFA"/>
<path d="M199.97 136.925H197.705V141.596H199.97V136.925Z" fill="#FAFAFA"/>
<path d="M204.499 136.925H202.234V141.596H204.499V136.925Z" fill="#FAFAFA"/>
<path d="M190.913 144.754H188.648V149.426H190.913V144.754Z" fill="#FAFAFA"/>
<path d="M195.441 144.754H193.177V149.426H195.441V144.754Z" fill="#FAFAFA"/>
<path d="M199.97 144.754H197.705V149.426H199.97V144.754Z" fill="#FAFAFA"/>
<path d="M204.499 144.754H202.234V149.426H204.499V144.754Z" fill="#FAFAFA"/>
<path d="M190.913 152.585H188.648V157.256H190.913V152.585Z" fill="#FAFAFA"/>
<path d="M195.441 152.585H193.177V157.256H195.441V152.585Z" fill="#FAFAFA"/>
<path d="M199.97 152.585H197.705V157.256H199.97V152.585Z" fill="#FAFAFA"/>
<path d="M204.499 152.585H202.234V157.256H204.499V152.585Z" fill="#FAFAFA"/>
<path d="M190.913 160.42H188.648V165.092H190.913V160.42Z" fill="#FAFAFA"/>
<path d="M195.441 160.42H193.177V165.092H195.441V160.42Z" fill="#FAFAFA"/>
<path d="M199.97 160.42H197.705V165.092H199.97V160.42Z" fill="#FAFAFA"/>
<path d="M204.499 160.42H202.234V165.092H204.499V160.42Z" fill="#FAFAFA"/>
<path d="M270.827 172.996V92.865H232.094V173.023C232.094 173.023 270.53 173.035 270.827 172.996Z" fill="#F5F5F5"/>
<path d="M239.697 96.059H235.002V101.44H239.697V96.059Z" fill="#E6E6E6"/>
<path d="M249.094 96.059H244.399V101.44H249.094V96.059Z" fill="#E6E6E6"/>
<path d="M258.486 96.059H253.79V101.44H258.486V96.059Z" fill="#E6E6E6"/>
<path d="M267.883 96.059H263.188V101.44H267.883V96.059Z" fill="#E6E6E6"/>
<path d="M239.697 105.086H235.002V110.467H239.697V105.086Z" fill="#E6E6E6"/>
<path d="M249.094 105.086H244.399V110.467H249.094V105.086Z" fill="#E6E6E6"/>
<path d="M258.486 105.086H253.79V110.467H258.486V105.086Z" fill="#E6E6E6"/>
<path d="M267.883 105.086H263.188V110.467H267.883V105.086Z" fill="#E6E6E6"/>
<path d="M239.697 114.108H235.002V119.489H239.697V114.108Z" fill="#E6E6E6"/>
<path d="M249.094 114.108H244.399V119.489H249.094V114.108Z" fill="#E6E6E6"/>
<path d="M258.486 114.108H253.79V119.489H258.486V114.108Z" fill="#E6E6E6"/>
<path d="M267.883 114.108H263.188V119.489H267.883V114.108Z" fill="#E6E6E6"/>
<path d="M239.697 123.13H235.002V128.511H239.697V123.13Z" fill="#E6E6E6"/>
<path d="M249.094 123.13H244.399V128.511H249.094V123.13Z" fill="#E6E6E6"/>
<path d="M258.486 123.13H253.79V128.511H258.486V123.13Z" fill="#E6E6E6"/>
<path d="M267.883 123.13H263.188V128.511H267.883V123.13Z" fill="#E6E6E6"/>
<path d="M239.697 132.157H235.002V137.538H239.697V132.157Z" fill="#E6E6E6"/>
<path d="M249.094 132.157H244.399V137.538H249.094V132.157Z" fill="#E6E6E6"/>
<path d="M258.486 132.157H253.79V137.538H258.486V132.157Z" fill="#E6E6E6"/>
<path d="M267.883 132.157H263.188V137.538H267.883V132.157Z" fill="#E6E6E6"/>
<path d="M239.697 141.18H235.002V146.561H239.697V141.18Z" fill="#E6E6E6"/>
<path d="M249.094 141.18H244.399V146.561H249.094V141.18Z" fill="#E6E6E6"/>
<path d="M258.486 141.18H253.79V146.561H258.486V141.18Z" fill="#E6E6E6"/>
<path d="M267.883 141.18H263.188V146.561H267.883V141.18Z" fill="#E6E6E6"/>
<path d="M239.697 150.207H235.002V155.588H239.697V150.207Z" fill="#E6E6E6"/>
<path d="M249.094 150.207H244.399V155.588H249.094V150.207Z" fill="#E6E6E6"/>
<path d="M258.486 150.207H253.79V155.588H258.486V150.207Z" fill="#E6E6E6"/>
<path d="M267.883 150.207H263.188V155.588H267.883V150.207Z" fill="#E6E6E6"/>
<path d="M239.697 159.229H235.002V164.61H239.697V159.229Z" fill="#E6E6E6"/>
<path d="M249.094 159.229H244.399V164.61H249.094V159.229Z" fill="#E6E6E6"/>
<path d="M258.486 159.229H253.79V164.61H258.486V159.229Z" fill="#E6E6E6"/>
<path d="M267.883 159.229H263.188V164.61H267.883V159.229Z" fill="#E6E6E6"/>
<path d="M171.695 92.016H167.368V96.9745H171.695V92.016Z" fill="#FAFAFA"/>
<path d="M171.695 100.329H167.368V105.288H171.695V100.329Z" fill="#FAFAFA"/>
<path d="M171.695 108.648H167.368V113.607H171.695V108.648Z" fill="#FAFAFA"/>
<path d="M171.695 116.962H167.368V121.92H171.695V116.962Z" fill="#FAFAFA"/>
<path d="M171.695 125.275H167.368V130.234H171.695V125.275Z" fill="#FAFAFA"/>
<path d="M171.695 133.594H167.368V138.553H171.695V133.594Z" fill="#FAFAFA"/>
<path d="M171.695 141.908H167.368V146.866H171.695V141.908Z" fill="#FAFAFA"/>
<path d="M171.695 150.227H167.368V155.185H171.695V150.227Z" fill="#FAFAFA"/>
<path d="M177.482 92.016H173.155V96.9745H177.482V92.016Z" fill="#FAFAFA"/>
<path d="M177.482 100.329H173.155V105.288H177.482V100.329Z" fill="#FAFAFA"/>
<path d="M177.482 108.648H173.155V113.607H177.482V108.648Z" fill="#FAFAFA"/>
<path d="M177.482 116.962H173.155V121.92H177.482V116.962Z" fill="#FAFAFA"/>
<path d="M177.482 125.275H173.155V130.234H177.482V125.275Z" fill="#FAFAFA"/>
<path d="M177.482 133.594H173.155V138.553H177.482V133.594Z" fill="#FAFAFA"/>
<path d="M177.482 141.908H173.155V146.866H177.482V141.908Z" fill="#FAFAFA"/>
<path d="M177.482 150.227H173.155V155.185H177.482V150.227Z" fill="#FAFAFA"/>
<path d="M226.653 54.324H221.958V59.705H226.653V54.324Z" fill="#FAFAFA"/>
<path d="M226.653 63.346H221.958V68.727H226.653V63.346Z" fill="#FAFAFA"/>
<path d="M226.653 71.753H221.958V77.134H226.653V71.753Z" fill="#FAFAFA"/>
<path d="M226.653 80.7745H221.958V86.1555H226.653V80.7745Z" fill="#FAFAFA"/>
<path d="M226.653 89.7965H221.958V95.1775H226.653V89.7965Z" fill="#FAFAFA"/>
<path d="M226.653 98.824H221.958V104.205H226.653V98.824Z" fill="#FAFAFA"/>
<path d="M226.653 107.845H221.958V113.226H226.653V107.845Z" fill="#FAFAFA"/>
<path d="M226.653 116.873H221.958V122.254H226.653V116.873Z" fill="#FAFAFA"/>
<path d="M297.188 46.4995H292.493V51.8805H297.188V46.4995Z" fill="#FAFAFA"/>
<path d="M297.188 55.521H292.493V60.902H297.188V55.521Z" fill="#FAFAFA"/>
<path d="M297.188 64.5485H292.493V69.9295H297.188V64.5485Z" fill="#FAFAFA"/>
<path d="M297.188 73.5705H292.493V78.9515H297.188V73.5705Z" fill="#FAFAFA"/>
<path d="M297.188 82.598H292.493V87.979H297.188V82.598Z" fill="#FAFAFA"/>
<path d="M297.188 91.6195H292.493V97.0005H297.188V91.6195Z" fill="#FAFAFA"/>
<path d="M297.188 100.647H292.493V106.028H297.188V100.647Z" fill="#FAFAFA"/>
<path d="M297.188 109.669H292.493V115.05H297.188V109.669Z" fill="#FAFAFA"/>
<path d="M330.832 87.955H302.551V173.035H330.832V87.955Z" fill="#E6E6E6"/>
<path d="M315.023 92.15H306.734V97.531H315.023V92.15Z" fill="#FAFAFA"/>
<path d="M315.023 101.177H306.734V106.558H315.023V101.177Z" fill="#FAFAFA"/>
<path d="M315.023 110.199H306.734V115.58H315.023V110.199Z" fill="#FAFAFA"/>
<path d="M315.023 119.227H306.734V124.608H315.023V119.227Z" fill="#FAFAFA"/>
<path d="M315.023 128.248H306.734V133.629H315.023V128.248Z" fill="#FAFAFA"/>
<path d="M315.023 137.27H306.734V142.651H315.023V137.27Z" fill="#FAFAFA"/>
<path d="M315.023 146.298H306.734V151.679H315.023V146.298Z" fill="#FAFAFA"/>
<path d="M315.023 155.319H306.734V160.7H315.023V155.319Z" fill="#FAFAFA"/>
<path d="M326.112 92.15H317.824V97.531H326.112V92.15Z" fill="#FAFAFA"/>
<path d="M326.112 101.177H317.824V106.558H326.112V101.177Z" fill="#FAFAFA"/>
<path d="M326.112 110.199H317.824V115.58H326.112V110.199Z" fill="#FAFAFA"/>
<path d="M326.112 119.227H317.824V124.608H326.112V119.227Z" fill="#FAFAFA"/>
<path d="M326.112 128.248H317.824V133.629H326.112V128.248Z" fill="#FAFAFA"/>
<path d="M326.112 137.27H317.824V142.651H326.112V137.27Z" fill="#FAFAFA"/>
<path d="M326.112 146.298H317.824V151.679H326.112V146.298Z" fill="#FAFAFA"/>
<path d="M326.112 155.319H317.824V160.7H326.112V155.319Z" fill="#FAFAFA"/>
<path d="M287.13 173.004V114.108H274.795V172.998L287.13 173.004Z" fill="#E0E0E0"/>
<path d="M277.226 116.492H275.73V120.502H277.226V116.492Z" fill="#FAFAFA"/>
<path d="M280.217 116.492H278.722V120.502H280.217V116.492Z" fill="#FAFAFA"/>
<path d="M283.203 116.492H281.707V120.502H283.203V116.492Z" fill="#FAFAFA"/>
<path d="M286.194 116.492H284.698V120.502H286.194V116.492Z" fill="#FAFAFA"/>
<path d="M277.226 123.219H275.73V127.23H277.226V123.219Z" fill="#FAFAFA"/>
<path d="M280.217 123.219H278.722V127.23H280.217V123.219Z" fill="#FAFAFA"/>
<path d="M283.203 123.219H281.707V127.23H283.203V123.219Z" fill="#FAFAFA"/>
<path d="M286.194 123.219H284.698V127.23H286.194V123.219Z" fill="#FAFAFA"/>
<path d="M277.226 129.947H275.73V133.957H277.226V129.947Z" fill="#FAFAFA"/>
<path d="M280.217 129.947H278.722V133.957H280.217V129.947Z" fill="#FAFAFA"/>
<path d="M283.203 129.947H281.707V133.957H283.203V129.947Z" fill="#FAFAFA"/>
<path d="M286.194 129.947H284.698V133.957H286.194V129.947Z" fill="#FAFAFA"/>
<path d="M277.226 136.674H275.73V140.685H277.226V136.674Z" fill="#FAFAFA"/>
<path d="M280.217 136.674H278.722V140.685H280.217V136.674Z" fill="#FAFAFA"/>
<path d="M283.203 136.674H281.707V140.685H283.203V136.674Z" fill="#FAFAFA"/>
<path d="M286.194 136.674H284.698V140.685H286.194V136.674Z" fill="#FAFAFA"/>
<path d="M277.226 143.408H275.73V147.418H277.226V143.408Z" fill="#FAFAFA"/>
<path d="M280.217 143.408H278.722V147.418H280.217V143.408Z" fill="#FAFAFA"/>
<path d="M283.203 143.408H281.707V147.418H283.203V143.408Z" fill="#FAFAFA"/>
<path d="M286.194 143.408H284.698V147.418H286.194V143.408Z" fill="#FAFAFA"/>
<path d="M277.226 150.135H275.73V154.146H277.226V150.135Z" fill="#FAFAFA"/>
<path d="M280.217 150.135H278.722V154.146H280.217V150.135Z" fill="#FAFAFA"/>
<path d="M283.203 150.135H281.707V154.146H283.203V150.135Z" fill="#FAFAFA"/>
<path d="M286.194 150.135H284.698V154.146H286.194V150.135Z" fill="#FAFAFA"/>
<path d="M277.226 156.863H275.73V160.873H277.226V156.863Z" fill="#FAFAFA"/>
<path d="M280.217 156.863H278.722V160.873H280.217V156.863Z" fill="#FAFAFA"/>
<path d="M283.203 156.863H281.707V160.873H283.203V156.863Z" fill="#FAFAFA"/>
<path d="M286.194 156.863H284.698V160.873H286.194V156.863Z" fill="#FAFAFA"/>
<path d="M277.226 163.59H275.73V167.601H277.226V163.59Z" fill="#FAFAFA"/>
<path d="M280.217 163.59H278.722V167.601H280.217V163.59Z" fill="#FAFAFA"/>
<path d="M283.203 163.59H281.707V167.601H283.203V163.59Z" fill="#FAFAFA"/>
<path d="M286.194 163.59H284.698V167.601H286.194V163.59Z" fill="#FAFAFA"/>
<path d="M139.363 127.271H135.365V130.638H139.363V127.271Z" fill="#E6E6E6"/>
<path d="M147.359 127.271H143.361V130.638H147.359V127.271Z" fill="#E6E6E6"/>
<path d="M155.35 127.271H151.352V130.638H155.35V127.271Z" fill="#E6E6E6"/>
<path d="M163.347 127.271H159.348V130.638H163.347V127.271Z" fill="#E6E6E6"/>
<path d="M139.363 132.914H135.365V136.281H139.363V132.914Z" fill="#E6E6E6"/>
<path d="M147.359 132.914H143.361V136.281H147.359V132.914Z" fill="#E6E6E6"/>
<path d="M155.35 132.914H151.352V136.281H155.35V132.914Z" fill="#E6E6E6"/>
<path d="M163.347 132.914H159.348V136.281H163.347V132.914Z" fill="#E6E6E6"/>
<path d="M139.363 138.557H135.365V141.924H139.363V138.557Z" fill="#E6E6E6"/>
<path d="M147.359 138.557H143.361V141.924H147.359V138.557Z" fill="#E6E6E6"/>
<path d="M155.35 138.557H151.352V141.924H155.35V138.557Z" fill="#E6E6E6"/>
<path d="M163.347 138.557H159.348V141.924H163.347V138.557Z" fill="#E6E6E6"/>
<path d="M139.363 144.201H135.365V147.567H139.363V144.201Z" fill="#E6E6E6"/>
<path d="M147.359 144.201H143.361V147.567H147.359V144.201Z" fill="#E6E6E6"/>
<path d="M155.35 144.201H151.352V147.567H155.35V144.201Z" fill="#E6E6E6"/>
<path d="M163.347 144.201H159.348V147.567H163.347V144.201Z" fill="#E6E6E6"/>
<path d="M139.363 149.837H135.365V153.204H139.363V149.837Z" fill="#E6E6E6"/>
<path d="M147.359 149.837H143.361V153.204H147.359V149.837Z" fill="#E6E6E6"/>
<path d="M155.35 149.837H151.352V153.204H155.35V149.837Z" fill="#E6E6E6"/>
<path d="M163.347 149.837H159.348V153.204H163.347V149.837Z" fill="#E6E6E6"/>
<path d="M139.363 155.48H135.365V158.847H139.363V155.48Z" fill="#E6E6E6"/>
<path d="M147.359 155.48H143.361V158.847H147.359V155.48Z" fill="#E6E6E6"/>
<path d="M155.35 155.48H151.352V158.847H155.35V155.48Z" fill="#E6E6E6"/>
<path d="M163.347 155.48H159.348V158.847H163.347V155.48Z" fill="#E6E6E6"/>
<path d="M139.363 161.123H135.365V164.49H139.363V161.123Z" fill="#E6E6E6"/>
<path d="M147.359 161.123H143.361V164.49H147.359V161.123Z" fill="#E6E6E6"/>
<path d="M155.35 161.123H151.352V164.49H155.35V161.123Z" fill="#E6E6E6"/>
<path d="M163.347 161.123H159.348V164.49H163.347V161.123Z" fill="#E6E6E6"/>
<path d="M355.177 212.028H327.313V212.238H355.177V212.028Z" fill="#EBEBEB"/>
<path d="M255.335 214.31H248.022V214.521H255.335V214.31Z" fill="#EBEBEB"/>
<path d="M57.1595 205.629H20.8225V205.839H57.1595V205.629Z" fill="#EBEBEB"/>
<path d="M69.9775 205.629H64.6495V205.839H69.9775V205.629Z" fill="#EBEBEB"/>
<path d="M166.099 209.181H87.293V209.391H166.099V209.181Z" fill="#EBEBEB"/>
<path d="M328.975 225.816C328.975 227.51 270.19 228.882 197.675 228.882C125.16 228.882 66.375 227.51 66.375 225.816C66.375 224.123 125.16 222.75 197.675 222.75C270.19 222.75 328.975 224.123 328.975 225.816Z" fill="#F5F5F5"/>
<path d="M97.6265 202.984H31.3415C26.64 202.984 22.8285 199.172 22.8285 194.471V48.5245C22.8285 44.897 25.769 41.9565 29.3965 41.9565H99.5705C103.198 41.9565 106.138 44.897 106.138 48.5245V194.471C106.139 199.173 102.328 202.984 97.6265 202.984Z" fill="#263238"/>
<path d="M81.7535 45.569L80.4205 48.2035H47.821L45.882 45.569H30.4715C28.0055 45.569 26.007 47.5445 26.007 49.981V192.03C26.007 195.712 29.0275 198.696 32.753 198.696H96.2155C99.941 198.696 102.961 195.712 102.961 192.03V49.981C102.961 47.5445 100.962 45.569 98.497 45.569H81.7535Z" fill="white"/>
<path d="M64.446 45.318C64.446 46.0585 63.846 46.6585 63.1055 46.6585C62.365 46.6585 61.765 46.0585 61.765 45.318C61.765 44.5775 62.365 43.9775 63.1055 43.9775C63.846 43.9775 64.446 44.5775 64.446 45.318Z" fill="white"/>
<path d="M66.4255 45.318C66.4255 45.688 66.1255 45.988 65.755 45.988C65.385 45.988 65.0845 45.688 65.0845 45.318C65.0845 44.948 65.3845 44.6475 65.755 44.6475C66.1255 44.6475 66.4255 44.9475 66.4255 45.318Z" fill="white"/>
<path d="M98.4965 45.569H81.753L80.42 48.2035H47.821L45.882 45.569H30.4715C28.0055 45.569 26.007 47.544 26.007 49.981V86.3245H102.961V49.981C102.961 47.544 100.962 45.569 98.4965 45.569Z" fill="#407BFF"/>
<path d="M52.4744 84.515C51.5643 84.515 50.7167 84.3671 49.9317 84.0713C49.158 83.7641 48.4811 83.3375 47.9009 82.7914C47.332 82.2339 46.8883 81.5797 46.5698 80.8289C46.2512 80.078 46.0919 79.2588 46.0919 78.3714C46.0919 77.484 46.2512 76.6649 46.5698 75.914C46.8883 75.1631 47.3377 74.5146 47.918 73.9685C48.4982 73.4111 49.1751 72.9844 49.9487 72.6886C50.7224 72.3814 51.57 72.2279 52.4915 72.2279C53.4699 72.2279 54.363 72.3985 55.1708 72.7398C55.9786 73.0698 56.6612 73.5647 57.2187 74.2245L55.7852 75.5727C55.3528 75.1062 54.8693 74.7592 54.3346 74.5317C53.7999 74.2928 53.2196 74.1733 52.5939 74.1733C51.9682 74.1733 51.3936 74.2757 50.8703 74.4805C50.3583 74.6853 49.9089 74.9754 49.5221 75.3508C49.1467 75.7263 48.8509 76.17 48.6347 76.682C48.4299 77.1939 48.3275 77.7571 48.3275 78.3714C48.3275 78.9858 48.4299 79.549 48.6347 80.0609C48.8509 80.5729 49.1467 81.0166 49.5221 81.392C49.9089 81.7675 50.3583 82.0576 50.8703 82.2624C51.3936 82.4672 51.9682 82.5695 52.5939 82.5695C53.2196 82.5695 53.7999 82.4558 54.3346 82.2282C54.8693 81.9893 55.3528 81.6309 55.7852 81.1531L57.2187 82.5184C56.6612 83.1668 55.9786 83.6617 55.1708 84.0031C54.363 84.3444 53.4642 84.515 52.4744 84.515ZM64.6708 84.3444V82.5013L64.5514 82.1088V78.8834C64.5514 78.2577 64.3636 77.7741 63.9882 77.4328C63.6127 77.0801 63.0439 76.9038 62.2816 76.9038C61.7697 76.9038 61.2634 76.9834 60.7628 77.1427C60.2736 77.302 59.8583 77.5238 59.517 77.8083L58.6808 76.2553C59.17 75.8799 59.7503 75.6011 60.4215 75.4191C61.1041 75.2257 61.8095 75.129 62.5376 75.129C63.8574 75.129 64.8756 75.4475 65.5923 76.0847C66.3205 76.7104 66.6845 77.6831 66.6845 79.0029V84.3444H64.6708ZM61.8038 84.4638C61.1212 84.4638 60.5239 84.35 60.0119 84.1225C59.5 83.8836 59.1018 83.5593 58.8173 83.1498C58.5443 82.7288 58.4078 82.2567 58.4078 81.7333C58.4078 81.2214 58.5272 80.7606 58.7661 80.351C59.0164 79.9415 59.4203 79.6172 59.9778 79.3783C60.5353 79.1394 61.2748 79.0199 62.1963 79.0199H64.8415V80.4364H62.3499C61.6218 80.4364 61.1326 80.5558 60.8823 80.7947C60.632 81.0223 60.5068 81.3067 60.5068 81.648C60.5068 82.0348 60.6604 82.342 60.9676 82.5695C61.2748 82.7971 61.7014 82.9109 62.2475 82.9109C62.7709 82.9109 63.2373 82.7914 63.6469 82.5525C64.0678 82.3136 64.3693 81.9609 64.5514 81.4944L64.9097 82.7743C64.7049 83.3091 64.3352 83.7243 63.8005 84.0201C63.2771 84.3159 62.6116 84.4638 61.8038 84.4638ZM69.4222 84.3444V75.2314H71.453V77.74L71.2141 77.0062C71.4871 76.3918 71.9138 75.9254 72.494 75.6068C73.0856 75.2883 73.8194 75.129 74.6955 75.129V77.1598C74.6044 77.137 74.5191 77.1257 74.4395 77.1257C74.3598 77.1143 74.2802 77.1086 74.2006 77.1086C73.3928 77.1086 72.75 77.3475 72.2722 77.8253C71.7943 78.2918 71.5554 78.9915 71.5554 79.9244V84.3444H69.4222ZM46.9452 105.344V93.3985H51.8601C52.9181 93.3985 53.8226 93.5692 54.5735 93.9105C55.3358 94.2518 55.9217 94.741 56.3312 95.3781C56.7408 96.0152 56.9456 96.7718 56.9456 97.6478C56.9456 98.5238 56.7408 99.2804 56.3312 99.9175C55.9217 100.543 55.3358 101.027 54.5735 101.368C53.8226 101.698 52.9181 101.863 51.8601 101.863H48.1739L49.1637 100.856V105.344H46.9452ZM54.7612 105.344L51.7406 101.01H54.1127L57.1504 105.344H54.7612ZM49.1637 101.095L48.1739 100.037H51.7577C52.7361 100.037 53.4699 99.8265 53.9591 99.4056C54.4597 98.9846 54.71 98.3987 54.71 97.6478C54.71 96.8856 54.4597 96.2996 53.9591 95.8901C53.4699 95.4805 52.7361 95.2757 51.7577 95.2757H48.1739L49.1637 94.1835V101.095ZM63.5064 105.464C62.4938 105.464 61.6064 105.265 60.8441 104.867C60.0933 104.457 59.5073 103.899 59.0864 103.194C58.6768 102.489 58.472 101.687 58.472 100.788C58.472 99.8777 58.6711 99.0756 59.0693 98.3816C59.4789 97.6763 60.0364 97.1245 60.7417 96.7263C61.4585 96.3281 62.272 96.129 63.1821 96.129C64.0695 96.129 64.8602 96.3224 65.5542 96.7092C66.2482 97.096 66.7943 97.6421 67.1925 98.3475C67.5907 99.0529 67.7898 99.8834 67.7898 100.839C67.7898 100.93 67.7841 101.032 67.7727 101.146C67.7727 101.26 67.767 101.368 67.7557 101.47H60.1615V100.054H66.6293L65.7931 100.498C65.8045 99.9744 65.6964 99.5136 65.4689 99.1155C65.2413 98.7173 64.9285 98.4044 64.5303 98.1768C64.1435 97.9493 63.6941 97.8355 63.1821 97.8355C62.6588 97.8355 62.198 97.9493 61.7998 98.1768C61.413 98.4044 61.1058 98.7229 60.8783 99.1325C60.6621 99.5307 60.554 100.003 60.554 100.549V100.89C60.554 101.436 60.6792 101.92 60.9295 102.341C61.1798 102.762 61.5324 103.086 61.9875 103.314C62.4426 103.541 62.9659 103.655 63.5576 103.655C64.0695 103.655 64.5303 103.575 64.9399 103.416C65.3494 103.257 65.7135 103.006 66.0321 102.665L67.1754 103.979C66.7659 104.457 66.2482 104.827 65.6225 105.088C65.0081 105.339 64.3027 105.464 63.5064 105.464ZM75.0097 96.129C75.7378 96.129 76.3863 96.2712 76.9552 96.5556C77.5354 96.8401 77.9905 97.2781 78.3204 97.8697C78.6503 98.4499 78.8153 99.2008 78.8153 100.122V105.344H76.6821V100.395C76.6821 99.5876 76.4887 98.9846 76.1019 98.5864C75.7265 98.1882 75.1974 97.9891 74.5148 97.9891C74.0142 97.9891 73.5705 98.0915 73.1837 98.2963C72.7969 98.5011 72.4954 98.8083 72.2792 99.2178C72.0744 99.616 71.972 100.122 71.972 100.737V105.344H69.8389V96.2314H71.8697V98.6888L71.5113 97.9379C71.8298 97.3577 72.2906 96.914 72.8936 96.6068C73.5079 96.2883 74.2133 96.129 75.0097 96.129ZM50.1706 126.464C49.1694 126.464 48.3958 126.208 47.8497 125.696C47.3036 125.173 47.0305 124.405 47.0305 123.392V115.218H49.1637V123.341C49.1637 123.773 49.2718 124.109 49.488 124.348C49.7155 124.587 50.0284 124.706 50.4266 124.706C50.9044 124.706 51.3026 124.581 51.6212 124.331L52.2185 125.849C51.9682 126.054 51.661 126.208 51.2969 126.31C50.9329 126.413 50.5574 126.464 50.1706 126.464ZM45.5288 119.006V117.3H51.6041V119.006H45.5288Z" fill="white"/>
<path d="M72.7829 64.189V61.5455C72.7829 61.3145 72.6669 61.1015 72.4774 60.9745C72.4764 60.974 72.4759 60.9735 72.4754 60.973C72.4564 60.9605 72.4364 60.948 72.4159 60.9375L70.5404 59.9505C70.5339 59.9475 70.5284 59.9435 70.5229 59.939C70.5099 59.928 70.4999 59.914 70.4939 59.898C70.4749 59.8465 70.5014 59.79 70.5529 59.771L70.7824 59.689C70.8014 59.6825 70.8154 59.6655 70.8179 59.645C70.8219 59.6155 70.801 59.589 70.7719 59.585C69.8809 59.4605 66.4149 59.0075 64.5929 59.2305C64.2289 59.275 63.8674 59.3665 63.5184 59.4875L63.5174 59.487C62.2944 59.911 61.2279 60.6965 60.7484 61.083C60.5744 61.223 60.4769 61.311 60.4769 61.311C58.9304 61.253 57.4864 61.7915 56.8654 62.0615C56.6649 62.149 56.5104 62.3175 56.4404 62.5245L56.2279 63.1545C56.1999 63.2345 56.1854 63.318 56.1844 63.4025V64.7345C56.1844 65.02 56.3704 65.272 56.6429 65.356L56.7514 65.389C56.8184 65.4095 56.8879 65.4195 56.9579 65.4175H56.9589C56.9594 65.4175 56.9599 65.4175 56.9604 65.4175L57.6774 65.401C57.6714 65.38 57.6659 65.3595 57.6609 65.3385C57.6604 65.337 57.6604 65.336 57.6599 65.3345L57.9714 65.327C58.0404 65.5635 58.1679 65.7865 58.3539 65.9725C58.9449 66.5635 59.9034 66.5635 60.4944 65.9725C60.6989 65.768 60.8324 65.52 60.8954 65.258L61.2039 65.251C61.1994 65.273 61.1954 65.295 61.1899 65.317H61.1924L68.3189 65.1475C68.3189 65.1475 68.3189 65.1475 68.3189 65.148L68.4909 65.1435C68.4879 65.1225 68.4854 65.1015 68.4834 65.0805L68.7859 65.0735C68.8229 65.402 68.9674 65.7205 69.2194 65.9725C69.8104 66.5635 70.7689 66.5635 71.3599 65.9725C71.6299 65.7025 71.7759 65.356 71.7994 65.003L72.1004 64.996C72.1004 65 72.0999 65.004 72.0999 65.0075C72.1014 65.007 72.1029 65.0065 72.1044 65.0055C72.1044 65.006 72.1044 65.007 72.1044 65.0075C72.1139 65.0035 72.1239 65 72.1334 64.995L72.2769 64.93C72.2769 64.9295 72.2769 64.9295 72.2769 64.929L72.3794 64.8835C72.6254 64.7725 72.7839 64.5275 72.7839 64.257L72.7829 64.189Z" fill="white"/>
<path d="M91.9446 136.899L34.024 138.257V128.351H92.502L91.9446 136.899Z" fill="#263238"/>
<path opacity="0.5" d="M91.9446 136.899L34.024 138.257V128.351H92.502L91.9446 136.899Z" fill="#1E1E1E"/>
<path d="M31.796 130.892V135.916C31.7955 136.993 32.497 137.943 33.5255 138.261L33.935 138.385C34.187 138.463 34.4505 138.5 34.714 138.493L37.419 138.43C37.0975 137.306 37.0695 136.118 37.337 134.98C38.2025 131.295 41.8915 129.01 45.5755 129.876C49.26 130.741 51.545 134.43 50.6795 138.114L78.205 137.46C78.1605 137.138 78.139 136.814 78.14 136.489C78.1565 132.705 81.238 129.65 85.0225 129.666C88.807 129.683 91.862 132.764 91.8455 136.549C91.8455 136.683 91.8345 136.814 91.8345 136.946C91.8705 136.931 91.9085 136.917 91.9445 136.899L92.886 136.479C93.8145 136.059 94.4115 135.135 94.4115 134.116V123.884C94.4115 122.921 93.8785 122.038 93.0265 121.59L85.9515 117.869C85.8705 117.826 85.8085 117.755 85.7765 117.668C85.7055 117.475 85.8045 117.26 85.9985 117.189L86.864 116.879C86.9365 116.854 86.989 116.79 86.9985 116.714C87.013 116.604 86.9345 116.502 86.824 116.488C83.4625 116.019 70.388 114.31 63.515 115.15C55.5875 116.12 47.9895 123 47.9895 123C42.1555 122.782 36.7095 124.813 34.365 125.832C33.608 126.162 33.026 126.797 32.762 127.579L31.9595 129.956C31.855 130.257 31.7995 130.573 31.796 130.892Z" fill="#407BFF"/>
<path d="M78.2115 137.46C78.1715 137.158 78.1515 136.854 78.152 136.55C78.152 136.395 78.1575 136.241 78.1665 136.088L73.189 134.052C72.8975 133.934 72.583 133.882 72.269 133.903L54.9565 135.039C54.6735 135.057 54.397 135.133 54.145 135.262L50.8555 136.954C50.832 137.345 50.776 137.733 50.688 138.115L78.2115 137.46Z" fill="#263238"/>
<path d="M94.4135 134.117V133.855L91.5985 134.717C91.7625 135.314 91.8455 135.93 91.8455 136.55C91.8455 136.683 91.8345 136.815 91.8345 136.946C91.8705 136.932 91.9085 136.917 91.9445 136.899L92.8875 136.479C93.8165 136.06 94.413 135.136 94.4135 134.117Z" fill="#263238"/>
<path d="M32.595 137.72C32.8635 137.968 33.185 138.153 33.5345 138.261L33.944 138.385C34.196 138.463 34.459 138.5 34.723 138.493L37.428 138.43C37.33 138.088 37.2595 137.739 37.217 137.386L32.595 137.72Z" fill="#263238"/>
<path d="M85.0105 129.053C84.6995 129.053 84.3885 129.072 84.08 129.111C79.9725 129.624 77.0585 133.369 77.5715 137.477L78.2205 137.461C78.176 137.139 78.1545 136.815 78.1555 136.49C78.172 132.706 81.2535 129.651 85.038 129.667C88.8225 129.684 91.8775 132.765 91.861 136.55C91.861 136.684 91.85 136.815 91.85 136.947C91.886 136.932 91.924 136.918 91.96 136.9L92.501 136.655C92.501 136.619 92.501 136.584 92.501 136.55C92.496 132.411 89.1415 129.057 85.0025 129.054H85.0105V129.053Z" fill="#263238"/>
<path d="M44.0175 129.053C43.377 129.053 42.7395 129.134 42.12 129.296C38.114 130.343 35.7155 134.439 36.762 138.445L37.4275 138.43C37.106 137.306 37.078 136.118 37.3455 134.98C38.211 131.295 41.8995 129.01 45.584 129.876C49.2685 130.741 51.5535 134.43 50.688 138.114L51.3515 138.098C51.4595 137.587 51.514 137.067 51.5135 136.545C51.513 132.407 48.157 129.052 44.0175 129.053Z" fill="#263238"/>
<path d="M50.5856 122.878C50.5066 122.938 50.4516 123.025 50.4291 123.122C50.3771 123.352 50.5211 123.581 50.7511 123.633L53.6256 124.293C53.8801 124.352 54.1436 124.366 54.4031 124.333L75.5696 121.707C76.0846 121.641 76.5611 121.4 76.9186 121.023L79.6451 118.138C79.7361 118.042 79.7921 117.919 79.8051 117.788C79.8366 117.464 79.5996 117.176 79.2756 117.144C74.1846 116.63 67.7521 116.19 63.7051 116.686C58.4016 117.336 53.1196 120.921 50.5856 122.878Z" fill="#263238"/>
<g opacity="0.3">
<path d="M64.4956 125.31C64.3596 125.261 64.2891 125.111 64.3381 124.975C64.3981 124.807 64.5546 124.692 64.7331 124.685L67.2576 124.578C67.2916 124.577 67.3256 124.582 67.3581 124.593C67.4951 124.642 67.5661 124.793 67.5176 124.93C67.4566 125.098 67.2996 125.213 67.1211 125.22L64.5966 125.325C64.5621 125.327 64.5281 125.322 64.4956 125.31Z" fill="#1E1E1E"/>
</g>
<path d="M83.272 118.076C83.0485 118.275 83.0285 118.617 83.227 118.84L83.8255 119.491C83.894 119.564 83.9815 119.617 84.078 119.645L91.4125 121.679C91.54 121.713 91.6715 121.731 91.804 121.731H93.261C93.185 121.681 93.1075 121.634 93.0265 121.591L85.9515 117.867H85.951C85.7725 117.779 85.699 117.562 85.7875 117.384L83.49 117.959C83.409 117.98 83.3345 118.021 83.272 118.076Z" fill="#263238"/>
<path d="M47.996 122.997L48.3945 123.11C48.704 123.199 49.0375 123.127 49.2835 122.919C51.6025 120.957 55.635 117.947 59.9865 116.544C60.006 116.538 60.022 116.525 60.032 116.507C60.054 116.468 60.04 116.418 60.001 116.396L59.46 116.119C53.1825 118.295 47.996 122.997 47.996 122.997Z" fill="#263238"/>
<path opacity="0.2" d="M71.779 125.646L50.6885 127.154L51.0855 129.755C51.207 130.552 51.5025 131.312 51.951 131.982L53.7135 134.617L71.7145 132.183L80.2245 125.646H71.779V125.646Z" fill="white"/>
<path d="M85.0041 142.258C88.1573 142.258 90.7136 139.702 90.7136 136.549C90.7136 133.395 88.1573 130.839 85.0041 130.839C81.8508 130.839 79.2946 133.395 79.2946 136.549C79.2946 139.702 81.8508 142.258 85.0041 142.258Z" fill="#263238"/>
<path opacity="0.4" d="M87.479 139.024C86.112 140.391 83.8955 140.391 82.5285 139.024C81.1615 137.657 81.1615 135.44 82.5285 134.073C83.8955 132.706 86.112 132.706 87.479 134.073C88.846 135.441 88.846 137.657 87.479 139.024Z" fill="white"/>
<g opacity="0.3">
<path d="M85.2845 133.68V135.475C85.2845 135.629 85.1595 135.754 85.005 135.754H85.003C84.8485 135.754 84.7235 135.629 84.7235 135.475V133.68C84.7235 133.526 84.8485 133.401 85.003 133.401H85.005C85.1595 133.401 85.2845 133.526 85.2845 133.68Z" fill="white"/>
</g>
<g opacity="0.3">
<path d="M85.2845 137.624V139.419C85.2845 139.573 85.1595 139.698 85.005 139.698H85.003C84.8485 139.698 84.7235 139.573 84.7235 139.419V137.624C84.7235 137.47 84.8485 137.345 85.003 137.345H85.005C85.1595 137.345 85.2845 137.47 85.2845 137.624Z" fill="white"/>
</g>
<g opacity="0.3">
<path d="M86.0735 136.255C85.9395 136.332 85.7685 136.285 85.6925 136.151L85.692 136.15C85.615 136.016 85.6615 135.846 85.795 135.769L87.3475 134.867C87.482 134.79 87.654 134.836 87.7315 134.97C87.808 135.104 87.762 135.275 87.6285 135.353L86.076 136.254C86.076 136.254 86.0745 136.255 86.0735 136.255Z" fill="white"/>
</g>
<g opacity="0.3">
<path d="M82.658 138.22C82.524 138.297 82.353 138.25 82.2765 138.117L82.276 138.116C82.199 137.982 82.2455 137.812 82.379 137.735L83.9315 136.833C84.065 136.756 84.236 136.801 84.3135 136.934C84.3915 137.068 84.346 137.24 84.2125 137.318L82.658 138.22C82.6585 138.22 82.6585 138.22 82.658 138.22Z" fill="white"/>
</g>
<g opacity="0.3">
<path d="M87.3476 138.227L85.7951 137.325C85.6606 137.247 85.6146 137.076 85.6921 136.941C85.7706 136.808 85.9421 136.762 86.0761 136.84L87.6286 137.742C87.7621 137.819 87.8076 137.99 87.7316 138.124C87.6541 138.258 87.4821 138.304 87.3476 138.227Z" fill="white"/>
</g>
<g opacity="0.3">
<path d="M84.3141 136.152C84.2366 136.285 84.0656 136.331 83.9321 136.254L82.3796 135.352L82.379 135.352C82.2455 135.274 82.1996 135.104 82.2771 134.97L82.2775 134.969C82.355 134.836 82.5261 134.79 82.6596 134.867L84.214 135.769C84.3475 135.846 84.3926 136.018 84.3151 136.151L84.3141 136.152Z" fill="white"/>
</g>
<path d="M84.5345 136.548C84.5345 136.289 84.7445 136.079 85.0035 136.079C85.0035 136.079 85.0045 136.079 85.0055 136.079C85.2655 136.079 85.476 136.289 85.476 136.549C85.476 136.809 85.265 137.02 85.0055 137.02C84.746 137.02 84.535 136.809 84.535 136.549L84.5345 136.548Z" fill="#263238"/>
<path d="M44.0175 142.259C47.1708 142.259 49.727 139.703 49.727 136.55C49.727 133.396 47.1708 130.84 44.0175 130.84C40.8642 130.84 38.308 133.396 38.308 136.55C38.308 139.703 40.8642 142.259 44.0175 142.259Z" fill="#263238"/>
<path opacity="0.4" d="M46.4925 139.025C45.1255 140.392 42.909 140.392 41.542 139.025C40.175 137.658 40.175 135.441 41.542 134.074C42.909 132.707 45.1255 132.707 46.4925 134.074C47.8595 135.442 47.8595 137.658 46.4925 139.025Z" fill="white"/>
<g opacity="0.3">
<path d="M44.297 133.68V135.475C44.297 135.629 44.172 135.754 44.0175 135.754H44.0155C43.861 135.754 43.736 135.629 43.736 135.475V133.68C43.736 133.526 43.861 133.401 44.0155 133.401H44.0175C44.172 133.401 44.297 133.526 44.297 133.68Z" fill="white"/>
</g>
<g opacity="0.3">
<path d="M44.297 137.624V139.419C44.297 139.573 44.172 139.698 44.0175 139.698H44.0155C43.861 139.698 43.736 139.573 43.736 139.419V137.624C43.736 137.47 43.861 137.345 44.0155 137.345H44.0175C44.172 137.345 44.297 137.47 44.297 137.624Z" fill="white"/>
</g>
<g opacity="0.3">
<path d="M45.085 136.256C44.9515 136.331 44.782 136.284 44.7065 136.151C44.629 136.017 44.674 135.846 44.8075 135.769L46.362 134.867L46.3625 134.867C46.4965 134.79 46.667 134.836 46.744 134.97L46.7445 134.97C46.8215 135.104 46.775 135.275 46.641 135.352L45.0885 136.253C45.0875 136.255 45.0865 136.255 45.085 136.256Z" fill="white"/>
</g>
<g opacity="0.3">
<path d="M41.289 138.117L41.2885 138.116C41.2115 137.982 41.258 137.812 41.3915 137.735L42.944 136.833C43.078 136.755 43.25 136.801 43.328 136.934C43.4055 137.069 43.3595 137.241 43.225 137.318L41.6725 138.22C41.5385 138.297 41.367 138.251 41.289 138.117Z" fill="white"/>
</g>
<g opacity="0.3">
<path d="M46.744 138.125C46.6665 138.258 46.496 138.304 46.362 138.227L44.8075 137.325C44.674 137.247 44.6285 137.075 44.7065 136.941C44.784 136.808 44.9555 136.763 45.0885 136.84L46.641 137.742L46.642 137.742C46.7755 137.82 46.8215 137.99 46.744 138.124V138.125Z" fill="white"/>
</g>
<g opacity="0.3">
<path d="M43.327 136.154C43.249 136.287 43.078 136.332 42.9445 136.254L41.392 135.352L41.3915 135.352C41.258 135.274 41.212 135.104 41.2895 134.97C41.367 134.835 41.539 134.789 41.6735 134.867L43.226 135.768L43.2265 135.769C43.36 135.846 43.406 136.017 43.3285 136.151C43.328 136.152 43.3275 136.153 43.327 136.154Z" fill="white"/>
</g>
<path d="M44.0175 136.079C44.2775 136.079 44.488 136.29 44.488 136.549C44.488 136.809 44.2775 137.02 44.0175 137.02C43.7575 137.02 43.547 136.809 43.547 136.549C43.547 136.289 43.7575 136.079 44.0175 136.079Z" fill="#263238"/>
<path opacity="0.3" d="M93.8146 125.778C94.0046 125.719 94.1111 125.516 94.0516 125.326C93.9851 124.124 93.7296 123.054 92.9931 122.318C92.9436 122.156 92.7886 122.051 92.6196 122.064L88.2681 122.475C88.1926 122.483 88.1211 122.515 88.0646 122.566C87.9166 122.699 87.9056 122.927 88.0391 123.075L89.2851 124.419C89.3286 124.465 89.3831 124.499 89.4436 124.518L93.6096 125.78C93.6771 125.8 93.7481 125.799 93.8146 125.778Z" fill="#1E1E1E"/>
<path d="M50.4295 123.12C50.377 123.35 50.5215 123.579 50.7515 123.632L53.626 124.292C53.8805 124.351 54.144 124.364 54.4035 124.331L55.1735 124.236L56.097 119.296C54.165 120.337 52.322 121.534 50.586 122.876C50.5065 122.937 50.4515 123.023 50.4295 123.12Z" fill="#1E1E1E"/>
<path d="M68.9405 116.478L67.238 122.737L69.6435 122.438L70.5685 116.517C70.0185 116.498 69.4755 116.485 68.9405 116.478Z" fill="#1E1E1E"/>
<path d="M79.809 117.784C79.84 117.46 79.602 117.172 79.2775 117.141C78.5995 117.071 77.878 117.004 77.1565 116.939L76.884 121.058L76.918 121.024L79.6445 118.139C79.7385 118.042 79.796 117.917 79.809 117.784Z" fill="#1E1E1E"/>
<path d="M55.088 123.342C54.5165 123.342 54.053 122.878 54.053 122.306C54.0535 121.82 54.3915 121.399 54.8665 121.295L56.2495 120.988L56.5725 123.304L55.1155 123.342C55.1065 123.342 55.0975 123.342 55.088 123.342Z" fill="#407BFF"/>
<path opacity="0.3" d="M56.169 123.314L56.573 123.304L56.25 120.988L55.855 121.076L56.169 123.314Z" fill="#1E1E1E"/>
<path opacity="0.6" d="M69.4445 122.063C69.4445 122.063 69.6395 125.113 69.4445 126.089C69.2495 127.064 67.7285 134.2 67.7285 134.2" stroke="#1E1E1E" stroke-width="0.25" stroke-miterlimit="10" stroke-linecap="round" stroke-linejoin="round"/>
<path opacity="0.6" d="M50.431 123.314C50.431 123.314 50.8225 129.904 51.5145 131.152C52.1895 132.37 54.146 135.262 54.146 135.262" stroke="#1E1E1E" stroke-width="0.25" stroke-miterlimit="10" stroke-linecap="round" stroke-linejoin="round"/>
<path opacity="0.6" d="M48.7805 123.148C48.7805 123.148 43.918 124.349 42.487 124.578C41.312 124.766 36.5355 125.929 35.098 126.517" stroke="#1E1E1E" stroke-width="0.25" stroke-miterlimit="10" stroke-linecap="round" stroke-linejoin="round"/>
<path d="M82.8389 99.1625H49.0184V102.52H82.8389V99.1625Z" fill="#263238"/>
<path opacity="0.7" d="M82.8389 99.1625H49.0184V102.52H82.8389V99.1625Z" fill="white"/>
<path d="M82.2959 151.267H52.1799V154.624H82.2959V151.267Z" fill="#263238"/>
<path opacity="0.7" d="M82.2959 151.267H52.1799V154.624H82.2959V151.267Z" fill="white"/>
<path d="M61.2379 158.216H52.1799V161.573H61.2379V158.216Z" fill="#263238"/>
<path opacity="0.7" d="M61.2379 158.216H52.1799V161.573H61.2379V158.216Z" fill="white"/>
<path d="M91.66 171.456H39.2545V187.895H91.66V171.456Z" fill="#407BFF"/>
<path opacity="0.3" d="M91.66 171.456H86.7125V187.895H91.66V171.456Z" fill="#1E1E1E"/>
<path d="M56.8358 188.773V178.919H60.8904C61.7632 178.919 62.5094 179.059 63.1288 179.341C63.7576 179.623 64.241 180.026 64.5789 180.552C64.9168 181.077 65.0857 181.701 65.0857 182.424C65.0857 183.147 64.9168 183.771 64.5789 184.297C64.241 184.813 63.7576 185.212 63.1288 185.493C62.5094 185.765 61.7632 185.902 60.8904 185.902H57.8494L58.666 185.071V188.773H56.8358ZM63.2837 188.773L60.7918 185.198H62.7487L65.2546 188.773H63.2837ZM58.666 185.268L57.8494 184.395H60.8059C61.613 184.395 62.2184 184.222 62.622 183.874C63.035 183.527 63.2414 183.044 63.2414 182.424C63.2414 181.795 63.035 181.312 62.622 180.974C62.2184 180.636 61.613 180.467 60.8059 180.467H57.8494L58.666 179.566V185.268ZM60.2005 205.872C59.3652 205.872 58.6331 205.708 58.0043 205.379C57.3849 205.041 56.9015 204.582 56.5542 204C56.2164 203.418 56.0474 202.756 56.0474 202.015C56.0474 201.264 56.2117 200.602 56.5402 200.03C56.878 199.448 57.3379 198.992 57.9198 198.664C58.5111 198.335 59.1822 198.171 59.933 198.171C60.6651 198.171 61.3174 198.331 61.8899 198.65C62.4624 198.969 62.9129 199.419 63.2414 200.001C63.5699 200.583 63.7342 201.268 63.7342 202.057C63.7342 202.132 63.7295 202.216 63.7201 202.31C63.7201 202.404 63.7154 202.493 63.706 202.578H57.4412V201.409H62.7769L62.087 201.775C62.0964 201.344 62.0072 200.963 61.8195 200.635C61.6318 200.306 61.3737 200.048 61.0452 199.861C60.7261 199.673 60.3554 199.579 59.933 199.579C59.5013 199.579 59.1212 199.673 58.7927 199.861C58.4736 200.048 58.2202 200.311 58.0325 200.649C57.8541 200.977 57.765 201.367 57.765 201.817V202.099C57.765 202.55 57.8682 202.948 58.0747 203.296C58.2812 203.643 58.5721 203.91 58.9476 204.098C59.323 204.286 59.7547 204.38 60.2428 204.38C60.6651 204.38 61.0452 204.314 61.3831 204.183C61.721 204.051 62.0213 203.845 62.2841 203.563L63.2274 204.647C62.8895 205.041 62.4624 205.346 61.9462 205.562C61.4394 205.769 60.8575 205.872 60.2005 205.872ZM60.9326 215.171C61.5333 215.171 62.0682 215.289 62.5375 215.523C63.0162 215.758 63.3916 216.119 63.6638 216.607C63.936 217.086 64.0721 217.705 64.0721 218.466V222.773H62.3123V218.691C62.3123 218.024 62.1527 217.527 61.8336 217.198C61.5239 216.87 61.0875 216.706 60.5243 216.706C60.1114 216.706 59.7453 216.79 59.4262 216.959C59.1071 217.128 58.8584 217.382 58.6801 217.719C58.5111 218.048 58.4267 218.466 58.4267 218.972V222.773H56.6669V215.256H58.3422V217.283L58.0465 216.664C58.3093 216.185 58.6895 215.819 59.1869 215.565C59.6937 215.303 60.2756 215.171 60.9326 215.171ZM69.1342 222.872C68.3083 222.872 67.6701 222.661 67.2195 222.239C66.769 221.807 66.5438 221.173 66.5438 220.338V213.594H68.3036V220.296C68.3036 220.652 68.3927 220.929 68.5711 221.126C68.7588 221.323 69.0169 221.422 69.3454 221.422C69.7396 221.422 70.0681 221.319 70.3309 221.112L70.8236 222.365C70.6171 222.534 70.3637 222.661 70.0634 222.745C69.763 222.83 69.4533 222.872 69.1342 222.872ZM65.3049 216.72V215.312H70.3168V216.72H65.3049Z" fill="white"/>
<path d="M41.1955 150.638C42.7975 149.096 45.346 149.144 46.888 150.746C48.3885 152.304 48.389 154.771 46.889 156.33L44.6145 158.604C44.299 158.92 43.787 158.92 43.471 158.604L41.195 156.328C39.625 154.757 39.625 152.21 41.1955 150.638ZM44.0425 155.355C45.104 155.355 45.959 154.47 45.9095 153.397C45.8655 152.445 45.0825 151.662 44.1305 151.618C43.058 151.569 42.173 152.424 42.173 153.485V153.486C42.175 154.517 43.0115 155.351 44.042 155.351L44.0425 155.355Z" fill="#263238"/>
<path opacity="0.7" d="M41.1955 150.638C42.7975 149.096 45.346 149.144 46.888 150.746C48.3885 152.304 48.389 154.771 46.889 156.33L44.6145 158.604C44.299 158.92 43.787 158.92 43.471 158.604L41.195 156.328C39.625 154.757 39.625 152.21 41.1955 150.638ZM44.0425 155.355C45.104 155.355 45.959 154.47 45.9095 153.397C45.8655 152.445 45.0825 151.662 44.1305 151.618C43.058 151.569 42.173 152.424 42.173 153.485V153.486C42.175 154.517 43.0115 155.351 44.042 155.351L44.0425 155.355Z" fill="white"/>
<path d="M37.6005 126.789L35.098 126.517L33.66 127.105C33.358 127.228 33.132 127.488 33.0515 127.804C33.0045 127.987 33.031 128.182 33.1255 128.345L33.1505 128.389C33.3115 128.666 33.623 128.818 33.9405 128.775L35.3835 128.576C35.524 128.556 35.6575 128.501 35.771 128.416L37.4355 127.153L37.6005 126.789Z" fill="white"/>
<path d="M196.631 98.0473C197.145 92.214 192.834 87.0679 187.001 86.5531C181.167 86.0384 176.021 90.3499 175.506 96.1832C174.992 102.017 179.303 107.163 185.136 107.677C190.97 108.192 196.116 103.881 196.631 98.0473Z" fill="#407BFF"/>
<path d="M190.239 104.304L189.506 106.934L192.545 108.553L192.915 105.186L190.239 104.304Z" fill="#407BFF"/>
<path d="M194.692 87.6615C197.492 89.673 199.163 93.162 198.974 96.604" stroke="#407BFF" stroke-width="0.5" stroke-miterlimit="10" stroke-linecap="round" stroke-linejoin="round"/>
<path d="M198.832 98.18C198.842 98.7055 198.742 99.2335 198.541 99.719" stroke="#407BFF" stroke-width="0.5" stroke-miterlimit="10" stroke-linecap="round" stroke-linejoin="round"/>
<path d="M185.88 101.58L180.541 98.009L181.787 96.1455L185.367 98.5405L189.822 92.645L191.611 93.996L185.88 101.58Z" fill="white"/>
<path d="M348.071 201.097L100.766 206.894V164.597H350.45L348.071 201.097Z" fill="#263238"/>
<path opacity="0.5" d="M348.071 201.097L100.766 206.894V164.597H350.45L348.071 201.097Z" fill="#1E1E1E"/>
<path d="M91.254 175.449V196.901C91.2525 201.496 94.247 205.556 98.638 206.911L100.386 207.442C101.463 207.776 102.586 207.932 103.713 207.904L115.263 207.635C113.891 202.834 113.77 197.763 114.912 192.902C118.608 177.171 134.357 167.414 150.089 171.11C165.82 174.806 175.577 190.555 171.881 206.287L289.405 203.492C289.215 202.119 289.123 200.734 289.129 199.348C289.199 183.189 302.356 170.146 318.516 170.216C334.675 170.287 347.718 183.444 347.648 199.603C347.648 200.173 347.602 200.735 347.602 201.297C347.756 201.236 347.917 201.174 348.071 201.097L352.091 199.303C356.055 197.512 358.603 193.566 358.605 189.216V145.527C358.605 141.417 356.328 137.646 352.691 135.732L322.484 119.847C322.138 119.663 321.873 119.358 321.738 118.99C321.434 118.164 321.858 117.248 322.685 116.945L326.381 115.62C326.691 115.514 326.914 115.241 326.956 114.915C327.017 114.443 326.684 114.01 326.211 113.949C311.859 111.947 256.034 104.648 226.689 108.236C192.84 112.378 160.4 141.754 160.4 141.754C135.491 140.822 112.237 149.492 102.227 153.843C98.9955 155.253 96.5095 157.963 95.3815 161.304L91.955 171.453C91.5065 172.738 91.27 174.087 91.254 175.449Z" fill="#407BFF"/>
<path d="M289.436 203.492C289.266 202.203 289.181 200.904 289.182 199.603C289.182 198.941 289.205 198.287 289.244 197.633L267.992 188.939C266.748 188.432 265.405 188.214 264.065 188.3L190.145 193.151C188.937 193.227 187.757 193.553 186.68 194.106L172.636 201.329C172.536 202.999 172.296 204.657 171.92 206.288L289.436 203.492Z" fill="#263238"/>
<path d="M358.613 189.216V188.1L346.593 191.78C347.294 194.329 347.649 196.96 347.648 199.603C347.648 200.173 347.602 200.735 347.602 201.297C347.756 201.236 347.918 201.174 348.072 201.097L352.099 199.303C356.063 197.512 358.611 193.566 358.613 189.216Z" fill="#263238"/>
<path d="M94.6655 204.601C95.8125 205.662 97.1835 206.452 98.677 206.911L100.425 207.443C101.502 207.776 102.625 207.932 103.752 207.905L115.302 207.635C114.884 206.175 114.582 204.685 114.401 203.177L94.6655 204.601Z" fill="#263238"/>
<path d="M318.465 167.595C317.136 167.594 315.809 167.677 314.491 167.841C296.954 170.031 284.512 186.024 286.702 203.561L289.474 203.492C289.284 202.119 289.192 200.734 289.198 199.348C289.268 183.189 302.425 170.146 318.585 170.216C334.744 170.287 347.787 183.444 347.717 199.603C347.717 200.173 347.671 200.735 347.671 201.297C347.825 201.236 347.986 201.174 348.14 201.097L350.45 200.05C350.45 199.896 350.45 199.75 350.45 199.604C350.429 181.932 336.106 167.612 318.434 167.595H318.465Z" fill="#263238"/>
<path d="M143.437 167.595C140.703 167.594 137.981 167.944 135.336 168.635C118.232 173.104 107.99 190.593 112.46 207.696L115.301 207.635C113.929 202.834 113.809 197.763 114.951 192.902C118.647 177.171 134.396 167.414 150.127 171.11C165.859 174.806 175.615 190.555 171.919 206.287L174.753 206.217C175.214 204.038 175.446 201.816 175.445 199.588C175.441 181.915 161.11 167.591 143.437 167.595Z" fill="#263238"/>
<path d="M171.291 142.984C170.949 143.274 170.706 143.69 170.604 144.161C170.361 145.278 170.958 146.403 171.936 146.674L184.153 150.098C185.235 150.405 186.357 150.49 187.468 150.349L278.049 139.126C280.254 138.846 282.308 137.706 283.865 135.899L295.748 122.055C296.144 121.598 296.394 121.003 296.46 120.366C296.622 118.791 295.634 117.37 294.253 117.192C272.562 114.316 245.137 111.701 227.82 113.817C205.123 116.586 182.272 133.647 171.291 142.984Z" fill="#407BFF"/>
<path opacity="0.8" d="M171.699 142.984C171.357 143.273 171.114 143.69 171.012 144.161C170.769 145.277 171.366 146.402 172.344 146.674L184.561 150.098C185.643 150.404 186.765 150.489 187.876 150.348L276.429 144.278C278.634 143.998 282.041 139.948 284.45 136.659L296.156 122.055C296.552 121.598 296.802 121.003 296.868 120.366C297.03 118.791 296.042 117.37 294.661 117.192C272.97 114.316 245.545 111.701 228.228 113.817C205.531 116.586 182.68 133.646 171.699 142.984Z" fill="white"/>
<g opacity="0.3">
<path d="M230.872 151.614C230.292 151.405 229.991 150.765 230.2 150.185C230.457 149.466 231.124 148.976 231.887 148.945L242.667 148.491C242.812 148.484 242.958 148.506 243.095 148.555C243.68 148.764 243.984 149.408 243.775 149.992C243.514 150.71 242.845 151.2 242.081 151.232L231.301 151.678C231.155 151.686 231.01 151.664 230.872 151.614Z" fill="#1E1E1E"/>
</g>
<path d="M311.041 120.729C310.087 121.577 310.002 123.037 310.85 123.99L313.406 126.769C313.7 127.081 314.072 127.307 314.484 127.424L345.8 136.109C346.345 136.256 346.906 136.331 347.471 136.333H353.692C353.369 136.117 353.038 135.917 352.691 135.732L322.484 119.832L322.482 119.831C321.72 119.454 321.407 118.531 321.783 117.768L311.973 120.225C311.628 120.318 311.308 120.491 311.041 120.729Z" fill="#407BFF"/>
<path d="M116.037 157.931L105.352 156.768L99.213 159.279C97.9225 159.807 96.9585 160.915 96.6145 162.266C96.413 163.048 96.5265 163.877 96.93 164.576L97.038 164.761C97.7245 165.943 99.0565 166.594 100.41 166.409L106.57 165.562C107.171 165.476 107.74 165.241 108.226 164.877L115.333 159.487L116.037 157.931Z" fill="white"/>
<path d="M160.423 141.738L162.125 142.223C163.447 142.601 164.87 142.295 165.921 141.408C175.823 133.03 193.04 120.179 211.62 114.188C211.702 114.161 211.771 114.104 211.814 114.029C211.907 113.862 211.848 113.65 211.681 113.557L209.371 112.371C182.568 121.665 160.423 141.738 160.423 141.738Z" fill="#407BFF"/>
<path opacity="0.8" d="M160.423 141.738L162.125 142.223C163.447 142.601 164.87 142.295 165.921 141.408C175.823 133.03 193.04 120.179 211.62 114.188C211.702 114.161 211.771 114.104 211.814 114.029C211.907 113.862 211.848 113.65 211.681 113.557L209.371 112.371C182.568 121.665 160.423 141.738 160.423 141.738Z" fill="white"/>
<path opacity="0.2" d="M261.97 153.05L171.919 159.49L173.614 170.596C174.133 173.998 175.394 177.244 177.308 180.105L184.835 191.354L261.693 180.962L298.029 153.049H261.97V153.05Z" fill="white"/>
<path d="M318.437 223.979C331.9 223.979 342.815 213.065 342.815 199.601C342.815 186.137 331.9 175.223 318.437 175.223C304.973 175.223 294.059 186.137 294.059 199.601C294.059 213.065 304.973 223.979 318.437 223.979Z" fill="#263238"/>
<path opacity="0.4" d="M318.436 214.547C326.691 214.547 333.382 207.855 333.382 199.601C333.382 191.347 326.691 184.656 318.436 184.656C310.182 184.656 303.491 191.347 303.491 199.601C303.491 207.855 310.182 214.547 318.436 214.547Z" fill="white"/>
<g opacity="0.3">
<path d="M319.635 187.353V195.014C319.635 195.673 319.1 196.208 318.441 196.208H318.434C317.775 196.208 317.24 195.673 317.24 195.014V187.353C317.24 186.694 317.775 186.159 318.434 186.159H318.441C319.1 186.159 319.635 186.694 319.635 187.353Z" fill="white"/>
</g>
<g opacity="0.3">
<path d="M319.635 204.193V211.855C319.635 212.514 319.1 213.048 318.441 213.048H318.434C317.775 213.048 317.24 212.514 317.24 211.855V204.193C317.24 203.534 317.775 203 318.434 203H318.441C319.1 203 319.635 203.534 319.635 204.193Z" fill="white"/>
</g>
<g opacity="0.3">
<path d="M323.003 198.348C322.431 198.675 321.702 198.475 321.375 197.902C321.375 197.901 321.374 197.9 321.373 197.899C321.045 197.328 321.242 196.598 321.814 196.27L328.443 192.42C329.017 192.088 329.751 192.285 330.083 192.859C330.409 193.431 330.214 194.159 329.644 194.491L323.015 198.341C323.012 198.344 323.007 198.346 323.003 198.348Z" fill="white"/>
</g>
<g opacity="0.3">
<path d="M308.421 206.735C307.849 207.063 307.12 206.866 306.791 206.295C306.791 206.294 306.79 206.293 306.79 206.292C306.462 205.72 306.659 204.991 307.23 204.662L313.86 200.812L313.86 200.812C314.43 200.48 315.161 200.674 315.492 201.243C315.824 201.815 315.632 202.549 315.061 202.883L308.423 206.733C308.423 206.734 308.422 206.735 308.421 206.735Z" fill="white"/>
</g>
<g opacity="0.3">
<path d="M328.444 206.765L321.814 202.915C321.24 202.583 321.044 201.849 321.375 201.275C321.71 200.704 322.443 200.511 323.015 200.844L329.645 204.694C330.214 205.026 330.41 205.754 330.084 206.327C329.752 206.9 329.018 207.096 328.444 206.765Z" fill="white"/>
</g>
<g opacity="0.3">
<path d="M315.491 197.905C315.161 198.475 314.431 198.671 313.861 198.341L307.231 194.491C307.23 194.49 307.229 194.49 307.228 194.489C306.658 194.159 306.463 193.429 306.792 192.858C306.793 192.857 306.793 192.856 306.794 192.855C307.124 192.285 307.854 192.089 308.425 192.419L315.062 196.269L315.063 196.27C315.632 196.602 315.825 197.332 315.493 197.902C315.492 197.903 315.492 197.904 315.491 197.905Z" fill="white"/>
</g>
<path d="M316.432 199.596C316.432 198.49 317.328 197.594 318.434 197.594C318.436 197.594 318.439 197.594 318.441 197.594C319.551 197.594 320.451 198.494 320.451 199.604C320.451 200.714 319.551 201.613 318.441 201.613C317.331 201.613 316.432 200.714 316.432 199.604C316.432 199.601 316.432 199.598 316.432 199.596Z" fill="#263238"/>
<path d="M143.436 223.983C156.9 223.983 167.814 213.069 167.814 199.605C167.814 186.142 156.9 175.227 143.436 175.227C129.972 175.227 119.058 186.142 119.058 199.605C119.058 213.069 129.972 223.983 143.436 223.983Z" fill="#263238"/>
<path opacity="0.4" d="M143.436 214.551C151.69 214.551 158.381 207.86 158.381 199.606C158.381 191.351 151.69 184.66 143.436 184.66C135.182 184.66 128.49 191.351 128.49 199.606C128.49 207.86 135.182 214.551 143.436 214.551Z" fill="white"/>
<g opacity="0.3">
<path d="M144.631 187.353V195.014C144.631 195.673 144.096 196.208 143.437 196.208H143.43C142.771 196.208 142.236 195.673 142.236 195.014V187.353C142.236 186.694 142.771 186.159 143.43 186.159H143.437C144.096 186.159 144.631 186.694 144.631 187.353Z" fill="white"/>
</g>
<g opacity="0.3">
<path d="M144.631 204.193V211.855C144.631 212.514 144.096 213.048 143.437 213.048H143.43C142.771 213.048 142.236 212.514 142.236 211.855V204.193C142.236 203.534 142.771 203 143.43 203H143.437C144.096 203 144.631 203.534 144.631 204.193Z" fill="white"/>
</g>
<g opacity="0.3">
<path d="M147.994 198.35C147.424 198.673 146.701 198.472 146.378 197.902L146.378 197.902C146.046 197.332 146.24 196.601 146.809 196.27L153.447 192.42C153.448 192.42 153.449 192.419 153.45 192.419C154.021 192.091 154.751 192.287 155.079 192.859C155.08 192.86 155.08 192.861 155.081 192.862C155.409 193.434 155.212 194.163 154.64 194.492L148.011 198.342C148.005 198.344 148 198.347 147.994 198.35Z" fill="white"/>
</g>
<g opacity="0.3">
<path d="M131.787 206.295C131.787 206.294 131.786 206.293 131.785 206.292C131.457 205.72 131.654 204.991 132.226 204.662L138.855 200.812C139.427 200.48 140.161 200.672 140.495 201.243C140.827 201.817 140.63 202.551 140.056 202.883L133.427 206.733C132.853 207.065 132.119 206.869 131.787 206.295Z" fill="white"/>
</g>
<g opacity="0.3">
<path d="M155.077 206.329C154.747 206.9 154.017 207.095 153.447 206.765L146.809 202.915C146.238 202.581 146.045 201.847 146.378 201.275L146.379 201.275C146.711 200.705 147.441 200.512 148.011 200.844L154.64 204.694C154.641 204.695 154.642 204.695 154.643 204.696C155.214 205.026 155.409 205.756 155.079 206.327C155.078 206.327 155.078 206.328 155.077 206.329Z" fill="white"/>
</g>
<g opacity="0.3">
<path d="M140.489 197.914C140.156 198.483 139.424 198.674 138.856 198.341L132.226 194.491C132.225 194.49 132.224 194.49 132.223 194.489C131.653 194.159 131.458 193.429 131.787 192.858C132.119 192.284 132.853 192.088 133.427 192.419L140.057 196.269C140.058 196.27 140.059 196.27 140.06 196.271C140.63 196.601 140.826 197.331 140.496 197.902C140.493 197.906 140.491 197.91 140.489 197.914Z" fill="white"/>
</g>
<path d="M143.437 197.594C144.547 197.594 145.446 198.494 145.446 199.604C145.446 200.714 144.546 201.613 143.437 201.613C142.327 201.613 141.427 200.714 141.427 199.604C141.427 198.494 142.327 197.594 143.437 197.594Z" fill="#263238"/>
<path opacity="0.3" d="M356.055 153.612C356.867 153.359 357.32 152.496 357.067 151.684C356.784 146.552 355.693 141.982 352.547 138.841C352.336 138.15 351.674 137.698 350.953 137.755L332.373 139.511C332.05 139.545 331.746 139.682 331.505 139.9C330.874 140.47 330.825 141.444 331.395 142.075L336.716 147.811C336.9 148.01 337.134 148.156 337.393 148.235L355.18 153.625C355.467 153.705 355.771 153.701 356.055 153.612Z" fill="#1E1E1E"/>
<path d="M170.604 144.152C170.361 145.268 170.958 146.393 171.936 146.665L184.153 150.089C185.235 150.396 186.141 150.606 187.548 150.669L191.395 150.414L187.767 130.816C179.389 136.319 178.815 136.57 171.291 142.975C170.949 143.265 170.706 143.681 170.604 144.152Z" fill="#263238"/>
<path d="M250.186 113.184L242.512 146.649L252.551 145.928L257.135 113.497C254.786 113.362 252.47 113.258 250.186 113.184Z" fill="#263238"/>
<path d="M282.041 139.668L296.141 122.055C296.547 121.594 296.803 120.99 296.869 120.342C297.027 118.766 296.036 117.348 294.655 117.174C291.766 116.782 288.692 116.404 285.618 116.035" fill="#263238"/>
<path d="M181.715 147.554C179.274 147.583 177.272 145.628 177.244 143.187C177.22 141.111 178.642 139.298 180.664 138.826L186.553 137.445L188.052 147.314L181.833 147.552C181.793 147.553 181.754 147.554 181.715 147.554Z" fill="#407BFF"/>
<path opacity="0.3" d="M186.327 147.381L188.051 147.314L186.553 137.445L184.871 137.843L186.327 147.381Z" fill="#1E1E1E"/>
<path opacity="0.6" d="M252.342 145.929C252.414 149.398 252.377 153.067 252.002 154.941C251.169 159.106 244.676 189.573 244.676 189.573" stroke="#1E1E1E" stroke-width="0.5" stroke-miterlimit="10" stroke-linecap="round" stroke-linejoin="round"/>
<path opacity="0.6" d="M170.55 144.888C170.55 144.888 172.491 171.231 175.446 176.559C178.328 181.757 186.68 194.106 186.68 194.106" stroke="#1E1E1E" stroke-width="0.5" stroke-miterlimit="10" stroke-linecap="round" stroke-linejoin="round"/>
<path opacity="0.6" d="M163.773 142.382C163.773 142.382 143.011 147.511 136.902 148.49C131.885 149.294 111.491 154.256 105.352 156.767" stroke="#1E1E1E" stroke-width="0.5" stroke-miterlimit="10" stroke-linecap="round" stroke-linejoin="round"/>
<path opacity="0.8" d="M311.041 120.729C310.087 121.577 310.002 123.037 310.85 123.99L313.406 126.769C313.7 127.081 314.072 127.307 314.484 127.424L345.8 136.109C346.345 136.256 346.906 136.331 347.471 136.333H353.692C353.369 136.117 353.038 135.917 352.691 135.732L322.484 119.832L322.482 119.831C321.72 119.454 321.407 118.531 321.783 117.768L311.973 120.225C311.628 120.318 311.308 120.491 311.041 120.729Z" fill="white"/>
<path d="M207.324 133.987C207.324 133.987 211.066 147.146 212.883 147.613C216.175 148.458 227.304 146.548 227.083 146.183L226.172 141.547C226.172 141.547 214.81 140.729 214.575 140.821L210.969 132.57L207.324 133.987Z" fill="#E1715B"/>
<path d="M210.994 134.9C210.994 134.9 212.129 133.844 212.16 132.563C212.191 131.282 212.557 130.267 212.515 129.313C212.472 128.359 211.674 129.371 211.358 129.995C211.043 130.62 210.678 131.324 210.248 131.011C209.817 130.698 207.943 126.521 207.297 126.155C206.65 125.789 206.742 126.56 206.742 126.56C206.742 126.56 206.26 125.557 205.811 125.64C205.694 125.662 205.458 125.901 205.606 126.392C205.94 127.497 206.759 129.781 206.759 129.781C206.715 129.649 205.502 126.903 205.267 126.515C204.959 126.009 204.556 125.927 204.268 126.115C203.859 126.382 205.246 129.838 205.203 130.025C205.203 130.025 204.47 128.008 203.846 127.913C203.222 127.817 203.614 129.111 204.176 130.187C204.692 131.173 205.445 133.243 206.066 134.194C206.831 135.367 207.609 135.982 208.907 135.783C210.204 135.584 210.994 134.9 210.994 134.9Z" fill="#E1715B"/>
<path opacity="0.3" d="M206.83 126.678C207.197 127.491 207.526 128.321 207.817 129.164" stroke="#1E1E1E" stroke-width="0.25" stroke-miterlimit="10" stroke-linecap="round" stroke-linejoin="round"/>
<path opacity="0.3" d="M205.459 130.817C206.348 130.085 207.456 129.622 208.602 129.504" stroke="#1E1E1E" stroke-width="0.25" stroke-miterlimit="10" stroke-linecap="round" stroke-linejoin="round"/>
<path opacity="0.3" d="M209.964 131.51C209.57 131.765 209.268 132.16 209.126 132.607C208.985 133.055 209.004 133.552 209.181 133.986" stroke="#1E1E1E" stroke-width="0.25" stroke-miterlimit="10" stroke-linecap="round" stroke-linejoin="round"/>
<path d="M236.657 129.616C236.657 129.616 240.82 126.099 240.641 124.924C240.461 123.749 239.793 124.111 239.793 124.111C239.793 124.111 241.233 121.273 239.814 120.786C238.395 120.299 238.296 120.776 238.296 120.776C238.296 120.776 238.858 118.461 237.733 117.765C236.876 117.228 236.513 118.294 236.513 118.294C236.513 118.294 234.878 115.757 232.921 115.794C231.954 115.868 231.478 116.492 231.615 117.237C231.621 117.269 231.628 117.301 231.636 117.333C231.636 117.333 227.686 115.612 225.852 116.692C224.017 117.773 226.41 118.957 226.41 118.957C226.41 118.957 222.562 118.555 221.809 120.103C221.21 121.333 222.922 122.161 222.922 122.161C222.922 122.161 222.315 122.367 221.796 122.836C220.807 123.73 221.411 125.424 222.743 125.472C222.754 125.473 222.764 125.473 222.774 125.473C222.979 125.479 223.346 125.524 223.494 125.383C223.494 125.383 222.833 126.776 224.258 127.224C225.682 127.671 226.359 126.021 226.359 126.021L236.657 129.616Z" fill="#263238"/>
<path d="M235.347 138.672C235.347 138.672 235.115 136.665 236.542 131.788C236.542 131.783 236.285 131.668 236.285 131.663C236.482 130.981 236.691 130.35 236.888 129.804C236.893 129.788 236.893 129.783 236.893 129.783L230.206 133.893C230.359 135.454 229.791 138.469 229.453 139.742L231.186 142.674L235.347 138.672Z" fill="#E1715B"/>
<path opacity="0.2" d="M230.085 136.086L233.93 135.23C233.579 136.424 232.518 137.838 229.844 137.946C229.844 137.946 230.113 136.61 230.085 136.086Z" fill="#1E1E1E"/>
<path d="M225.62 122.344C224.831 123.887 224.543 127.283 227.005 126.581C229.467 125.88 226.978 119.693 225.62 122.344Z" fill="#263238"/>
<path d="M236.953 126.539C236.492 130.771 236.317 133.167 234.068 135.224C230.684 138.319 225.649 136.181 224.834 131.884C224.101 128.017 224.978 121.746 229.218 120.294C233.396 118.862 237.414 122.308 236.953 126.539Z" fill="#E1715B"/>
<path d="M230.82 127.477C230.8 127.912 230.553 128.25 230.269 128.234C229.985 128.218 229.771 127.853 229.791 127.418C229.812 126.984 230.059 126.645 230.343 126.661C230.627 126.678 230.841 127.043 230.82 127.477Z" fill="#263238"/>
<path d="M226.556 127.361C226.536 127.796 226.289 128.134 226.005 128.118C225.721 128.102 225.507 127.737 225.527 127.303C225.548 126.868 225.795 126.529 226.079 126.546C226.363 126.562 226.577 126.927 226.556 127.361Z" fill="#263238"/>
<path d="M227.954 127.186C227.954 127.186 226.477 129.279 225.995 130.137C226.574 130.712 227.627 130.509 227.627 130.509L227.954 127.186Z" fill="#FD504E"/>
<path d="M231.872 125.146C231.803 125.164 231.727 125.146 231.673 125.091C231.035 124.441 230.297 124.574 230.29 124.575C230.179 124.597 230.072 124.525 230.049 124.415C230.027 124.305 230.099 124.198 230.208 124.177C230.247 124.169 231.171 124.001 231.963 124.808C232.042 124.889 232.041 125.017 231.961 125.095C231.936 125.121 231.905 125.138 231.872 125.146Z" fill="#263238"/>
<path d="M224.745 125.4C224.708 125.389 224.674 125.366 224.648 125.334C224.577 125.246 224.59 125.117 224.677 125.047C225.547 124.337 226.437 124.625 226.478 124.633C226.585 124.668 226.644 124.784 226.61 124.891C226.576 124.998 226.463 125.056 226.357 125.022C226.321 125.009 225.632 124.795 224.934 125.365C224.879 125.409 224.808 125.42 224.745 125.4Z" fill="#263238"/>
<path d="M228.862 133.346C228.848 133.351 228.901 133.336 228.862 133.346V133.346Z" fill="#263238"/>
<path d="M228.201 131.703C228.883 131.488 230.142 131.032 230.752 130.391C230.752 130.391 230.861 130.578 230.925 130.861C230.982 131.104 231.013 131.414 230.932 131.735C230.782 132.321 230.268 132.954 228.888 133.337C228.869 133.343 228.866 133.345 228.862 133.346C228.857 133.347 228.858 133.346 228.848 133.349C228.848 133.349 228.105 133.539 227.733 131.841C227.733 131.841 227.916 131.796 228.201 131.703Z" fill="#263238"/>
<path d="M228.201 131.703L228.464 132.162C229.762 131.798 230.627 131.368 230.925 130.861C230.861 130.578 230.752 130.392 230.752 130.392C230.142 131.032 228.883 131.488 228.201 131.703Z" fill="white"/>
<path d="M228.888 133.337C230.268 132.954 230.781 132.321 230.932 131.735C230.467 131.883 229.923 132.114 229.484 132.464C229.148 132.729 228.978 133.043 228.888 133.337Z" fill="#FB504E"/>
<path d="M235.682 129.816C235.315 129.617 234.929 129.398 234.73 129.031C234.545 128.69 234.554 128.279 234.589 127.892C234.625 127.491 234.683 127.092 234.762 126.696C234.384 126.886 233.928 126.584 233.721 126.216C233.412 125.665 233.432 124.996 233.477 124.366C232.996 124.468 232.451 124.325 232.135 123.948C231.818 123.571 231.789 122.961 232.119 122.595C230.557 122.805 228.954 122.705 227.43 122.303C227.535 122.497 227.412 122.735 227.277 122.91C226.731 123.621 225.915 124.119 225.033 124.28C224.904 124.303 224.743 124.307 224.671 124.197C224.633 124.139 224.633 124.064 224.637 123.994C224.689 123.134 225.183 122.346 225.833 121.781C226.482 121.216 227.278 120.849 228.081 120.537C229.412 120.019 230.806 119.633 232.232 119.536C233.657 119.44 235.119 119.644 236.408 120.259C236.69 120.393 236.97 120.553 237.167 120.795C237.354 121.025 237.453 121.313 237.54 121.596C238.066 123.322 238.267 125.146 238.128 126.945" fill="#263238"/>
<path d="M238.462 130.156C238.071 131.233 237.217 132.024 236.356 132.402C235.06 132.972 234.2 131.855 234.383 130.524C234.548 129.325 235.421 127.585 236.807 127.578C238.173 127.571 238.909 128.925 238.462 130.156Z" fill="#E1715B"/>
<path opacity="0.2" d="M237.548 128.937C237.389 128.676 237.044 128.566 236.744 128.625C236.444 128.684 236.187 128.885 235.995 129.123C235.763 129.408 235.608 129.755 235.55 130.117" stroke="#1E1E1E" stroke-width="0.5" stroke-miterlimit="10" stroke-linecap="round" stroke-linejoin="round"/>
<path d="M229.134 145.577C229.134 145.577 216.702 149.21 212.186 149.368C207.67 149.525 197.676 147.421 197.676 147.421L198.24 142.833L212.91 143.582L228.86 138.254L229.134 145.577Z" fill="#E1715B"/>
<path d="M224.692 148.379L227.137 138.273L233.346 137.19C233.617 137.15 238.661 136.736 240.173 142.269L240.511 146.666L224.692 148.379Z" fill="#263238"/>
<path d="M230.54 147.372C230.196 147.367 220.518 149.137 220.518 149.137L218.527 141.267C218.527 141.267 223.025 139.385 227.137 138.273C231.733 137.031 236.043 136.645 237.036 138.79C238.917 142.855 230.54 147.372 230.54 147.372Z" fill="#263238"/>
<path opacity="0.3" d="M210.497 143.531C210.732 143.543 212.909 143.654 212.909 143.654L219.184 141.504C219.184 141.504 220.484 140.945 220.153 141.058C219.822 141.171 217.223 140.901 217.05 140.928C216.877 140.955 210.497 143.531 210.497 143.531Z" fill="#1E1E1E"/>
<path d="M193.423 140.743C193.142 140.913 189.817 144.349 189.817 144.349L190.465 148.609L194.646 144.293L193.423 140.743Z" fill="#263238"/>
<path d="M198.431 149.628C197.696 149.99 196.806 149.689 196.443 148.954L189.81 135.514C189.448 134.779 189.749 133.889 190.484 133.527C191.219 133.164 192.109 133.466 192.472 134.201L199.105 147.64C199.467 148.375 199.166 149.265 198.431 149.628Z" fill="#263238"/>
<path d="M203.207 143.199L197.748 142.466L196.168 140.557C196.168 140.557 193.395 140.308 192.799 140.802C192.204 141.297 191.604 142.872 191.604 142.872C191.604 142.872 190.882 144.164 192.12 144.842C192.12 144.842 191.336 145.991 192.734 146.803C192.734 146.803 191.704 147.384 193.182 147.992C194.66 148.6 195.829 148.247 196.734 147.922C197.64 147.597 199.241 147.735 199.241 147.735L204.205 148.61L203.207 143.199Z" fill="#E1715B"/>
</g>
<defs>
<clipPath id="clip0_19_1783">
<rect width="375" height="250" fill="white" transform="translate(0.5)"/>
</clipPath>
</defs>
</svg>
