<svg width="358" height="358" viewBox="0 0 358 358" fill="none" xmlns="http://www.w3.org/2000/svg">
<path d="M330.787 150.893C330.446 137.609 329.64 124.409 324.338 111.488C310.965 78.896 285.357 51.3844 255.254 33.4386C229.233 17.9265 190.427 6.24351 161.815 22.2082C145.775 31.1582 132.812 44.8846 118.523 56.2253C112.098 61.324 105.224 66.7527 97.4741 69.6918C87.536 73.4609 76.8633 73.1451 66.9904 77.5571C43.2228 88.1782 20.275 107.706 14.5377 134.549C7.65549 166.751 27.2209 196.036 34.7962 226.437C38.9125 242.955 37.3745 257.958 33.2131 274.27C29.9668 286.999 19.6829 304.565 20.764 317.842C21.48 326.631 23.628 332.224 23.628 332.224C23.628 332.224 332.035 332.224 332.224 332.224C337.531 332.224 345.632 294.565 346.385 291.034C350.612 271.218 352.513 250.587 349.164 230.487C346.681 215.592 337.271 203.174 333.914 188.642C331.015 176.094 331.109 163.456 330.787 150.893Z" fill="#C1C7D0"/>
<path opacity="0.7" d="M330.787 150.893C330.446 137.609 329.64 124.409 324.338 111.488C310.965 78.896 285.357 51.3844 255.254 33.4386C229.233 17.9265 190.427 6.24351 161.815 22.2082C145.775 31.1582 132.812 44.8846 118.523 56.2253C112.098 61.324 105.224 66.7527 97.4741 69.6918C87.536 73.4609 76.8633 73.1451 66.9904 77.5571C43.2228 88.1782 20.275 107.706 14.5377 134.549C7.65549 166.751 27.2209 196.036 34.7962 226.437C38.9125 242.955 37.3745 257.958 33.2131 274.27C29.9668 286.999 19.6829 304.565 20.764 317.842C21.48 326.631 23.628 332.224 23.628 332.224C23.628 332.224 332.035 332.224 332.224 332.224C337.531 332.224 345.632 294.565 346.385 291.034C350.612 271.218 352.513 250.587 349.164 230.487C346.681 215.592 337.271 203.174 333.914 188.642C331.015 176.094 331.109 163.456 330.787 150.893Z" fill="white"/>
<g opacity="0.3">
<path d="M149.444 217.625H143.191V223.927H149.444V217.625Z" stroke="#1E1E1E" stroke-miterlimit="10"/>
<path d="M138.965 221.439H136.43V223.927H138.965V221.439Z" stroke="#1E1E1E" stroke-miterlimit="10"/>
<path d="M20.6151 122.968V304.943" stroke="#1E1E1E" stroke-miterlimit="10"/>
<path d="M74.2463 94.9752H64.7085V89.3761H36.0126V95.344H20.6151V117.857" stroke="#1E1E1E" stroke-miterlimit="10"/>
<path d="M317.626 238.553V281.787H303.056V122.217H253.104V242.892H234.842V229.532H239.624V223.884H199.683V142.926H202.268V138.691H153.788V142.926H157.264V224.021H118.95V282.019H98.8302V104.774H85.7052V94.9753H78.571" stroke="#1E1E1E" stroke-miterlimit="10"/>
<path d="M345.962 202.233H315.702V207.409H317.626V234.229" stroke="#1E1E1E" stroke-miterlimit="10"/>
<path d="M305.047 120.472H250.88V122.205H305.047V120.472Z" stroke="#1E1E1E" stroke-miterlimit="10"/>
<path d="M167.704 147.633H161.603V154.165H167.704V147.633Z" stroke="#1E1E1E" stroke-miterlimit="10"/>
<path d="M176.652 147.633H170.551V154.165H176.652V147.633Z" stroke="#1E1E1E" stroke-miterlimit="10"/>
<path d="M185.601 147.633H179.5V154.165H185.601V147.633Z" stroke="#1E1E1E" stroke-miterlimit="10"/>
<path d="M194.549 147.633H188.448V154.165H194.549V147.633Z" stroke="#1E1E1E" stroke-miterlimit="10"/>
<path d="M167.704 157.988H161.603V164.52H167.704V157.988Z" stroke="#1E1E1E" stroke-miterlimit="10"/>
<path d="M176.652 157.988H170.551V164.52H176.652V157.988Z" stroke="#1E1E1E" stroke-miterlimit="10"/>
<path d="M185.601 157.988H179.5V164.52H185.601V157.988Z" stroke="#1E1E1E" stroke-miterlimit="10"/>
<path d="M194.549 157.988H188.448V164.52H194.549V157.988Z" stroke="#1E1E1E" stroke-miterlimit="10"/>
<path d="M167.704 168.344H161.603V174.875H167.704V168.344Z" stroke="#1E1E1E" stroke-miterlimit="10"/>
<path d="M176.652 168.344H170.551V174.875H176.652V168.344Z" stroke="#1E1E1E" stroke-miterlimit="10"/>
<path d="M185.601 168.344H179.5V174.875H185.601V168.344Z" stroke="#1E1E1E" stroke-miterlimit="10"/>
<path d="M194.549 168.344H188.448V174.875H194.549V168.344Z" stroke="#1E1E1E" stroke-miterlimit="10"/>
<path d="M167.704 178.699H161.603V185.23H167.704V178.699Z" stroke="#1E1E1E" stroke-miterlimit="10"/>
<path d="M176.652 178.699H170.551V185.23H176.652V178.699Z" stroke="#1E1E1E" stroke-miterlimit="10"/>
<path d="M185.601 178.699H179.5V185.23H185.601V178.699Z" stroke="#1E1E1E" stroke-miterlimit="10"/>
<path d="M194.549 178.699H188.448V185.23H194.549V178.699Z" stroke="#1E1E1E" stroke-miterlimit="10"/>
<path d="M167.704 189.053H161.603V195.585H167.704V189.053Z" stroke="#1E1E1E" stroke-miterlimit="10"/>
<path d="M176.652 189.053H170.551V195.585H176.652V189.053Z" stroke="#1E1E1E" stroke-miterlimit="10"/>
<path d="M185.601 189.053H179.5V195.585H185.601V189.053Z" stroke="#1E1E1E" stroke-miterlimit="10"/>
<path d="M194.549 189.053H188.448V195.585H194.549V189.053Z" stroke="#1E1E1E" stroke-miterlimit="10"/>
<path d="M167.704 199.408H161.603V205.939H167.704V199.408Z" stroke="#1E1E1E" stroke-miterlimit="10"/>
<path d="M176.652 199.408H170.551V205.939H176.652V199.408Z" stroke="#1E1E1E" stroke-miterlimit="10"/>
<path d="M185.601 199.408H179.5V205.939H185.601V199.408Z" stroke="#1E1E1E" stroke-miterlimit="10"/>
<path d="M194.549 199.408H188.448V205.939H194.549V199.408Z" stroke="#1E1E1E" stroke-miterlimit="10"/>
<path d="M167.704 209.763H161.603V216.294H167.704V209.763Z" stroke="#1E1E1E" stroke-miterlimit="10"/>
<path d="M176.652 209.763H170.551V216.294H176.652V209.763Z" stroke="#1E1E1E" stroke-miterlimit="10"/>
<path d="M185.601 209.763H179.5V216.294H185.601V209.763Z" stroke="#1E1E1E" stroke-miterlimit="10"/>
<path d="M194.549 209.763H188.448V216.294H194.549V209.763Z" stroke="#1E1E1E" stroke-miterlimit="10"/>
<path d="M167.704 220.118H161.603V226.65H167.704V220.118Z" stroke="#1E1E1E" stroke-miterlimit="10"/>
<path d="M176.652 220.118H170.551V226.65H176.652V220.118Z" stroke="#1E1E1E" stroke-miterlimit="10"/>
<path d="M185.601 220.118H179.5V226.65H185.601V220.118Z" stroke="#1E1E1E" stroke-miterlimit="10"/>
<path d="M194.549 220.118H188.448V226.65H194.549V220.118Z" stroke="#1E1E1E" stroke-miterlimit="10"/>
<path d="M167.704 229.59H161.603V236.121H167.704V229.59Z" stroke="#1E1E1E" stroke-miterlimit="10"/>
<path d="M176.652 229.59H170.551V236.121H176.652V229.59Z" stroke="#1E1E1E" stroke-miterlimit="10"/>
<path d="M185.601 229.59H179.5V236.121H185.601V229.59Z" stroke="#1E1E1E" stroke-miterlimit="10"/>
<path d="M194.549 229.59H188.448V236.121H194.549V229.59Z" stroke="#1E1E1E" stroke-miterlimit="10"/>
<path d="M167.704 239.945H161.603V246.476H167.704V239.945Z" stroke="#1E1E1E" stroke-miterlimit="10"/>
<path d="M176.652 239.945H170.551V246.476H176.652V239.945Z" stroke="#1E1E1E" stroke-miterlimit="10"/>
<path d="M185.601 239.945H179.5V246.476H185.601V239.945Z" stroke="#1E1E1E" stroke-miterlimit="10"/>
<path d="M194.549 239.945H188.448V246.476H194.549V239.945Z" stroke="#1E1E1E" stroke-miterlimit="10"/>
<path d="M167.704 250.3H161.603V256.831H167.704V250.3Z" stroke="#1E1E1E" stroke-miterlimit="10"/>
<path d="M176.652 250.3H170.551V256.831H176.652V250.3Z" stroke="#1E1E1E" stroke-miterlimit="10"/>
<path d="M185.601 250.3H179.5V256.831H185.601V250.3Z" stroke="#1E1E1E" stroke-miterlimit="10"/>
<path d="M194.549 250.3H188.448V256.831H194.549V250.3Z" stroke="#1E1E1E" stroke-miterlimit="10"/>
<path d="M167.704 260.655H161.603V267.186H167.704V260.655Z" stroke="#1E1E1E" stroke-miterlimit="10"/>
<path d="M176.652 260.655H170.551V267.186H176.652V260.655Z" stroke="#1E1E1E" stroke-miterlimit="10"/>
<path d="M185.601 260.655H179.5V267.186H185.601V260.655Z" stroke="#1E1E1E" stroke-miterlimit="10"/>
<path d="M194.549 260.655H188.448V267.186H194.549V260.655Z" stroke="#1E1E1E" stroke-miterlimit="10"/>
<path d="M167.704 271.01H161.603V277.541H167.704V271.01Z" stroke="#1E1E1E" stroke-miterlimit="10"/>
<path d="M176.652 271.01H170.551V277.541H176.652V271.01Z" stroke="#1E1E1E" stroke-miterlimit="10"/>
<path d="M185.601 271.01H179.5V277.541H185.601V271.01Z" stroke="#1E1E1E" stroke-miterlimit="10"/>
<path d="M194.549 271.01H188.448V277.541H194.549V271.01Z" stroke="#1E1E1E" stroke-miterlimit="10"/>
<path d="M167.704 281.364H161.603V287.896H167.704V281.364Z" stroke="#1E1E1E" stroke-miterlimit="10"/>
<path d="M176.652 281.364H170.551V287.896H176.652V281.364Z" stroke="#1E1E1E" stroke-miterlimit="10"/>
<path d="M185.601 281.364H179.5V287.896H185.601V281.364Z" stroke="#1E1E1E" stroke-miterlimit="10"/>
<path d="M194.549 281.364H188.448V287.896H194.549V281.364Z" stroke="#1E1E1E" stroke-miterlimit="10"/>
<path d="M202.655 229.59H196.554V236.121H202.655V229.59Z" stroke="#1E1E1E" stroke-miterlimit="10"/>
<path d="M211.604 229.59H205.503V236.121H211.604V229.59Z" stroke="#1E1E1E" stroke-miterlimit="10"/>
<path d="M220.553 229.59H214.451V236.121H220.553V229.59Z" stroke="#1E1E1E" stroke-miterlimit="10"/>
<path d="M229.501 229.59H223.4V236.121H229.501V229.59Z" stroke="#1E1E1E" stroke-miterlimit="10"/>
<path d="M202.655 239.945H196.554V246.476H202.655V239.945Z" stroke="#1E1E1E" stroke-miterlimit="10"/>
<path d="M211.604 239.945H205.503V246.476H211.604V239.945Z" stroke="#1E1E1E" stroke-miterlimit="10"/>
<path d="M220.553 239.945H214.451V246.476H220.553V239.945Z" stroke="#1E1E1E" stroke-miterlimit="10"/>
<path d="M229.501 239.945H223.4V246.476H229.501V239.945Z" stroke="#1E1E1E" stroke-miterlimit="10"/>
<path d="M202.655 250.3H196.554V256.831H202.655V250.3Z" stroke="#1E1E1E" stroke-miterlimit="10"/>
<path d="M211.604 250.3H205.503V256.831H211.604V250.3Z" stroke="#1E1E1E" stroke-miterlimit="10"/>
<path d="M220.553 250.3H214.451V256.831H220.553V250.3Z" stroke="#1E1E1E" stroke-miterlimit="10"/>
<path d="M229.501 250.3H223.4V256.831H229.501V250.3Z" stroke="#1E1E1E" stroke-miterlimit="10"/>
<path d="M202.655 260.655H196.554V267.186H202.655V260.655Z" stroke="#1E1E1E" stroke-miterlimit="10"/>
<path d="M211.604 260.655H205.503V267.186H211.604V260.655Z" stroke="#1E1E1E" stroke-miterlimit="10"/>
<path d="M220.553 260.655H214.451V267.186H220.553V260.655Z" stroke="#1E1E1E" stroke-miterlimit="10"/>
<path d="M229.501 260.655H223.4V267.186H229.501V260.655Z" stroke="#1E1E1E" stroke-miterlimit="10"/>
<path d="M202.655 271.01H196.554V277.541H202.655V271.01Z" stroke="#1E1E1E" stroke-miterlimit="10"/>
<path d="M211.604 271.01H205.503V277.541H211.604V271.01Z" stroke="#1E1E1E" stroke-miterlimit="10"/>
<path d="M220.553 271.01H214.451V277.541H220.553V271.01Z" stroke="#1E1E1E" stroke-miterlimit="10"/>
<path d="M229.501 271.01H223.4V277.541H229.501V271.01Z" stroke="#1E1E1E" stroke-miterlimit="10"/>
<path d="M202.655 281.364H196.554V287.896H202.655V281.364Z" stroke="#1E1E1E" stroke-miterlimit="10"/>
<path d="M211.604 281.364H205.503V287.896H211.604V281.364Z" stroke="#1E1E1E" stroke-miterlimit="10"/>
<path d="M220.553 281.364H214.451V287.896H220.553V281.364Z" stroke="#1E1E1E" stroke-miterlimit="10"/>
<path d="M229.501 281.364H223.4V287.896H229.501V281.364Z" stroke="#1E1E1E" stroke-miterlimit="10"/>
<path d="M132.259 229.59H126.158V236.121H132.259V229.59Z" stroke="#1E1E1E" stroke-miterlimit="10"/>
<path d="M141.208 229.59H135.107V236.121H141.208V229.59Z" stroke="#1E1E1E" stroke-miterlimit="10"/>
<path d="M150.157 229.59H144.056V236.121H150.157V229.59Z" stroke="#1E1E1E" stroke-miterlimit="10"/>
<path d="M159.106 229.59H153.005V236.121H159.106V229.59Z" stroke="#1E1E1E" stroke-miterlimit="10"/>
<path d="M132.259 239.945H126.158V246.476H132.259V239.945Z" stroke="#1E1E1E" stroke-miterlimit="10"/>
<path d="M141.208 239.945H135.107V246.476H141.208V239.945Z" stroke="#1E1E1E" stroke-miterlimit="10"/>
<path d="M150.157 239.945H144.056V246.476H150.157V239.945Z" stroke="#1E1E1E" stroke-miterlimit="10"/>
<path d="M159.106 239.945H153.005V246.476H159.106V239.945Z" stroke="#1E1E1E" stroke-miterlimit="10"/>
<path d="M132.259 250.3H126.158V256.831H132.259V250.3Z" stroke="#1E1E1E" stroke-miterlimit="10"/>
<path d="M141.208 250.3H135.107V256.831H141.208V250.3Z" stroke="#1E1E1E" stroke-miterlimit="10"/>
<path d="M150.157 250.3H144.056V256.831H150.157V250.3Z" stroke="#1E1E1E" stroke-miterlimit="10"/>
<path d="M159.106 250.3H153.005V256.831H159.106V250.3Z" stroke="#1E1E1E" stroke-miterlimit="10"/>
<path d="M132.259 260.655H126.158V267.186H132.259V260.655Z" stroke="#1E1E1E" stroke-miterlimit="10"/>
<path d="M141.208 260.655H135.107V267.186H141.208V260.655Z" stroke="#1E1E1E" stroke-miterlimit="10"/>
<path d="M150.157 260.655H144.056V267.186H150.157V260.655Z" stroke="#1E1E1E" stroke-miterlimit="10"/>
<path d="M159.106 260.655H153.005V267.186H159.106V260.655Z" stroke="#1E1E1E" stroke-miterlimit="10"/>
<path d="M132.259 271.01H126.158V277.541H132.259V271.01Z" stroke="#1E1E1E" stroke-miterlimit="10"/>
<path d="M141.208 271.01H135.107V277.541H141.208V271.01Z" stroke="#1E1E1E" stroke-miterlimit="10"/>
<path d="M150.157 271.01H144.056V277.541H150.157V271.01Z" stroke="#1E1E1E" stroke-miterlimit="10"/>
<path d="M159.106 271.01H153.005V277.541H159.106V271.01Z" stroke="#1E1E1E" stroke-miterlimit="10"/>
<path d="M132.259 281.364H126.158V287.896H132.259V281.364Z" stroke="#1E1E1E" stroke-miterlimit="10"/>
<path d="M141.208 281.364H135.107V287.896H141.208V281.364Z" stroke="#1E1E1E" stroke-miterlimit="10"/>
<path d="M150.157 281.364H144.056V287.896H150.157V281.364Z" stroke="#1E1E1E" stroke-miterlimit="10"/>
<path d="M159.106 281.364H153.005V287.896H159.106V281.364Z" stroke="#1E1E1E" stroke-miterlimit="10"/>
<path d="M332.158 209.293H326.056V215.824H332.158V209.293Z" stroke="#1E1E1E" stroke-miterlimit="10"/>
<path d="M341.107 209.293H335.006V215.824H341.107V209.293Z" stroke="#1E1E1E" stroke-miterlimit="10"/>
<path d="M332.158 219.647H326.056V226.179H332.158V219.647Z" stroke="#1E1E1E" stroke-miterlimit="10"/>
<path d="M341.107 219.647H335.006V226.179H341.107V219.647Z" stroke="#1E1E1E" stroke-miterlimit="10"/>
<path d="M332.158 230.003H326.056V236.534H332.158V230.003Z" stroke="#1E1E1E" stroke-miterlimit="10"/>
<path d="M341.107 230.003H335.006V236.534H341.107V230.003Z" stroke="#1E1E1E" stroke-miterlimit="10"/>
<path d="M332.158 240.358H326.056V246.889H332.158V240.358Z" stroke="#1E1E1E" stroke-miterlimit="10"/>
<path d="M341.107 240.358H335.006V246.889H341.107V240.358Z" stroke="#1E1E1E" stroke-miterlimit="10"/>
<path d="M332.158 250.712H326.056V257.244H332.158V250.712Z" stroke="#1E1E1E" stroke-miterlimit="10"/>
<path d="M341.107 250.712H335.006V257.244H341.107V250.712Z" stroke="#1E1E1E" stroke-miterlimit="10"/>
<path d="M332.158 261.067H326.056V267.599H332.158V261.067Z" stroke="#1E1E1E" stroke-miterlimit="10"/>
<path d="M341.107 261.067H335.006V267.599H341.107V261.067Z" stroke="#1E1E1E" stroke-miterlimit="10"/>
<path d="M332.158 271.422H326.056V277.953H332.158V271.422Z" stroke="#1E1E1E" stroke-miterlimit="10"/>
<path d="M341.107 271.422H335.006V277.953H341.107V271.422Z" stroke="#1E1E1E" stroke-miterlimit="10"/>
<path d="M332.158 281.777H326.056V288.308H332.158V281.777Z" stroke="#1E1E1E" stroke-miterlimit="10"/>
<path d="M341.107 281.777H335.006V288.308H341.107V281.777Z" stroke="#1E1E1E" stroke-miterlimit="10"/>
<path d="M257.809 125.982V292.799" stroke="#1E1E1E" stroke-miterlimit="10"/>
<path d="M263.86 255.852V292.799" stroke="#1E1E1E" stroke-miterlimit="10"/>
<path d="M263.86 177.222V251.92" stroke="#1E1E1E" stroke-miterlimit="10"/>
<path d="M263.86 125.982V172.504" stroke="#1E1E1E" stroke-miterlimit="10"/>
<path d="M269.911 125.982V292.799" stroke="#1E1E1E" stroke-miterlimit="10"/>
<path d="M275.963 165.427V292.799" stroke="#1E1E1E" stroke-miterlimit="10"/>
<path d="M275.963 125.982V160.71" stroke="#1E1E1E" stroke-miterlimit="10"/>
<path d="M282.015 125.982V292.799" stroke="#1E1E1E" stroke-miterlimit="10"/>
<path d="M288.066 206.315V292.799" stroke="#1E1E1E" stroke-miterlimit="10"/>
<path d="M288.066 125.982V200.418" stroke="#1E1E1E" stroke-miterlimit="10"/>
<path d="M294.118 125.982V292.799" stroke="#1E1E1E" stroke-miterlimit="10"/>
<path d="M300.169 125.982V292.799" stroke="#1E1E1E" stroke-miterlimit="10"/>
<path d="M20.9651 107.923H98.6533" stroke="#1E1E1E" stroke-miterlimit="10"/>
<path d="M27.2645 226.366V305.643" stroke="#1E1E1E" stroke-miterlimit="10"/>
<path d="M27.2645 112.123V220.469" stroke="#1E1E1E" stroke-miterlimit="10"/>
<path d="M30.7636 163.855V305.642" stroke="#1E1E1E" stroke-miterlimit="10"/>
<path d="M30.7636 112.123V159.137" stroke="#1E1E1E" stroke-miterlimit="10"/>
<path d="M41.2623 112.123V305.642" stroke="#1E1E1E" stroke-miterlimit="10"/>
<path d="M44.7614 112.123V305.642" stroke="#1E1E1E" stroke-miterlimit="10"/>
<path d="M55.2601 112.123V305.642" stroke="#1E1E1E" stroke-miterlimit="10"/>
<path d="M58.7592 141.446V305.643" stroke="#1E1E1E" stroke-miterlimit="10"/>
<path d="M58.7592 112.123V135.549" stroke="#1E1E1E" stroke-miterlimit="10"/>
<path d="M69.2579 112.123V305.642" stroke="#1E1E1E" stroke-miterlimit="10"/>
<path d="M72.757 297.132V305.643" stroke="#1E1E1E" stroke-miterlimit="10"/>
<path d="M72.757 112.123V290.842" stroke="#1E1E1E" stroke-miterlimit="10"/>
<path d="M83.2557 112.123V305.642" stroke="#1E1E1E" stroke-miterlimit="10"/>
<path d="M86.7548 112.123V305.642" stroke="#1E1E1E" stroke-miterlimit="10"/>
</g>
<path d="M57.5728 268.695C57.5728 280.898 49.1863 285.602 38.8416 285.602C28.4968 285.602 20.1103 280.898 20.1103 268.695C20.1103 256.493 28.4968 229.12 38.8416 229.12C49.1863 229.12 57.5728 256.494 57.5728 268.695Z" fill="#92E3A9"/>
<path opacity="0.6" d="M57.5728 268.695C57.5728 280.898 49.1863 285.602 38.8416 285.602C28.4968 285.602 20.1103 280.898 20.1103 268.695C20.1103 256.493 28.4968 229.12 38.8416 229.12C49.1863 229.12 57.5728 256.494 57.5728 268.695Z" fill="white"/>
<path d="M31.2963 271.589L36.9076 274.159L35.8415 332.864H39.8812L39.1301 279.014L46.4891 275.016L50.2324 276.872L47.6247 274.587L51.4346 271.875L41.7986 276.301L43.1791 273.445L40.3752 276.587L39.2353 276.729L39.0449 273.874L49.6839 261.022L44.4815 265.877L45.0858 259.309L47.9612 251.884L44.7815 258.167L44.6605 250.884L43.4862 266.163L41.2516 269.162L40.9015 265.306L39.695 270.018L38.7284 272.017L39.327 256.453L42.6521 250.313L39.1415 253.883L38.4499 246.6L37.8105 259.737L30.6598 250.455L37.4038 261.022L37.3465 266.163L32.4484 263.593L32.8085 259.452L31.5827 263.021L26.6824 260.308L37.232 267.876L37.0222 272.446L24.0977 268.019L30.2896 271.161L23.4783 273.73L31.2963 271.589Z" fill="#B2B2B2"/>
<path d="M152.6 295.903C152.6 308.106 144.214 312.81 133.869 312.81C123.524 312.81 115.138 308.106 115.138 295.903C115.138 283.701 123.524 256.328 133.869 256.328C144.214 256.328 152.6 283.702 152.6 295.903Z" fill="#92E3A9"/>
<path opacity="0.6" d="M152.6 295.903C152.6 308.106 144.214 312.81 133.869 312.81C123.524 312.81 115.138 308.106 115.138 295.903C115.138 283.701 123.524 256.328 133.869 256.328C144.214 256.328 152.6 283.702 152.6 295.903Z" fill="white"/>
<path d="M126.324 298.797L131.936 301.367L131.37 332.536H134.525L134.158 306.222L141.517 302.224L145.261 304.08L142.652 301.795L146.463 299.083L136.826 303.509L138.207 300.653L135.403 303.794L134.263 303.937L134.073 301.082L144.711 288.23L139.509 293.085L140.114 286.517L142.989 279.092L139.81 285.375L139.689 278.092L138.514 293.371L136.279 296.37L135.93 292.514L134.723 297.226L133.757 299.225L134.355 283.661L137.68 277.521L134.17 281.091L133.477 273.808L132.839 286.945L125.688 277.663L132.431 288.23L132.374 293.371L127.477 290.801L127.836 286.659L126.61 290.229L121.711 287.516L132.26 295.084L132.05 299.654L119.125 295.227L125.317 298.369L118.506 300.938L126.324 298.797Z" fill="#B2B2B2"/>
<path d="M312.468 268.695C312.468 280.898 304.082 285.602 293.737 285.602C283.392 285.602 275.006 280.898 275.006 268.695C275.006 256.493 283.392 229.12 293.737 229.12C304.082 229.12 312.468 256.494 312.468 268.695Z" fill="#92E3A9"/>
<path opacity="0.6" d="M312.468 268.695C312.468 280.898 304.082 285.602 293.737 285.602C283.392 285.602 275.006 280.898 275.006 268.695C275.006 256.493 283.392 229.12 293.737 229.12C304.082 229.12 312.468 256.494 312.468 268.695Z" fill="white"/>
<path d="M286.192 271.589L291.804 274.159L290.738 332.864H294.777L294.026 279.014L301.385 275.016L305.128 276.872L302.52 274.587L306.331 271.874L296.695 276.301L298.075 273.445L295.271 276.586L294.131 276.729L293.941 273.874L304.58 261.022L299.377 265.877L299.982 259.309L302.857 251.884L299.677 258.167L299.556 250.884L298.382 266.163L296.148 269.162L295.797 265.306L294.591 270.018L293.624 272.017L294.223 256.453L297.548 250.313L294.038 253.883L293.346 246.6L292.707 259.737L285.556 250.455L292.3 261.022L292.243 266.163L287.344 263.593L287.705 259.452L286.479 263.021L281.578 260.308L292.128 267.876L291.918 272.446L278.994 268.019L285.186 271.161L278.374 273.73L286.192 271.589Z" fill="#B2B2B2"/>
<g opacity="0.3">
<path d="M327.508 69.089C324.915 67.6749 323.737 68.8534 322.794 67.6749C321.851 66.4963 325.387 63.4326 318.316 60.3688C318.316 60.3688 317.845 53.7702 308.182 53.5346C298.519 53.299 301.112 60.134 298.519 61.7836C295.926 63.4333 295.22 60.8407 292.627 62.4903C290.034 64.14 291.213 67.44 289.092 67.9112C286.971 68.3823 284.142 65.7904 281.551 67.44C278.958 69.0897 278.958 70.5038 277.779 70.5038C276.601 70.5038 274.244 69.5608 272.83 70.5038C271.416 71.4468 269.766 72.6246 269.766 72.6246H329.393C329.393 72.6246 330.1 70.5031 327.508 69.089Z" stroke="#1E1E1E" stroke-miterlimit="10"/>
<path d="M75.974 67.6885C74.1124 66.6732 73.2661 67.5195 72.5895 66.6732C71.9129 65.8269 74.4511 63.6273 69.3739 61.4271C69.3739 61.4271 69.0353 56.6893 62.0972 56.5196C55.1592 56.3506 57.0208 61.2581 55.1592 62.4424C53.2976 63.6266 52.7899 61.7657 50.9283 62.95C49.0667 64.1343 49.9131 66.5035 48.3901 66.8422C46.8672 67.1808 44.8366 65.3193 42.975 66.5035C41.1134 67.6878 41.1134 68.7031 40.2671 68.7031C39.4208 68.7031 37.7289 68.0264 36.7136 68.7031C35.6983 69.3804 34.514 70.226 34.514 70.226H77.328C77.328 70.226 77.8356 68.7038 75.974 67.6885Z" stroke="#1E1E1E" stroke-miterlimit="10"/>
<path d="M291.715 59.3421C290.097 58.4593 289.361 59.1953 288.773 58.4593C288.184 57.7239 290.391 55.8115 285.978 53.8991C285.978 53.8991 285.683 49.7806 279.652 49.6331C273.621 49.4863 275.24 53.7523 273.622 54.7819C272.003 55.8115 271.562 54.1933 269.944 55.2229C268.326 56.2525 269.061 58.3125 267.737 58.606C266.414 58.9003 264.648 57.2822 263.03 58.3118C261.412 59.3414 261.412 60.2242 260.677 60.2242C259.942 60.2242 258.47 59.6356 257.588 60.2242C256.705 60.8127 255.676 61.5481 255.676 61.5481H292.892C292.892 61.5481 293.333 60.2249 291.715 59.3421Z" stroke="#1E1E1E" stroke-miterlimit="10"/>
</g>
<path d="M259.715 109.539V83.404H257.351V49.9446C257.351 38.5537 248.117 29.3202 236.727 29.3202H125.943C114.552 29.3202 105.319 38.5544 105.319 49.9446V275.047C105.319 286.438 114.553 295.671 125.943 295.671H236.727C248.118 295.671 257.351 286.437 257.351 275.047V131.814H259.715V116.371H257.351V109.54L259.715 109.539Z" fill="#707070" stroke="#263238" stroke-miterlimit="10" stroke-linejoin="round"/>
<path d="M233.113 292.831H129.556C117.488 292.831 107.706 283.048 107.706 270.981V54.0115C107.706 41.944 117.488 32.1613 129.556 32.1613H233.112C245.18 32.1613 254.963 41.944 254.963 54.0115V270.981C254.963 283.048 245.181 292.831 233.113 292.831Z" fill="#263238" stroke="#263238" stroke-miterlimit="10" stroke-linejoin="round"/>
<path d="M230.244 34.0343H189.347L189.306 34.1825C188.096 38.5416 185.309 41.3698 182.223 41.3698H180.448C177.362 41.3698 174.574 38.5408 173.364 34.1825L173.324 34.0343H132.426C121.036 34.0343 111.802 43.2686 111.802 54.6587V260.315C111.802 271.706 121.036 280.94 132.426 280.94H230.246C241.637 280.94 250.871 271.706 250.871 260.315V54.6587C250.869 43.2679 241.635 34.0343 230.244 34.0343Z" fill="#033FCF" stroke="#263238" stroke-miterlimit="10" stroke-linecap="round" stroke-linejoin="round"/>
<path opacity="0.5" d="M230.244 34.0343H189.347L189.306 34.1825C188.096 38.5416 185.309 41.3698 182.223 41.3698H180.448C177.362 41.3698 174.574 38.5408 173.364 34.1825L173.324 34.0343H132.426C121.036 34.0343 111.802 43.2686 111.802 54.6587V260.315C111.802 271.706 121.036 280.94 132.426 280.94H230.246C241.637 280.94 250.871 271.706 250.871 260.315V54.6587C250.869 43.2679 241.635 34.0343 230.244 34.0343Z" fill="white" stroke="#263238" stroke-miterlimit="10" stroke-linecap="round" stroke-linejoin="round"/>
<path d="M128.15 91.7983L117.18 76.6485L115.613 109.038L125.016 112.695L128.15 91.7983Z" fill="#033FCF"/>
<path d="M153.226 120.531L131.285 94.4103L128.619 116.152L152.812 128.627L153.226 120.531Z" fill="#033FCF"/>
<path d="M250.869 86.4713V54.6587C250.869 45.8039 245.288 38.2544 237.452 35.331L212.569 64.0698C209.807 67.2603 210.169 72.089 213.377 74.8313L234.563 92.9425C237.597 95.5358 242.119 95.344 244.921 92.5022L250.869 86.4713Z" fill="#033FCF"/>
<path d="M151.851 147.358L126.125 136.488L124.494 149.786L151.137 161.28L151.851 147.358Z" fill="#033FCF"/>
<path d="M126.698 131.808L152.053 143.399L152.604 132.671L128.16 119.886L126.698 131.808Z" fill="#033FCF"/>
<path d="M173.078 216.132L225.319 215.088L207.558 192.102L173.078 216.132Z" fill="#033FCF"/>
<path d="M217.282 176.168C217.282 184.777 224.286 191.781 232.894 191.781C241.503 191.781 248.506 184.777 248.506 176.168C248.506 167.56 241.503 160.556 232.894 160.556C224.286 160.556 217.282 167.56 217.282 176.168ZM247.06 176.168C247.06 183.978 240.706 190.334 232.895 190.334C225.084 190.334 218.729 183.979 218.729 176.168C218.729 168.357 225.084 162.003 232.895 162.003C240.705 162.003 247.06 168.357 247.06 176.168Z" fill="white"/>
<path d="M250.869 138.426L213.123 160.075L192.562 139.514L208.649 138.492L208.648 138.485C208.805 138.475 208.96 138.421 209.086 138.308L250.869 100.811V98.8667L237.259 111.08L193.505 75.6612L227.314 34.0336H225.45L177.265 93.3621L123.438 36.0907C122.987 36.3091 122.548 36.5475 122.117 36.7974L176.345 94.4962L172.107 99.7145L148.198 75.4134C144.011 71.1582 137.171 70.8575 132.628 74.7282L126.181 80.2199L111.8 63.1727V65.4166L156.74 118.685C156.709 118.759 156.688 118.837 156.683 118.919L153.574 169.178L139.253 173.508L139.246 173.493C139.188 173.378 139.1 173.28 138.991 173.21L111.799 155.601V157.325L137.574 174.015L111.799 181.807V183.319L138.504 175.245L146.972 192.182L111.799 208.443V210.036L147.618 193.476L159.239 216.717L111.799 253.416V255.245L208.705 180.28L250.868 230.256V228.012L200.881 168.762L250.868 140.093V138.426H250.869ZM236.169 112.06L223.751 123.204L205.455 106.393L215.791 95.5645L236.169 112.06ZM192.594 76.7846L214.663 94.6502L203.9 105.926C203.766 106.067 203.694 106.255 203.701 106.45C203.707 106.644 203.791 106.827 203.934 106.959L222.67 124.175L208.634 136.772L173.13 100.753L192.594 76.7846ZM172.211 101.883L206.975 137.149L175.878 139.124L158.599 118.643L172.211 101.883ZM127.115 81.3254L133.567 75.8294C137.535 72.4485 143.509 72.7112 147.167 76.428L171.189 100.845L157.649 117.517L127.115 81.3254ZM158.052 120.239L190.04 158.154L155.053 168.731L158.052 120.239ZM191.045 159.346L198.608 168.31L165.111 183.797L155.488 170.112L191.05 159.36L191.045 159.346ZM139.91 174.821L154.03 170.552L163.776 184.414L148.287 191.574L139.91 174.821ZM160.406 215.815L148.933 192.868L164.621 185.615L176.889 203.063L160.406 215.815ZM207.772 179.173L178.035 202.178L165.956 184.999L199.574 169.456L207.772 179.173ZM199.935 167.64L177.038 140.5L191.093 139.608L190.851 139.85L211.822 160.821L199.935 167.64Z" fill="white"/>
<path d="M226.686 176.168C226.686 179.591 229.471 182.377 232.894 182.377C236.318 182.377 239.103 179.591 239.103 176.168C239.103 172.745 236.317 169.96 232.894 169.96C229.471 169.96 226.686 172.745 226.686 176.168ZM237.657 176.168C237.657 178.794 235.52 180.93 232.895 180.93C230.269 180.93 228.133 178.794 228.133 176.168C228.133 173.543 230.27 171.406 232.895 171.406C235.52 171.406 237.657 173.543 237.657 176.168Z" fill="white"/>
<path d="M111.8 209.864V260.315C111.8 271.706 121.034 280.94 132.424 280.94H230.244C241.635 280.94 250.869 271.706 250.869 260.315V209.864H111.8Z" fill="white" stroke="#263238" stroke-miterlimit="10" stroke-linejoin="round"/>
<path d="M246.202 225.576C246.189 225.511 246.178 225.453 246.169 225.403C246.112 225.085 246.093 224.977 245.725 224.528C245.388 224.115 245.27 223.828 245.244 223.753C245.247 223.735 245.254 223.706 245.261 223.672C245.264 223.659 245.267 223.644 245.27 223.629C245.273 223.617 245.275 223.605 245.278 223.591C245.282 223.575 245.285 223.557 245.289 223.54C245.291 223.529 245.292 223.521 245.294 223.51C245.299 223.491 245.302 223.469 245.307 223.449C245.309 223.439 245.31 223.429 245.312 223.418C245.317 223.398 245.321 223.376 245.325 223.354C245.327 223.342 245.33 223.33 245.332 223.318C245.337 223.297 245.341 223.275 245.345 223.252C245.348 223.239 245.35 223.225 245.353 223.212C245.357 223.191 245.361 223.17 245.365 223.149C245.367 223.132 245.37 223.116 245.374 223.099C245.377 223.08 245.381 223.06 245.385 223.04C245.388 223.022 245.391 223.003 245.395 222.985C245.398 222.967 245.401 222.949 245.404 222.931C245.408 222.912 245.41 222.894 245.413 222.875C245.416 222.857 245.419 222.84 245.422 222.822C245.425 222.803 245.428 222.784 245.43 222.766C245.433 222.75 245.436 222.733 245.438 222.718C245.441 222.698 245.443 222.68 245.446 222.661C245.448 222.647 245.449 222.632 245.451 222.619C245.453 222.6 245.456 222.582 245.458 222.564C245.459 222.552 245.461 222.54 245.462 222.529C245.464 222.51 245.466 222.493 245.466 222.476C245.467 222.467 245.468 222.457 245.468 222.448C245.47 222.424 245.471 222.401 245.471 222.382C245.471 222.275 245.441 222.193 245.384 222.138C245.321 222.079 245.237 222.063 245.151 222.06C245.072 222.048 244.994 222.05 244.939 222.055C244.883 221.9 244.726 221.542 244.412 221.385C244.302 221.33 244.196 221.283 244.078 221.231C243.805 221.11 243.466 220.96 242.857 220.608C242.506 220.405 241.977 220.07 241.418 219.716C240.6 219.198 239.753 218.662 239.393 218.495C239.294 218.449 239.188 218.382 239.055 218.296C238.442 217.904 237.301 217.173 233.964 216.972C231.121 216.801 226.89 216.784 226.85 216.784C226.835 216.783 225.268 216.74 223.812 216.876C223.648 216.891 223.489 216.901 223.321 216.912C222.686 216.952 221.896 217.001 220.326 217.393C219.193 217.677 213.063 220.347 212.815 220.456C212.578 220.522 207.004 222.082 206.373 222.556C206.111 222.753 205.937 223.015 205.822 223.26C205.645 223.537 205.614 223.827 205.609 223.938C205.418 224.082 204.825 224.558 204.879 224.883C204.929 225.184 204.93 225.388 204.93 225.39V229.524C204.93 229.573 204.969 229.613 205.019 229.613H205.665C205.681 229.613 205.696 229.609 205.709 229.601L206.131 229.36H207.075C207.459 230.62 208.377 231.51 209.449 231.51H211.39C212.431 231.51 213.327 230.669 213.729 229.464L214.046 229.605C214.058 229.61 214.07 229.613 214.082 229.613H218.217C218.641 230.737 219.506 231.51 220.503 231.51H222.444C223.55 231.51 224.493 230.559 224.852 229.233H225.444H229.88C230.224 230.557 231.158 231.51 232.255 231.51H233.663C233.67 231.51 233.677 231.509 233.683 231.507C233.71 231.509 233.737 231.51 233.763 231.51C234.652 231.51 235.408 230.557 235.686 229.233H237.896C238.24 230.557 239.174 231.51 240.272 231.51H241.679C241.69 231.51 241.699 231.507 241.709 231.504C241.732 231.506 241.756 231.51 241.78 231.51C242.668 231.51 243.424 230.557 243.702 229.233H244.227H245.683C245.699 229.233 245.715 229.229 245.728 229.221C246.119 228.992 246.01 228.526 245.887 228.287C245.937 228.003 246.291 226.022 246.202 225.576Z" fill="#263238"/>
<path d="M227.397 219.166C227.397 219.166 224.553 221.051 224.598 221.19C224.644 221.327 226.25 221.557 226.663 221.557C227.076 221.557 239.508 221.557 239.508 221.557C239.508 221.557 241.068 221.235 241.297 220.96C241.526 220.685 238.086 218.529 236.847 218.116C235.608 217.703 233.193 217.732 230.745 217.927C228.917 218.074 227.397 219.166 227.397 219.166Z" fill="white"/>
<path d="M212.91 220.639H221.663C221.663 220.639 222.947 220.731 224.003 220.043C225.058 219.354 225.7 219.12 226.663 218.524C227.627 217.927 227.994 217.744 227.994 217.744C227.994 217.744 224.737 217.469 222.856 217.469C220.975 217.469 220.149 217.698 220.149 217.698L212.91 220.639Z" fill="white"/>
<path d="M146.081 220.495C146.081 223.861 142.301 225.073 142.285 227.641V227.816H145.954V228.949H141.057V227.992C141.057 224.387 144.837 223.685 144.837 220.542C144.837 219.395 144.455 218.788 143.529 218.788C142.621 218.788 142.222 219.442 142.222 220.431V221.419H141.057V220.51C141.057 218.803 141.839 217.67 143.562 217.67C145.299 217.671 146.081 218.788 146.081 220.495Z" fill="#263238"/>
<path d="M153.819 228.933H152.623L150.772 220.048V228.949H149.688V217.783H151.426L153.261 226.699L155.031 217.783H156.77V228.949H155.59V219.969L153.819 228.933Z" fill="#263238"/>
<path d="M159.291 217.783V228.949H158.047V217.783H159.291Z" fill="#263238"/>
<path d="M161.668 228.949H160.551V217.783H162.13L164.714 225.854V217.783H165.815V228.949H164.522L161.667 219.921L161.668 228.949Z" fill="#263238"/>
<path d="M134.668 223.45C134.668 227.487 131.398 230.764 127.354 230.764C123.317 230.764 120.047 227.487 120.047 223.45C120.047 219.406 123.317 216.136 127.354 216.136C129.228 216.136 130.928 216.831 132.216 217.988C133.72 219.319 134.668 221.272 134.668 223.45Z" fill="white" stroke="#263238" stroke-miterlimit="10" stroke-linejoin="round"/>
<path d="M132.216 217.988L127.354 223.45V216.136C129.228 216.135 130.928 216.83 132.216 217.988Z" fill="#263238"/>
<path d="M121.298 240.28H178.69" stroke="#263238" stroke-miterlimit="10" stroke-linecap="round" stroke-linejoin="round"/>
<path d="M121.298 245.102H178.69" stroke="#263238" stroke-miterlimit="10" stroke-linecap="round" stroke-linejoin="round"/>
<path d="M121.298 249.925H178.69" stroke="#263238" stroke-miterlimit="10" stroke-linecap="round" stroke-linejoin="round"/>
<path d="M230.244 34.0343H189.347L189.306 34.1825C188.096 38.5408 185.309 41.3698 182.223 41.3698H180.448C177.362 41.3698 174.574 38.5408 173.364 34.1825L173.324 34.0343H132.426C121.036 34.0343 111.802 43.2686 111.802 54.6587V58.364H250.871V54.6587C250.869 43.2679 241.635 34.0343 230.244 34.0343Z" fill="white" stroke="#263238" stroke-miterlimit="10" stroke-linejoin="round"/>
<path d="M180.91 36.9585C181.979 36.9585 182.846 36.0917 182.846 35.0224C182.846 33.9531 181.979 33.0863 180.91 33.0863C179.84 33.0863 178.974 33.9531 178.974 35.0224C178.974 36.0917 179.84 36.9585 180.91 36.9585Z" fill="#707070"/>
<path d="M124.159 42.4423C124.159 44.4013 121.958 45.1066 121.949 46.6016V46.704H124.084V47.3634H121.235V46.8063C121.235 44.7085 123.435 44.3003 123.435 42.471C123.435 41.8029 123.211 41.4499 122.674 41.4499C122.145 41.4499 121.913 41.8301 121.913 42.4058V42.9815H121.235V42.4516C121.235 41.4578 121.69 40.7991 122.692 40.7991C123.704 40.7991 124.159 41.4492 124.159 42.4423Z" fill="#263238"/>
<path d="M127.715 42.433V42.5998C127.715 43.2686 127.447 43.7419 126.926 43.9366C127.473 44.1407 127.715 44.6326 127.715 45.2827V45.7839C127.715 46.777 127.251 47.4271 126.248 47.4271C125.255 47.4271 124.791 46.777 124.791 45.7839V45.3378H125.468V45.8297C125.468 46.4147 125.71 46.7677 126.229 46.7677C126.759 46.7677 126.991 46.424 126.991 45.7653V45.2641C126.991 44.6233 126.721 44.3175 126.173 44.2989H125.783V43.6488H126.21C126.693 43.6302 126.991 43.3244 126.991 42.7581V42.4609C126.991 41.7929 126.758 41.4492 126.229 41.4492C125.71 41.4492 125.468 41.8108 125.468 42.3958V42.7302H124.791V42.433C124.791 41.4399 125.255 40.7991 126.248 40.7991C127.251 40.7991 127.715 41.4399 127.715 42.433Z" fill="#263238"/>
<path d="M129.118 42.9256V43.8264H128.422V42.9256H129.118ZM129.118 46.462V47.3627H128.422V46.462H129.118Z" fill="#263238"/>
<path d="M130.586 43.5106C130.79 43.1576 131.115 42.9722 131.551 42.9722C132.387 42.9722 132.758 43.5851 132.758 44.513V45.7853C132.758 46.7784 132.285 47.4285 131.292 47.4285C130.298 47.4285 129.834 46.7784 129.834 45.7853V45.3493H130.511V45.8319C130.511 46.4168 130.752 46.7698 131.273 46.7698C131.793 46.7698 132.034 46.4168 132.034 45.8319V44.5696C132.034 43.9846 131.793 43.6316 131.273 43.6316C130.874 43.6316 130.604 43.8543 130.54 44.3283V44.4772H129.862L130.039 40.8657H132.6V41.5151H130.688L130.586 43.5106Z" fill="#263238"/>
<path d="M136.37 42.4237V42.5447H135.693V42.3779C135.693 41.7929 135.451 41.45 134.922 41.45C134.375 41.45 134.133 41.803 134.133 42.4989V43.956C134.309 43.5106 134.662 43.26 135.182 43.26C136.018 43.26 136.389 43.8636 136.389 44.8008V45.7853C136.389 46.7784 135.897 47.4286 134.904 47.4286C133.901 47.4286 133.409 46.7784 133.409 45.7853V42.471C133.409 41.4407 133.873 40.7998 134.904 40.7998C135.906 40.7991 136.37 41.4306 136.37 42.4237ZM134.133 44.8567V45.8312C134.133 46.4161 134.374 46.7691 134.903 46.7691C135.423 46.7691 135.673 46.4161 135.673 45.8312V44.8567C135.673 44.2717 135.423 43.9187 134.903 43.9187C134.374 43.9187 134.133 44.2717 134.133 44.8567Z" fill="#263238"/>
<path d="M207.315 42.7101H205.48V47.2975H207.315V42.7101Z" fill="#263238"/>
<path d="M209.762 41.7908H207.926V47.2968H209.762V41.7908Z" fill="#263238"/>
<path d="M212.208 41.1385H210.373V47.2968H212.208V41.1385Z" fill="#263238"/>
<path d="M214.655 40.0036H212.82V47.2968H214.655V40.0036Z" fill="#263238"/>
<path d="M237.361 47.1708H226.352V40.4425H237.361V47.1708ZM226.963 46.5593H236.75V41.0547H226.963V46.5593Z" fill="#263238"/>
<path d="M233.692 41.7206H227.881V45.8941H233.692V41.7206Z" fill="#263238"/>
<path d="M238.364 43.0144H236.98V44.5996H238.364V43.0144Z" fill="#263238"/>
<path d="M222.315 45.7073C222.244 45.7073 222.17 45.6887 222.105 45.6493C219.864 44.3175 218.384 45.5533 218.321 45.6056C218.15 45.7545 217.891 45.7352 217.742 45.5648C217.594 45.3937 217.61 45.1366 217.78 44.9877C217.859 44.9175 219.753 43.2958 222.525 44.9426C222.72 45.0579 222.784 45.3113 222.668 45.5061C222.592 45.6357 222.455 45.7073 222.315 45.7073Z" fill="#263238"/>
<path d="M223.144 44.3254C223.073 44.3254 223 44.3068 222.934 44.2674C219.694 42.3406 217.517 44.2051 217.495 44.2223C217.325 44.3734 217.065 44.3555 216.915 44.1851C216.765 44.0147 216.781 43.7547 216.952 43.6051C216.978 43.5808 219.604 41.3318 223.354 43.56C223.55 43.6753 223.613 43.9287 223.497 44.1235C223.42 44.2538 223.284 44.3254 223.144 44.3254Z" fill="#263238"/>
<path d="M223.897 42.7251C223.825 42.7251 223.752 42.7065 223.686 42.6671C219.584 40.2277 216.856 42.5239 216.742 42.6235C216.571 42.7724 216.311 42.7538 216.162 42.5834C216.012 42.413 216.029 42.1545 216.2 42.0048C216.232 41.9762 219.473 39.2039 224.107 41.9597C224.302 42.075 224.367 42.3285 224.251 42.5232C224.172 42.6535 224.036 42.7251 223.897 42.7251Z" fill="#263238"/>
<path d="M220.046 47.4286C220.616 47.4286 221.078 46.9666 221.078 46.3968C221.078 45.827 220.616 45.3651 220.046 45.3651C219.476 45.3651 219.014 45.827 219.014 46.3968C219.014 46.9666 219.476 47.4286 220.046 47.4286Z" fill="#263238"/>
<path d="M213.814 71.7926C213.803 71.7367 213.794 71.6873 213.786 71.6436C213.737 71.3701 213.72 71.2785 213.404 70.8918C213.114 70.5374 213.014 70.2904 212.99 70.226C212.994 70.2102 212.999 70.1859 213.005 70.1565C213.007 70.1451 213.01 70.1329 213.013 70.1193C213.015 70.1085 213.017 70.0985 213.019 70.0871C213.022 70.0735 213.025 70.0577 213.029 70.0427C213.03 70.0341 213.032 70.0262 213.034 70.0176C213.037 70.0011 213.041 69.9825 213.044 69.9646C213.046 69.956 213.048 69.9482 213.049 69.9389C213.053 69.921 213.057 69.9023 213.06 69.8837C213.062 69.8737 213.064 69.8637 213.067 69.8529C213.07 69.8343 213.074 69.8157 213.077 69.7964C213.079 69.7849 213.082 69.7735 213.084 69.7613C213.087 69.7434 213.09 69.7255 213.094 69.7069C213.097 69.6926 213.099 69.6789 213.102 69.6646C213.105 69.6482 213.108 69.631 213.111 69.6138C213.114 69.598 213.117 69.5823 213.12 69.5665C213.122 69.5508 213.125 69.535 213.127 69.52C213.13 69.5035 213.133 69.4878 213.135 69.4713C213.138 69.4563 213.14 69.4412 213.142 69.4262C213.145 69.4097 213.147 69.3933 213.15 69.3775C213.152 69.3639 213.154 69.3503 213.156 69.3367C213.158 69.3202 213.16 69.3038 213.163 69.288C213.164 69.2758 213.166 69.2637 213.168 69.2515C213.17 69.235 213.171 69.22 213.173 69.205C213.175 69.1942 213.176 69.1835 213.177 69.1742C213.178 69.1584 213.18 69.1434 213.18 69.1291C213.181 69.1212 213.182 69.1133 213.183 69.1054C213.184 69.0847 213.185 69.0653 213.185 69.0481C213.185 68.9565 213.16 68.8856 213.11 68.8391C213.056 68.7875 212.984 68.7746 212.91 68.7725C212.842 68.7625 212.776 68.7639 212.729 68.7682C212.681 68.6343 212.545 68.3271 212.276 68.1925C212.182 68.1453 212.09 68.1052 211.989 68.0601C211.755 67.9562 211.463 67.8274 210.94 67.5245C210.638 67.3498 210.184 67.062 209.704 66.7577C209 66.3123 208.273 65.8519 207.964 65.7087C207.878 65.6693 207.788 65.6113 207.673 65.5376C207.147 65.2004 206.166 64.5724 203.299 64.3999C200.856 64.2531 197.221 64.2381 197.186 64.2381C197.173 64.2373 195.827 64.2001 194.575 64.3175C194.435 64.3304 194.298 64.339 194.154 64.3483C193.609 64.382 192.929 64.4242 191.58 64.7615C190.606 65.0049 185.339 67.299 185.125 67.3935C184.922 67.45 180.133 68.7904 179.59 69.1978C179.365 69.3668 179.216 69.5916 179.117 69.8028C178.965 70.0405 178.938 70.2897 178.933 70.3849C178.769 70.5088 178.26 70.9183 178.306 71.1976C178.349 71.4561 178.35 71.6315 178.35 71.6329V75.185C178.35 75.2272 178.384 75.2609 178.426 75.2609H178.981C178.995 75.2609 179.008 75.2573 179.019 75.2509L179.382 75.0432H180.194C180.524 76.1258 181.313 76.8905 182.233 76.8905H183.901C184.795 76.8905 185.566 76.1673 185.911 75.1327L186.184 75.2537C186.194 75.258 186.204 75.2602 186.214 75.2602H189.767C190.132 76.226 190.874 76.8898 191.731 76.8898H193.399C194.349 76.8898 195.159 76.0728 195.468 74.9337H195.977H199.788C200.084 76.0707 200.887 76.8898 201.83 76.8898H203.039C203.045 76.8898 203.05 76.8891 203.056 76.8876C203.079 76.8891 203.102 76.8898 203.125 76.8898C203.889 76.8898 204.538 76.0707 204.777 74.9337H206.676C206.972 76.0707 207.774 76.8898 208.717 76.8898H209.926C209.936 76.8898 209.943 76.8876 209.952 76.8848C209.973 76.8862 209.992 76.8898 210.013 76.8898C210.777 76.8898 211.426 76.0707 211.665 74.9337H212.115H213.366C213.379 74.9337 213.393 74.9301 213.405 74.9229C213.74 74.726 213.647 74.3258 213.541 74.121C213.587 73.8783 213.891 72.1756 213.814 71.7926Z" fill="#263238"/>
<path d="M197.656 66.2851C197.656 66.2851 195.212 67.9054 195.252 68.0236C195.291 68.1417 196.671 68.3386 197.026 68.3386C197.38 68.3386 208.064 68.3386 208.064 68.3386C208.064 68.3386 209.404 68.0629 209.601 67.8259C209.798 67.589 206.842 65.7367 205.778 65.3822C204.714 65.0278 202.639 65.0522 200.535 65.2204C198.962 65.3464 197.656 66.2851 197.656 66.2851Z" fill="white"/>
<path d="M185.207 67.5503H192.729C192.729 67.5503 193.833 67.6291 194.739 67.0376C195.646 66.4462 196.198 66.245 197.025 65.7331C197.853 65.2211 198.169 65.0629 198.169 65.0629C198.169 65.0629 195.37 64.8266 193.754 64.8266C192.138 64.8266 191.428 65.0235 191.428 65.0235L185.207 67.5503Z" fill="white"/>
<path d="M145.684 166.741C142.669 166.504 139.125 167.846 137.766 169.739C136.408 171.631 138.895 176.198 138.895 176.198C138.895 176.198 147.323 172.488 148.682 170.596C150.04 168.703 148.698 166.977 145.684 166.741ZM142.24 171.537C141.034 171.443 140.497 170.752 141.041 169.995C141.584 169.238 143.002 168.701 144.207 168.796C145.413 168.89 145.95 169.58 145.407 170.338C144.864 171.095 143.446 171.632 142.24 171.537Z" fill="#263238"/>
<path d="M138.895 156.272C134.975 156.272 131.798 159.45 131.798 163.369C131.798 167.288 138.895 175.86 138.895 175.86C138.895 175.86 145.992 167.288 145.992 163.369C145.992 159.45 142.814 156.272 138.895 156.272ZM138.895 166.208C137.327 166.208 136.056 164.937 136.056 163.369C136.056 161.801 137.327 160.53 138.895 160.53C140.463 160.53 141.734 161.801 141.734 163.369C141.734 164.937 140.462 166.208 138.895 166.208Z" fill="#033FCF" stroke="#263238" stroke-miterlimit="10" stroke-linecap="round" stroke-linejoin="round"/>
<path d="M191.731 76.8898L191.041 77.7132" stroke="#263238" stroke-width="2" stroke-linecap="round" stroke-linejoin="round"/>
<path d="M189.666 79.3507L159.264 115.591C158.324 116.711 158.305 118.338 159.217 119.481L188.263 155.868C189.607 157.551 188.845 160.06 186.792 160.712L144.298 174.213" stroke="#263238" stroke-width="2" stroke-linecap="round" stroke-linejoin="round" stroke-dasharray="2.99 2.99"/>
<path d="M143.279 174.537L142.256 174.862" stroke="#263238" stroke-width="2" stroke-linecap="round" stroke-linejoin="round"/>
<path d="M180.62 108.131V116.069L164.704 113.918L180.62 121.649V128.387H219.685V108.131H180.62Z" fill="#263238"/>
<path d="M184.748 115.415C184.748 113.708 185.594 112.607 187.301 112.607C189.023 112.607 189.869 113.708 189.869 115.415V121.174C189.869 122.881 189.023 123.997 187.301 123.997C185.594 123.997 184.748 122.881 184.748 121.174V115.415ZM185.977 121.253C185.977 122.258 186.408 122.864 187.301 122.864C188.21 122.864 188.625 122.258 188.625 121.253V115.351C188.625 114.33 188.21 113.724 187.301 113.724C186.408 113.724 185.977 114.331 185.977 115.351V121.253Z" fill="white"/>
<path d="M192.246 122.338V123.885H191.05V122.338H192.246Z" fill="white"/>
<path d="M198.054 121.636V123.885H196.841V121.636H193.236V120.503L196.697 112.718H198.054V120.503H198.946V121.636H198.054ZM194.385 120.503H196.841V115.048L194.385 120.503Z" fill="white"/>
<path d="M204.276 119.036L203.621 120.136V123.885H202.377V112.719H203.621V118.111L206.588 112.719H207.848L205.024 117.808L207.944 123.885H206.667L204.276 119.036Z" fill="white"/>
<path d="M213.017 123.869H211.821L209.971 114.984V123.885H208.885V112.719H210.624L212.459 121.635L214.229 112.719H215.968V123.885H214.787V114.905L213.017 123.869Z" fill="white"/>
<path d="M100.883 320.966L102.283 324.932C102.283 324.932 106.482 326.565 107.182 327.731C107.882 328.897 107.882 332.863 107.882 332.863H90.6177C90.6177 332.863 90.1508 329.131 90.1508 327.031C90.1508 324.931 90.1508 322.132 90.1508 322.132L100.883 320.966Z" fill="white" stroke="#263238" stroke-miterlimit="10" stroke-linecap="round" stroke-linejoin="round"/>
<path d="M90.4107 330.997H107.812C107.881 332.02 107.882 332.864 107.882 332.864H90.6176C90.6176 332.864 90.5181 332.063 90.4107 330.997Z" fill="white" stroke="#263238" stroke-miterlimit="10" stroke-linecap="round" stroke-linejoin="round"/>
<path d="M98.9862 315.833L97.8199 221.114L77.0566 222.231L56.2933 221.114L55.1269 315.833C55.1269 315.833 53.0269 317.7 53.0269 318.633C53.0269 319.566 53.0269 320.966 53.0269 320.966L53.2603 322.132C53.2603 322.132 58.3926 322.599 59.559 322.831C60.7253 323.065 63.7583 322.132 63.7583 322.132C63.7583 322.132 65.1581 314.9 65.1581 314.2C65.1581 313.5 76.3563 235.346 76.3563 235.346L77.0566 235.245L77.7568 235.346C77.7568 235.346 88.9551 313.5 88.9551 314.2C88.9551 314.9 90.3549 322.132 90.3549 322.132C90.3549 322.132 93.3878 323.065 94.5542 322.831C95.7206 322.598 100.854 322.132 100.854 322.132L101.087 320.966C101.087 320.966 101.087 319.566 101.087 318.633C101.086 317.7 98.9862 315.833 98.9862 315.833Z" fill="#263238" stroke="#263238" stroke-miterlimit="10" stroke-linecap="round" stroke-linejoin="round"/>
<path d="M106.901 167.57C106.901 167.57 113.532 170.63 115.742 172.161C117.952 173.691 117.443 179.472 118.122 182.702C118.802 185.933 119.652 187.973 118.802 188.824C117.952 189.673 116.762 191.204 116.762 191.204C116.762 191.204 117.612 199.364 117.952 205.656C118.292 211.947 114.891 214.157 112.171 215.858C109.451 217.558 106.39 217.898 100.779 217.558C95.1686 217.218 91.2578 214.498 90.748 213.307C90.2382 212.117 85.4775 199.025 87.5174 191.544C89.558 184.063 96.3586 168.081 99.5892 166.381C102.82 164.679 106.901 167.57 106.901 167.57Z" fill="#263238" stroke="#263238" stroke-miterlimit="10" stroke-linecap="round" stroke-linejoin="round"/>
<path d="M55.5537 213.137L54.3637 221.638C54.3637 221.638 60.9946 225.718 65.9257 227.419C70.8568 229.119 76.637 230.479 76.637 230.479L77.9974 227.588L79.0177 230.819C79.0177 230.819 82.0779 230.479 87.009 228.099C91.9401 225.719 99.0808 220.958 99.0808 220.958L98.9111 212.286L95.6805 155.668L82.7588 150.057L70.1773 151.077L60.6559 156.348L55.5537 213.137Z" fill="white" stroke="#263238" stroke-miterlimit="10" stroke-linecap="round" stroke-linejoin="round"/>
<path d="M90.6713 153.494L82.7574 150.058L70.1758 151.078L65.335 153.758C66.2364 156.889 69.6088 166.519 77.1468 167.23C84.1658 167.892 88.9143 157.932 90.6713 153.494Z" fill="white" stroke="#263238" stroke-miterlimit="10" stroke-linecap="round" stroke-linejoin="round"/>
<path d="M69.8307 152.196C69.8307 152.196 73.2475 156.752 76.5375 158.017C79.8275 159.282 82.738 153.588 83.6237 152.069C84.5094 150.55 84.7629 150.044 84.7629 150.044L70.1751 151.077C70.1751 151.077 68.5655 150.551 69.8307 152.196Z" fill="#263238" stroke="#263238" stroke-miterlimit="10" stroke-linecap="round" stroke-linejoin="round"/>
<path d="M82.7574 150.057C82.7574 150.057 82.4173 223.168 82.9271 223.338C83.4369 223.507 99.2498 217.047 100.1 216.367C100.95 215.686 101.97 214.496 101.97 214.496L102.31 187.122C102.31 187.122 107.58 190.523 109.111 190.863C110.641 191.203 115.402 190.353 115.742 188.483C116.082 186.613 110.132 171.31 108.601 166.549C107.071 161.789 104.69 157.368 104.01 155.838C103.33 154.308 96.529 153.457 92.4485 152.267C88.368 151.077 82.7574 150.057 82.7574 150.057Z" fill="#033FCF" stroke="#263238" stroke-miterlimit="10" stroke-linecap="round" stroke-linejoin="round"/>
<path d="M82.9278 165.019L84.798 162.299C84.798 162.299 89.389 166.21 89.8988 164.85C90.4086 163.489 86.9109 152.511 86.3281 150.397C85.7453 148.284 82.5877 148.357 82.4173 149.207C82.2476 150.057 82.9278 165.019 82.9278 165.019Z" fill="#033FCF" stroke="#263238" stroke-miterlimit="10" stroke-linecap="round" stroke-linejoin="round"/>
<path d="M92.4492 152.268C92.4492 152.268 92.1091 176.582 93.2991 182.873C94.489 189.164 102.311 206.336 102.311 206.336V199.875C102.311 199.875 97.7204 183.043 97.0402 178.112C96.36 173.182 96.5304 153.459 96.5304 153.459L92.4492 152.268Z" fill="#263238" stroke="#263238" stroke-miterlimit="10" stroke-linecap="round" stroke-linejoin="round"/>
<path d="M71.6781 152.382C71.6781 152.382 71.9516 220.945 71.9516 221.901C71.9516 222.857 70.4494 222.311 69.3568 221.765C68.2642 221.218 57.338 217.531 54.333 216.301C51.3279 215.072 50.9184 215.892 51.0551 214.526C51.1919 213.16 51.1919 208.653 51.1919 207.97C51.1919 207.287 52.1477 193.356 52.1477 193.356C52.1477 193.356 45.7281 195.678 41.9039 194.176C38.0798 192.673 36.3041 190.898 36.7136 189.532C37.1232 188.166 44.3619 170.41 44.9082 168.771C45.4546 167.132 46.82 157.845 47.6398 157.025C48.4596 156.205 66.8973 151.562 67.9899 150.742C69.0826 149.923 70.1752 150.059 70.5847 150.059C70.995 150.06 71.4045 149.786 71.6781 152.382Z" fill="#033FCF" stroke="#263238" stroke-miterlimit="10" stroke-linecap="round" stroke-linejoin="round"/>
<path d="M55.8588 174.566C56.032 175.808 56.1215 176.997 55.9712 177.65C55.5616 179.425 52.147 193.356 52.147 193.356" stroke="#263238" stroke-miterlimit="10" stroke-linecap="round" stroke-linejoin="round"/>
<path d="M55.0153 170.137C55.0153 170.137 55.195 170.892 55.4048 171.94" stroke="#263238" stroke-miterlimit="10" stroke-linecap="round" stroke-linejoin="round"/>
<path d="M69.7656 149.104C69.7656 149.104 68.5362 150.606 68.3995 151.836C68.2627 153.065 66.487 159.621 65.5312 161.669C64.5753 163.718 64.165 164.947 64.165 164.947C64.165 164.947 65.3944 165.357 66.6238 164.674C67.8532 163.99 69.9016 162.898 69.9016 162.898L71.5406 164.674L71.6773 152.381C71.6773 152.381 71.8141 148.012 69.7656 149.104Z" fill="#033FCF" stroke="#263238" stroke-miterlimit="10" stroke-linecap="round" stroke-linejoin="round"/>
<path d="M65.9417 138.451C65.9417 138.451 63.7565 135.582 63.6197 137.221C63.4829 138.86 63.0734 140.909 64.166 142.275C65.2586 143.641 66.0785 144.051 66.0785 144.051C66.0785 144.051 67.8541 148.695 69.0835 149.923C70.3129 151.153 70.9959 153.884 74.4098 155.25C77.8244 156.616 79.6001 155.796 81.3758 154.566C82.2307 153.974 85.3367 149.24 85.7463 148.284C86.1558 147.328 86.2926 143.913 86.2926 143.913C86.2926 143.913 88.6145 140.635 88.7513 138.86C88.8881 137.084 88.6145 135.991 88.0682 135.991C87.5219 135.991 86.8389 135.991 86.8389 135.991C86.8389 135.991 88.4778 129.299 88.341 127.114C88.2043 124.928 84.2434 120.558 81.239 118.509C78.234 116.46 71.9518 117.143 68.674 119.192C65.3961 121.24 61.9815 125.611 62.8013 127.386C63.6211 129.162 65.9417 138.451 65.9417 138.451Z" fill="white" stroke="#263238" stroke-miterlimit="10" stroke-linecap="round" stroke-linejoin="round"/>
<path d="M74.9365 146.657C74.9365 146.657 75.4463 147.507 76.9771 147.847C78.5072 148.187 79.1874 146.657 79.1874 146.657" stroke="#263238" stroke-miterlimit="10" stroke-linecap="round" stroke-linejoin="round"/>
<path d="M74.2563 149.207C74.2563 149.207 75.2766 150.057 77.1468 150.057C79.017 150.057 80.0373 149.037 80.0373 149.037" stroke="#263238" stroke-miterlimit="10" stroke-linecap="round" stroke-linejoin="round"/>
<path d="M65.9414 138.451C65.9414 138.451 65.8319 138.308 65.6658 138.11L65.9414 138.451Z" stroke="#263238" stroke-miterlimit="10" stroke-linecap="round" stroke-linejoin="round"/>
<path d="M81.2381 118.51C78.233 116.462 71.9508 117.144 68.673 119.193C65.3951 121.242 61.9805 125.612 62.8003 127.388C63.6202 129.164 65.9414 138.451 65.9414 138.451C65.9414 138.451 67.034 138.724 67.4436 137.768C67.8532 136.812 67.1708 135.446 67.8532 134.216C68.4066 133.221 70.0248 133.295 70.9864 133.07C70.2739 133.536 69.3589 134.396 70.4487 134.899C72.2243 135.719 73.3169 134.489 77.0043 132.577C80.6917 130.664 81.102 128.753 81.102 128.753C81.102 128.753 82.8777 130.255 82.8777 131.894C82.8777 133.533 82.7409 135.855 83.6975 136.127C84.6534 136.401 85.3364 136.537 85.3364 136.537C85.3364 136.537 84.9269 138.313 85.8827 138.449C86.5851 138.55 86.8443 136.884 86.9331 135.991C86.8758 135.991 86.8386 135.991 86.8386 135.991C86.8386 135.991 88.4775 129.298 88.3408 127.113C88.204 124.929 84.2431 120.559 81.2381 118.51Z" fill="#263238" stroke="#263238" stroke-miterlimit="10" stroke-linecap="round" stroke-linejoin="round"/>
<path d="M79.1896 141.319C79.1896 141.319 80.9653 142.821 83.6968 141.046" stroke="#263238" stroke-miterlimit="10" stroke-linecap="round" stroke-linejoin="round"/>
<path d="M69.356 141.319C69.356 141.319 71.1317 142.821 73.8632 141.046" stroke="#263238" stroke-miterlimit="10" stroke-linecap="round" stroke-linejoin="round"/>
<path d="M68.9465 139.27C68.9465 139.27 71.1317 138.314 73.3169 138.86" stroke="#263238" stroke-miterlimit="10" stroke-linecap="round" stroke-linejoin="round"/>
<path d="M79.3264 138.86C79.3264 138.86 81.2388 138.177 83.2873 138.997" stroke="#263238" stroke-miterlimit="10" stroke-linecap="round" stroke-linejoin="round"/>
<path d="M40.2642 188.985C40.2642 188.985 48.7324 188.439 49.9617 188.439C51.1911 188.439 52.147 191.034 52.4205 192.537C52.694 194.04 52.83 197.453 52.83 197.453C52.83 197.453 48.8691 203.053 46.1376 204.009C43.4061 204.965 37.3967 203.189 35.8938 201.961C34.3909 200.732 33.1622 195.131 33.9813 193.22C34.8012 191.307 36.5761 190.079 37.2592 189.396" fill="#033FCF"/>
<path d="M40.2642 188.985C40.2642 188.985 48.7324 188.439 49.9617 188.439C51.1911 188.439 52.147 191.034 52.4205 192.537C52.694 194.04 52.83 197.453 52.83 197.453C52.83 197.453 48.8691 203.053 46.1376 204.009C43.4061 204.965 37.3967 203.189 35.8938 201.961C34.3909 200.732 33.1622 195.131 33.9813 193.22C34.8012 191.307 36.5761 190.079 37.2592 189.396" stroke="#263238" stroke-miterlimit="10" stroke-linecap="round" stroke-linejoin="round"/>
<path d="M61.5424 172.239L65.7417 189.62L73.6735 187.87L70.2912 170.956L61.5424 172.239Z" fill="#263238" stroke="#263238" stroke-miterlimit="10" stroke-linecap="round" stroke-linejoin="round"/>
<path d="M57.0638 188.302L59.3858 185.98C59.3858 185.98 60.3416 182.293 60.8879 181.2C61.4342 180.108 62.9364 178.195 62.9364 178.195L63.4827 179.971C63.4827 179.971 68.673 177.649 69.4921 177.649C70.3119 177.649 70.5847 178.469 70.5847 178.878C70.5847 179.288 64.8481 182.019 64.8481 182.019L64.1651 182.975C64.1651 182.975 69.0818 181.063 69.9016 180.516C70.7215 179.97 71.6773 179.833 71.6773 179.833C71.6773 179.833 72.3604 180.926 72.0869 181.472C71.8134 182.019 71.5406 182.702 71.5406 182.702C71.5406 182.702 71.6401 182.967 71.426 183.766C71.0716 185.085 69.7914 185.965 69.7914 185.965C69.7914 185.965 67.9892 188.165 67.0333 189.121C66.0775 190.077 62.6629 190.897 62.6629 190.897L56.2439 194.995C56.2439 194.995 55.2881 194.175 55.2881 191.854C55.2881 189.532 57.0638 188.302 57.0638 188.302Z" fill="white" stroke="#263238" stroke-miterlimit="10" stroke-linecap="round" stroke-linejoin="round"/>
<path d="M71.678 182.019C71.678 182.019 66.2149 184.751 64.8488 185.707" stroke="#263238" stroke-miterlimit="10" stroke-linecap="round" stroke-linejoin="round"/>
<path d="M65.0579 188.051L69.7921 185.965" stroke="#263238" stroke-miterlimit="10" stroke-linecap="round" stroke-linejoin="round"/>
<path d="M58.1564 186.937C58.1564 186.937 56.3807 189.122 56.5175 191.171C56.6542 193.219 58.1564 196.634 58.1564 196.634C58.1564 196.634 55.6977 198.273 54.7418 199.228C53.7859 200.184 51.6007 200.731 50.7809 198.955C49.9611 197.179 48.5956 193.218 49.142 190.897C49.6883 188.576 50.7809 187.892 51.3272 187.756C51.8735 187.62 57.2005 187.074 58.1564 186.937Z" fill="#033FCF" stroke="#263238" stroke-miterlimit="10" stroke-linecap="round" stroke-linejoin="round"/>
<path d="M101.971 178.792C101.971 178.792 99.5898 171.65 98.7399 170.291C97.8901 168.93 96.5297 168.08 96.0199 168.08C95.5101 168.08 92.4492 167.23 91.5993 167.23C90.7494 167.23 89.2186 167.74 89.5587 169.271C89.8988 170.801 89.8988 170.801 89.8988 170.801C89.8988 170.801 89.5587 173.521 89.5587 174.201C89.5587 174.882 90.9191 176.072 90.9191 176.072C90.9191 176.072 91.0888 178.112 91.4289 178.792C91.769 179.472 97.2099 181.002 97.2099 181.002L97.7196 181.682L98.7399 182.192L101.971 178.792Z" fill="white" stroke="#263238" stroke-miterlimit="10" stroke-linecap="round" stroke-linejoin="round"/>
<path d="M104.861 181.853C104.861 181.853 109.452 184.403 110.812 184.913C112.171 185.423 113.872 185.593 115.743 188.483C117.613 191.374 116.933 196.135 115.743 198.685C114.553 201.235 110.642 201.916 108.092 201.916C105.541 201.916 102.991 196.645 101.63 195.114C100.27 193.584 98.0598 189.164 98.0598 189.164L104.861 181.853Z" fill="#033FCF" stroke="#263238" stroke-miterlimit="10" stroke-linecap="round" stroke-linejoin="round"/>
<path d="M102.651 177.771C102.651 177.771 99.2505 179.642 97.7204 181.682C96.1903 183.723 94.8299 185.593 94.8299 186.613C94.8299 187.634 97.7204 191.544 97.7204 191.544L106.562 182.363C106.562 182.363 104.521 178.962 102.651 177.771Z" fill="#033FCF" stroke="#263238" stroke-miterlimit="10" stroke-linecap="round" stroke-linejoin="round"/>
<path d="M53.027 320.966L51.6272 324.932C51.6272 324.932 47.4278 326.565 46.7276 327.731C46.0273 328.897 46.0273 332.863 46.0273 332.863H63.2915C63.2915 332.863 63.7584 329.131 63.7584 327.031C63.7584 324.931 63.7584 322.132 63.7584 322.132L53.027 320.966Z" fill="white" stroke="#263238" stroke-miterlimit="10" stroke-linecap="round" stroke-linejoin="round"/>
<path d="M63.4992 330.997H46.0975C46.0288 332.02 46.0281 332.864 46.0281 332.864H63.2923C63.2923 332.864 63.3918 332.063 63.4992 330.997Z" fill="white" stroke="#263238" stroke-miterlimit="10" stroke-linecap="round" stroke-linejoin="round"/>
<path d="M252.409 323.868H225.039C225.039 323.868 225.819 310.794 230.689 305.143C235.56 299.493 242.965 298.908 249.006 302.221C255.046 305.533 255.435 320.341 255.435 320.341H302.199C302.199 320.341 306.485 303.584 316.228 302.415C325.97 301.246 328.308 318.198 328.308 318.198L326.628 323.868H252.409Z" fill="#263238" stroke="#263238" stroke-miterlimit="10" stroke-linecap="round" stroke-linejoin="round"/>
<path d="M318.641 319.791C318.641 316.722 317.862 313.902 316.561 311.671V306.717H310.999C305.694 306.717 301.394 312.57 301.394 319.791C301.394 327.011 305.694 332.864 310.999 332.864H316.561V327.91C317.862 325.679 318.641 322.859 318.641 319.791Z" fill="#263238" stroke="#263238" stroke-miterlimit="10" stroke-linecap="round" stroke-linejoin="round"/>
<path d="M316.959 332.864C321.214 332.864 324.663 327.021 324.663 319.813C324.663 312.605 321.214 306.762 316.959 306.762C312.704 306.762 309.255 312.605 309.255 319.813C309.255 327.021 312.704 332.864 316.959 332.864Z" fill="#263238" stroke="#263238" stroke-miterlimit="10" stroke-linecap="round" stroke-linejoin="round"/>
<path d="M316.959 329.845C320.23 329.845 322.881 325.354 322.881 319.813C322.881 314.272 320.23 309.78 316.959 309.78C313.688 309.78 311.037 314.272 311.037 319.813C311.037 325.354 313.688 329.845 316.959 329.845Z" fill="white" stroke="#263238" stroke-miterlimit="10" stroke-linecap="round" stroke-linejoin="round"/>
<path d="M242.674 319.541C242.674 316.413 241.88 313.539 240.555 311.267V306.217H232.885C227.48 306.217 223.097 312.182 223.097 319.541C223.097 326.899 227.48 332.864 232.885 332.864H240.555V327.815C241.881 325.542 242.674 322.668 242.674 319.541Z" fill="#263238" stroke="#263238" stroke-miterlimit="10" stroke-linecap="round" stroke-linejoin="round"/>
<path d="M240.555 332.864C245.961 332.864 250.343 326.899 250.343 319.541C250.343 312.182 245.961 306.217 240.555 306.217C235.149 306.217 230.766 312.182 230.766 319.541C230.766 326.899 235.149 332.864 240.555 332.864Z" fill="#263238" stroke="#263238" stroke-miterlimit="10" stroke-linecap="round" stroke-linejoin="round"/>
<path d="M240.555 329.782C244.71 329.782 248.079 325.197 248.079 319.541C248.079 313.884 244.71 309.299 240.555 309.299C236.399 309.299 233.03 313.884 233.03 319.541C233.03 325.197 236.399 329.782 240.555 329.782Z" fill="white" stroke="#263238" stroke-miterlimit="10" stroke-linecap="round" stroke-linejoin="round"/>
<path d="M285.282 306.762C285.149 306.762 285.017 306.767 284.885 306.779V306.717H279.323C274.018 306.717 269.718 312.57 269.718 319.791C269.718 327.011 274.018 332.864 279.323 332.864H284.885V332.847C285.017 332.858 285.149 332.864 285.282 332.864C289.537 332.864 292.987 327.021 292.987 319.813C292.987 312.605 289.538 306.762 285.282 306.762Z" fill="#263238" stroke="#263238" stroke-miterlimit="10" stroke-linecap="round" stroke-linejoin="round"/>
<path d="M196.875 306.217H189.206C183.8 306.217 179.417 312.182 179.417 319.541C179.417 326.899 183.8 332.864 189.206 332.864H196.875C202.281 332.864 206.663 326.899 206.663 319.541C206.663 312.182 202.281 306.217 196.875 306.217Z" fill="#263238" stroke="#263238" stroke-miterlimit="10" stroke-linecap="round" stroke-linejoin="round"/>
<path d="M334.089 309.843C333.726 308.03 333.907 307.849 332.276 305.855C330.644 303.861 330.282 302.592 330.282 302.592C330.282 302.592 331.188 298.423 331.188 297.154C331.188 295.886 329.194 296.248 329.194 296.248C329.194 296.248 328.65 294.254 327.2 293.528C325.75 292.803 324.48 292.441 321.037 290.447C317.593 288.453 309.734 283.201 307.377 282.113C305.02 281.026 301.95 277.083 286.051 276.127C274.7 275.444 257.955 275.384 257.955 275.384C257.955 275.384 251.791 275.202 245.991 275.746C242.854 276.04 240.048 275.833 232.27 277.778C227.768 278.903 202.599 289.877 202.599 289.877C202.599 289.877 179.733 296.263 177.26 298.117C174.789 299.971 174.376 303.473 174.376 303.473C174.376 303.473 171.286 305.739 171.492 306.975C171.698 308.211 171.698 309.035 171.698 309.035V325.368H174.252L176.002 324.367H205.261L207.512 325.368H228.349H229.242C229.172 324.545 229.133 322.206 229.133 321.352C229.133 311.091 234.368 302.772 240.824 302.772C247.281 302.772 252.516 311.091 252.516 321.352C252.516 322.206 252.477 323.044 252.407 323.867H307.071C307.054 323.455 307.043 323.041 307.043 322.621C307.043 313.06 311.434 305.31 316.849 305.31C322.264 305.31 326.654 313.061 326.654 322.621C326.654 323.041 326.643 323.455 326.626 323.867H332.38C334.118 322.847 332.818 320.537 332.818 320.537C332.818 320.537 334.452 311.655 334.089 309.843Z" fill="white" stroke="#263238" stroke-miterlimit="10" stroke-linecap="round" stroke-linejoin="round"/>
<path d="M260.131 284.447C260.131 284.447 248.893 291.897 249.074 292.441C249.255 292.984 255.6 293.891 257.232 293.891C258.863 293.891 307.987 293.891 307.987 293.891C307.987 293.891 314.15 292.622 315.057 291.534C315.963 290.447 302.368 281.927 297.474 280.296C292.58 278.665 283.038 278.779 273.365 279.553C266.137 280.132 260.131 284.447 260.131 284.447Z" fill="#263238" stroke="#263238" stroke-miterlimit="10" stroke-linecap="round" stroke-linejoin="round"/>
<path d="M286.325 299.692H281.249C280.699 299.692 280.252 299.246 280.252 298.695C280.252 298.144 280.699 297.698 281.249 297.698H286.325C286.875 297.698 287.321 298.144 287.321 298.695C287.321 299.246 286.875 299.692 286.325 299.692Z" stroke="#263238" stroke-miterlimit="10" stroke-linecap="round" stroke-linejoin="round"/>
<path d="M308.892 299.692H303.817C303.266 299.692 302.82 299.246 302.82 298.695C302.82 298.144 303.266 297.698 303.817 297.698H308.892C309.443 297.698 309.889 298.144 309.889 298.695C309.89 299.246 309.443 299.692 308.892 299.692Z" stroke="#263238" stroke-miterlimit="10" stroke-linecap="round" stroke-linejoin="round"/>
<path d="M286.778 294.436L288.953 297.698L288.772 317.275L289.86 319.451L288.772 321.988L290.222 323.62" stroke="#263238" stroke-miterlimit="10" stroke-linecap="round" stroke-linejoin="round"/>
<path d="M311.431 293.529L312.881 295.161L310.162 307.487L304.362 321.263C304.362 321.263 300.736 321.626 300.192 321.626C299.649 321.626 258.319 321.988 258.319 321.988C258.319 321.988 257.776 321.082 257.232 319.994C256.687 318.906 254.875 303.861 254.875 300.417C254.875 296.973 253.243 294.073 253.243 294.073" stroke="#263238" stroke-miterlimit="10" stroke-linecap="round" stroke-linejoin="round"/>
<path d="M202.887 290.266H237.473C237.473 290.266 242.549 290.629 246.717 287.91C250.886 285.191 253.424 284.267 257.231 281.911C261.037 279.554 262.488 278.829 262.488 278.829C262.488 278.829 249.618 277.741 242.186 277.741C234.753 277.741 231.491 278.648 231.491 278.648L202.887 290.266Z" fill="#263238" stroke="#263238" stroke-miterlimit="10" stroke-linecap="round" stroke-linejoin="round"/>
<path d="M230.279 297.196C230.279 297.196 234.573 296.611 235.298 296.248C236.023 295.886 239.648 291.716 239.648 291.716" stroke="#263238" stroke-miterlimit="10" stroke-linecap="round" stroke-linejoin="round"/>
<path d="M213.102 299.554L230.279 297.196C230.279 297.196 218.042 304.606 216.246 304.606C214.449 304.606 201.089 305.055 201.089 305.055L204.457 302.135L208.387 300.115L213.102 299.554Z" fill="#666666" stroke="#263238" stroke-miterlimit="10" stroke-linecap="round" stroke-linejoin="round"/>
<path d="M227.944 298.586L221.018 299.452L216.017 302.786L202.705 303.655L201.089 305.055C201.089 305.055 214.449 304.606 216.246 304.606C217.544 304.606 224.301 300.732 227.944 298.586Z" fill="white" stroke="#263238" stroke-miterlimit="10" stroke-linecap="round" stroke-linejoin="round"/>
<path d="M177.289 301.799L176.391 304.718L174.379 303.474C174.379 303.474 174.341 301.432 175.83 300.003L177.289 301.799Z" fill="#666666" stroke="#263238" stroke-miterlimit="10" stroke-linecap="round" stroke-linejoin="round"/>
<path d="M176.623 303.963L174.467 302.637C174.374 303.134 174.379 303.474 174.379 303.474L176.391 304.718L176.623 303.963Z" fill="white" stroke="#263238" stroke-miterlimit="10" stroke-linecap="round" stroke-linejoin="round"/>
<path d="M175.829 300.003C175.829 300.003 177.288 302.135 181.555 303.258L182.453 306.963H185.596L188.515 303.707C188.515 303.707 209.958 301.349 210.519 301.125C211.08 300.9 213.101 299.554 213.101 299.554C213.101 299.554 189.412 301.238 188.739 301.238C188.065 301.238 182.003 300.901 182.003 300.901L176.502 298.992L175.829 300.003Z" fill="#263238" stroke="#263238" stroke-miterlimit="10" stroke-linecap="round" stroke-linejoin="round"/>
<path d="M216.954 319.506C216.954 320.436 215.974 321.19 214.765 321.19C213.556 321.19 212.575 320.436 212.575 319.506C212.575 318.576 213.556 317.822 214.765 317.822C215.974 317.823 216.954 318.577 216.954 319.506Z" fill="#263238" stroke="#263238" stroke-miterlimit="10" stroke-linecap="round" stroke-linejoin="round"/>
<path d="M331.189 297.154C331.189 295.886 330.012 296.307 329.195 296.248L325.57 297.154L324.844 299.692L330.282 302.592C330.282 302.592 331.189 298.423 331.189 297.154Z" fill="#263238" stroke="#263238" stroke-miterlimit="10" stroke-linecap="round" stroke-linejoin="round"/>
<path d="M319.041 294.858C321.882 294.779 324.369 294.75 326.384 294.784" stroke="#263238" stroke-miterlimit="10" stroke-linecap="round" stroke-linejoin="round"/>
<path d="M264.02 298.305C279.864 297.058 300.91 295.532 315.363 294.981" stroke="#263238" stroke-miterlimit="10" stroke-linecap="round" stroke-linejoin="round"/>
<path d="M245.997 299.778C249.369 299.491 254.664 299.049 261.011 298.543" stroke="#263238" stroke-miterlimit="10" stroke-linecap="round" stroke-linejoin="round"/>
<path d="M242.025 300.119C242.025 300.119 242.87 300.046 244.398 299.914" stroke="#263238" stroke-miterlimit="10" stroke-linecap="round" stroke-linejoin="round"/>
<path d="M175.717 307.3H195.813L200.528 309.882L206.815 320.098L200.64 321.895H173.247L172.012 318.751L172.686 309.096L175.717 307.3Z" fill="#263238" stroke="#263238" stroke-miterlimit="10" stroke-linecap="round" stroke-linejoin="round"/>
<path d="M191.098 309.769H175.829V316.169H191.098V309.769Z" fill="white"/>
<path d="M199.99 310.813H193.175" stroke="#737373" stroke-miterlimit="10" stroke-linecap="round" stroke-linejoin="round"/>
<path d="M201.783 313.324H193.534" stroke="#737373" stroke-miterlimit="10" stroke-linecap="round" stroke-linejoin="round"/>
<path d="M203.577 315.835H193.534" stroke="#737373" stroke-miterlimit="10" stroke-linecap="round" stroke-linejoin="round"/>
<path d="M205.37 318.345H183.85" stroke="#737373" stroke-miterlimit="10" stroke-linecap="round" stroke-linejoin="round"/>
<path d="M205.37 320.599H173.374" stroke="#737373" stroke-miterlimit="10" stroke-linecap="round" stroke-linejoin="round"/>
<path d="M268.806 287.074H260.447C258.361 288.181 256.7 289.312 256.779 290.2C256.981 292.452 257.779 293.327 258.78 293.327C259.78 293.327 267.115 293.327 267.115 293.327C267.115 293.327 270.783 291.242 270.45 289.159C270.324 288.37 269.626 287.657 268.806 287.074Z" fill="white" stroke="#263238" stroke-miterlimit="10" stroke-linecap="round" stroke-linejoin="round"/>
<path d="M256.779 290.2H267.533" stroke="#263238" stroke-miterlimit="10" stroke-linecap="round" stroke-linejoin="round"/>
<path d="M258.78 293.326L259.28 296.035L260.007 296.757L262.281 296.286C262.281 296.286 261.281 296.536 261.53 293.285L258.78 293.326Z" fill="#263238" stroke="#263238" stroke-miterlimit="10" stroke-linecap="round" stroke-linejoin="round"/>
<path d="M203.768 310.424H228.199" stroke="#263238" stroke-miterlimit="10" stroke-linecap="round" stroke-linejoin="round"/>
<path d="M207.152 322.007H216.919L218.552 320.852L215.777 310.01L207.825 306.29L215.363 311.045L217.705 319.65L215.516 321.334L207.152 322.007Z" fill="#263238" stroke="#263238" stroke-miterlimit="10" stroke-linecap="round" stroke-linejoin="round"/>
<path d="M14.156 332.864H341.283" stroke="#263238" stroke-miterlimit="10" stroke-linecap="round" stroke-linejoin="round"/>
</svg>
