<svg width="250" height="251" viewBox="0 0 250 251" fill="none" xmlns="http://www.w3.org/2000/svg">
<path opacity="0.7" d="M33.9654 83.9309C33.9654 83.9309 20.0269 119.925 39.6139 156.182C59.2009 192.44 99.5534 211.583 131.848 227.956C164.143 244.329 197.679 236.356 213.615 209.537C229.552 182.719 207.693 163.573 207.667 125.328C207.641 87.0834 213.39 76.9574 192.685 44.6464C171.98 12.3349 121.156 5.18391 82.7354 29.1484C44.3154 53.1129 33.9654 83.9309 33.9654 83.9309Z" fill="white"/>
<path d="M66.0219 214.174C77.8219 226.632 106.792 222.069 119.34 214.174C160.069 188.547 231.462 145.89 234.694 84.0901C236.067 57.8221 212.905 44.0296 203.227 39.9831C179.986 30.2656 154.489 27.3486 129.323 26.2231C103.038 25.0476 74.8419 25.9631 51.1679 38.7876C42.2009 43.6451 33.7414 49.875 27.9504 58.3796C22.0679 67.0186 18.6834 77.3066 17.7854 87.6911C16.3374 104.442 20.8439 121.237 27.6584 136.607C34.4729 151.977 43.5609 166.209 51.9019 180.807C57.3439 190.331 56.0804 203.679 66.0219 214.174Z" fill="#FE8428"/>
<path opacity="0.7" d="M66.0219 214.174C77.8219 226.632 106.792 222.069 119.34 214.174C160.069 188.547 231.462 145.89 234.694 84.0901C236.067 57.8221 212.905 44.0296 203.227 39.9831C179.986 30.2656 154.489 27.3486 129.323 26.2231C103.038 25.0476 74.8419 25.9631 51.1679 38.7876C42.2009 43.6451 33.7414 49.875 27.9504 58.3796C22.0679 67.0186 18.6834 77.3066 17.7854 87.6911C16.3374 104.442 20.8439 121.237 27.6584 136.607C34.4729 151.977 43.5609 166.209 51.9019 180.807C57.3439 190.331 56.0804 203.679 66.0219 214.174Z" fill="white"/>
<path d="M65.116 87.9292L41.216 80.6868C40.2885 80.4058 39.764 79.4257 40.0455 78.4977L44.31 64.4252C44.591 63.4977 45.571 62.9732 46.499 63.2547L70.399 70.4972C71.3265 70.7782 71.851 71.7582 71.5695 72.6857L67.305 86.7582C67.0235 87.6857 66.0435 88.2102 65.116 87.9292Z" stroke="#263238" stroke-miterlimit="10"/>
<path d="M43.5881 66.8062L70.8476 75.0661" stroke="#263238" stroke-miterlimit="10"/>
<path d="M42.7585 69.5439L70.018 77.8044" stroke="#263238" stroke-miterlimit="10"/>
<path d="M61.7264 82.9189C61.5799 83.4024 61.6489 83.8984 61.8799 84.3084C61.4914 84.5039 61.0214 84.5549 60.5669 84.4174C59.6289 84.1334 59.0974 83.1464 59.3814 82.2089C59.6654 81.2709 60.6569 80.7409 61.5949 81.0249C62.0494 81.1629 62.4109 81.4709 62.6254 81.8489C62.2054 82.0609 61.8724 82.4354 61.7264 82.9189Z" stroke="#263238" stroke-miterlimit="10"/>
<path d="M65.1211 83.9454C64.8371 84.8824 63.8471 85.4124 62.9096 85.1284C61.9721 84.8444 61.4426 83.8544 61.7266 82.9169C62.0106 81.9794 63.0006 81.4499 63.9381 81.7339C64.8751 82.0184 65.4046 83.0084 65.1211 83.9454Z" stroke="#263238" stroke-miterlimit="10"/>
<path d="M229.077 119.588L209.253 113.581C208.326 113.3 207.801 112.32 208.083 111.392L211.557 99.9257C211.838 98.9982 212.818 98.4737 213.746 98.7552L233.57 104.762C234.497 105.043 235.022 106.023 234.74 106.951L231.266 118.417C230.985 119.345 230.005 119.869 229.077 119.588Z" stroke="#263238" stroke-miterlimit="10"/>
<path d="M211.019 101.699L234.203 108.724" stroke="#263238" stroke-miterlimit="10"/>
<path d="M210.314 104.028L233.497 111.053" stroke="#263238" stroke-miterlimit="10"/>
<path d="M226.446 115.403C226.321 115.814 226.38 116.236 226.576 116.584C226.246 116.751 225.846 116.794 225.46 116.677C224.662 116.435 224.21 115.596 224.452 114.798C224.693 114.001 225.537 113.55 226.334 113.791C226.721 113.908 227.028 114.17 227.211 114.492C226.853 114.673 226.57 114.992 226.446 115.403Z" stroke="#263238" stroke-miterlimit="10"/>
<path d="M229.332 116.276C229.091 117.073 228.249 117.523 227.452 117.282C226.655 117.04 226.204 116.198 226.446 115.401C226.687 114.604 227.529 114.154 228.326 114.395C229.123 114.637 229.574 115.479 229.332 116.276Z" stroke="#263238" stroke-miterlimit="10"/>
<path d="M201.834 49.9932L172.892 63.2451L179.785 78.2996L208.727 65.0478L201.834 49.9932Z" stroke="#263238" stroke-miterlimit="10"/>
<path d="M206.244 62.8639L201.864 53.2984C201.012 53.6889 200.005 53.3139 199.614 52.4619L176.221 63.1734C176.612 64.0259 176.237 65.0329 175.385 65.4234L179.765 74.9884C180.617 74.5979 181.624 74.9729 182.015 75.8249L205.408 65.1134C205.017 64.2619 205.392 63.2544 206.244 62.8639Z" stroke="#263238" stroke-miterlimit="10"/>
<path d="M193.463 67.5967C195.369 66.1327 195.727 63.4009 194.263 61.4951C192.799 59.5893 190.067 59.2312 188.161 60.6953C186.256 62.1593 185.898 64.8911 187.362 66.7969C188.826 68.7027 191.558 69.0608 193.463 67.5967Z" stroke="#263238" stroke-miterlimit="10"/>
<path d="M191.995 66.2577L192.321 66.9682L192.012 67.1097L191.689 66.4052C191.069 66.6517 190.399 66.6892 189.954 66.5192L189.972 66.0847C190.384 66.2327 190.975 66.2167 191.508 66.0097L190.764 64.3842C190.007 64.5287 189.219 64.6357 188.845 63.8197C188.574 63.2262 188.765 62.5182 189.677 62.0107L189.351 61.2997L189.66 61.1582L189.983 61.8627C190.455 61.6692 190.98 61.5927 191.413 61.6717L191.425 62.1072C190.977 62.0432 190.528 62.1072 190.161 62.2522L190.911 63.8902C191.685 63.7372 192.512 63.5982 192.891 64.4267C193.166 65.0262 192.953 65.7522 191.995 66.2577ZM190.566 63.9517L189.858 62.4067C189.247 62.7537 189.112 63.2117 189.291 63.6012C189.506 64.0707 189.999 64.0537 190.566 63.9517ZM192.452 64.6582C192.228 64.1702 191.701 64.2097 191.11 64.3232L191.817 65.8682C192.474 65.5077 192.633 65.0537 192.452 64.6582Z" fill="#263238"/>
<path d="M41.5012 118.311L19.3296 120.227L20.3262 131.76L42.4979 129.844L41.5012 118.311Z" stroke="#263238" stroke-miterlimit="10"/>
<path d="M41.3765 127.819L40.743 120.492C40.09 120.548 39.515 120.065 39.4585 119.412L21.5385 120.961C21.595 121.614 21.1115 122.189 20.4585 122.246L21.092 129.573C21.745 129.517 22.32 130 22.3765 130.653L40.2965 129.104C40.24 128.451 40.724 127.876 41.3765 127.819Z" stroke="#263238" stroke-miterlimit="10"/>
<path d="M33.9485 124.77C34.093 126.444 32.8535 127.918 31.1795 128.063C29.5055 128.208 28.031 126.968 27.8865 125.294C27.7415 123.62 28.9815 122.146 30.6555 122.001C32.3295 121.857 33.804 123.096 33.9485 124.77Z" stroke="#263238" stroke-miterlimit="10"/>
<path d="M31.1981 126.701L31.2451 127.245L31.0086 127.266L30.9621 126.726C30.4961 126.743 30.0456 126.61 29.7931 126.393L29.9071 126.112C30.1431 126.306 30.5361 126.434 30.9361 126.423L30.8286 125.178C30.2966 125.095 29.7526 124.98 29.6986 124.355C29.6591 123.901 29.9521 123.48 30.6716 123.36L30.6246 122.816L30.8611 122.795L30.9076 123.335C31.2641 123.318 31.6281 123.392 31.8941 123.545L31.8001 123.835C31.5201 123.687 31.2096 123.624 30.9336 123.633L31.0421 124.888C31.5881 124.969 32.1646 125.072 32.2196 125.707C32.2586 126.166 31.9471 126.593 31.1981 126.701ZM30.7991 124.847L30.6966 123.663C30.2126 123.748 30.0161 124.018 30.0421 124.316C30.0736 124.676 30.4026 124.781 30.7991 124.847ZM31.8746 125.755C31.8421 125.381 31.4856 125.283 31.0701 125.219L31.1726 126.403C31.6896 126.32 31.9006 126.058 31.8746 125.755Z" fill="#263238"/>
<path d="M222.165 56.745C224.569 56.745 226.517 54.7968 226.517 52.3935C226.517 49.9902 224.569 48.042 222.165 48.042C219.762 48.042 217.814 49.9902 217.814 52.3935C217.814 54.7968 219.762 56.745 222.165 56.745Z" stroke="#263238" stroke-miterlimit="10"/>
<path d="M222.36 54.8072V55.5887H222.02V54.8137C221.353 54.7797 220.728 54.5347 220.395 54.1952L220.592 53.8077C220.905 54.1137 221.449 54.3447 222.02 54.3787V52.5907C221.272 52.4072 220.51 52.1762 220.51 51.2787C220.51 50.6262 220.979 50.0617 222.02 49.9802V49.1987H222.36V49.9737C222.87 49.9942 223.379 50.1437 223.74 50.3952L223.57 50.7962C223.189 50.5517 222.754 50.4227 222.36 50.4022V52.2037C223.128 52.3872 223.937 52.6047 223.937 53.5157C223.937 54.1752 223.44 54.7462 222.36 54.8072ZM222.02 52.1152V50.4157C221.32 50.4772 221.007 50.8372 221.007 51.2657C221.007 51.7822 221.462 51.9722 222.02 52.1152ZM223.44 53.5427C223.44 53.0057 222.944 52.8222 222.36 52.6792V54.3787C223.107 54.3242 223.44 53.9777 223.44 53.5427Z" fill="#263238"/>
<path d="M193.514 110.578C195.853 110.027 197.302 107.683 196.751 105.344C196.199 103.005 193.856 101.556 191.517 102.107C189.178 102.659 187.729 105.002 188.28 107.341C188.831 109.68 191.174 111.129 193.514 110.578Z" stroke="#263238" stroke-miterlimit="10"/>
<path d="M191.423 108.505L191.013 109.171L190.724 108.993L191.129 108.333C190.579 107.955 190.175 107.419 190.069 106.955L190.44 106.728C190.546 107.152 190.888 107.634 191.357 107.962L192.293 106.439C191.752 105.891 191.225 105.296 191.694 104.531C192.036 103.975 192.731 103.74 193.66 104.216L194.069 103.55L194.359 103.728L193.953 104.388C194.377 104.672 194.733 105.066 194.908 105.47L194.553 105.722C194.357 105.314 194.054 104.977 193.729 104.753L192.785 106.287C193.343 106.846 193.919 107.455 193.442 108.231C193.097 108.792 192.375 109.019 191.423 108.505ZM192.543 106.034L193.433 104.586C192.804 104.271 192.349 104.414 192.125 104.779C191.854 105.219 192.143 105.62 192.543 106.034ZM193.005 107.994C193.286 107.536 192.96 107.12 192.537 106.692L191.647 108.14C192.312 108.485 192.778 108.364 193.005 107.994Z" fill="#263238"/>
<path d="M130.092 22.3812C131.091 24.5672 130.128 27.1487 127.942 28.1477C125.756 29.1467 123.175 28.1842 122.176 25.9982C121.177 23.8122 122.139 21.2302 124.325 20.2317C126.511 19.2327 129.093 20.1952 130.092 22.3812Z" stroke="#263238" stroke-miterlimit="10"/>
<path d="M127.313 26.3041L127.638 27.0151L127.329 27.1566L127.007 26.4516C126.386 26.6976 125.716 26.7346 125.272 26.5641L125.29 26.1296C125.702 26.2781 126.292 26.2621 126.826 26.0556L126.083 24.4296C125.327 24.5736 124.538 24.6796 124.165 23.8636C123.894 23.2701 124.086 22.5616 124.998 22.0556L124.673 21.3446L124.982 21.2031L125.304 21.9081C125.776 21.7151 126.302 21.6391 126.735 21.7181L126.747 22.1531C126.299 22.0891 125.849 22.1521 125.482 22.2976L126.231 23.9361C127.006 23.7841 127.832 23.6456 128.211 24.4741C128.484 25.0736 128.27 25.7991 127.313 26.3041ZM125.885 23.9966L125.178 22.4511C124.567 22.7981 124.432 23.2556 124.61 23.6451C124.825 24.1151 125.318 24.0986 125.885 23.9966ZM127.77 24.7046C127.547 24.2161 127.019 24.2556 126.428 24.3686L127.134 25.9141C127.792 25.5541 127.951 25.1006 127.77 24.7046Z" fill="#263238"/>
<path d="M115.44 198.552C116.94 201.835 115.495 205.712 112.212 207.212C108.929 208.712 105.052 207.266 103.552 203.984C102.052 200.701 103.498 196.824 106.78 195.324C110.063 193.825 113.94 195.27 115.44 198.552Z" stroke="#263238" stroke-miterlimit="10"/>
<path d="M111.267 204.443L111.755 205.511L111.291 205.723L110.808 204.664C109.876 205.034 108.87 205.089 108.202 204.833L108.23 204.181C108.847 204.404 109.735 204.38 110.536 204.07L109.421 201.628C108.284 201.844 107.101 202.003 106.541 200.778C106.133 199.886 106.422 198.823 107.792 198.063L107.304 196.995L107.768 196.783L108.251 197.842C108.96 197.552 109.75 197.438 110.399 197.556L110.417 198.21C109.744 198.113 109.07 198.208 108.519 198.426L109.643 200.887C110.806 200.658 112.047 200.45 112.616 201.694C113.027 202.595 112.705 203.685 111.267 204.443ZM109.123 200.978L108.062 198.657C107.144 199.178 106.941 199.865 107.209 200.45C107.531 201.156 108.272 201.131 109.123 200.978ZM111.954 202.042C111.619 201.309 110.827 201.367 109.939 201.537L111 203.858C111.987 203.317 112.225 202.636 111.954 202.042Z" fill="#263238"/>
<path d="M21.8275 97.0007C19.1165 99.3827 14.9875 99.1157 12.6055 96.4047C10.2235 93.6937 10.4905 89.5647 13.2015 87.1827C15.9125 84.8007 20.0415 85.0677 22.4235 87.7787C24.806 90.4897 24.539 94.6187 21.8275 97.0007Z" stroke="#263238" stroke-miterlimit="10"/>
<path d="M14.9845 94.702L14.1025 95.477L13.7655 95.0935L14.6395 94.3255C14.017 93.54 13.674 92.592 13.727 91.879L14.3595 91.7175C14.324 92.373 14.6025 93.216 15.1305 93.894L17.1475 92.122C16.613 91.096 16.1195 90.0085 17.1315 89.119C17.8675 88.472 18.9695 88.4425 20.092 89.535L20.974 88.76L21.311 89.1435L20.437 89.9115C20.919 90.507 21.256 91.23 21.329 91.886L20.7085 92.0915C20.607 91.4195 20.3215 90.8005 19.954 90.336L17.9215 92.1215C18.4755 93.17 19.032 94.2985 18.0045 95.201C17.2605 95.8545 16.1245 95.8605 14.9845 94.702ZM17.6845 91.6505L19.6015 89.966C18.8385 89.237 18.122 89.2405 17.6385 89.6655C17.056 90.1775 17.293 90.88 17.6845 91.6505ZM17.482 94.6675C18.0875 94.1355 17.803 93.3935 17.385 92.593L15.468 94.2775C16.27 95.067 16.991 95.099 17.482 94.6675Z" fill="#263238"/>
<path d="M50.7055 149.952C51.821 151.291 51.64 153.28 50.301 154.396C48.962 155.511 46.9725 155.33 45.857 153.991C44.7415 152.652 44.9225 150.663 46.2615 149.547C47.6005 148.432 49.59 148.613 50.7055 149.952Z" stroke="#263238" stroke-miterlimit="10"/>
<path d="M49.5095 153.226L49.8725 153.662L49.683 153.819L49.323 153.388C48.936 153.678 48.474 153.832 48.1305 153.797L48.0605 153.49C48.3765 153.515 48.787 153.391 49.121 153.145L48.291 152.149C47.789 152.394 47.2575 152.619 46.841 152.119C46.538 151.755 46.5375 151.223 47.079 150.695L46.716 150.259L46.9055 150.102L47.265 150.533C47.5585 150.308 47.912 150.155 48.2295 150.128L48.321 150.43C47.9955 150.47 47.693 150.6 47.464 150.772L48.3 151.775C48.813 151.521 49.365 151.267 49.7875 151.774C50.0945 152.142 50.083 152.691 49.5095 153.226ZM48.0705 151.884L47.2815 150.937C46.92 151.296 46.9125 151.642 47.1115 151.881C47.3515 152.169 47.6935 152.063 48.0705 151.884ZM49.5245 152.02C49.2755 151.721 48.9135 151.849 48.522 152.041L49.311 152.988C49.702 152.61 49.7265 152.263 49.5245 152.02Z" fill="#263238"/>
<path d="M148.793 214.972C149.908 216.311 149.727 218.3 148.388 219.416C147.049 220.531 145.06 220.35 143.944 219.011C142.829 217.672 143.01 215.683 144.349 214.567C145.688 213.452 147.677 213.633 148.793 214.972Z" stroke="#263238" stroke-miterlimit="10"/>
<path d="M147.597 218.246L147.96 218.682L147.77 218.839L147.411 218.408C147.024 218.698 146.562 218.852 146.218 218.817L146.148 218.51C146.464 218.535 146.875 218.411 147.209 218.165L146.379 217.169C145.877 217.414 145.346 217.639 144.929 217.139C144.626 216.775 144.625 216.243 145.167 215.715L144.804 215.279L144.994 215.121L145.353 215.553C145.647 215.328 146 215.175 146.318 215.148L146.409 215.45C146.084 215.49 145.781 215.62 145.552 215.792L146.388 216.795C146.901 216.541 147.453 216.287 147.876 216.794C148.182 217.162 148.17 217.711 147.597 218.246ZM146.158 216.904L145.369 215.957C145.007 216.316 145 216.662 145.199 216.901C145.439 217.189 145.781 217.083 146.158 216.904ZM147.612 217.04C147.363 216.741 147.001 216.869 146.609 217.061L147.398 218.008C147.789 217.63 147.814 217.283 147.612 217.04Z" fill="#263238"/>
<path d="M61.7297 32.9219C62.8452 34.2609 62.6642 36.2504 61.3252 37.3659C59.9862 38.4814 57.9967 38.3004 56.8812 36.9614C55.7657 35.6224 55.9467 33.6329 57.2857 32.5174C58.6242 31.4019 60.6142 31.5829 61.7297 32.9219Z" stroke="#263238" stroke-miterlimit="10"/>
<path d="M60.5331 36.1963L60.8961 36.6318L60.7066 36.7893L60.3471 36.3578C59.9601 36.6483 59.4981 36.8018 59.1546 36.7673L59.0846 36.4598C59.4006 36.4853 59.8111 36.3613 60.1451 36.1153L59.3151 35.1193C58.8131 35.3643 58.2816 35.5888 57.8651 35.0888C57.5621 34.7253 57.5616 34.1933 58.1036 33.6648L57.7406 33.2293L57.9301 33.0713L58.2896 33.5033C58.5831 33.2783 58.9366 33.1248 59.2541 33.0978L59.3456 33.3998C59.0196 33.4403 58.7176 33.5703 58.4886 33.7418L59.3246 34.7453C59.8376 34.4913 60.3896 34.2368 60.8121 34.7443C61.1186 35.1123 61.1066 35.6608 60.5331 36.1963ZM59.0946 34.8543L58.3056 33.9073C57.9441 34.2663 57.9366 34.6123 58.1356 34.8508C58.3756 35.1388 58.7176 35.0333 59.0946 34.8543ZM60.5481 34.9903C60.2991 34.6913 59.9371 34.8193 59.5456 35.0108L60.3346 35.9578C60.7256 35.5803 60.7501 35.2328 60.5481 34.9903Z" fill="#263238"/>
<path opacity="0.2" d="M130.404 164.291C130.404 164.291 126.551 183.86 102.906 188.272C102.906 188.272 96.7309 193.197 94.6759 196.114C92.6209 199.031 81.6579 203.985 70.5239 219.442C59.3899 234.899 42.7744 185.808 42.7744 185.808L79.4634 138.156L130.404 164.291Z" fill="black" fill-opacity="0.7"/>
<path d="M151.421 72.4249C151.421 72.4249 164.172 66.1929 166.977 67.2689C169.782 68.3449 172.46 74.7919 161.749 80.9679C151.039 87.1439 154.226 98.6484 154.226 98.6484H161.877C161.877 98.6484 166.467 100.519 168.252 102.92C170.037 105.322 171.312 113.527 172.332 116.31C173.352 119.092 172.842 121.872 170.037 122.777C170.037 122.777 168.252 130.558 168.762 134.006C169.272 137.453 169.017 139.678 165.702 140.096C162.387 140.514 159.072 137.699 159.327 134.006L156.777 143.245L158.562 146.797C158.562 146.797 161.877 147.909 165.447 150.969C169.017 154.029 172.588 154.864 171.568 158.272C170.548 161.679 168.508 165.357 157.797 161.095C147.086 156.834 138.161 140.095 138.161 140.095L131.727 81.7259L151.421 72.4249Z" fill="white"/>
<path opacity="0.4" d="M164.842 105.958C159.06 113.839 165.455 122.911 165.455 122.911C165.455 122.911 161.456 125.142 161.342 130.833C161.297 133.196 161.892 136.505 162.601 139.564C160.615 138.6 159.152 136.505 159.329 134.005L156.774 143.245L158.56 146.795C158.56 146.795 160.933 147.59 163.819 149.685C162.233 153.326 161.751 157.825 161.892 162.466C160.692 162.157 159.333 161.711 157.797 161.098C147.084 156.835 138.162 140.095 138.162 140.095L131.727 81.7243L151.42 72.4253C151.42 72.4253 158.388 69.0213 163.155 67.6758C162.787 72.1388 163.664 76.7523 164.287 79.3248C163.541 79.8748 162.696 80.4248 161.751 80.9698C151.038 87.1418 154.224 98.6498 154.224 98.6498H161.878C161.878 98.6498 166.241 100.427 168.109 102.745C167.055 103.417 165.951 104.444 164.842 105.958Z" fill="#FE8428"/>
<path d="M131.476 154.871C131.476 154.871 117.605 182.068 92.6035 188.235C92.6035 188.235 91.649 193.617 87.4175 195.925C85.1585 197.157 76.0415 210.824 68.033 223.295L23.72 196.112C26.4515 193.412 29.5605 190.303 32.7415 187.058C41.9905 177.627 51.8575 167.033 54.88 161.829C57.5795 157.18 60.993 149.108 63.97 141.522C67.7785 131.823 70.8785 122.911 70.8785 122.911L85.659 106.481L108.897 80.6475L109.902 83.9515L131.476 154.871Z" fill="white"/>
<path opacity="0.4" d="M108.897 80.6475L131.477 154.871C131.477 154.871 117.605 182.068 92.6039 188.236C92.6039 188.236 91.6494 193.617 87.4179 195.926C85.3909 197.03 77.8369 208.156 70.5244 219.441C73.2334 210.142 81.0824 195.317 81.0824 195.317C76.0464 189.354 77.5144 183.068 79.5279 184.859C81.4779 186.6 86.6089 191.676 86.9319 191.994C84.7049 189.372 84.1914 185.268 84.1914 185.268C84.1914 185.268 90.4314 189.417 90.9359 182.75C91.4404 176.082 87.1954 159.852 87.1954 159.852L76.0739 117.139L108.897 80.6475Z" fill="#FE8428"/>
<path d="M131.727 81.7259L151.421 72.4249C151.421 72.4249 164.172 66.1929 166.977 67.2689C169.782 68.3449 172.46 74.7919 161.749 80.9679C151.039 87.1439 154.226 98.6484 154.226 98.6484H161.877C161.877 98.6484 166.467 100.519 168.252 102.92C170.037 105.322 171.312 113.527 172.332 116.31C173.352 119.092 172.842 121.872 170.037 122.777C170.037 122.777 168.252 130.558 168.762 134.006C169.272 137.453 169.017 139.678 165.702 140.096C162.387 140.514 159.072 137.699 159.327 134.006L156.777 143.245L158.562 146.797C158.562 146.797 161.877 147.909 165.447 150.969C169.017 154.029 172.588 154.864 171.568 158.272C170.548 161.679 168.508 165.357 157.797 161.095C147.086 156.834 138.161 140.095 138.161 140.095" stroke="#263238" stroke-miterlimit="10" stroke-linecap="round" stroke-linejoin="round"/>
<path d="M170.037 122.778C166.212 123.81 161.749 123.045 160.091 116.288C158.434 109.53 161.75 102.311 163.916 101.624" stroke="#263238" stroke-miterlimit="10" stroke-linecap="round" stroke-linejoin="round"/>
<path d="M159.327 134.006C159.327 134.006 159.072 125.302 162.259 123.154" stroke="#263238" stroke-miterlimit="10" stroke-linecap="round" stroke-linejoin="round"/>
<path opacity="0.4" d="M66.3109 177.241C66.3109 177.241 56.9664 176.078 54.8804 171.896C53.1534 168.438 43.8044 181.377 32.7419 187.058C41.9909 177.627 51.8579 167.033 54.8804 161.829C57.5799 157.18 60.9934 149.108 63.9704 141.522C63.9704 141.527 63.9704 141.527 63.9704 141.531C63.8204 147.822 60.4664 157.452 61.4254 162.465C61.4254 162.465 57.8259 163.356 58.5484 167.338C59.2659 171.315 66.3109 177.241 66.3109 177.241Z" fill="#FE8428"/>
<path d="M131.475 154.871C131.475 154.871 117.606 182.069 92.602 188.237C92.602 188.237 91.649 193.617 87.4185 195.926C85.1605 197.158 76.0435 210.823 68.032 223.298" stroke="#263238" stroke-miterlimit="10" stroke-linecap="round" stroke-linejoin="round"/>
<path d="M23.72 196.113C34.3975 185.558 50.8155 168.822 54.879 161.828C61.031 151.24 70.88 122.909 70.88 122.909L108.899 80.6484" stroke="#263238" stroke-miterlimit="10" stroke-linecap="round" stroke-linejoin="round"/>
<path d="M87.1965 112.921C87.1965 112.921 93.035 118.152 94.676 122.909" stroke="#263238" stroke-miterlimit="10" stroke-linecap="round" stroke-linejoin="round"/>
<path d="M156.13 177.242H93.292C91.434 177.242 89.928 175.736 89.928 173.878V40.1101C89.928 38.2521 91.434 36.7461 93.292 36.7461H156.13C157.988 36.7461 159.494 38.2521 159.494 40.1101V173.878C159.494 175.736 157.988 177.242 156.13 177.242Z" fill="#263238"/>
<path d="M138.503 40.5706L137.175 43.0096C136.884 43.5441 136.324 43.8771 135.715 43.8771H113.707C113.098 43.8771 112.538 43.5446 112.247 43.0096L110.919 40.5706C110.628 40.0361 110.068 39.7031 109.459 39.7031H94.0954C93.1774 39.7031 92.4329 40.4471 92.4329 41.3656V172.895C92.4329 173.813 93.1774 174.557 94.0954 174.557H155.326C156.244 174.557 156.988 173.813 156.988 172.895V41.3656C156.988 40.4476 156.244 39.7031 155.326 39.7031H139.962C139.354 39.7031 138.794 40.0361 138.503 40.5706Z" fill="#FE8428" stroke="#263238" stroke-miterlimit="10" stroke-linecap="round" stroke-linejoin="round"/>
<path d="M119.942 41.753C120.438 41.753 120.839 41.3512 120.839 40.8555C120.839 40.3598 120.438 39.958 119.942 39.958C119.446 39.958 119.044 40.3598 119.044 40.8555C119.044 41.3512 119.446 41.753 119.942 41.753Z" stroke="white" stroke-miterlimit="10"/>
<path d="M130.377 40.8553C130.377 41.1623 130.128 41.4113 129.821 41.4113C129.514 41.4113 129.265 41.1623 129.265 40.8553C129.265 40.5483 129.514 40.2993 129.821 40.2993C130.128 40.2993 130.377 40.5483 130.377 40.8553Z" stroke="white" stroke-miterlimit="10"/>
<path d="M127.883 40.5068H122.447C122.255 40.5068 122.099 40.6628 122.099 40.8553C122.099 41.0478 122.255 41.2038 122.447 41.2038H127.883C128.076 41.2038 128.232 41.0478 128.232 40.8553C128.232 40.6628 128.076 40.5068 127.883 40.5068Z" fill="white"/>
<path d="M103.818 43.0479H97.9551V45.5399H103.818V43.0479Z" stroke="#263238" stroke-miterlimit="10" stroke-linecap="round" stroke-linejoin="round"/>
<path d="M104.728 43.4673H103.818V45.1203H104.728V43.4673Z" stroke="#263238" stroke-miterlimit="10" stroke-linecap="round" stroke-linejoin="round"/>
<path d="M145.38 44.6362H144.339V45.5397H145.38V44.6362Z" stroke="#263238" stroke-miterlimit="10" stroke-linecap="round" stroke-linejoin="round"/>
<path d="M147.409 43.7271H146.368V45.5396H147.409V43.7271Z" stroke="#263238" stroke-miterlimit="10" stroke-linecap="round" stroke-linejoin="round"/>
<path d="M149.438 42.8188H148.398V45.5403H149.438V42.8188Z" stroke="#263238" stroke-miterlimit="10" stroke-linecap="round" stroke-linejoin="round"/>
<path d="M151.467 41.9097H150.427V45.5402H151.467V41.9097Z" stroke="#263238" stroke-miterlimit="10" stroke-linecap="round" stroke-linejoin="round"/>
<path opacity="0.5" d="M156.571 68.7695H92.8511V129.542H156.571V68.7695Z" fill="white"/>
<path d="M110.451 59.0608V60.1188C110.451 61.4208 109.823 62.1303 108.544 62.1303H107.94V65.1883H106.661V57.0493H108.544C109.823 57.0488 110.451 57.7583 110.451 59.0608ZM107.94 58.2118V60.9673H108.544C108.951 60.9673 109.172 60.7813 109.172 60.1998V58.9788C109.172 58.3973 108.951 58.2113 108.544 58.2113L107.94 58.2118Z" fill="#263238"/>
<path d="M115.033 65.1883H113.743L113.522 63.7118H111.952L111.731 65.1883H110.557L111.859 57.0493H113.731L115.033 65.1883ZM112.115 62.6068H113.348L112.743 58.4908H112.72L112.115 62.6068Z" fill="#263238"/>
<path d="M116.255 62.4903L114.639 57.0488H115.976L116.941 60.7583H116.964L117.929 57.0488H119.15L117.534 62.4903V65.1878H116.255V62.4903Z" fill="#263238"/>
<path d="M122.361 62.8278H122.384L123.244 57.0488H125.023V65.1878H123.814V59.3508H123.791L122.93 65.1878H121.721L120.791 59.4323H120.768V65.1878H119.652V57.0488H121.431L122.361 62.8278Z" fill="#263238"/>
<path d="M127.234 60.4793H128.99V61.6418H127.234V64.0258H129.444V65.1883H125.955V57.0493H129.444V58.2123H127.234V60.4793Z" fill="#263238"/>
<path d="M131.398 59.2933H131.375V65.1883H130.223V57.0493H131.828L133.119 61.9213H133.142V57.0493H134.281V65.1883H132.967L131.398 59.2933Z" fill="#263238"/>
<path d="M134.829 57.0488H138.782V58.2118H137.445V65.1883H136.166V58.2118H134.828L134.829 57.0488Z" fill="#263238"/>
<path d="M141.062 56.9565C142.306 56.9565 142.946 57.7005 142.946 59.003V59.2585H141.737V58.9215C141.737 58.34 141.504 58.1195 141.097 58.1195C140.691 58.1195 140.458 58.3405 140.458 58.9215C140.458 59.5145 140.714 59.9565 141.551 60.689C142.621 61.631 142.958 62.305 142.958 63.2355C142.958 64.5375 142.307 65.282 141.051 65.282C139.795 65.282 139.144 64.538 139.144 63.2355V62.7355H140.353V63.317C140.353 63.8985 140.609 64.108 141.016 64.108C141.423 64.108 141.679 63.8985 141.679 63.317C141.679 62.724 141.423 62.2825 140.586 61.5495C139.516 60.608 139.179 59.9335 139.179 59.0035C139.178 57.7005 139.818 56.9565 141.062 56.9565Z" fill="#263238"/>
<path d="M151.467 76.1309H97.9551V84.1274H151.467V76.1309Z" fill="white" stroke="#263238" stroke-miterlimit="10" stroke-linecap="round" stroke-linejoin="round"/>
<path d="M151.467 91.1294H97.9551V99.1259H151.467V91.1294Z" fill="white" stroke="#263238" stroke-miterlimit="10" stroke-linecap="round" stroke-linejoin="round"/>
<path d="M151.467 104.764H97.9551V112.761H151.467V104.764Z" fill="white" stroke="#263238" stroke-miterlimit="10" stroke-linecap="round" stroke-linejoin="round"/>
<path d="M123.289 115.672H97.9551V125.032H123.289V115.672Z" fill="white" stroke="#263238" stroke-miterlimit="10" stroke-linecap="round" stroke-linejoin="round"/>
<path d="M151.467 115.672H126.134V125.032H151.467V115.672Z" fill="white" stroke="#263238" stroke-miterlimit="10" stroke-linecap="round" stroke-linejoin="round"/>
<path d="M101.291 74.7384V74.9549H99.6177V72.5889H101.24V72.8054H99.8682V73.6469H101.092V73.8599H99.8682V74.7384H101.291Z" fill="#263238"/>
<path d="M104.761 73.9236V74.9546H104.521V73.9476C104.521 73.5721 104.332 73.3796 104.011 73.3796C103.646 73.3796 103.416 73.6161 103.416 74.0216V74.9546H103.176V73.9476C103.176 73.5721 102.987 73.3796 102.662 73.3796C102.301 73.3796 102.067 73.6161 102.067 74.0216V74.9546H101.828V73.1766H102.058V73.5011C102.183 73.2881 102.412 73.1631 102.71 73.1631C103.004 73.1631 103.234 73.2881 103.342 73.5381C103.471 73.3081 103.724 73.1631 104.045 73.1631C104.477 73.1631 104.761 73.4131 104.761 73.9236Z" fill="#263238"/>
<path d="M106.754 73.8526V74.9546H106.524V74.6776C106.416 74.8601 106.206 74.9716 105.912 74.9716C105.51 74.9716 105.263 74.7621 105.263 74.4546C105.263 74.1811 105.439 73.9511 105.949 73.9511H106.513V73.8431C106.513 73.5391 106.341 73.3736 106.01 73.3736C105.78 73.3736 105.563 73.4546 105.418 73.5831L105.31 73.4041C105.489 73.2521 105.753 73.1641 106.034 73.1641C106.493 73.1631 106.754 73.3931 106.754 73.8526ZM106.514 74.4206V74.1301H105.956C105.611 74.1301 105.499 74.2651 105.499 74.4476C105.499 74.6541 105.665 74.7821 105.949 74.7821C106.219 74.7821 106.419 74.6536 106.514 74.4206Z" fill="#263238"/>
<path d="M107.351 72.6158C107.351 72.5243 107.428 72.4468 107.527 72.4468C107.625 72.4468 107.703 72.5208 107.703 72.6123C107.703 72.7103 107.628 72.7883 107.527 72.7883C107.428 72.7883 107.351 72.7103 107.351 72.6158ZM107.405 73.1768H107.645V74.9548H107.405V73.1768Z" fill="#263238"/>
<path d="M108.314 72.4468H108.553V74.9548H108.314V72.4468Z" fill="#263238"/>
<path d="M102.944 80.8766V81.0931H101.271V78.7271H102.894V78.9436H101.522V79.7851H102.745V79.9981H101.522V80.8766H102.944Z" fill="#263238"/>
<path d="M106.415 80.0623V81.0933H106.175V80.0863C106.175 79.7108 105.986 79.5183 105.665 79.5183C105.3 79.5183 105.07 79.7548 105.07 80.1603V81.0933H104.83V80.0863C104.83 79.7108 104.641 79.5183 104.316 79.5183C103.955 79.5183 103.721 79.7548 103.721 80.1603V81.0933H103.482V79.3153H103.711V79.6398C103.836 79.4268 104.066 79.3018 104.364 79.3018C104.658 79.3018 104.888 79.4268 104.996 79.6768C105.124 79.4473 105.378 79.3018 105.699 79.3018C106.131 79.3018 106.415 79.5518 106.415 80.0623Z" fill="#263238"/>
<path d="M108.407 79.9907V81.0928H108.177V80.8158C108.069 80.9983 107.86 81.1097 107.565 81.1097C107.163 81.1097 106.916 80.9003 106.916 80.5928C106.916 80.3193 107.092 80.0892 107.603 80.0892H108.167V79.9812C108.167 79.6772 107.995 79.5118 107.664 79.5118C107.434 79.5118 107.218 79.5928 107.072 79.7213L106.964 79.5423C107.143 79.3903 107.407 79.3022 107.688 79.3022C108.147 79.3017 108.407 79.5312 108.407 79.9907ZM108.168 80.5587V80.2677H107.61C107.265 80.2677 107.153 80.4033 107.153 80.5853C107.153 80.7918 107.319 80.9197 107.603 80.9197C107.874 80.9202 108.073 80.7922 108.168 80.5587Z" fill="#263238"/>
<path d="M109.004 78.754C109.004 78.6625 109.082 78.585 109.18 78.585C109.278 78.585 109.356 78.659 109.356 78.7505C109.356 78.8485 109.282 78.9265 109.18 78.9265C109.082 78.9265 109.004 78.849 109.004 78.754ZM109.059 79.3155H109.299V81.0935H109.059V79.3155Z" fill="#263238"/>
<path d="M109.968 78.5854H110.208V81.0934H109.968V78.5854Z" fill="#263238"/>
<path d="M112.512 80.0623V81.0933H112.272V80.0863C112.272 79.7108 112.076 79.5183 111.738 79.5183C111.356 79.5183 111.116 79.7548 111.116 80.1603V81.0933H110.876V79.3153H111.106V79.6433C111.234 79.4268 111.474 79.3018 111.782 79.3018C112.215 79.3018 112.512 79.5518 112.512 80.0623Z" fill="#263238"/>
<path d="M114.505 79.9907V81.0928H114.276V80.8158C114.168 80.9983 113.958 81.1097 113.664 81.1097C113.262 81.1097 113.015 80.9003 113.015 80.5928C113.015 80.3193 113.191 80.0892 113.701 80.0892H114.265V79.9812C114.265 79.6772 114.093 79.5118 113.762 79.5118C113.532 79.5118 113.316 79.5928 113.17 79.7213L113.062 79.5423C113.241 79.3903 113.505 79.3022 113.786 79.3022C114.245 79.3017 114.505 79.5312 114.505 79.9907ZM114.265 80.5587V80.2677H113.707C113.363 80.2677 113.251 80.4033 113.251 80.5853C113.251 80.7918 113.417 80.9197 113.7 80.9197C113.971 80.9202 114.171 80.7922 114.265 80.5587Z" fill="#263238"/>
<path d="M118.09 80.0623V81.0933H117.85V80.0863C117.85 79.7108 117.661 79.5183 117.34 79.5183C116.975 79.5183 116.745 79.7548 116.745 80.1603V81.0933H116.505V80.0863C116.505 79.7108 116.316 79.5183 115.992 79.5183C115.63 79.5183 115.397 79.7548 115.397 80.1603V81.0933H115.157V79.3153H115.387V79.6398C115.512 79.4268 115.742 79.3018 116.039 79.3018C116.333 79.3018 116.563 79.4268 116.671 79.6768C116.8 79.4473 117.053 79.3018 117.374 79.3018C117.806 79.3018 118.09 79.5518 118.09 80.0623Z" fill="#263238"/>
<path d="M120.296 80.2783H118.809C118.836 80.6498 119.12 80.8968 119.509 80.8968C119.725 80.8968 119.918 80.8193 120.053 80.6638L120.188 80.8193C120.029 81.0083 119.783 81.1098 119.502 81.1098C118.948 81.1098 118.569 80.7313 118.569 80.2038C118.569 79.6763 118.938 79.3013 119.438 79.3013C119.938 79.3013 120.3 79.6698 120.3 80.2038C120.3 80.2243 120.296 80.2513 120.296 80.2783ZM118.809 80.0993H120.07C120.039 79.7513 119.786 79.5078 119.438 79.5078C119.093 79.5078 118.84 79.7513 118.809 80.0993Z" fill="#263238"/>
<path d="M123.773 80.1975C123.773 80.772 123.56 81.11 123.211 81.11C122.992 81.11 122.843 80.9745 122.829 80.7415C122.694 80.9745 122.451 81.11 122.153 81.11C121.673 81.11 121.315 80.745 121.315 80.235C121.315 79.728 121.674 79.3665 122.153 79.3665C122.444 79.3665 122.684 79.495 122.822 79.721V79.3795H123.042V80.6605C123.042 80.8495 123.136 80.9175 123.251 80.9175C123.461 80.9175 123.596 80.6575 123.596 80.201C123.596 79.407 123.024 78.8795 122.207 78.8795C121.379 78.8795 120.814 79.434 120.814 80.235C120.814 81.036 121.372 81.597 122.193 81.597C122.396 81.597 122.646 81.5495 122.842 81.4485L122.9 81.614C122.697 81.7185 122.42 81.7695 122.193 81.7695C121.264 81.7695 120.628 81.1305 120.628 80.235C120.628 79.336 121.274 78.707 122.207 78.707C123.124 78.707 123.773 79.312 123.773 80.1975ZM122.826 80.2345C122.826 79.8255 122.549 79.562 122.184 79.562C121.809 79.562 121.539 79.829 121.539 80.2345C121.539 80.64 121.809 80.9135 122.184 80.9135C122.549 80.914 122.826 80.647 122.826 80.2345Z" fill="#263238"/>
<path d="M125.826 80.2783H124.339C124.366 80.6498 124.65 80.8968 125.039 80.8968C125.255 80.8968 125.448 80.8193 125.583 80.6638L125.718 80.8193C125.559 81.0083 125.313 81.1098 125.032 81.1098C124.477 81.1098 124.099 80.7313 124.099 80.2038C124.099 79.6763 124.467 79.3013 124.967 79.3013C125.468 79.3013 125.829 79.6698 125.829 80.2038C125.83 80.2243 125.826 80.2513 125.826 80.2783ZM124.339 80.0993H125.6C125.569 79.7513 125.316 79.5078 124.968 79.5078C124.623 79.5078 124.37 79.7513 124.339 80.0993Z" fill="#263238"/>
<path d="M129.253 80.0623V81.0933H129.013V80.0863C129.013 79.7108 128.824 79.5183 128.503 79.5183C128.138 79.5183 127.908 79.7548 127.908 80.1603V81.0933H127.668V80.0863C127.668 79.7108 127.479 79.5183 127.155 79.5183C126.793 79.5183 126.56 79.7548 126.56 80.1603V81.0933H126.32V79.3153H126.549V79.6398C126.674 79.4268 126.904 79.3018 127.202 79.3018C127.496 79.3018 127.726 79.4268 127.834 79.6768C127.963 79.4473 128.216 79.3018 128.537 79.3018C128.969 79.3018 129.253 79.5518 129.253 80.0623Z" fill="#263238"/>
<path d="M131.245 79.9907V81.0928H131.015V80.8158C130.907 80.9983 130.698 81.1097 130.403 81.1097C130.001 81.1097 129.754 80.9003 129.754 80.5928C129.754 80.3193 129.93 80.0892 130.441 80.0892H131.005V79.9812C131.005 79.6772 130.832 79.5118 130.501 79.5118C130.271 79.5118 130.055 79.5928 129.909 79.7213L129.801 79.5423C129.98 79.3903 130.244 79.3022 130.524 79.3022C130.985 79.3017 131.245 79.5312 131.245 79.9907ZM131.006 80.5587V80.2677H130.448C130.103 80.2677 129.991 80.4033 129.991 80.5853C129.991 80.7918 130.157 80.9197 130.441 80.9197C130.711 80.9202 130.911 80.7922 131.006 80.5587Z" fill="#263238"/>
<path d="M131.843 78.754C131.843 78.6625 131.921 78.585 132.019 78.585C132.117 78.585 132.195 78.659 132.195 78.7505C132.195 78.8485 132.121 78.9265 132.019 78.9265C131.921 78.9265 131.843 78.849 131.843 78.754ZM131.898 79.3155H132.137V81.0935H131.898V79.3155Z" fill="#263238"/>
<path d="M132.805 78.5854H133.045V81.0934H132.805V78.5854Z" fill="#263238"/>
<path d="M133.56 80.9242C133.56 80.8192 133.641 80.7417 133.739 80.7417C133.837 80.7417 133.921 80.8197 133.921 80.9242C133.921 81.0287 133.837 81.1102 133.739 81.1102C133.641 81.1102 133.56 81.0292 133.56 80.9242Z" fill="#263238"/>
<path d="M134.201 80.2038C134.201 79.6733 134.586 79.3013 135.117 79.3013C135.418 79.3013 135.671 79.4193 135.813 79.6528L135.634 79.7743C135.513 79.5953 135.323 79.5108 135.117 79.5108C134.729 79.5108 134.444 79.7878 134.444 80.2038C134.444 80.6228 134.728 80.8968 135.117 80.8968C135.323 80.8968 135.513 80.8158 135.634 80.6368L135.813 80.7583C135.671 80.9883 135.418 81.1098 135.117 81.1098C134.586 81.1098 134.201 80.7348 134.201 80.2038Z" fill="#263238"/>
<path d="M136.073 80.2038C136.073 79.6763 136.458 79.3013 136.979 79.3013C137.499 79.3013 137.882 79.6763 137.882 80.2038C137.882 80.7313 137.499 81.1098 136.979 81.1098C136.458 81.1098 136.073 80.7313 136.073 80.2038ZM137.637 80.2038C137.637 79.7883 137.357 79.5108 136.979 79.5108C136.6 79.5108 136.316 79.7878 136.316 80.2038C136.316 80.6198 136.6 80.8968 136.979 80.8968C137.358 80.8968 137.637 80.6198 137.637 80.2038Z" fill="#263238"/>
<path d="M141.304 80.0623V81.0933H141.064V80.0863C141.064 79.7108 140.875 79.5183 140.554 79.5183C140.189 79.5183 139.959 79.7548 139.959 80.1603V81.0933H139.719V80.0863C139.719 79.7108 139.53 79.5183 139.206 79.5183C138.844 79.5183 138.611 79.7548 138.611 80.1603V81.0933H138.371V79.3153H138.601V79.6398C138.726 79.4268 138.956 79.3018 139.254 79.3018C139.548 79.3018 139.778 79.4268 139.886 79.6768C140.014 79.4473 140.268 79.3018 140.589 79.3018C141.02 79.3018 141.304 79.5518 141.304 80.0623Z" fill="#263238"/>
<path d="M101.698 95.1691L102.117 95.4056L102.039 95.5476L101.617 95.3011V95.7806H101.461L101.465 95.3011L101.042 95.5476L100.961 95.4056L101.384 95.1691L100.961 94.9326L101.042 94.7871L101.465 95.0376L101.461 94.5576H101.617V95.0376L102.039 94.7871L102.117 94.9326L101.698 95.1691Z" fill="#263238"/>
<path d="M103.069 95.1691L103.488 95.4056L103.411 95.5476L102.988 95.3011V95.7806H102.833L102.836 95.3011L102.414 95.5476L102.333 95.4056L102.755 95.1691L102.333 94.9326L102.414 94.7871L102.836 95.0376L102.833 94.5576H102.988V95.0376L103.411 94.7871L103.488 94.9326L103.069 95.1691Z" fill="#263238"/>
<path d="M104.441 95.1691L104.86 95.4056L104.782 95.5476L104.36 95.3011V95.7806H104.204L104.208 95.3011L103.785 95.5476L103.704 95.4056L104.127 95.1691L103.704 94.9326L103.785 94.7871L104.208 95.0376L104.204 94.5576H104.36V95.0376L104.782 94.7871L104.86 94.9326L104.441 95.1691Z" fill="#263238"/>
<path d="M105.812 95.1691L106.231 95.4056L106.154 95.5476L105.731 95.3011V95.7806H105.576L105.579 95.3011L105.157 95.5476L105.076 95.4056L105.498 95.1691L105.076 94.9326L105.157 94.7871L105.579 95.0376L105.576 94.5576H105.731V95.0376L106.154 94.7871L106.231 94.9326L105.812 95.1691Z" fill="#263238"/>
<path d="M107.184 95.1691L107.603 95.4056L107.525 95.5476L107.103 95.3011V95.7806H106.947L106.951 95.3011L106.528 95.5476L106.447 95.4056L106.87 95.1691L106.447 94.9326L106.528 94.7871L106.951 95.0376L106.947 94.5576H107.103V95.0376L107.525 94.7871L107.603 94.9326L107.184 95.1691Z" fill="#263238"/>
<path d="M108.555 95.1691L108.974 95.4056L108.897 95.5476L108.474 95.3011V95.7806H108.319L108.322 95.3011L107.9 95.5476L107.819 95.4056L108.241 95.1691L107.819 94.9326L107.9 94.7871L108.322 95.0376L108.319 94.5576H108.474V95.0376L108.897 94.7871L108.974 94.9326L108.555 95.1691Z" fill="#263238"/>
<path d="M109.927 95.1691L110.346 95.4056L110.269 95.5476L109.846 95.3011V95.7806H109.691L109.694 95.3011L109.272 95.5476L109.191 95.4056L109.613 95.1691L109.191 94.9326L109.272 94.7871L109.694 95.0376L109.691 94.5576H109.846V95.0376L110.269 94.7871L110.346 94.9326L109.927 95.1691Z" fill="#263238"/>
<path d="M111.299 95.1691L111.718 95.4056L111.64 95.5476L111.218 95.3011V95.7806H111.062L111.066 95.3011L110.643 95.5476L110.562 95.4056L110.985 95.1691L110.562 94.9326L110.643 94.7871L111.066 95.0376L111.062 94.5576H111.218V95.0376L111.64 94.7871L111.718 94.9326L111.299 95.1691Z" fill="#263238"/>
<path d="M112.67 95.1691L113.089 95.4056L113.012 95.5476L112.589 95.3011V95.7806H112.434L112.437 95.3011L112.015 95.5476L111.934 95.4056L112.356 95.1691L111.934 94.9326L112.015 94.7871L112.437 95.0376L112.434 94.5576H112.589V95.0376L113.012 94.7871L113.089 94.9326L112.67 95.1691Z" fill="#263238"/>
<path d="M114.042 95.1691L114.461 95.4056L114.383 95.5476L113.961 95.3011V95.7806H113.805L113.809 95.3011L113.386 95.5476L113.305 95.4056L113.728 95.1691L113.305 94.9326L113.386 94.7871L113.809 95.0376L113.805 94.5576H113.961V95.0376L114.383 94.7871L114.461 94.9326L114.042 95.1691Z" fill="#263238"/>
<path d="M115.413 95.1691L115.832 95.4056L115.755 95.5476L115.332 95.3011V95.7806H115.177L115.18 95.3011L114.758 95.5476L114.677 95.4056L115.099 95.1691L114.677 94.9326L114.758 94.7871L115.18 95.0376L115.177 94.5576H115.332V95.0376L115.755 94.7871L115.832 94.9326L115.413 95.1691Z" fill="#263238"/>
<path d="M101.47 88.3984C101.47 88.9019 101.105 89.2064 100.503 89.2064H99.8677V89.9534H99.6172V87.5874H100.503C101.105 87.5874 101.47 87.8914 101.47 88.3984ZM101.22 88.3984C101.22 88.0199 100.97 87.8034 100.497 87.8034H99.8682V88.9864H100.497C100.97 88.9869 101.22 88.7704 101.22 88.3984Z" fill="#263238"/>
<path d="M103.284 88.8511V89.9531H103.054V89.6761C102.946 89.8586 102.736 89.9701 102.442 89.9701C102.04 89.9701 101.793 89.7606 101.793 89.4531C101.793 89.1796 101.969 88.9496 102.479 88.9496H103.044V88.8416C103.044 88.5376 102.871 88.3721 102.54 88.3721C102.31 88.3721 102.094 88.4531 101.949 88.5816L101.841 88.4026C102.02 88.2506 102.284 88.1626 102.564 88.1626C103.024 88.1616 103.284 88.3916 103.284 88.8511ZM103.044 89.4191V89.1281H102.486C102.141 89.1281 102.029 89.2636 102.029 89.4456C102.029 89.6521 102.195 89.7801 102.479 89.7801C102.75 89.7806 102.949 89.6521 103.044 89.4191Z" fill="#263238"/>
<path d="M103.689 89.7501L103.797 89.5611C103.939 89.6726 104.179 89.7606 104.429 89.7606C104.767 89.7606 104.905 89.6456 104.905 89.4696C104.905 89.0066 103.753 89.3716 103.753 88.6686C103.753 88.3781 104.003 88.1616 104.456 88.1616C104.686 88.1616 104.936 88.2261 105.084 88.3271L104.98 88.5196C104.824 88.4116 104.638 88.3676 104.456 88.3676C104.135 88.3676 103.993 88.4931 103.993 88.6616C103.993 89.1416 105.145 88.7796 105.145 89.4626C105.145 89.7701 104.875 89.9696 104.412 89.9696C104.118 89.9701 103.834 89.8756 103.689 89.7501Z" fill="#263238"/>
<path d="M105.341 89.7501L105.449 89.5611C105.591 89.6726 105.831 89.7606 106.081 89.7606C106.419 89.7606 106.557 89.6456 106.557 89.4696C106.557 89.0066 105.405 89.3716 105.405 88.6686C105.405 88.3781 105.655 88.1616 106.108 88.1616C106.338 88.1616 106.588 88.2261 106.736 88.3271L106.631 88.5196C106.476 88.4116 106.29 88.3676 106.107 88.3676C105.786 88.3676 105.644 88.4931 105.644 88.6616C105.644 89.1416 106.797 88.7796 106.797 89.4626C106.797 89.7701 106.526 89.9696 106.063 89.9696C105.77 89.9701 105.486 89.8756 105.341 89.7501Z" fill="#263238"/>
<path d="M109.815 88.1753L109.143 89.9533H108.916L108.355 88.4963L107.794 89.9533H107.568L106.899 88.1753H107.128L107.686 89.6858L108.257 88.1753H108.463L109.031 89.6858L109.596 88.1753H109.815Z" fill="#263238"/>
<path d="M109.946 89.0641C109.946 88.5366 110.331 88.1616 110.852 88.1616C111.372 88.1616 111.754 88.5366 111.754 89.0641C111.754 89.5916 111.372 89.9701 110.852 89.9701C110.331 89.9701 109.946 89.5916 109.946 89.0641ZM111.511 89.0641C111.511 88.6486 111.23 88.3711 110.852 88.3711C110.473 88.3711 110.189 88.6481 110.189 89.0641C110.189 89.4801 110.473 89.7571 110.852 89.7571C111.23 89.7571 111.511 89.4801 111.511 89.0641Z" fill="#263238"/>
<path d="M113.139 88.1616V88.3946C113.119 88.3946 113.099 88.3911 113.082 88.3911C112.71 88.3911 112.483 88.6276 112.483 89.0471V89.9531H112.244V88.1751H112.473V88.5231C112.585 88.2866 112.811 88.1616 113.139 88.1616Z" fill="#263238"/>
<path d="M115.177 87.4453V89.9533H114.947V89.6018C114.801 89.8418 114.555 89.9703 114.261 89.9703C113.754 89.9703 113.375 89.6018 113.375 89.0643C113.375 88.5268 113.754 88.1618 114.261 88.1618C114.545 88.1618 114.788 88.2833 114.937 88.5133V87.4453H115.177ZM114.94 89.0643C114.94 88.6488 114.656 88.3713 114.281 88.3713C113.902 88.3713 113.618 88.6483 113.618 89.0643C113.618 89.4803 113.902 89.7573 114.281 89.7573C114.656 89.7573 114.94 89.4803 114.94 89.0643Z" fill="#263238"/>
<path d="M118.732 107.88V110.246H118.488V108.096H117.931V107.88H118.732Z" fill="#263238"/>
<path d="M120.911 110.029V110.246H119.252V110.073L120.235 109.11C120.502 108.846 120.553 108.687 120.553 108.525C120.553 108.251 120.361 108.082 119.999 108.082C119.722 108.082 119.509 108.167 119.353 108.346L119.181 108.197C119.363 107.981 119.657 107.859 120.019 107.859C120.499 107.859 120.803 108.103 120.803 108.498C120.803 108.725 120.732 108.927 120.414 109.238L119.61 110.029H120.911V110.029Z" fill="#263238"/>
<path d="M122.78 109.566C122.78 109.962 122.492 110.266 121.921 110.266C121.58 110.266 121.252 110.148 121.07 109.962L121.188 109.769C121.34 109.928 121.614 110.043 121.921 110.043C122.313 110.043 122.53 109.86 122.53 109.566C122.53 109.283 122.33 109.097 121.891 109.097H121.722V108.918L122.378 108.096H121.168V107.88H122.689V108.052L122.02 108.894C122.526 108.921 122.78 109.188 122.78 109.566Z" fill="#263238"/>
<path d="M125.131 109.624H124.658V110.246H124.414V109.624H123.079V109.448L124.333 107.879H124.603L123.393 109.407H124.421V108.86H124.657V109.407H125.13V109.624H125.131Z" fill="#263238"/>
<path d="M127.844 109.549C127.844 109.952 127.564 110.266 126.985 110.266C126.644 110.266 126.32 110.148 126.137 109.962L126.255 109.769C126.408 109.928 126.678 110.043 126.982 110.043C127.384 110.043 127.597 109.847 127.597 109.56C127.597 109.256 127.407 109.066 126.806 109.066H126.302L126.424 107.88H127.718V108.096H126.637L126.556 108.85H126.86C127.573 108.85 127.844 109.13 127.844 109.549Z" fill="#263238"/>
<path d="M129.928 109.539C129.928 109.982 129.58 110.266 129.12 110.266C128.491 110.266 128.151 109.83 128.151 109.083C128.151 108.278 128.59 107.859 129.232 107.859C129.445 107.859 129.644 107.897 129.793 107.988L129.695 108.184C129.574 108.103 129.412 108.072 129.236 108.072C128.725 108.072 128.397 108.4 128.397 109.043C128.397 109.097 128.401 109.164 128.407 109.235C128.525 108.975 128.803 108.83 129.13 108.83C129.6 108.829 129.928 109.107 129.928 109.539ZM129.688 109.546C129.688 109.235 129.458 109.035 129.093 109.035C128.731 109.035 128.484 109.258 128.484 109.552C128.484 109.813 128.701 110.059 129.11 110.059C129.451 110.06 129.688 109.86 129.688 109.546Z" fill="#263238"/>
<path d="M131.851 107.88V108.052L130.86 110.246H130.597L131.57 108.096H130.353V108.539H130.113V107.88H131.851V107.88Z" fill="#263238"/>
<path d="M133.925 109.587C133.925 110.006 133.57 110.266 133.006 110.266C132.438 110.266 132.093 110.006 132.093 109.587C132.093 109.303 132.255 109.104 132.549 109.005C132.31 108.911 132.178 108.732 132.178 108.485C132.178 108.099 132.505 107.86 133.006 107.86C133.506 107.86 133.841 108.1 133.841 108.485C133.841 108.732 133.705 108.911 133.462 109.005C133.759 109.103 133.925 109.306 133.925 109.587ZM133.675 109.583C133.675 109.293 133.425 109.11 133.006 109.11C132.587 109.11 132.34 109.292 132.34 109.583C132.34 109.877 132.587 110.06 133.006 110.06C133.425 110.06 133.675 109.877 133.675 109.583ZM133.006 108.917C133.374 108.917 133.594 108.752 133.594 108.495C133.594 108.228 133.361 108.066 133.006 108.066C132.648 108.066 132.421 108.228 132.421 108.492C132.421 108.752 132.637 108.917 133.006 108.917Z" fill="#263238"/>
<path d="M136.854 109.043C136.854 109.847 136.415 110.266 135.772 110.266C135.559 110.266 135.36 110.229 135.211 110.138L135.309 109.942C135.431 110.023 135.593 110.053 135.769 110.053C136.28 110.053 136.607 109.725 136.607 109.083C136.607 109.029 136.604 108.961 136.597 108.891C136.479 109.151 136.202 109.296 135.874 109.296C135.404 109.296 135.076 109.019 135.076 108.587C135.076 108.144 135.424 107.86 135.884 107.86C136.512 107.859 136.854 108.295 136.854 109.043ZM136.519 108.573C136.519 108.313 136.303 108.066 135.894 108.066C135.553 108.066 135.316 108.265 135.316 108.579C135.316 108.89 135.546 109.089 135.911 109.089C136.273 109.09 136.519 108.867 136.519 108.573Z" fill="#263238"/>
<path d="M137.854 107.88V110.246H137.61V108.096H137.053V107.88H137.854Z" fill="#263238"/>
<path d="M138.418 109.063C138.418 108.309 138.813 107.859 139.361 107.859C139.908 107.859 140.307 108.309 140.307 109.063C140.307 109.816 139.908 110.266 139.361 110.266C138.813 110.266 138.418 109.816 138.418 109.063ZM140.057 109.063C140.057 108.431 139.773 108.083 139.36 108.083C138.948 108.083 138.664 108.431 138.664 109.063C138.664 109.695 138.948 110.043 139.36 110.043C139.773 110.043 140.057 109.695 140.057 109.063Z" fill="#263238"/>
<path d="M141.303 107.88V110.246H141.059V108.096H140.502V107.88H141.303Z" fill="#263238"/>
<path d="M143.408 107.88V110.246H143.164V108.096H142.607V107.88H143.408Z" fill="#263238"/>
<path d="M144.627 107.88V110.246H144.384V108.096H143.826V107.88H144.627Z" fill="#263238"/>
<path d="M146.807 110.029V110.246H145.147V110.073L146.131 109.11C146.398 108.846 146.449 108.687 146.449 108.525C146.449 108.251 146.256 108.082 145.895 108.082C145.617 108.082 145.405 108.167 145.249 108.346L145.077 108.197C145.259 107.981 145.553 107.859 145.915 107.859C146.395 107.859 146.699 108.103 146.699 108.498C146.699 108.725 146.628 108.927 146.31 109.238L145.506 110.029H146.807V110.029Z" fill="#263238"/>
<path d="M147.766 107.88V110.246H147.522V108.096H146.965V107.88H147.766Z" fill="#263238"/>
<path d="M107.892 107.337V106.977C107.892 106.63 107.61 106.348 107.263 106.348H100.88C100.532 106.348 100.25 106.629 100.25 106.977V107.337H107.892Z" fill="#263238"/>
<path d="M100.251 107.831V110.483C100.251 110.831 100.532 111.113 100.88 111.113H107.263C107.611 111.113 107.893 110.831 107.893 110.483V107.831H100.251Z" fill="#263238"/>
<path d="M100.346 121.789C100.346 121.035 100.742 120.585 101.289 120.585C101.837 120.585 102.236 121.035 102.236 121.789C102.236 122.542 101.837 122.992 101.289 122.992C100.742 122.992 100.346 122.542 100.346 121.789ZM101.985 121.789C101.985 121.157 101.701 120.808 101.289 120.808C100.876 120.808 100.592 121.156 100.592 121.789C100.592 122.421 100.876 122.769 101.289 122.769C101.701 122.769 101.985 122.42 101.985 121.789Z" fill="#263238"/>
<path d="M104.401 122.312C104.401 122.731 104.046 122.992 103.482 122.992C102.914 122.992 102.569 122.732 102.569 122.312C102.569 122.029 102.732 121.829 103.026 121.731C102.786 121.636 102.654 121.457 102.654 121.21C102.654 120.825 102.982 120.585 103.482 120.585C103.983 120.585 104.317 120.825 104.317 121.21C104.317 121.457 104.182 121.636 103.939 121.731C104.235 121.829 104.401 122.032 104.401 122.312ZM104.151 122.309C104.151 122.018 103.901 121.836 103.482 121.836C103.063 121.836 102.816 122.019 102.816 122.309C102.816 122.603 103.063 122.786 103.482 122.786C103.901 122.786 104.151 122.603 104.151 122.309ZM103.482 121.643C103.85 121.643 104.07 121.478 104.07 121.221C104.07 120.954 103.837 120.792 103.482 120.792C103.124 120.792 102.897 120.954 102.897 121.218C102.897 121.478 103.113 121.643 103.482 121.643Z" fill="#263238"/>
<path d="M105.593 120.126H105.813L104.698 123.309H104.478L105.593 120.126Z" fill="#263238"/>
<path d="M107.485 122.755V122.972H105.826V122.799L106.809 121.836C107.076 121.573 107.127 121.414 107.127 121.252C107.127 120.978 106.935 120.809 106.573 120.809C106.296 120.809 106.083 120.893 105.927 121.072L105.755 120.924C105.937 120.707 106.231 120.586 106.593 120.586C107.073 120.586 107.377 120.829 107.377 121.225C107.377 121.451 107.306 121.654 106.988 121.965L106.184 122.756L107.485 122.755Z" fill="#263238"/>
<path d="M109.394 122.275C109.394 122.678 109.114 122.992 108.536 122.992C108.194 122.992 107.87 122.874 107.688 122.688L107.806 122.495C107.958 122.654 108.228 122.769 108.533 122.769C108.935 122.769 109.148 122.573 109.148 122.286C109.148 121.982 108.959 121.792 108.357 121.792H107.854L107.975 120.606H109.27V120.822H108.188L108.107 121.576H108.411C109.124 121.576 109.394 121.856 109.394 122.275Z" fill="#263238"/>
<path d="M101.448 119.082V119.216H100.409V117.747H101.416V117.881H100.564V118.404H101.324V118.536H100.564V119.082H101.448Z" fill="#263238"/>
<path d="M102.717 119.216L102.243 118.57L101.771 119.216H101.593L102.151 118.461L101.628 117.747H101.807L102.249 118.347L102.69 117.747H102.857L102.337 118.457L102.897 119.216H102.717Z" fill="#263238"/>
<path d="M104.274 118.251C104.274 118.564 104.047 118.753 103.674 118.753H103.279V119.216H103.124V117.747H103.673C104.047 117.747 104.274 117.936 104.274 118.251ZM104.118 118.251C104.118 118.016 103.963 117.882 103.669 117.882H103.279V118.616H103.669C103.963 118.616 104.118 118.482 104.118 118.251Z" fill="#263238"/>
<path d="M105.183 117.747H105.781C106.251 117.747 106.568 118.05 106.568 118.482C106.568 118.914 106.251 119.216 105.781 119.216H105.183V117.747ZM105.772 119.082C106.162 119.082 106.414 118.834 106.414 118.482C106.414 118.129 106.163 117.882 105.772 117.882H105.338V119.082H105.772Z" fill="#263238"/>
<path d="M107.72 118.532V119.216H107.577V119.044C107.51 119.158 107.379 119.227 107.197 119.227C106.948 119.227 106.794 119.097 106.794 118.906C106.794 118.736 106.903 118.593 107.22 118.593H107.571V118.526C107.571 118.337 107.464 118.235 107.258 118.235C107.115 118.235 106.981 118.285 106.891 118.365L106.824 118.253C106.935 118.159 107.099 118.104 107.273 118.104C107.558 118.104 107.72 118.247 107.72 118.532ZM107.571 118.885V118.704H107.225C107.011 118.704 106.942 118.788 106.942 118.902C106.942 119.03 107.045 119.11 107.221 119.11C107.388 119.109 107.512 119.029 107.571 118.885Z" fill="#263238"/>
<path d="M108.708 119.149C108.649 119.202 108.561 119.227 108.475 119.227C108.267 119.227 108.152 119.109 108.152 118.906V118.239H107.954V118.113H108.152V117.872H108.301V118.113H108.636V118.239H108.301V118.898C108.301 119.028 108.368 119.099 108.492 119.099C108.553 119.099 108.614 119.08 108.655 119.043L108.708 119.149Z" fill="#263238"/>
<path d="M109.901 118.71H108.977C108.994 118.941 109.17 119.094 109.412 119.094C109.546 119.094 109.666 119.046 109.75 118.949L109.834 119.046C109.735 119.163 109.582 119.226 109.408 119.226C109.064 119.226 108.829 118.991 108.829 118.664C108.829 118.337 109.058 118.104 109.368 118.104C109.679 118.104 109.903 118.333 109.903 118.664C109.903 118.677 109.901 118.694 109.901 118.71ZM108.977 118.599H109.76C109.741 118.383 109.584 118.232 109.367 118.232C109.154 118.232 108.996 118.383 108.977 118.599Z" fill="#263238"/>
<path d="M128.272 120.606V122.972H128.029V120.822H127.471V120.606H128.272Z" fill="#263238"/>
<path d="M130.451 122.755V122.972H128.792V122.799L129.775 121.836C130.042 121.573 130.093 121.414 130.093 121.252C130.093 120.978 129.901 120.809 129.539 120.809C129.262 120.809 129.049 120.893 128.893 121.072L128.721 120.924C128.904 120.707 129.198 120.586 129.559 120.586C130.039 120.586 130.343 120.829 130.343 121.225C130.343 121.451 130.272 121.654 129.955 121.965L129.15 122.756L130.451 122.755Z" fill="#263238"/>
<path d="M132.32 122.292C132.32 122.688 132.033 122.992 131.461 122.992C131.119 122.992 130.792 122.874 130.61 122.688L130.728 122.495C130.88 122.654 131.153 122.769 131.461 122.769C131.853 122.769 132.07 122.586 132.07 122.292C132.07 122.009 131.87 121.823 131.431 121.823H131.262V121.644L131.918 120.822H130.708V120.606H132.229V120.778L131.559 121.62C132.066 121.647 132.32 121.914 132.32 122.292Z" fill="#263238"/>
<path d="M127.549 118.482C127.549 118.052 127.877 117.735 128.32 117.735C128.534 117.735 128.726 117.806 128.857 117.949L128.758 118.047C128.638 117.926 128.492 117.873 128.324 117.873C127.969 117.873 127.703 118.133 127.703 118.482C127.703 118.83 127.969 119.09 128.324 119.09C128.492 119.09 128.638 119.038 128.758 118.914L128.857 119.013C128.726 119.156 128.534 119.229 128.317 119.229C127.877 119.229 127.549 118.912 127.549 118.482Z" fill="#263238"/>
<path d="M131.189 117.748L130.694 119.217H130.53L130.101 117.964L129.668 119.217H129.507L129.012 117.748H129.171L129.595 119.011L130.034 117.748H130.178L130.611 119.017L131.04 117.748H131.189Z" fill="#263238"/>
<path d="M115.153 135.68H113.835L113.551 136.312H113.291L114.373 133.946H114.619L115.701 136.312H115.437L115.153 135.68ZM115.062 135.477L114.494 134.206L113.926 135.477H115.062Z" fill="#263238"/>
<path d="M115.844 135.423C115.844 134.892 116.23 134.52 116.76 134.52C117.061 134.52 117.314 134.638 117.456 134.871L117.277 134.993C117.155 134.814 116.966 134.73 116.76 134.73C116.371 134.73 116.087 135.007 116.087 135.423C116.087 135.842 116.371 136.116 116.76 136.116C116.966 136.116 117.155 136.034 117.277 135.855L117.456 135.977C117.314 136.206 117.061 136.328 116.76 136.328C116.23 136.329 115.844 135.953 115.844 135.423Z" fill="#263238"/>
<path d="M118.882 136.203C118.788 136.288 118.646 136.329 118.507 136.329C118.173 136.329 117.987 136.139 117.987 135.812V134.737H117.669V134.534H117.987V134.146H118.227V134.534H118.768V134.737H118.227V135.798C118.227 136.008 118.335 136.122 118.534 136.122C118.632 136.122 118.73 136.092 118.798 136.031L118.882 136.203Z" fill="#263238"/>
<path d="M119.263 133.973C119.263 133.881 119.341 133.804 119.439 133.804C119.537 133.804 119.615 133.878 119.615 133.969C119.615 134.067 119.541 134.145 119.439 134.145C119.341 134.145 119.263 134.067 119.263 133.973ZM119.318 134.534H119.557V136.312H119.318V134.534Z" fill="#263238"/>
<path d="M120.048 135.423C120.048 134.895 120.433 134.52 120.954 134.52C121.474 134.52 121.856 134.895 121.856 135.423C121.856 135.95 121.474 136.328 120.954 136.328C120.433 136.329 120.048 135.95 120.048 135.423ZM121.612 135.423C121.612 135.007 121.332 134.73 120.953 134.73C120.575 134.73 120.291 135.007 120.291 135.423C120.291 135.838 120.574 136.116 120.953 136.116C121.332 136.116 121.612 135.838 121.612 135.423Z" fill="#263238"/>
<path d="M123.98 135.281V136.312H123.74V135.304C123.74 134.929 123.544 134.736 123.206 134.736C122.824 134.736 122.584 134.973 122.584 135.379V136.311H122.345V134.533H122.575V134.861C122.703 134.645 122.943 134.519 123.251 134.519C123.683 134.52 123.98 134.771 123.98 135.281Z" fill="#263238"/>
<path d="M125.819 134.162V135.091H127.042V135.308H125.819V136.312H125.568V133.946H127.191V134.163L125.819 134.162Z" fill="#263238"/>
<path d="M127.568 133.973C127.568 133.881 127.646 133.804 127.744 133.804C127.842 133.804 127.92 133.878 127.92 133.969C127.92 134.067 127.846 134.145 127.744 134.145C127.646 134.145 127.568 134.067 127.568 133.973ZM127.622 134.534H127.862V136.312H127.622V134.534Z" fill="#263238"/>
<path d="M130.177 134.534V136.095C130.177 136.707 129.876 136.984 129.288 136.984C128.964 136.984 128.646 136.886 128.46 136.71L128.581 136.528C128.75 136.68 129.008 136.771 129.281 136.771C129.73 136.771 129.936 136.565 129.936 136.125V135.899C129.788 136.125 129.534 136.244 129.244 136.244C128.736 136.244 128.351 135.889 128.351 135.379C128.351 134.868 128.737 134.52 129.244 134.52C129.541 134.52 129.797 134.642 129.946 134.875V134.533H130.177V134.534ZM129.944 135.379C129.944 134.993 129.66 134.73 129.268 134.73C128.876 134.73 128.595 134.993 128.595 135.379C128.595 135.764 128.876 136.031 129.268 136.031C129.659 136.031 129.944 135.764 129.944 135.379Z" fill="#263238"/>
<path d="M132.45 134.534V136.312H132.221V135.988C132.096 136.204 131.866 136.329 131.582 136.329C131.129 136.329 130.831 136.075 130.831 135.565V134.535H131.071V135.542C131.071 135.921 131.268 136.114 131.605 136.114C131.977 136.114 132.21 135.874 132.21 135.468V134.535H132.45V134.534Z" fill="#263238"/>
<path d="M134.018 134.52V134.754C133.997 134.754 133.977 134.75 133.96 134.75C133.589 134.75 133.362 134.987 133.362 135.406V136.312H133.122V134.534H133.352V134.882C133.464 134.646 133.69 134.52 134.018 134.52Z" fill="#263238"/>
<path d="M135.981 135.497H134.494C134.52 135.869 134.804 136.116 135.193 136.116C135.409 136.116 135.602 136.038 135.737 135.882L135.872 136.038C135.714 136.227 135.467 136.329 135.186 136.329C134.632 136.329 134.254 135.95 134.254 135.423C134.254 134.896 134.622 134.52 135.122 134.52C135.622 134.52 135.984 134.889 135.984 135.423C135.984 135.443 135.981 135.47 135.981 135.497ZM134.494 135.318H135.754C135.724 134.97 135.471 134.726 135.122 134.726C134.778 134.727 134.524 134.97 134.494 135.318Z" fill="#263238"/>
<path d="M116.216 145.799V146.839H115.288V145.827C114.369 145.772 113.486 145.484 112.976 145.085L113.486 143.952C113.95 144.296 114.619 144.546 115.288 144.611V143.06C114.257 142.809 113.106 142.466 113.106 141.138C113.106 140.154 113.821 139.309 115.288 139.142V138.111H116.216V139.123C116.913 139.178 117.59 139.364 118.101 139.689L117.637 140.831C117.164 140.562 116.681 140.404 116.217 140.348V141.927C117.247 142.168 118.38 142.512 118.38 143.821C118.38 144.787 117.674 145.623 116.216 145.799ZM115.288 141.695V140.377C114.796 140.488 114.601 140.758 114.601 141.064C114.601 141.389 114.879 141.565 115.288 141.695ZM116.885 143.933C116.885 143.608 116.616 143.432 116.216 143.293V144.574C116.68 144.472 116.885 144.23 116.885 143.933Z" fill="#263238"/>
<path d="M123.857 144.5V145.725H118.945V144.75L121.452 142.383C122.028 141.835 122.13 141.501 122.13 141.185C122.13 140.674 121.777 140.377 121.09 140.377C120.533 140.377 120.06 140.591 119.744 141.027L118.649 140.322C119.15 139.588 120.06 139.115 121.23 139.115C122.679 139.115 123.644 139.857 123.644 141.037C123.644 141.668 123.468 142.244 122.558 143.089L121.063 144.5H123.857Z" fill="#263238"/>
<path d="M124.46 142.476C124.46 140.331 125.648 139.114 127.246 139.114C128.852 139.114 130.031 140.331 130.031 142.476C130.031 144.62 128.852 145.837 127.246 145.837C125.648 145.836 124.46 144.62 124.46 142.476ZM128.517 142.476C128.517 140.999 127.998 140.386 127.246 140.386C126.503 140.386 125.983 140.999 125.983 142.476C125.983 143.952 126.503 144.565 127.246 144.565C127.998 144.564 128.517 143.952 128.517 142.476Z" fill="#263238"/>
<path d="M130.765 142.476C130.765 140.331 131.953 139.114 133.55 139.114C135.156 139.114 136.335 140.331 136.335 142.476C136.335 144.62 135.156 145.837 133.55 145.837C131.953 145.836 130.765 144.62 130.765 142.476ZM134.823 142.476C134.823 140.999 134.302 140.386 133.55 140.386C132.808 140.386 132.288 140.999 132.288 142.476C132.288 143.952 132.808 144.565 133.55 144.565C134.302 144.564 134.823 143.952 134.823 142.476Z" fill="#263238"/>
<path d="M135.075 162.276H114.347C111.668 162.276 109.496 160.104 109.496 157.425C109.496 154.746 111.668 152.574 114.347 152.574H135.075C137.754 152.574 139.926 154.746 139.926 157.425C139.926 160.105 137.754 162.276 135.075 162.276Z" fill="#263238"/>
<path d="M118.058 156.909C118.058 157.516 117.618 157.882 116.893 157.882H116.127V158.783H115.825V155.931H116.893C117.618 155.931 118.058 156.297 118.058 156.909ZM117.756 156.909C117.756 156.452 117.455 156.191 116.884 156.191H116.126V157.618H116.884C117.455 157.618 117.756 157.357 117.756 156.909Z" fill="white"/>
<path d="M120.246 157.455V158.783H119.969V158.449C119.838 158.669 119.586 158.804 119.231 158.804C118.746 158.804 118.449 158.551 118.449 158.18C118.449 157.85 118.661 157.573 119.276 157.573H119.957V157.443C119.957 157.076 119.749 156.876 119.35 156.876C119.073 156.876 118.812 156.974 118.637 157.129L118.506 156.913C118.722 156.73 119.04 156.624 119.378 156.624C119.932 156.624 120.246 156.901 120.246 157.455ZM119.956 158.14V157.789H119.284C118.869 157.789 118.734 157.952 118.734 158.172C118.734 158.421 118.934 158.576 119.276 158.576C119.602 158.575 119.842 158.42 119.956 158.14Z" fill="white"/>
<path d="M122.792 156.64L121.72 159.04C121.541 159.459 121.313 159.593 121.007 159.593C120.808 159.593 120.616 159.528 120.486 159.398L120.62 159.182C120.726 159.288 120.857 159.344 121.011 159.344C121.203 159.344 121.333 159.255 121.455 158.986L121.549 158.778L120.592 156.639H120.894L121.7 158.461L122.507 156.639H122.792V156.64Z" fill="white"/>
<path d="M125.232 158.803V159.272H125.029V158.807C124.629 158.787 124.255 158.64 124.055 158.437L124.173 158.204C124.36 158.388 124.686 158.526 125.028 158.547V157.475C124.58 157.365 124.124 157.227 124.124 156.689C124.124 156.298 124.405 155.96 125.028 155.911V155.442H125.232V155.906C125.537 155.918 125.843 156.008 126.059 156.159L125.957 156.399C125.729 156.253 125.468 156.175 125.232 156.163V157.242C125.692 157.352 126.177 157.482 126.177 158.028C126.177 158.424 125.88 158.767 125.232 158.803ZM125.029 157.19V156.171C124.609 156.208 124.422 156.424 124.422 156.681C124.422 156.99 124.695 157.104 125.029 157.19ZM125.88 158.045C125.88 157.724 125.583 157.613 125.233 157.528V158.546C125.68 158.514 125.88 158.306 125.88 158.045Z" fill="white"/>
<path d="M128.528 158.522V158.783H126.528V158.575L127.714 157.414C128.036 157.096 128.097 156.905 128.097 156.709C128.097 156.379 127.864 156.176 127.429 156.176C127.095 156.176 126.838 156.278 126.65 156.494L126.442 156.315C126.662 156.054 127.017 155.907 127.453 155.907C128.031 155.907 128.398 156.201 128.398 156.677C128.398 156.95 128.312 157.195 127.929 157.57L126.96 158.523H128.528V158.522Z" fill="white"/>
<path d="M128.879 157.357C128.879 156.449 129.355 155.907 130.015 155.907C130.675 155.907 131.156 156.449 131.156 157.357C131.156 158.265 130.675 158.807 130.015 158.807C129.355 158.807 128.879 158.265 128.879 157.357ZM130.854 157.357C130.854 156.595 130.512 156.176 130.015 156.176C129.518 156.176 129.176 156.595 129.176 157.357C129.176 158.119 129.518 158.538 130.015 158.538C130.512 158.538 130.854 158.119 130.854 157.357Z" fill="white"/>
<path d="M131.576 157.357C131.576 156.449 132.052 155.907 132.712 155.907C133.372 155.907 133.853 156.449 133.853 157.357C133.853 158.265 133.372 158.807 132.712 158.807C132.052 158.807 131.576 158.265 131.576 157.357ZM133.551 157.357C133.551 156.595 133.209 156.176 132.712 156.176C132.215 156.176 131.872 156.595 131.872 157.357C131.872 158.119 132.215 158.538 132.712 158.538C133.209 158.538 133.551 158.119 133.551 157.357Z" fill="white"/>
<path d="M93.3444 147.008C94.0944 158.534 88.7539 171.369 88.7539 171.369L59.9114 163.247L54.8799 161.829C59.8704 154.88 62.2609 141.204 60.9564 130.133C60.8564 129.297 60.7929 128.51 60.7519 127.765C60.2749 118.634 64.0424 115.961 67.2514 111.926C70.7284 107.558 78.5409 91.0555 78.5409 87.1515C78.5409 83.243 88.3124 73.6895 86.1399 62.836C86.1399 62.836 89.0939 61.0045 92.0664 62.5085C93.4119 63.1905 94.7614 64.5535 95.8434 67.081C98.3884 73.0305 94.8164 89.833 91.7759 93.9555L85.9219 118.194C85.9219 118.194 87.8944 121.598 89.8349 127.779C91.3444 132.601 92.8309 139.104 93.3444 147.008Z" fill="white"/>
<path opacity="0.4" d="M60.7524 127.765C62.3839 132.238 64.1204 135.242 63.9704 141.532C63.8204 147.822 60.4664 157.453 61.4254 162.466C61.4254 162.466 60.6664 162.652 59.9119 163.248L54.8804 161.83C59.8709 154.881 62.2614 141.205 60.9569 130.133C60.8569 129.297 60.7934 128.511 60.7524 127.765Z" fill="#FE8428"/>
<path opacity="0.4" d="M91.7763 93.9548L85.9223 118.193C85.9223 118.193 87.8948 121.597 89.8353 127.779C89.8308 127.774 89.8308 127.77 89.8263 127.765C85.8678 121.375 82.5178 119.48 82.5178 119.48C85.1583 116.312 87.1948 93.1643 87.1948 93.1643C87.1948 93.1643 95.4713 83.4383 94.6758 73.2618C94.3078 68.5803 93.1803 65.0038 92.0668 62.5083C93.4123 63.1903 94.7618 64.5533 95.8438 67.0808C98.3893 73.0298 94.8168 89.8323 91.7763 93.9548Z" fill="#FE8428"/>
<path d="M54.8789 161.828C59.8719 154.881 62.2599 141.205 60.9574 130.133C59.6549 119.062 63.7794 116.291 67.2529 111.923C70.7264 107.556 78.5414 91.0574 78.5414 87.1494C78.5414 83.2414 88.3104 73.6899 86.1394 62.8354C86.1394 62.8354 92.3764 58.9714 95.8439 67.0819C98.3874 73.0309 94.8164 89.8304 91.7769 93.9549L85.9224 118.193C85.9224 118.193 92.1704 128.966 93.3429 147.008C94.0919 158.533 88.7519 171.369 88.7519 171.369" stroke="#263238" stroke-miterlimit="10" stroke-linecap="round" stroke-linejoin="round"/>
<path d="M74.1619 180.592C74.1619 180.592 80.7264 184.635 84.5554 191.024" stroke="#263238" stroke-miterlimit="10" stroke-linecap="round" stroke-linejoin="round"/>
<path d="M92.6019 188.236C92.6019 188.236 86.9469 189.04 81.8359 182.929C78.5599 179.011 68.6149 177.241 66.3254 167" stroke="#263238" stroke-miterlimit="10" stroke-linecap="round" stroke-linejoin="round"/>
<path opacity="0.2" d="M174.788 218.515C160.314 211.591 169.081 206.043 149.166 197.447C129.251 188.851 129.048 181.509 131.451 164.615C133.854 147.722 131.945 129.764 137.742 128.239C143.54 126.714 133.208 103.419 139.961 95.1831L173.183 159.803L174.788 218.515Z" fill="black" fill-opacity="0.7"/>
<path d="M228.726 217.842C228.044 215.897 227.353 213.774 226.821 211.852C226.13 209.338 225.59 207.348 224.317 205.03C224.117 204.657 223.899 204.266 223.658 203.848C222.303 201.435 220.449 198.126 219.363 194.067C218.636 191.331 219.349 184.596 220.044 178.078C220.535 173.388 220.999 168.961 220.867 166.452L220.826 165.561C220.485 158.998 219.776 145.336 218.303 141.555C216.881 137.914 215.549 137.369 213.122 136.396C212.872 136.287 212.613 136.187 212.336 136.069C211.427 135.687 209.877 134.888 208.091 133.965C204.064 131.879 199.055 129.283 196.51 128.938C193.152 128.493 189.911 129.152 189.375 129.27C186.239 126.861 180.903 123.762 179.317 123.703C178.012 123.639 175.176 124.453 173.804 124.88C173.486 124.98 173.24 125.057 173.118 125.098C171.972 124.248 171.013 123.611 170.391 123.307C170.323 123.275 170.259 123.248 170.204 123.225C168.441 122.498 165.773 122.471 164.319 122.512C163.878 122.53 163.537 122.557 163.378 122.571C160.637 118.348 157.933 114.144 156.76 112.299C154.311 108.418 146.725 92.4511 146.648 92.2831C146.63 92.2421 146.598 92.2151 146.548 92.2011C146.548 92.2011 146.525 92.1876 146.48 92.1781C145.889 92.0056 141.544 90.9011 139.799 95.1141C137.89 99.6956 140.617 109.763 143.276 113.417C144.557 115.18 148.048 122.357 151.598 129.788C150.684 130.633 143.408 137.36 139.872 138.614C136.977 139.637 137.654 154.476 138.199 166.393C138.404 170.793 138.576 174.579 138.526 176.851C138.426 181.251 146.43 187.314 154.188 193.172C161.201 198.481 168.45 203.967 169.3 207.952C169.537 209.075 170.205 209.984 171.005 211.007C172.341 212.707 174.059 214.711 174.791 218.515C175.004 219.651 176.836 221.142 178.272 223.578H230.844C230.403 222.441 229.576 220.283 228.726 217.842ZM155.893 138.791C158.438 144.123 160.01 147.313 160.383 147.649C160.756 147.99 160.742 149.694 160.729 151.335C160.711 152.785 160.697 154.34 160.879 155.653C160.261 156.198 156.347 159.761 155.557 162.643L152.23 158.725L151.389 146.444C151.893 145.922 155.315 142.309 155.893 138.791Z" fill="white"/>
<path opacity="0.4" d="M213.655 173.041C214.889 184.566 214.907 190.815 216.292 194.151C218.629 199.782 222.074 200.922 222.074 200.922C221.077 198.971 220.061 196.675 219.362 194.065C218.635 191.332 219.349 184.596 220.042 178.077C220.533 173.388 221.001 168.959 220.869 166.449L220.825 165.559C220.484 158.996 219.777 145.336 218.303 141.554C216.883 137.913 215.549 137.368 213.124 136.393C212.873 136.286 212.612 136.186 212.336 136.067C211.426 135.688 209.879 134.887 208.091 133.963C204.063 131.879 199.054 129.282 196.512 128.938C193.152 128.494 189.91 129.148 189.376 129.268C186.239 126.861 180.904 123.761 179.315 123.699C178.013 123.638 174.492 124.664 173.119 125.094C179.106 129.992 187.761 136.081 187.761 136.081C194.596 137.44 193.72 140.408 196.483 142.067C198.985 143.569 201.378 139.176 203.466 138.789C206.223 138.279 209.36 141.204 209.22 144.731C208.832 154.508 212.595 163.149 213.655 173.041Z" fill="#FE8428"/>
<path opacity="0.4" d="M179.106 137.327C179.106 137.327 173.689 132.836 171.095 131.314C168.501 129.793 168.098 124.641 170.138 123.386C170.209 123.342 170.288 123.316 170.39 123.308C170.325 123.277 170.26 123.246 170.203 123.224C168.439 122.496 165.775 122.47 164.319 122.513C167.34 128.099 169.713 132.385 170.361 133.323C172.543 136.477 179.106 137.327 179.106 137.327Z" fill="#FE8428"/>
<path opacity="0.4" d="M170.891 207.307C171.118 206.111 169.15 202.612 168.287 201.194C166.319 197.953 143.503 177.792 146.812 172.41C150.107 167.015 153.134 171.015 155.225 171.36C156.729 171.61 160.847 169.156 160.824 168.951C160.356 164.806 164.183 162.111 164.183 162.111C164.183 162.111 163.828 145.613 162.951 145.895C162.069 146.176 151.539 121.116 151.539 121.116C151.539 121.116 140.413 106.317 141.04 99.4136C141.667 92.5191 146.489 92.3641 146.489 92.3641L146.48 92.1776C145.889 92.0051 141.544 90.9006 139.799 95.1136C137.89 99.6951 140.617 109.762 143.276 113.416C144.558 115.18 148.048 122.356 151.598 129.787C150.685 130.633 143.408 137.359 139.872 138.614C136.977 139.636 137.654 154.476 138.2 166.393C138.404 170.792 138.577 174.578 138.527 176.851C138.427 181.25 146.43 187.313 154.189 193.172C161.202 198.48 168.451 203.966 169.301 207.952C169.537 209.074 170.205 209.983 171.005 211.006C170.873 209.556 170.773 207.938 170.891 207.307ZM155.893 138.791C158.438 144.123 160.01 147.313 160.383 147.649C160.756 147.99 160.742 149.694 160.729 151.335C160.711 152.785 160.697 154.34 160.879 155.653C160.261 156.198 156.347 159.761 155.557 162.643L152.23 158.725L151.389 146.444C151.893 145.922 155.315 142.309 155.893 138.791Z" fill="#FE8428"/>
<path d="M175.981 137.262C175.981 137.262 172.642 136.385 170.359 133.324C168.076 130.264 159.101 116.327 156.614 112.393C154.126 108.459 146.49 92.3659 146.49 92.3659C146.49 92.3659 141.79 90.7929 139.96 95.1839C138.131 99.5754 140.637 109.49 143.419 113.312C146.202 117.133 159.449 146.568 160.501 147.52C161.553 148.472 159.975 156.317 162.08 158.215" stroke="#263238" stroke-miterlimit="10" stroke-linecap="round" stroke-linejoin="round"/>
<path d="M161.072 155.725C161.072 155.725 156.221 159.95 155.652 163.032L152.053 158.797L151.202 146.378C151.202 146.378 155.545 142.029 155.783 138.156" stroke="#263238" stroke-miterlimit="10" stroke-linecap="round" stroke-linejoin="round"/>
<path d="M151.816 129.829C151.816 129.829 143.762 137.428 139.932 138.785C136.102 140.142 138.893 168.613 138.703 176.86C138.513 185.107 167.681 199.466 169.471 207.91C170.182 211.266 173.12 211.951 174.918 218.386" stroke="#263238" stroke-miterlimit="10" stroke-linecap="round" stroke-linejoin="round"/>
<path d="M163.282 122.754C163.282 122.754 167.665 122.359 170.135 123.385C172.606 124.411 182.641 133.031 185.054 134.678C187.467 136.325 191.114 136.946 191.806 138.72" stroke="#263238" stroke-miterlimit="10" stroke-linecap="round" stroke-linejoin="round"/>
<path d="M173.087 125.291C173.087 125.291 177.602 123.801 179.305 123.876C181.008 123.951 187.495 127.778 190.395 130.326C193.295 132.873 196.205 134.281 197.951 134.917" stroke="#263238" stroke-miterlimit="10" stroke-linecap="round" stroke-linejoin="round"/>
<path d="M189.338 129.461C189.338 129.461 192.832 128.624 196.491 129.117C200.151 129.61 209.342 135.017 212.27 136.237C215.197 137.457 216.602 137.681 218.138 141.622C219.675 145.564 220.384 160.544 220.694 166.462C221.003 172.38 217.921 189.338 219.191 194.11C220.461 198.882 222.766 202.558 224.162 205.112" stroke="#263238" stroke-miterlimit="10" stroke-linecap="round" stroke-linejoin="round"/>
<path d="M151.202 146.378C151.202 146.378 150.474 143.461 149.511 143.087" stroke="#263238" stroke-miterlimit="10" stroke-linecap="round" stroke-linejoin="round"/>
<path d="M152.052 158.797C152.052 158.797 152.702 162.048 153.417 163.824C154.133 165.6 153.017 168.167 153.017 168.167" stroke="#263238" stroke-miterlimit="10" stroke-linecap="round" stroke-linejoin="round"/>
<path d="M155.652 163.032C155.533 165.871 158.36 169.19 159.045 168.722" stroke="#263238" stroke-miterlimit="10" stroke-linecap="round" stroke-linejoin="round"/>
<path d="M170.037 146.378C170.037 146.378 173.069 141.469 175.981 141.229C178.893 140.99 182.25 145.119 184.048 144.732C185.846 144.346 188.101 141.703 191.12 141.219C194.139 140.735 195.554 142.188 197.952 142.308C200.35 142.428 200.589 139.228 203.466 138.791C206.343 138.353 207.302 139.812 209.22 140.161C211.138 140.51 211.62 139.02 213.175 138.156" stroke="#263238" stroke-miterlimit="10" stroke-linecap="round" stroke-linejoin="round"/>
</svg>
